<?xml version="1.0" encoding="UTF-8" standalone="no"?>
<svg
   xmlns:dc="http://purl.org/dc/elements/1.1/"
   xmlns:cc="http://creativecommons.org/ns#"
   xmlns:rdf="http://www.w3.org/1999/02/22-rdf-syntax-ns#"
   xmlns:svg="http://www.w3.org/2000/svg"
   xmlns="http://www.w3.org/2000/svg"
   xmlns:xlink="http://www.w3.org/1999/xlink"
   xmlns:sodipodi="http://sodipodi.sourceforge.net/DTD/sodipodi-0.dtd"
   xmlns:inkscape="http://www.inkscape.org/namespaces/inkscape"
   width="500"
   height="300"
   viewBox="0 0 132.29167 79.376"
   version="1.1"
   id="svg840"
   sodipodi:docname="devpluslinemin.svg"
   inkscape:version="0.92.3 (2405546, 2018-03-11)">
  <metadata
     id="metadata844">
    <rdf:RDF>
      <cc:Work
         rdf:about="">
        <dc:format>image/svg+xml</dc:format>
        <dc:type
           rdf:resource="http://purl.org/dc/dcmitype/StillImage" />
        <dc:title></dc:title>
      </cc:Work>
    </rdf:RDF>
  </metadata>
  <sodipodi:namedview
     pagecolor="#ffffff"
     bordercolor="#666666"
     borderopacity="1"
     objecttolerance="10"
     gridtolerance="10"
     guidetolerance="10"
     inkscape:pageopacity="0"
     inkscape:pageshadow="2"
     inkscape:window-width="1920"
     inkscape:window-height="1001"
     id="namedview842"
     showgrid="false"
     inkscape:zoom="2.6933333"
     inkscape:cx="255.75495"
     inkscape:cy="150"
     inkscape:window-x="-9"
     inkscape:window-y="-9"
     inkscape:window-maximized="1"
     inkscape:current-layer="svg840" />
  <defs
     id="defs826">
    <linearGradient
       id="a">
      <stop
         offset="0"
         stop-color="#00f"
         id="stop815" />
      <stop
         offset="1"
         stop-color="purple"
         id="stop817" />
    </linearGradient>
    <linearGradient
       xlink:href="#a"
       id="b"
       x1="70.730003"
       y1="201.547"
       x2="57.305"
       y2="252.13901"
       gradientUnits="userSpaceOnUse" />
    <linearGradient
       xlink:href="#a"
       id="e"
       gradientUnits="userSpaceOnUse"
       x1="70.730003"
       y1="201.547"
       x2="57.305"
       y2="252.13901"
       gradientTransform="matrix(0.71182366,0,0,0.71182366,35.22086,-118.6383)" />
    <linearGradient
       xlink:href="#a"
       id="f"
       gradientUnits="userSpaceOnUse"
       x1="70.730003"
       y1="201.547"
       x2="57.305"
       y2="252.13901"
       gradientTransform="matrix(0.99900869,0,0,0.99900869,1.7230997,-187.74173)" />
    <linearGradient
       xlink:href="#a"
       id="d"
       gradientUnits="userSpaceOnUse"
       x1="70.730003"
       y1="201.547"
       x2="57.305"
       y2="252.13901"
       gradientTransform="matrix(0.99900869,0,0,0.99900869,1.7230997,-187.74173)" />
    <linearGradient
       xlink:href="#a"
       id="c"
       gradientUnits="userSpaceOnUse"
       x1="70.730003"
       y1="201.547"
       x2="57.305"
       y2="252.13901"
       gradientTransform="matrix(0.99900869,0,0,0.99900869,1.7230997,-187.74173)" />
    <linearGradient
       xlink:href="#a"
       id="g"
       x1="104.756"
       y1="263.20801"
       x2="28.684"
       y2="268.12"
       gradientUnits="userSpaceOnUse"
       gradientTransform="matrix(0.9990087,0,0,0.9990087,-0.89330404,-187.74173)" />
  </defs>
  <g
     id="g855"
     transform="translate(1.653123,-9.281372)">
    <path
       d="m 4.2465957,58.548877 q 1.3286815,-0.954053 2.6873334,-1.184824 1.387623,-0.259742 2.9191034,-0.404598 L 17.078862,27.709479 h -0.66434 q -0.520484,-0.02897 -1.184825,-0.08691 -0.636368,-0.08591 -1.271738,-0.259742 Q 13.321591,27.189 13.003906,26.871315 L 12.628279,26.351826 Q 12.42548,26.004171 12.22368,25.628544 12.020881,25.223946 11.876025,24.819347 11.732168,24.414748 11.732168,24.01015 q 0,-0.664341 0.549455,-1.09891 0.577427,-0.461542 1.386624,-0.722283 0.839167,-0.288713 1.792221,-0.404598 0.954054,-0.114886 1.734279,-0.114886 3.641387,0 6.733319,0.230771 3.121902,0.202798 5.810234,0.925082 2.717304,0.722283 5.086953,2.051963 2.39862,1.328682 4.566468,3.555472 0.809197,0.838169 1.531481,1.878137 0.752253,1.040967 1.300709,2.283734 0.578426,1.213795 0.925082,2.62939 0.346656,1.388623 0.346656,2.948075 0,0.839167 -0.08591,1.76325 -0.08691,0.925083 -0.23177,1.589423 -0.838168,3.352673 -2.369648,5.954092 -1.503508,2.572447 -3.526501,4.59544 -1.994021,1.99502 -4.392641,3.468558 -2.399619,1.474537 -4.972066,2.572448 -2.572448,1.098909 -5.23081,1.908106 -2.659361,0.809197 -5.173866,1.444567 h 0.02897 q -1.126881,0.346656 -2.427591,0.607397 -1.300709,0.259742 -2.63039,0.43357 -1.328681,0.172828 -2.6593608,0.288713 -1.3007093,0.08691 -2.4565624,0.08691 -1.271738,0 -2.1378786,-0.144856 -0.8681385,-0.173828 -1.4165943,-0.43357 -0.5204835,-0.289712 -0.7522535,-0.635369 -0.230771,-0.347655 -0.230771,-0.752254 0,-0.577427 0.3176847,-1.184824 0.346656,-0.63537 1.0989096,-1.184825 z M 16.963976,50.254108 q -0.347655,1.473538 -0.723282,3.03399 -0.375627,1.56145 -0.722283,3.063959 L 16.182752,56.2082 q 0.636368,-0.144856 1.705307,-0.43357 1.09891,-0.289712 2.514505,-0.723282 1.416595,-0.43357 2.977046,-1.039968 1.560452,-0.607397 3.294731,-1.445566 1.76325,-0.867139 3.468558,-1.936078 1.705308,-1.09891 3.266758,-2.370648 1.560452,-1.271738 2.745276,-2.717304 1.184825,-1.473538 1.878137,-3.06296 0.723282,-1.618394 0.723282,-3.352674 0,-1.76325 -0.694311,-3.323701 -0.693312,-1.589423 -1.878136,-2.919104 -1.156853,-1.358652 -2.717304,-2.39862 -1.53148,-1.068939 -3.207817,-1.821193 -1.676337,-0.751254 -3.410616,-1.126881 -1.705308,-0.404599 -3.236788,-0.404599 -2.167849,5.606437 -3.700328,11.3877 -1.53148,5.780264 -2.947076,11.734356 z"
       id="path828"
       inkscape:connector-curvature="0"
       style="font-weight:400;font-size:medium;line-height:154.20785522px;font-family:'MV Boli';-inkscape-font-specification:'MV Boli';letter-spacing:0;word-spacing:0;fill:url(#c);stroke-width:0.30869368" />
    <path
       d="m 46.385781,51.727646 q 0,-1.242767 0.66534,-2.109906 0.664341,-0.86714 1.76325,-1.155853 0.317685,-0.636369 0.982026,-1.705308 0.66534,-1.09891 1.648364,-2.369649 0.982026,-1.271738 2.224793,-2.543476 1.271738,-1.300709 2.775246,-2.341676 1.53148,-1.06894 3.265759,-1.734279 1.76325,-0.664341 3.728301,-0.664341 1.676336,0 2.919103,0.404598 1.242767,0.404599 2.051964,1.126882 0.809197,0.723282 1.213795,1.734279 0.404599,0.983025 0.404599,2.138878 0,0.983024 -0.259742,1.878136 -0.404599,1.618394 -1.502509,2.833189 -1.09891,1.213795 -2.601419,2.137878 -1.474537,0.89711 -3.236788,1.503509 -1.735278,0.607397 -3.49753,1.011995 -1.734279,0.404599 -3.352673,0.63537 -1.618394,0.202799 -2.804217,0.318684 -0.259742,0.519484 -0.462541,1.328681 -0.172829,0.781225 -0.172829,1.53248 0,1.676336 1.328682,2.601418 1.330679,0.924083 3.671357,0.924083 1.358652,0 2.601418,-0.288713 1.242767,-0.317685 2.340678,-0.780226 1.127881,-0.491512 2.109906,-1.040967 0.983025,-0.577427 1.792222,-1.126882 1.039968,-0.693312 1.96505,-1.155853 0.954053,-0.491512 1.676336,-0.491512 0.723283,0 0.925082,0.375627 0.202799,0.346656 0.202799,0.751254 0,0.231771 -0.02997,0.462542 0,0.202798 -0.02797,0.346656 -0.144857,0.752253 -0.578426,1.503508 -0.43357,0.751254 -1.09891,1.300709 -3.005018,2.369649 -6.183864,3.381644 -3.150873,1.010997 -6.735316,1.010997 -0.693312,0 -1.647366,-0.08691 -0.924083,-0.08591 -1.936078,-0.346656 -1.011996,-0.259742 -1.994022,-0.751254 -0.983024,-0.491512 -1.76325,-1.300709 -0.751255,-0.809198 -1.242767,-1.994022 -0.462541,-1.184824 -0.462541,-2.861161 0,-1.358652 0.375627,-3.034988 -0.375627,-0.05794 -0.722283,-0.375627 -0.318684,-0.346656 -0.318684,-0.983025 z M 64.478828,43.72159 q 0.05794,-0.143857 0.05794,-0.259742 v -0.259742 q 0,-0.781225 -0.577427,-1.156852 -0.578426,-0.404599 -1.387623,-0.404599 -1.271738,0 -2.514505,0.66534 -1.213795,0.664341 -2.312705,1.676337 -1.068939,0.982025 -1.907108,2.137878 -0.838168,1.127881 -1.300709,2.052963 2.080935,-0.173827 3.816213,-0.549455 1.73328,-0.404598 3.005018,-0.983024 1.30071,-0.606398 2.080936,-1.328682 0.809197,-0.752253 1.039968,-1.590422 z m -3.352674,-7.832228 z"
       id="path830"
       inkscape:connector-curvature="0"
       style="font-weight:400;font-size:medium;line-height:154.20785522px;font-family:'MV Boli';-inkscape-font-specification:'MV Boli';letter-spacing:0;word-spacing:0;fill:url(#d);stroke-width:0.30869368" />
    <path
       d="m 119.82791,46.615719 q -1.17384,5.540502 -1.17384,7.332723 0,0.576428 -0.74126,0.947061 -0.72029,0.369633 -1.46255,0.369633 -0.82319,0 -1.33867,-0.410593 -0.51449,-0.41259 -0.51449,-1.029978 0,-2.203813 1.17383,-7.08397 -2.90312,0.06094 -5.02501,0.287714 -1.23578,0.123877 -1.66835,0.123877 -1.17383,0 -1.17383,-2.059956 0,-0.803203 1.13287,-1.276733 1.15386,-0.47353 7.68238,-0.576428 2.05796,-6.981073 2.6154,-7.805255 0.55545,-0.844162 1.62639,-0.844162 1.68833,0 1.68833,0.803203 0,0.432571 -0.3087,1.318691 -0.30869,0.885122 -1.75026,6.403646 3.89214,-0.122878 6.40464,-0.122878 1.60641,0 1.60641,1.606406 0,1.894121 -2.36765,1.894121 -2.67734,0 -6.40564,0.123877 z"
       id="path832"
       inkscape:connector-curvature="0"
       style="font-weight:400;font-size:medium;line-height:154.20785522px;font-family:'MV Boli';-inkscape-font-specification:'MV Boli';letter-spacing:0;word-spacing:0;fill:url(#e);stroke-width:0.30869368" />
    <path
       d="m 85.318149,64.040428 q -0.144856,0.02897 -0.259742,0.02897 -0.08691,0.02897 -0.202799,0.02897 -0.606398,0 -1.068939,-0.259743 -0.462541,-0.260741 -0.809197,-0.665339 -0.318684,-0.375628 -0.491513,-0.809197 -0.173827,-0.462541 -0.173827,-0.86714 Q 82.167275,60.889552 81.907533,59.76267 81.647791,58.635788 81.301135,57.219194 80.982451,55.8026 80.606824,54.184205 l -0.693312,-3.29473 Q 79.566856,49.242112 79.277143,47.681661 78.98843,46.12021 78.78663,44.8205 q -0.144856,-0.925082 -0.318684,-1.734279 -0.172828,-0.809197 -0.317684,-1.532479 -0.144857,-0.751255 -0.259743,-1.444567 -0.08691,-0.723282 -0.08691,-1.445566 0,-0.809197 0.172828,-1.53148 0.173828,-0.751254 0.491512,-1.300709 0.346656,-0.578426 0.809197,-0.925082 0.491513,-0.346656 1.06894,-0.346656 1.156852,0 1.821192,0.578426 0.694312,0.549455 1.06894,1.502509 0.376626,0.925082 0.521482,2.167849 0.172829,1.242766 0.259743,2.572447 0.115885,1.676337 0.375627,3.641387 0.259742,1.936079 0.578426,3.902128 0.317685,1.936079 0.635369,3.756272 0.346656,1.793221 0.607398,3.179845 0.867139,-0.896111 3.034988,-3.988043 1.068939,-1.503508 1.96505,-2.775246 0.925082,-1.271738 1.734279,-2.427591 0.809197,-1.184824 1.531481,-2.340677 0.723282,-1.156852 1.387623,-2.399619 0.693312,-1.242767 1.328681,-2.629391 0.66534,-1.416594 1.33068,-3.121902 0.2018,-0.346656 0.490513,-0.722283 0.289713,-0.404599 0.66534,-0.694312 0.404592,-0.317684 0.896112,-0.519484 0.51948,-0.202799 1.15585,-0.202799 1.32868,0 1.79222,0.66534 0.49151,0.664341 0.49151,1.676337 0,1.358651 -0.49151,2.658362 -0.46254,1.271738 -1.50351,2.746275 L 88.468023,60.918526 q -0.404598,0.86714 -0.838168,1.445566 -0.432571,0.578426 -0.866141,0.925082 -0.404598,0.346656 -0.781224,0.519484 -0.375628,0.173828 -0.664341,0.23177 z"
       id="path834"
       inkscape:connector-curvature="0"
       style="font-weight:400;font-size:medium;line-height:154.20785522px;font-family:'MV Boli';-inkscape-font-specification:'MV Boli';letter-spacing:0;word-spacing:0;fill:url(#f);stroke-width:0.30869368" />
    <path
       style="fill:none;stroke:url(#g);stroke-width:2.64337683;stroke-linecap:round"
       inkscape:connector-curvature="0"
       id="path838"
       d="M 102.64396,70.199317 C 52.030181,64.292177 23.875119,69.002504 1.7240987,74.942609" />
  </g>
</svg>
