<?xml version="1.0" encoding="UTF-8" standalone="no"?>
<svg
   xmlns:dc="http://purl.org/dc/elements/1.1/"
   xmlns:cc="http://creativecommons.org/ns#"
   xmlns:rdf="http://www.w3.org/1999/02/22-rdf-syntax-ns#"
   xmlns:svg="http://www.w3.org/2000/svg"
   xmlns="http://www.w3.org/2000/svg"
   xmlns:xlink="http://www.w3.org/1999/xlink"
   xmlns:sodipodi="http://sodipodi.sourceforge.net/DTD/sodipodi-0.dtd"
   xmlns:inkscape="http://www.inkscape.org/namespaces/inkscape"
   width="500"
   height="300"
   viewBox="0 0 132.292 79.376"
   version="1.1"
   id="svg825"
   sodipodi:docname="devplus-spray.svg"
   inkscape:version="0.92.3 (2405546, 2018-03-11)">
  <metadata
     id="metadata829">
    <rdf:RDF>
      <cc:Work
         rdf:about="">
        <dc:format>image/svg+xml</dc:format>
        <dc:type
           rdf:resource="http://purl.org/dc/dcmitype/StillImage" />
        <dc:title></dc:title>
      </cc:Work>
    </rdf:RDF>
  </metadata>
  <sodipodi:namedview
     pagecolor="#ffffff"
     bordercolor="#666666"
     borderopacity="1"
     objecttolerance="10"
     gridtolerance="10"
     guidetolerance="10"
     inkscape:pageopacity="0"
     inkscape:pageshadow="2"
     inkscape:window-width="1920"
     inkscape:window-height="1001"
     id="namedview827"
     showgrid="false"
     inkscape:zoom="1"
     inkscape:cx="250"
     inkscape:cy="110"
     inkscape:window-x="-9"
     inkscape:window-y="-9"
     inkscape:window-maximized="1"
     inkscape:current-layer="svg825"
     showborder="true" />
  <defs
     id="defs821">
    <inkscape:perspective
       sodipodi:type="inkscape:persp3d"
       inkscape:vp_x="0 : 39.688 : 1"
       inkscape:vp_y="0 : 1000 : 0"
       inkscape:vp_z="132.292 : 39.688 : 1"
       inkscape:persp3d-origin="66.146 : 26.458667 : 1"
       id="perspective901" />
    <linearGradient
       id="a">
      <stop
         offset="0"
         stop-color="#00f"
         id="stop815" />
      <stop
         offset="1"
         stop-color="purple"
         id="stop817" />
    </linearGradient>
    <linearGradient
       xlink:href="#a"
       id="b"
       x1="-17.487"
       y1="1.911"
       x2="142.235"
       y2="68.767"
       gradientUnits="userSpaceOnUse"
       gradientTransform="translate(5.925 4.174) scale(.17743)" />
    <linearGradient
       inkscape:collect="always"
       xlink:href="#a"
       id="linearGradient1053"
       x1="-7.2746325"
       y1="40.587372"
       x2="161.12962"
       y2="40.587372"
       gradientUnits="userSpaceOnUse"
       gradientTransform="matrix(0.77872362,0,0,0.77872362,6.2407604,8.0816881)" />
  </defs>
  <path
     style="fill:url(#linearGradient985);fill-opacity:1;stroke:none;stroke-width:14.55226707;stroke-linecap:round;stroke-linejoin:round;stroke-miterlimit:4;stroke-dasharray:none;stroke-opacity:1;paint-order:normal"
     id="path993"
     d="m -8.7178587,21.33443 c 0.016161,-0.02164 0.5353387,-0.717972 0.5526763,-0.736372 0.086561,-0.09187 0.2041241,-0.150007 0.2940974,-0.238535 0.3152902,-0.310228 0.2885333,-0.374995 0.7138096,-0.539635 0.4843984,-0.408028 -0.084448,0.116382 0.3373678,-0.44574 0.044703,-0.05957 0.1313178,-0.07868 0.1748476,-0.139114 0.055565,-0.07714 0.055955,-0.186063 0.1137461,-0.261553 0.3833903,-0.500806 -0.057393,0.443988 0.2653047,-0.349807 0.3720319,-0.104337 0.2551912,-0.2629 0.4359291,-0.494258 0.041281,-0.05284 0.132914,-0.04494 0.1771373,-0.09535 0.3166161,-0.360885 -0.087106,-0.164065 0.2940383,-0.306282 0.1995331,-0.159242 0.4088399,-0.340239 0.5567695,-0.551049 0.065105,-0.09278 0.092307,-0.210578 0.1657972,-0.296867 0.1129359,-0.132604 0.2644377,-0.159898 0.4175251,-0.209465 0.043024,-0.07607 0.086049,-0.152149 0.1290733,-0.228224 0.055455,-0.03275 0.1279211,-0.04659 0.1663658,-0.09826 0.053877,-0.07242 0.042361,-0.180352 0.095306,-0.253451 0.034902,-0.04819 0.1199752,-0.04161 0.1538376,-0.09053 0.2661059,-0.384462 -0.099444,-0.169437 0.2405479,-0.326937 0.2882362,-0.825202 -0.1149764,0.121463 0.2464641,-0.301989 0.055065,-0.06451 0.033192,-0.175 0.089955,-0.238025 0.037992,-0.04218 0.1257237,-0.0029 0.1644176,-0.04441 0.3077738,-0.33042 -0.1207266,-0.18186 0.2599569,-0.271157 0.510849,-0.40927 -0.2463354,0.240036 0.2753428,-0.400494 0.042067,-0.05165 0.134367,-0.03911 0.1792746,-0.08831 0.059764,-0.06548 0.056519,-0.174759 0.1185974,-0.238047 0.4267964,-0.435118 -0.076801,0.449625 0.2901437,-0.29068 C 4.5307907,5.9302893 -38.881487,49.821292 21.113127,0.25254504 63.273584,-34.581266 -10.282836,16.657119 -0.65272215,12.917735 c 0.38207289,0.004 0.36671651,-0.276603 0.5448895,-0.52988 0.17195836,-0.244443 0.21318107,-0.158133 0.43016164,-0.351806 0.0764824,-0.06827 0.1349318,-0.154378 0.20239769,-0.231568 0.72684652,-0.234412 -0.25389649,0.123185 0.4158087,-0.265208 0.0625666,-0.03628 0.15178962,-0.0013 0.21342192,-0.03914 0.067366,-0.04137 0.08213,-0.142966 0.1497612,-0.183904 0.4070925,-0.246422 -0.00126,0.281085 0.3194107,-0.2194 0.4210583,-0.0559 -0.055035,0.05771 0.289996,-0.233232 0.044833,-0.03781 0.1301445,0.01064 0.1735656,-0.02878 0.059533,-0.05405 0.041274,-0.164566 0.099957,-0.219534 0.3823439,-0.35814 -0.040524,0.457945 0.2661145,-0.258148 0.3919396,-0.08299 -0.059072,0.06069 0.2636812,-0.262943 0.040486,-0.0406 0.1275826,0.0038 0.168021,-0.0368 C 2.9425495,9.99901 2.9217705,9.8878859 2.9798215,9.8294697 3.370008,9.43683 2.9224095,10.329876 3.2435406,9.5643509 3.2718266,9.4661679 3.2647336,9.3497211 3.3283976,9.2698019 3.3664136,9.2220779 3.4586832,9.2691669 3.5076611,9.2327849 3.6787668,8.9759895 3.5653322,9.0846733 3.8279062,8.9318938 11.357593,4.5507219 18.868004,0.13626921 26.416079,-4.2131466 33.834526,-8.4878673 11.616555,4.4008217 4.2167938,8.7078058 4.2721636,8.6530422 4.3155349,8.5825843 4.3829032,8.5435152 11.918342,4.1734552 19.443635,-0.21469288 27.018654,-4.5157772 c 0.08743,-0.04964 0.203917,0.068383 0.299356,0.036776 0.17373,-0.2383095 0.06001,-0.1573216 0.340364,-0.2440751 C 20.212511,-0.45983949 12.766648,3.8033974 5.3207848,8.066634 12.498505,2.7830824 5.2562138,8.104784 28.152255,-5.0536937 c 0.05934,-0.034105 0.110144,-0.081286 0.165218,-0.1219285 0.08292,-0.013314 0.171653,-0.00668 0.248772,-0.039944 0.798277,-0.344313 -0.515766,0.034258 0.450367,-0.2159806 0.100405,-0.0078 0.210449,0.020233 0.301218,-0.023392 0.622581,-0.299202 -0.309569,-0.1319824 0.389414,-0.2912498 0.423259,-0.096442 0.414131,0.2046485 0.689394,-0.1911684 0.111181,-0.1700919 0.32189,-0.00246 0.449236,-0.086339 0.06464,-0.042577 0.03747,-0.1573682 0.09031,-0.2139331 0.156283,-0.1673064 0.515515,-0.073243 0.699641,-0.051375 0.0074,0.00108 0.546054,0.081102 0.554497,0.0782 0.06891,-0.023681 0.07222,-0.1305042 0.128414,-0.1768894 0.178819,-0.1476158 0.465437,-0.1059111 0.674244,-0.099426 0.321597,0.085018 0.763499,-0.018622 1.073454,0.078427 0.221057,0.069215 0.415928,0.2046633 0.629494,0.2943706 0.358809,0.3306178 0.834319,0.5598832 1.169971,0.9105865 0.743862,0.7772146 -0.01035,0.07185 0.467032,0.5098672 0.335671,0.402912 0.684071,0.745356 0.958246,1.1976312 0.383685,0.6469522 0.469366,1.3655219 0.519072,2.0989187 0.03366,0.58409582 0.03881,1.16926933 0.04174,1.75416269 -0.01868,0.59839998 -0.02305,1.19661081 -0.01633,1.79551401 0.0077,0.550135 0.01159,1.1003057 0.01373,1.6504861 0.07543,0.302679 0.08726,0.5965805 0.01752,0.8992492 -0.01527,0.066207 -0.05159,0.1282269 -0.0558,0.1960381 -0.0469,0.7564744 0.09585,0.02819 -0.03009,0.5837303 -0.208024,0.3106499 -0.125539,0.2581297 -0.173204,0.6331048 -0.0089,0.07024 -0.05905,0.1308966 -0.06849,0.2010692 -0.07113,0.5286058 0.0879,0.1906101 -0.103154,0.5213143 -0.04381,0.02794 -0.109819,0.036566 -0.131428,0.08382 -0.0408,0.089215 -0.01934,0.1956867 -0.04023,0.2915415 -0.161094,0.7397401 0.02776,-0.030741 -0.241721,0.4209634 -0.280364,0.4699494 0.09841,0.1421167 -0.24678,0.3983268 -0.303031,0.8725452 0.112637,-0.1338237 -0.251082,0.3544268 -0.185769,0.2493719 0.01955,0.2533571 -0.244452,0.4507567 -0.404738,0.3026343 -0.0095,-0.2726891 -0.32764,0.2883776 -0.192434,0.089711 -0.190775,0.3291434 -0.325701,0.4598071 -0.05316,0.05148 -0.148878,0.034679 -0.206801,0.080734 -0.09622,0.076506 -0.240321,0.3618207 -0.2933,0.4570717 -7.576841,4.300811 -15.153683,8.601621 -22.730525,12.902431 -0.104521,-0.01861 -0.210274,-0.08036 -0.313564,-0.05582 -0.07126,0.01693 -0.08389,0.124904 -0.145292,0.164832 -0.291746,0.18972 -0.132798,-0.04874 -0.459261,0.07123 -0.115419,0.04241 -0.23949,0.269056 -0.294434,0.352856 -0.08039,0.03413 -0.160785,0.06826 -0.241177,0.102385 -0.09692,0.01465 -0.198973,0.0096 -0.290773,0.04396 -0.08245,0.03088 -0.135324,0.120881 -0.219373,0.147083 -0.08726,0.0272 -0.6057577,0.0255 -0.6851583,0.04533 -0.099804,0.02492 -0.1844333,0.09117 -0.27665,0.136752 -0.3171378,0.112641 -0.6260367,0.0617 -0.9000262,0.280821 -0.078182,0.06253 -0.1272186,0.157908 -0.2089327,0.215741 -1.0019792,0.709159 0.4207896,-0.46478 -0.5053246,0.322134 -0.2804097,0.208843 -0.6348241,0.103234 -0.9400889,0.181074 -0.087644,0.02235 -0.1532872,0.09846 -0.2377949,0.130696 -0.1983304,0.07566 -0.3812355,0.07708 -0.5893787,0.09577 -0.8422635,0.55548 0.4512394,-0.265789 -0.4933755,0.222367 -0.080232,0.04146 -0.1301936,0.128443 -0.2092473,0.172109 C 5.1198065,25.802325 4.7859955,25.79386 4.4929959,25.803609 3.9804147,26.355536 4.6673661,25.667883 4.0970188,26.082323 3.7564172,26.32982 4.1494861,26.21523 3.7375503,26.419255 2.984493,26.792231 3.8841427,26.205478 3.1905404,26.686394 10.547975,22.45825 32.322985,9.2941629 25.26284,14.00196 17.931274,18.890744 11.016981,25.745279 2.3135219,27.124356 c -0.1151573,0.01826 -0.2358166,5.3e-4 -0.3484322,0.0307 -0.093745,0.02514 -0.1729233,0.08819 -0.2593849,0.132286 -0.099924,0.02365 -0.1998481,0.04732 -0.2997721,0.07098 -0.1058032,0.0095 -0.2206171,-0.01521 -0.3174096,0.02857 -0.28109458,0.127126 -0.16278449,0.438103 -0.52892249,0.557905 -0.0890507,0.02914 -0.35881077,0.09059 -0.27766466,0.04374 C 7.6884302,23.712955 15.128451,19.49571 22.551709,15.249294 -38.878463,50.670755 23.242051,14.860094 22.142711,15.459015 14.495846,19.625031 6.857315,23.833369 -0.48308453,28.518318 -7.6781601,33.110519 14.330754,20.033921 21.706296,15.737553 c 0.07424,-0.04325 -0.177244,-0.02492 -0.2577,0.0052 -0.07784,0.02916 -0.126239,0.108184 -0.189359,0.162277 -0.13902,0.249068 -0.364575,0.395228 -0.639116,0.469096 -0.08422,0.02266 -0.181167,-0.0065 -0.259746,0.03138 -0.139004,0.06692 -0.273828,0.317753 -0.346877,0.431655 -60.237675,34.716493 -0.508175,0.378815 -0.370716,0.299276 0.06881,-0.03982 -0.157943,0.02167 -0.234724,0.04228 -0.317347,0.08522 -0.483099,0.214552 -0.689302,0.463271 -0.07609,0.03389 -0.148644,0.07723 -0.228271,0.101682 -0.07256,0.02229 -0.155148,0.0068 -0.224611,0.03742 -0.291471,0.128378 -0.286304,0.459818 -0.496631,0.668748 -0.05625,0.05587 -0.135187,0.08286 -0.20278,0.124287 -0.06399,0.06419 -0.121572,0.13547 -0.191968,0.192556 -0.06083,0.04933 -0.14936,0.06418 -0.199158,0.124623 -0.301229,0.365596 -0.04018,0.686409 -0.5949,0.932953 -0.07209,0.188462 -0.301896,0.123324 -0.417997,0.232626 -0.06738,0.06343 -0.08526,0.164477 -0.134183,0.243026 -0.157977,0.253667 -0.281843,0.324348 -0.550841,0.427656 -0.425729,0.127856 -0.53706,0.463918 -0.606924,0.864336 -0.05715,0.503715 -0.04791,1.012052 -0.0464,1.518164 0.003,0.531056 0.0054,1.062115 0.0066,1.593179 10e-4,0.529646 0.0011,1.059295 0.0011,1.588942 -0.133771,0.406262 0.114793,0.907003 0.227385,1.296998 0.03333,0.12216 0.320806,1.332218 0.227117,1.361981 -0.02826,0.009 -0.02972,-0.05132 -0.04458,-0.07697 -0.186193,-0.434523 -0.03704,-0.870358 0.0067,-1.31334 -7.4558771,4.204359 -14.91709633,8.399256 -22.3676302,12.613077 -0.082404,0.04661 0.1756379,-0.07091 0.261623,-0.110521 0.7972544,-0.367267 -0.2692513,0.111894 0.5473185,-0.300755 0.085205,-0.04306 0.1886198,-0.05097 0.2653484,-0.107772 0.080749,-0.05978 0.1286502,-0.154354 0.1929755,-0.231529 0.2076045,-0.528827 0.4502193,-0.433882 0.8265431,-0.693736 0.4628367,-0.319589 -0.015074,-0.05914 0.4486045,-0.292826 0.2902564,-0.186631 0.3678276,-0.517904 0.5503363,-0.778054 0.049825,-0.07102 0.1408284,-0.105387 0.192748,-0.174892 0.3196461,-0.427913 -0.050086,-0.147851 0.3195397,-0.385449 0.086811,-0.169008 0.2969224,-0.192966 0.4140155,-0.323095 0.075638,-0.08406 0.099915,-0.204766 0.1697125,-0.293734 0.054252,-0.06915 0.1371051,-0.110817 0.1976541,-0.174526 0.1116725,-0.117506 0.2856747,-0.365363 0.3782713,-0.492219 0.557218,-0.549242 -0.056041,0.09846 0.436423,-0.57388 0.058967,-0.08051 0.1435206,-0.139025 0.2091505,-0.214199 0.241001,-0.276046 0.4304244,-0.580659 0.6159467,-0.894957 0.52593871,-0.484789 0.98786184,-1.033914 1.47297187,-1.55868 0.45273542,-0.245235 0.54686223,-0.80243 0.93394673,-1.116518 0.1904554,-0.15454 0.4129113,-0.266347 0.6046214,-0.419328 0.093867,-0.08647 0.1958659,-0.164864 0.2816008,-0.259401 0.086443,-0.09532 0.1420773,-0.216699 0.2328695,-0.307883 0.086803,-0.08718 0.2046088,-0.138385 0.2947917,-0.22206 0.1076068,-0.09984 0.1881245,-0.226502 0.2959735,-0.326085 1.0009086,-0.924185 -0.347832,0.471242 0.6909316,-0.633211 0.9264192,-0.730616 1.6571748,-1.668764 2.5525977,-2.429252 0.8604994,-0.643041 1.6614379,-1.36055 2.5087278,-2.021883 0.10956,-0.103723 0.2092041,-0.219042 0.3286798,-0.311169 0.1114831,-0.08596 0.2465072,-0.137429 0.3603988,-0.220176 0.4936759,-0.358675 0.9910384,-0.768514 1.4288754,-1.191796 0.570997,-0.213202 0.842319,-0.769481 1.25974,-1.168826 0.194951,-0.186509 0.443461,-0.350529 0.662846,-0.50569 0.108746,-0.07341 0.223758,-0.138291 0.326239,-0.220217 0.09862,-0.07884 0.183344,-0.173627 0.275015,-0.260441 0.103806,-0.08987 0.203989,-0.18411 0.311418,-0.269619 0.362157,-0.288263 0.713304,-0.465545 1.144029,-0.626466 0.623864,-0.442841 1.261067,-0.86241 1.856936,-1.343357 0.498519,-0.337554 0.865455,-0.821912 1.296736,-1.228999 0.225381,-0.212737 0.479687,-0.393005 0.709,-0.601497 0.101103,-0.08223 0.212705,-0.153018 0.30331,-0.246689 0.150928,-0.156035 0.34331,-0.496085 0.473269,-0.658205 0.236926,-0.295558 0.51407,-0.520017 0.835668,-0.712571 0.257476,-0.207241 0.531307,-0.420245 0.737496,-0.682213 0.07471,-0.09492 0.116839,-0.213749 0.196765,-0.304326 0.123774,-0.140268 0.292791,-0.233306 0.431634,-0.358676 0.188195,-0.268156 0.493722,-0.433126 0.712802,-0.663377 0.102114,-0.107321 0.166695,-0.245937 0.264951,-0.356803 0.214184,-0.241675 0.459446,-0.454224 0.678628,-0.691377 0.369493,-0.364606 0.657828,-0.803573 1.002597,-1.188343 0.289236,-0.322796 0.640733,-0.57763 0.936088,-0.896634 0.08672,-0.1305791 0.349976,-0.5456884 0.472792,-0.6593011 0.08001,-0.074016 0.194539,-0.1016933 0.27887,-0.1707486 0.288814,-0.236499 0.463425,-0.5651407 0.626127,-0.8907657 0.08424,-0.116026 0.158003,-0.2404423 0.252733,-0.3480778 0.613973,-0.6976177 -0.08204,0.2334525 0.514513,-0.5090568 0.09235,-0.1149396 0.161921,-0.2472078 0.25618,-0.3605837 0.201632,-0.2423696 0.509727,-0.5129803 0.7372,-0.7239012 0.977328,-0.8916727 1.966408,-1.7742285 2.896959,-2.7146764 0.611659,-0.6759102 1.296705,-1.2544489 2.022382,-1.8019332 0.08208,-0.089308 0.152529,-0.1909148 0.246248,-0.2679232 C 33.836439,1.4995774 34.132083,1.4207569 34.33781,1.2030593 34.743453,0.77380922 34.302787,1.0665027 34.740979,0.81507096 40.309906,-7.4995345 -2.6428231,22.236181 57.676462,-12.742627 c 0.0654,-0.03792 0.219906,-0.20386 0.154411,-0.166109 -22.390576,12.90535014 -30.674951,11.5939473 -21.972129,12.91737493 0.05227,-0.05596471 0.123562,-0.09891445 0.156825,-0.16789414 0.03901,-0.0808803 -0.02635,-0.21990257 0.05164,-0.26438628 3.028425,-1.72709811 20.4486,-21.07954351 24.103883,-10.65241451 0.168518,0.832926 0.101731,1.6871088 0.0798,2.530237 5.3e-4,0.9568928 -0.01439,1.9320124 -0.225954,2.8689723 -0.198387,0.6363603 -0.358642,1.2800507 -0.389887,1.9461003 0.02233,0.2441317 -0.209664,0.3793747 -0.282711,0.5754014 -0.08579,0.2302253 -0.163782,0.6240991 -0.184636,0.8654257 -0.03148,0.07048 -0.06296,0.1409604 -0.09444,0.2114406 -0.03935,0.047078 -0.09103,0.086144 -0.118046,0.1412346 -0.04205,0.085759 -0.04675,0.1861679 -0.08534,0.2735406 -0.03016,0.068301 -0.09595,0.1186845 -0.11922,0.1896333 -0.03868,0.1179635 -0.07861,0.61879474 -0.08819,0.71954921 -0.06251,0.0348097 -0.134526,0.0563613 -0.18752,0.10442908 -0.06731,0.0610568 -0.103732,0.15008531 -0.166026,0.216256 -0.102429,0.10880505 -0.271799,0.15433528 -0.347577,0.28312906 -0.100709,0.36056072 -0.02418,0.20835232 -0.203541,0.46879363 -0.03127,0.17047272 -0.06647,0.45373989 -0.161088,0.60790312 -0.0375,0.0611006 -0.131823,0.0754699 -0.163414,0.1398236 -0.05982,0.1218466 -0.03698,0.274285 -0.09911,0.3949633 -0.01392,0.027023 -0.445427,0.370923 -0.450626,0.3751226 -0.227066,0.2842835 -0.630309,0.4801658 -0.870649,0.7359828 -0.108361,0.1153407 -0.164504,0.2725555 -0.269968,0.3905535 -0.197416,0.2208811 -0.44622,0.3899102 -0.663711,0.5910569 -0.382211,0.5267257 -0.967342,0.8378756 -1.416364,1.2942652 -0.707092,0.718693 0.07588,0.028511 -0.678839,0.6650669 -0.110134,0.1065715 -0.222134,0.2112515 -0.330405,0.3197143 -0.3099,0.3104438 -0.313575,0.3099726 -0.564708,0.6620538 -0.176339,0.2472227 -0.230452,0.3993288 -0.476721,0.5810196 -0.07634,0.056323 -0.17041,0.083436 -0.255615,0.1251546 -0.08209,0.049388 -0.172389,0.08717 -0.246261,0.1481637 -0.338462,0.2794504 -0.175596,0.2434171 -0.485141,0.551962 -0.39637,0.3950908 -0.132241,0.060473 -0.604978,0.347121 -0.12072,0.073201 -0.218604,0.1787169 -0.327907,0.2680753 -0.284497,0.1782176 -0.452896,0.4830585 -0.711262,0.6881925 -0.138157,0.1096913 -0.301854,0.1826648 -0.451869,0.2754808 -0.498455,0.308398 -1.009353,0.5860547 -1.504919,0.8994207 -0.731423,0.287328 -1.272926,0.862089 -1.855242,1.362501 -0.33639,0.289075 -0.696096,0.549882 -1.041098,0.828618 -0.463183,0.311392 -0.898203,0.666041 -1.317623,1.033851 -0.139125,0.122003 -0.260774,0.264492 -0.40867,0.375699 -0.137061,0.103062 -0.772427,0.458188 -0.931253,0.548457 -1.077812,0.537709 -1.996362,1.316747 -2.950765,2.038308 -1.175564,0.963229 -2.398553,1.85855 -3.62224,2.758722 -1.096823,0.867091 -2.166737,1.768596 -3.284084,2.609277 -0.611221,0.555855 -1.344177,0.956004 -1.969088,1.493727 -0.286331,0.246381 -0.551079,0.516816 -0.829868,0.771699 -0.637427,0.618714 -1.361664,1.129405 -1.964559,1.781213 -0.672242,0.569869 -0.939944,1.311741 -1.604353,1.904709 -0.655016,0.210492 -0.544242,1.029065 -0.984405,1.424961 -0.06123,0.05507 -0.147417,0.07346 -0.221125,0.110187 -0.560282,0.02167 -0.425282,0.426492 -0.656553,0.763679 -0.07577,0.110467 -0.32887,0.151637 -0.430821,0.178707 -0.07406,0.06352 -0.160811,0.114709 -0.222176,0.190563 -0.07144,0.0883 -0.0987,0.207042 -0.170609,0.294964 -0.05467,0.06685 -0.139326,0.102686 -0.202647,0.161403 -0.237276,0.220033 -0.46347,0.435552 -0.667536,0.687505 -0.355949,0.590375 -0.889557,1.038828 -1.260684,1.613375 -0.177302,0.183817 -0.190024,0.447879 -0.310301,0.658686 -0.109831,0.1925 -0.256257,0.23648 -0.403391,0.394451 -0.263989,0.347434 -0.125906,0.189664 -0.409544,0.477394 -0.04546,0.103244 -0.09682,0.204084 -0.136368,0.309733 -0.101357,0.270786 -0.04739,0.361682 -0.275358,0.521868 -0.310813,0.218398 -0.290148,-0.115881 -0.438757,0.347924 -0.03472,0.34369 -0.008,0.549552 -0.346207,0.696604 -0.07858,0.03417 -0.168668,0.04708 -0.237732,0.0978 -0.178258,0.130907 -0.300051,0.325042 -0.453688,0.484125 -0.576965,0.85085 -1.275563,1.617799 -1.74685,2.534404 -0.677285,0.724166 -1.202323,1.545797 -1.665559,2.416714 -0.197162,0.36687 -0.414505,0.727401 -0.645478,1.074132 -0.106107,0.159283 -0.272502,0.276112 -0.363381,0.44455 -0.05004,0.09274 -0.06373,0.200895 -0.09559,0.301341 -0.39818,0.338967 -0.43654,0.901391 -0.670358,1.336279 -0.04732,0.08801 -0.127003,0.154299 -0.190505,0.231447 -0.05415,0.07661 -0.120304,0.146015 -0.162465,0.229825 -0.09656,0.19195 -0.162979,0.516756 -0.23983,0.710971 -0.09968,0.25191 -0.263078,0.481235 -0.4061,0.709592 0.01337,0.211431 -0.141261,0.368278 -0.187634,0.559413 -0.02792,0.11508 -0.01463,0.237536 -0.04186,0.352779 -0.04949,0.209433 -0.189461,0.358496 -0.324684,0.514748 -0.235345,0.235503 -0.195412,0.584191 -0.398694,0.825767 -0.131062,0.04706 -0.05777,-0.183298 -0.0063,-0.164446 0.07553,0.02764 0.130588,0.09507 0.2023,0.131473 0.238665,0.121154 0.455259,0.137649 0.715392,0.119244 0.738067,-0.064 1.479935,-0.06692 2.219899,-0.102445 0.15575,-0.172804 0.419554,-0.122948 0.59607,-0.245484 0.08293,-0.05757 0.107571,-0.176378 0.187906,-0.237514 0.075,-0.05707 0.182355,-0.05551 0.262439,-0.105199 0.639459,-0.396748 -0.243648,-0.008 0.493705,-0.301812 0.219961,-0.308434 0.577916,-0.165541 0.851958,-0.405196 0.08539,-0.07467 0.304205,-0.327344 0.205702,-0.271093 -23.4577377,13.395907 -29.710759,16.232514 -21.6883916,12.576942 0.2355732,-0.268708 0.591234,-0.363684 0.8731458,-0.561992 0.092665,-0.06519 0.1558051,-0.169148 0.2536876,-0.226198 10.5816035,-6.167536 49.0776382,-28.384792 0.4778281,-0.318724 0.3373578,-0.02114 0.4463895,-0.333593 0.7107664,-0.484852 0.084083,-0.0481 0.1867775,-0.05242 0.2773701,-0.08673 0.329058,-0.124623 0.2441151,-0.09238 0.4934904,-0.343018 0.082854,-0.05974 0.168722,-0.115516 0.2485635,-0.179229 0.097062,-0.07746 0.1778446,-0.175675 0.2816261,-0.243864 0.373231,-0.245227 0.2179072,-0.01003 0.572553,-0.299531 0.1699664,-0.138744 0.3074491,-0.314255 0.4766529,-0.453927 0.27524662,-0.0937 0.57213136,-0.371456 0.76286963,-0.58828 0.0947392,-0.107694 0.14663718,-0.250386 0.24873418,-0.351135 C 0.18687643,56.21097 0.48206688,56.08215 0.71661389,55.963288 1.6157016,55.391836 2.4035116,54.658484 3.1754963,53.924674 4.0438692,53.122577 5.0013205,52.42996 5.9156019,51.681942 c 1.2373334,-0.883325 2.4716927,-1.772448 3.7143272,-2.649095 1.2291619,-0.825026 1.7922469,-2.19577 2.4856679,-3.44422 1.599359,-3.267754 3.901978,-6.107414 6.213168,-8.889146 4.161125,-4.870022 8.92646,-9.169095 13.843753,-13.255205 2.593124,-2.192426 5.315855,-4.219408 8.033475,-6.251895 C 47.965692,11.471997 56.075152,7.7532377 64.982722,2.6272172 57.640682,6.8659627 50.298352,11.1042 42.956606,15.343454 c -0.100312,0.05792 0.206812,-0.105965 0.301814,-0.17224 0.09456,-0.06596 0.164735,-0.165081 0.264513,-0.222839 7.535852,-4.362207 15.084017,-8.7031488 22.637726,-13.0343619 0.11223,-0.064352 0.469604,-0.2155958 0.357578,-0.1508923 -7.308974,4.2214217 -14.633982,8.4150162 -21.950972,12.6225252 0.839557,-0.378064 1.547379,-0.959407 2.306378,-1.468447 0.0725,-0.05285 0.709986,-0.519736 0.775593,-0.558508 0.138607,-0.08191 0.297345,-0.12622 0.435478,-0.20893 0.129351,-0.07745 0.238718,-0.184517 0.363331,-0.269382 0.263613,-0.179527 0.537417,-0.343758 0.801314,-0.522866 0.109181,-0.09811 0.221107,-0.193258 0.327547,-0.29434 0.09786,-0.09293 0.178353,-0.204883 0.28509,-0.287466 0.291815,-0.225776 0.26103,-0.09148 0.591954,-0.234685 0.295205,-0.127744 0.29806,-0.192022 0.496574,-0.436294 0.07767,-0.07997 0.14656,-0.1695388 0.233027,-0.2399119 0.08897,-0.072413 0.204933,-0.1084298 0.289801,-0.1856108 0.291244,-0.264861 0.448345,-0.6707676 0.738195,-0.9369014 0.07721,-0.070897 0.179937,-0.1075925 0.269907,-0.1613886 0.616677,-0.2752021 0.998738,-0.7973999 1.527951,-1.1875464 0.627406,-0.4176882 0.915483,-0.8932819 1.623504,-1.2160118 0.192315,-0.3096616 0.580662,-0.4864209 0.823962,-0.6999074 0.279994,-0.2456841 0.479574,-0.626891 0.720417,-0.9107968 0.09486,-0.053764 0.197054,-0.096257 0.284568,-0.1612925 0.0868,-0.064505 0.150013,-0.1566687 0.234361,-0.224347 0.721922,-0.5792385 -0.210373,0.2327492 0.531586,-0.3257798 0.08542,-0.064304 0.153156,-0.1492377 0.229733,-0.2238564 7.532293,-4.3642174 15.064583,-8.7284346 22.596873,-13.092652 0.276586,-0.1192625 0.758901,0.1064932 1.023226,0.04032 0.07782,-0.019481 0.110425,-0.1193841 0.179252,-0.1606022 0.328627,-0.1968033 0.166512,0.097289 0.294861,-0.3298121 0.07308,-0.2078209 0.293379,-0.040785 0.406085,-0.1268549 0.06198,-0.04733 0.02379,-0.163072 0.07552,-0.221449 0.04428,-0.04998 0.243954,-0.107408 0.186174,-0.07394 -4.618162,2.6747458 -55.277638,31.922321 0.36967,-0.207226 0.593724,6.6e-5 1.182581,0.09657 1.773694,0.146258 0.179061,0.058 0.379592,-0.01845 0.559135,0.03274 0.128547,0.03665 0.239692,0.119027 0.363762,0.168762 0.563109,0.2257307 0.581757,0.2558579 1.03062,0.6958827 0.588994,0.4676681 0.954023,1.1492206 1.24446,1.8290739 0.264391,0.6428448 0.311032,1.322228 0.328304,2.0069076 0.06087,0.8324466 0.01204,1.6745228 -0.258075,2.4695488 0.0053,0.3992454 -0.20602,0.698603 -0.347357,1.0436471 -0.122832,0.2998628 -0.206092,0.6173127 -0.333009,0.9184686 -0.165946,0.4501912 -0.0812,1.00403674 -0.363354,1.40700496 C 87.491755,0.31401294 87.362034,0.42347142 87.25716,0.553057 87.205494,0.65697473 87.147409,0.75794125 87.102159,0.86481018 87.041307,1.0085363 87.012578,1.1660028 86.939296,1.3038067 86.669015,1.8120484 86.025874,2.4536424 85.652418,2.9160221 85.530433,3.0462271 85.3982,3.1675382 85.286462,3.3066372 83.476967,5.5592244 86.37272,2.1091286 84.369156,4.543517 c -0.542894,0.6596336 -1.164088,1.2519227 -1.766444,1.8557654 -1.294829,1.2986059 -2.684266,2.5017873 -4.078347,3.6926586 -1.389955,1.361576 -2.84293,2.653195 -4.349659,3.883716 -1.79807,1.434075 -3.543652,2.929398 -5.255588,4.464768 -1.254551,1.208782 -2.484069,2.449264 -3.63889,3.754668 -1.030578,1.026119 -1.78715,2.277911 -2.735225,3.369173 -1.896714,1.917402 -4.156212,3.425019 -6.293379,5.055595 -3.243695,2.549542 -6.29733,5.332065 -9.366802,8.086674 -1.849144,1.67708 -3.628468,3.424892 -5.382982,5.199681 -1.06997,1.153518 -2.120622,2.326521 -3.13926,3.525961 -0.992181,1.201393 -1.914123,2.457201 -2.729156,3.785696 -0.306198,0.654291 -0.771503,1.218472 -1.130049,1.839554 -0.596921,1.034002 0.168496,-0.138564 -0.377836,0.677625 -0.05767,0.100117 -0.107824,0.204962 -0.173018,0.300351 -0.06288,0.16714 -0.244923,0.231294 -0.340195,0.368731 -0.188891,0.272484 -0.319642,0.7305 -0.47869,1.042781 -0.525734,0.553687 -0.850252,1.232667 -1.236176,1.883322 -0.281184,0.53591 -0.653238,1.022808 -0.889119,1.582313 -0.09221,0.218734 -0.307164,0.854631 -0.381582,1.070391 -0.48766,1.3074 -1.032914,2.588835 -1.49288,3.906453 -0.237755,0.906331 -0.644552,1.771961 -0.839787,2.688163 -0.280976,0.593709 -0.444051,1.204513 -0.497849,1.856804 -0.0597,0.597084 -0.118138,0.711775 0.165231,1.23858 0.146793,0.390787 0.437592,0.463926 0.744717,0.680326 0.591732,0.06929 0.269005,-0.104019 0.430712,-0.404701 0.09885,-0.183787 0.569804,-0.33281 0.703576,-0.387947 0.275922,-0.144414 0.849874,-0.43737 1.095598,-0.599596 0.226039,-0.149232 0.887426,-0.618979 0.652251,-0.484606 -6.942604,3.966876 -13.852157,7.991319 -20.779431,11.984903 -0.316247,0.182318 0.634003,-0.362159 0.946342,-0.551095 0.313822,-0.189827 0.621253,-0.390027 0.93188,-0.585041 2.627224,-1.646663 4.638392,-4.024326 6.733063,-6.265589 3.308355,-3.5608 6.747433,-6.998662 10.211599,-10.407236 3.134381,-3.074487 6.320901,-6.098588 9.556034,-9.067356 1.357716,-1.28827 2.7821,-2.501681 4.186148,-3.738052 0.749743,-0.859102 1.712357,-1.484334 2.600847,-2.185689 1.697998,-1.16328 3.37684,-2.348903 5.010766,-3.600697 0.442641,-0.371517 0.980249,-0.652788 1.363418,-1.095304 0.449527,-0.519153 1.037005,-1.430935 1.406805,-1.941495 0.376178,-0.519367 0.76596,-1.028747 1.148938,-1.543122 0.638403,-0.783148 1.258083,-1.58194 1.915211,-2.349445 0.894409,-1.044641 1.819726,-2.062466 2.7384,-3.085832 3.635694,-4.050015 7.385064,-7.986508 11.23335,-11.8343 2.730069,-2.735943 5.667976,-5.243706 8.695893,-7.640093 7.167846,-5.4976764 19.696866,-11.5930524 24.030889,-14.09175737 0.6907,-0.39820863 0.10559,0.002718 0.70356,-0.43091488 C 48.14409,32.419548 102.35381,1.105344 104.91118,-0.28336746 112.32669,-4.3101531 75.839226,16.854707 82.968572,12.3406 c 0.180975,-0.114588 59.180718,-34.089455 1.161708,-0.64004 0.142024,-0.07194 0.292053,-0.129889 0.426074,-0.215827 0.139818,-0.08966 0.260938,-0.205577 0.391408,-0.308366 7.543581,-4.3268272 15.083208,-8.6605551 22.630738,-12.9804808 0.12811,-0.073322 0.26855,-0.1238167 0.39561,-0.1989368 0.11865,-0.07015 0.21476,-0.1775595 0.33969,-0.2357947 0.12972,-0.060469 0.27573,-0.076895 0.41359,-0.1153422 0.1179,-0.061256 0.46893,-0.2498814 0.35369,-0.1837669 -7.33711,4.2093299 -14.678675,8.4108789 -22.019582,12.6135834 -0.08943,0.0512 0.175773,-0.1076474 0.265092,-0.1590304 7.541622,-4.3384734 15.06205,-8.7140547 22.62769,-13.0105127 0.0972,-0.055219 0.22631,1.506e-4 0.33417,-0.029326 0.088,-0.024035 0.16114,-0.085363 0.24171,-0.1280446 0.21818,-0.3656762 0.52952,-0.2162255 0.77673,-0.3482495 0.0791,-0.042254 0.0993,-0.1537812 0.1707,-0.208017 0.76677,-0.582102 -0.26664,0.3936791 0.40661,-0.2693233 0.15351,-0.1555523 0.38147,-0.011621 0.54725,-0.093928 0.0739,-0.036714 0.081,-0.1492928 0.14628,-0.1998616 0.20757,-0.1608489 0.54344,-0.090942 0.77643,-0.069733 0.18325,0.065886 0.39534,0.011578 0.57876,0.076605 0.13548,0.048033 0.25158,0.1397216 0.38229,0.1995399 0.10032,0.045913 0.21275,0.064214 0.30958,0.1170979 0.29415,0.1606525 0.46288,0.33899 0.71011,0.5611433 0.1006,0.100756 0.19416,0.20906 0.30179,0.3022675 0.0656,0.05685 0.14972,0.089611 0.21579,0.1459662 0.4094,0.3492144 0.71367,0.788437 0.99415,1.2413823 0.55744,0.89784812 0.62564,1.95115623 0.72738,2.9749349 0.0922,1.3496295 0.0164,2.7077982 -0.36535,4.0126409 -0.3178,1.0861244 -0.73034,2.0067807 -1.16086,3.0498662 -1.04625,2.577123 -2.49217,4.930596 -4.30699,7.036092 -0.47489,0.550958 -0.98229,1.073039 -1.47344,1.609558 -4.43695,4.494124 -9.51243,8.268974 -14.550202,12.050049 -2.965586,2.279565 -5.95986,4.545914 -8.713781,7.083747 -1.452232,1.338282 -2.392999,2.351543 -3.76835,3.772622 -3.661734,3.84045 -6.91107,8.034582 -9.935682,12.386768 -1.660622,2.410298 -3.207819,4.891263 -4.682017,7.4185 -0.586316,1.073685 -1.318054,2.061456 -1.933991,3.116257 -0.124856,0.213817 -0.626448,1.18434 -0.749754,1.421396 -0.222877,0.702261 -0.704171,1.282455 -1.012959,1.940016 -0.109087,0.232296 -0.176337,0.482058 -0.268677,0.721509 -0.04521,0.247955 -0.341232,0.335867 -0.458473,0.521218 -0.04961,0.07843 -0.0595,0.17622 -0.09883,0.260279 -0.04034,0.08623 -0.173707,0.288764 -0.227497,0.372628 -0.05903,0.06554 -0.19064,0.566554 -0.351345,0.366632 -0.110777,-0.137812 -0.09572,-0.116511 -0.05686,-0.233458 0.02482,-0.03896 0.02935,-0.106795 0.07443,-0.116878 0.125724,-0.02812 0.773292,0.184551 0.889072,0.210658 0.211111,0.04761 0.752884,0.09991 0.944204,0.120887 0.77362,0.07664 1.615606,-0.01148 2.323989,-0.361343 0.264619,-0.130693 0.502622,-0.309686 0.758647,-0.456505 0.376105,-0.215678 0.758305,-0.42055 1.137458,-0.630825 -36.188818,18.888393 -23.301452,14.165648 -16.310477,9.126965 1.24179,-0.895009 2.402548,-1.882791 3.560072,-2.881775 1.551531,-1.376798 3.019868,-2.846682 4.390403,-4.403031 0.315131,-0.354398 0.62643,-0.712241 0.945389,-1.063197 1.473917,-1.621763 1.13857,-1.18543 2.731191,-2.994534 1.912112,-2.172018 3.739152,-4.41675 5.574706,-6.653111 3.651801,-4.422717 7.109208,-8.9975 10.338116,-13.736959 1.014737,-1.431705 1.902825,-2.952364 2.969517,-4.346947 0.303033,-0.23127 0.446297,-0.593288 0.71876,-0.853223 0.0893,-0.0852 0.205033,-0.139736 0.293302,-0.226008 0.147613,-0.144273 0.425524,-0.523783 0.550679,-0.6891 0.789752,-0.683361 1.657093,-1.275019 2.355187,-2.059468 0.241448,-0.341156 0.628586,-0.52621 0.89952,-0.836592 0.223407,-0.255934 0.436343,-0.554684 0.625581,-0.837268 0.07311,-0.04236 0.156186,-0.07094 0.219342,-0.127071 0.06814,-0.06057 0.111455,-0.144313 0.167179,-0.216469 0.07351,-0.08211 0.136318,-0.175225 0.220518,-0.246327 0.08198,-0.06923 0.180249,-0.116601 0.273045,-0.170468 22.664888,-13.156815 13.980518,-11.831937 22.935778,-13.153546 0.0779,0.006 0.6984,0.05834 0.78281,0.0461 0.10411,-0.01511 0.19171,-0.09047 0.29416,-0.114355 0.33265,-0.07756 0.39492,-5.29e-4 0.7322,-0.06801 0.11411,-0.02283 0.22071,-0.07389 0.33106,-0.110828 1.14779,-0.149799 -0.44688,0.03554 0.90347,-0.03364 0.17895,-0.0092 0.35384,-0.06172 0.53273,-0.07188 2.25711,-0.128122 -1.03532,0.160516 1.50581,-0.01938 0.28023,-0.01984 0.55827,-0.0634 0.83741,-0.09509 1.64898,-0.181637 3.30697,-0.23547 4.96219,-0.326311 0.90971,-0.05686 1.82015,-0.09901 2.73145,-0.117384 0.12431,0.04968 0.26369,0.07167 0.37294,0.14905 0.61027,0.432262 1.25849,1.441427 1.41937,2.175641 0.0604,0.275824 0.0645,0.561043 0.0967,0.841564 -0.0108,0.290264 0.0202,0.58511 -0.0323,0.870792 -0.48325,2.630161 -2.19076,5.248711 -3.66727,7.423087 -2.01397,2.748966 -4.33393,5.260063 -6.85661,7.546173 -1.75857,1.51056 -3.63414,2.875732 -5.53242,4.203439 -1.28303,0.862885 -2.59078,1.686755 -3.88978,2.524746 -1.50891,0.953153 -2.99544,1.933203 -4.38129,3.059564 -1.34984,1.049208 -2.41061,2.384503 -3.45649,3.720412 -0.828659,1.14762 -1.539505,2.388725 -2.111338,3.68412 -0.314371,0.726587 -0.48789,1.497767 -0.740874,2.245891 -0.05125,0.270366 -0.192093,0.540585 -0.240364,0.806982 -0.01646,0.09086 -0.0016,0.185152 -0.01405,0.276657 0.01244,0.06988 0.01998,0.16756 0.08299,0.216101 0.0168,0.01294 0.03631,-0.03582 0.05647,-0.02926 0.06421,0.0209 0.111944,0.07697 0.173735,0.104213 0.130204,0.05742 0.293467,0.07667 0.430565,0.100797 0.620744,0.05623 1.247899,0.166229 1.873356,0.150177 0.46156,-0.01185 0.80201,-0.09247 1.25707,-0.174768 0.22677,-0.07274 0.46232,-0.122355 0.68032,-0.218228 0.21089,-0.09274 3.26062,-1.859158 1.59462,-0.907583 -6.72472,3.840955 -13.430351,7.715427 -20.170006,11.5301 -0.658368,0.372636 1.314736,-0.755183 1.924434,-1.203038 0.823571,-0.604959 1.577638,-1.299243 2.366458,-1.948864 3.800184,-3.744642 7.022514,-8.073412 9.642242,-12.71953 0.437973,-0.776755 0.824143,-1.581604 1.236212,-2.372406 1.74808,-3.553574 3.23163,-7.227735 4.67923,-10.911351 0.65932,-1.782613 1.42822,-3.521267 2.14257,-5.281084 0.41584,-0.762446 0.82043,-1.522601 1.27458,-2.260607 4.02296,-8.379641 2.97048,-2.206478 22.98103,-13.616367 0.25474,-0.14525 0.57792,-0.126789 0.85805,-0.13106 1.40577,0.01513 1.56903,0.273041 2.38022,1.490008 0.12076,0.28139 0.28604,0.547608 0.36229,0.844171 0.26146,1.016838 0.17623,1.827751 0.0207,2.878139 -0.34647,2.340159 -1.13029,4.466367 -1.94251,6.673784 -1.4426,3.639012 -2.94093,7.265309 -4.83161,10.697414 -0.92759,1.618839 -2.04707,3.128801 -3.32136,4.49088 -1.12356,1.131129 -2.21989,2.305269 -3.18877,3.571952 -1.19644,1.477713 -2.18351,3.103657 -3.04131,4.795768 -0.58623,1.076897 -0.93022,2.257625 -1.41036,3.379296 -0.33925,0.722498 -0.40819,1.546958 -0.46432,2.335493 0.004,0.639297 0.15128,1.095545 0.84926,1.18048 0.69761,0.06617 1.29572,-0.266042 1.8952,-0.573786 0.98637,-0.506366 0.52744,-0.243687 1.50126,-0.879761 7.36628,-5.14185 0.57423,-0.366302 -19.87822,11.381098 -0.309844,0.177969 0.60737,-0.377192 0.9006,-0.581387 0.88959,-0.619487 1.58623,-1.342724 2.31317,-2.138776 1.05187,-1.268352 2.04553,-2.607292 2.86052,-4.042082 0.0949,-0.160303 0.17952,-0.327215 0.28483,-0.480905 0.0994,-0.145041 0.22803,-0.268471 0.32783,-0.413224 0.49102,-0.712132 0.0129,-0.14426 0.51183,-0.885413 0.15031,-0.223274 0.34216,-0.415573 0.51264,-0.623855 5.11092,-7.633728 14.76002,-15.817142 23.92647,-14.011664 0.59486,0.135556 1.26741,-0.01479 1.8226,0.28224 0.17599,0.09416 0.32929,0.225642 0.49393,0.338462 0.77504,0.735493 1.72144,1.495516 2.11857,2.529023 0.13364,0.347778 0.19797,0.718361 0.29696,1.07754 0.53353,2.29217 0.33127,4.663916 -0.0331,6.964379 -0.30988,1.625295 -0.8662,3.185417 -1.39382,4.748894 -0.12498,0.429712 -0.29629,1.042603 -0.4467,1.468146 -0.1124,0.318023 -0.28046,0.618027 -0.35918,0.946017 -0.10005,0.416901 -0.14632,0.846568 -0.1737,1.274431 -0.0953,1.489682 0.0274,2.092585 0.16992,3.627508 0.66758,3.833712 2.13466,7.463844 4.38694,10.641866 0.39027,0.550674 0.82855,1.065692 1.24282,1.59854 1.07664,1.243653 2.30885,2.339785 3.72137,3.188677 0.86854,0.521976 1.82766,0.912408 2.73575,1.36038 0.74871,0.350427 1.24798,0.897624 1.67428,1.583197 0,0 -22.70703,12.960263 -22.70703,12.960263 v 0 c 0.0959,-0.25193 -0.47943,-0.58399 -0.55185,-0.73787 -2.03116,-1.89193 -4.15052,-3.71281 -5.63888,-6.097188 -0.40919,-0.620969 -0.85042,-1.221964 -1.22755,-1.862907 -0.39326,-0.668349 -0.7283,-1.369371 -1.08075,-2.060112 -1.50543,-2.950432 -2.88128,-5.980574 -3.90217,-9.135786 -0.66816,-2.052893 -0.62519,-1.710762 -1.02578,-3.662292 -0.0842,-0.410178 -0.41154,-2.120093 -0.39639,-2.631428 0.008,-0.273276 0.33541,-1.197652 0.42445,-1.465138 0.40119,-1.657276 1.11563,-3.194477 1.71566,-4.78487 0.60105,-1.793874 1.03476,-3.709453 0.46401,-5.57286 -0.27074,-0.544493 -0.79132,-1.417338 -1.51664,-1.259713 -0.17903,0.101834 -0.26856,0.167952 -0.4718,0.221078 -0.37126,0.09704 -0.76386,0.093 -1.07158,0.362884 -5.45182,6.92577 -0.52286,0.604186 22.01325,-12.452439 0.18531,-0.107364 -0.44005,0.01196 -0.63434,0.102065 -0.21272,0.09865 -0.37051,0.296226 -0.60098,0.365584 -0.20144,0.208804 -0.37966,0.441302 -0.5975,0.632931 -0.47869,0.421079 -0.30466,0.08547 -0.71276,0.646034 -0.11689,0.160546 -0.18882,0.351053 -0.30755,0.510244 -0.12041,0.161451 -0.27096,0.29806 -0.40645,0.447091 -0.71794,0.863606 -0.21219,0.213191 -0.89805,1.227349 -0.73156,1.081736 -1.53169,2.11668 -2.2768,3.189002 -1.0142,1.321867 -0.32525,0.445186 -1.39703,1.755202 -0.24641,0.301182 -0.46872,0.623334 -0.73583,0.906323 -0.25652,0.271781 -0.50944,0.561921 -0.83053,0.753167 -20.92221,12.461768 -14.69339,9.566928 -23.518558,13.611656 -1.997441,0.635601 -3.428866,0.889514 -5.290966,-0.285711 -0.191505,-0.16034 -0.394906,-0.307458 -0.574516,-0.481019 -0.798586,-0.771696 -1.354707,-1.788172 -1.564921,-2.874702 -0.13282,-1.067583 -0.07292,-2.121141 0.06178,-3.187714 0.167068,-0.650613 0.379578,-1.056071 0.648893,-1.663417 0.340992,-0.768994 0.692641,-1.527707 1.051396,-2.289674 0.442889,-0.863429 0.443768,-0.850908 0.869739,-1.740354 0.147174,-0.307301 0.270765,-0.626501 0.435409,-0.924809 0.155598,-0.281917 0.35661,-0.536503 0.523212,-0.812062 0.171405,-0.283494 0.326939,-0.576285 0.490406,-0.864431 0.162438,-0.264338 0.324873,-0.528676 0.487308,-0.793016 0.167349,-0.240026 0.341113,-0.475703 0.50204,-0.720081 0.16356,-0.24837 0.295747,-0.517447 0.471086,-0.757644 0.158832,-0.217585 0.35602,-0.404482 0.528374,-0.611518 0.488324,-0.586586 0.913327,-1.222364 1.436222,-1.780269 2.200726,-2.145975 -1.157363,1.104456 1.232896,-1.124273 1.05829,-0.986766 1.98631,-2.111278 2.91349,-3.217517 2.56315,-3.192275 4.64538,-6.768315 6.15942,-10.573857 0.40993,-1.388419 0.81616,-2.563342 1.02987,-3.988853 0.0945,-0.630177 0.3132,-2.366437 -0.20533,-2.975836 0.0903,0.776245 -0.34371,0.604314 -0.85912,0.962926 -0.0263,0.01924 -0.3819,0.28029 -0.40609,0.295197 -0.0754,0.04646 -0.31195,0.167412 -0.23524,0.123242 7.39901,-4.259914 14.83032,-8.464069 22.2023,-12.770586 0.0887,-0.0518 -0.20501,-0.0273 -0.30743,-0.01981 -0.0986,0.0072 -0.1932,0.04233 -0.2898,0.0635 -0.0356,0.02436 -0.51929,0.354205 -0.53669,0.371979 -0.10118,0.10332 -0.15977,0.242196 -0.2553,0.350758 -0.34594,0.393127 -0.79869,0.679401 -0.99836,1.193781 -1.38186,1.62878 -2.24339,3.643626 -3.32588,5.46816 -0.26302,0.513976 -0.5402,1.020942 -0.78904,1.541929 -0.87811,1.838449 -1.63937,3.729646 -2.55892,5.549724 -0.3625,0.717499 -0.75291,1.420558 -1.13241,2.129209 -0.4244,0.792466 -0.85286,1.582749 -1.27929,2.374123 -1.16556,2.052748 -1.83247,3.275297 -3.09425,5.295977 -2.25505,3.611359 -4.79809,7.039781 -7.43438,10.37942 -0.50555,0.639101 -0.9819,1.30242 -1.51664,1.917301 -0.39104,0.449652 -0.74495,0.96608 -1.2566,1.271561 -7.492975,4.473719 -15.100413,8.753803 -22.705092,13.034894 -0.978029,0.550587 -2.139199,0.647076 -3.230413,0.693334 -1.424127,-0.04718 -2.85788,-0.195517 -4.154212,-0.834694 -0.94926,-0.566893 -1.575042,-1.202803 -2.038846,-2.223034 -0.279012,-0.734426 -0.413216,-1.497388 -0.289146,-2.282237 0.158853,-0.974235 0.584091,-1.859116 0.884725,-2.794718 0.17848,-0.448906 0.33656,-0.906352 0.533243,-1.347588 0.329058,-0.73821 0.739908,-1.426405 1.135712,-2.12811 0.146054,-0.258935 0.279414,-0.524826 0.419121,-0.787238 0.937285,-1.527604 2.045644,-2.941497 3.232646,-4.282928 0.211502,-0.205184 1.085003,-1.05909 1.303676,-1.244679 0.234109,-0.198689 0.491851,-0.367916 0.731413,-0.559995 0.24483,-0.196302 0.470814,-0.415975 0.721409,-0.604864 0.462725,-0.348778 0.979788,-0.621191 1.442005,-0.970808 0.415547,-0.282808 0.817263,-0.585945 1.237872,-0.861174 0.914131,-0.598164 1.877901,-1.122972 2.771934,-1.753305 2.155222,-1.268309 4.226137,-2.674333 6.238967,-4.157826 0.850746,-0.640193 1.736051,-1.280567 2.5336,-1.987903 1.737382,-1.540863 3.270396,-3.306928 4.791976,-5.054076 0.92381,-1.229476 1.84884,-2.447758 2.51684,-3.84255 0.17183,-0.35879 0.29583,-0.738607 0.44783,-1.106234 0.0908,-0.219604 0.22232,-0.424993 0.28056,-0.655381 0.0424,-0.167677 0.0108,-0.345733 0.0162,-0.518601 0.002,-0.07584 0.004,-0.151706 0.007,-0.227523 0.009,-0.219795 0.0682,0.373943 0.0595,0.393453 -0.022,0.04947 -0.0923,0.05657 -0.13842,0.08485 -0.78306,-0.01728 -1.56588,-0.04737 -2.3492,-0.05019 -1.56512,0.01847 -3.1251,0.159075 -4.678339,0.348109 -1.365783,0.139892 -2.725772,0.359322 -4.031134,0.789852 -0.454261,0.06523 -0.638482,0.174669 -1.052698,0.283155 -0.446847,0.117029 -0.483754,0.04675 -0.812543,0.451962 -6.219596,6.213929 -0.241626,0.206049 21.844234,-12.588166 0.0856,-0.04958 -0.15687,0.123865 -0.24724,0.164102 -0.18754,0.08351 -0.3307,0.02907 -0.50529,0.153281 -0.0857,0.06094 -0.14117,0.15578 -0.21175,0.23367 -0.31051,0.09679 -0.62775,0.267414 -0.8721,0.490222 -0.3504,0.319519 -0.54266,0.799898 -0.98249,1.030573 -0.14205,0.11482 -0.29401,0.218371 -0.42617,0.34446 -0.38141,0.363905 -0.41697,0.507586 -0.76868,0.89392 -0.61681,0.677522 -0.076,0.03849 -0.68505,0.582927 -0.10484,0.09371 -0.19006,0.207279 -0.28509,0.310918 -0.2626,0.131127 -0.4402,0.189582 -0.64444,0.41076 -0.0917,0.09933 -0.13885,0.234297 -0.23024,0.333932 -0.27788,0.302934 -0.7185,0.422082 -0.897,0.82839 -1.70432,1.475009 -3.22894,3.122818 -4.71471,4.816202 -2.55845,2.913443 -5.070738,5.884423 -7.414608,8.974486 -0.666357,0.878497 -1.298647,1.78237 -1.957325,2.666637 -0.622252,0.835363 -1.256909,1.661416 -1.88536,2.492123 -1.551864,2.067888 -3.054645,4.164822 -4.562305,6.264838 -0.652627,0.909046 -1.280769,1.836171 -1.957627,2.727323 -0.244308,0.321652 -0.509877,0.626589 -0.764814,0.939883 -0.422534,0.551504 -0.809315,1.130338 -1.243734,1.672532 -0.96947,1.209989 -2.186497,2.208171 -3.300558,3.275823 -1.31743,1.101702 -2.635307,2.211336 -3.990303,3.266744 -7.907133,6.158879 -16.50747,10.607194 -25.692879,15.27957 -1.310426,0.568772 -1.63591,0.810919 -3.002064,1.046038 -0.990901,0.170537 -1.993454,-0.106583 -2.966284,-0.242078 -1.103474,-0.238647 -2.242888,-0.469091 -3.054629,-1.314649 -0.632082,-0.791146 -1.140027,-1.627766 -0.980288,-2.676027 0.02909,-0.218816 0.04287,-0.413234 0.116333,-0.622975 0.02816,-0.08039 0.08809,-0.148049 0.111423,-0.229973 0.09868,-0.34654 0.07924,-0.710392 0.343111,-0.998929 0.17927,-0.168748 0.367815,-0.326124 0.497695,-0.54104 0.09367,-0.155002 0.146192,-0.331773 0.231331,-0.491623 0.309545,-0.581183 0.713077,-1.103556 1.098471,-1.634645 0.276356,-0.497505 0.567819,-0.986848 0.830742,-1.491581 0.148411,-0.284907 0.266057,-0.58561 0.422534,-0.86617 0.501079,-0.898422 1.190777,-1.669012 1.714426,-2.553036 1.955457,-2.666912 3.624427,-5.539421 5.789908,-8.053566 1.665875,-2.105864 3.344206,-4.204409 4.985387,-6.329551 1.141213,-1.47774 2.243729,-3.021175 3.44037,-4.456605 0.574579,-0.689238 1.187955,-1.345188 1.781931,-2.01778 1.082712,-1.171426 2.602358,-2.843889 3.739657,-3.960159 2.831972,-2.779615 6.01655,-5.155762 9.202068,-7.508239 4.650161,-3.483377 9.464627,-6.828355 13.41534,-11.131781 0.42912,-0.45477 0.871657,-0.897241 1.287355,-1.364311 0.956713,-1.074944 1.12076,-1.362171 1.9557,-2.489881 0.888934,-1.200639 1.799068,-2.391003 2.380566,-3.782434 0.311204,-0.72982 0.736522,-1.650772 0.955782,-2.430945 0.271143,-0.964782 0.307571,-2.000489 0.26315,-2.994166 -0.106592,-0.616208 -0.221856,-1.270371 -0.542535,-1.813621 -0.108729,-0.170745 -0.595235,-0.480419 -0.779591,-0.468341 -0.06256,0.06418 -0.0954,0.159113 -0.170662,0.207776 -0.05666,0.03663 -0.140826,0.01798 -0.193124,0.06061 -0.05516,0.04496 -0.05722,0.134099 -0.107528,0.184434 -0.100876,0.100933 -0.276869,0.106621 -0.348752,0.248278 -0.128769,0.142357 -0.280152,0.379648 -0.475981,0.438174 -0.08585,0.02565 -0.186327,-0.01899 -0.26823,0.01734 -0.148999,0.06609 -0.181554,0.297058 -0.360229,0.330685 -0.08684,0.02485 -0.173683,0.0497 -0.260525,0.07455 -0.06634,0.03938 -0.125176,0.09583 -0.199033,0.118129 -0.09054,0.02734 -0.194641,-0.008 -0.282428,0.02724 -0.252683,0.101299 -0.401425,0.4348 -0.751571,0.381913 -0.346887,0.124119 -0.200443,0.02717 -0.445001,0.282086 7.365818,-4.2441901 14.731628,-8.4883799 22.097448,-12.73256941 0.0999,-0.0575471 -0.19804,0.11813279 -0.29805,0.17549492 C 88.663255,13.739497 96.673656,10.121955 88.380097,13.85275 c -0.509787,0.371996 -0.109123,0.117669 -0.691121,0.38631 -0.125219,0.0578 -0.488128,0.256715 -0.368678,0.187782 7.270548,-4.195683 14.558552,-8.3611222 21.822442,-12.5683092 0.13693,-0.079307 -0.30326,0.099963 -0.43814,0.182702 -0.13906,0.085305 -0.24942,0.2103704 -0.37413,0.3155556 -7.54139,4.3550667 -15.084785,8.7066676 -22.624177,13.0652006 -0.124337,0.07188 -0.491264,0.297708 -0.366855,0.225951 7.303936,-4.212821 29.372752,-16.56546827 21.905592,-12.649231 -7.712121,4.0447129 -15.094208,8.689706 -22.641077,13.034965 -0.215196,0.123903 59.907087,-34.501595 -0.629197,0.398825 -0.226553,0.09734 -0.878158,0.448038 -0.66479,0.324445 7.249103,-4.199009 14.496378,-8.4011934 21.751864,-12.5891643 0.18303,-0.1056461 -0.34906,0.2394546 -0.53392,0.3418634 -0.5204,0.288292 -1.09365,0.4763126 -1.5815,0.8271524 -4.017263,2.5356272 -7.937824,5.2422045 -11.507503,8.3883855 -0.968517,0.871375 -1.956351,1.721749 -2.905556,2.614127 -2.934941,2.759242 -5.820044,5.678206 -8.289614,8.869324 -1.374083,1.775556 -1.782401,2.573055 -2.841058,4.369628 -0.225954,0.443868 -0.445926,0.890834 -0.677863,1.331603 -0.162284,0.308397 -0.355178,0.6008 -0.504646,0.915605 -0.51097,1.076199 -0.594386,1.965959 -1.613047,2.794271 -2.652606,2.085686 1.202178,-0.925328 -1.70655,1.275903 -1.237953,0.936846 -0.505614,0.468996 -1.710042,1.331038 -0.230958,0.165303 -0.480489,0.304113 -0.707584,0.474687 -0.179453,0.134791 -0.339912,0.29317 -0.509867,0.439756 -0.947492,0.648618 -1.815316,1.408236 -2.81549,1.981558 -1.636855,1.540437 -3.46735,2.836197 -5.226008,4.231588 -1.629012,1.342068 -3.295109,2.649558 -4.876967,4.047424 -0.632505,0.558937 -1.238305,1.147415 -1.862304,1.715837 -3.09274,2.817287 -0.766671,0.621887 -3.810048,3.544956 -3.236469,3.190328 -6.411382,6.446019 -9.372525,9.896211 -0.376269,0.438026 -0.752537,0.876052 -1.128806,1.31408 -0.373438,0.403717 -0.759763,0.795888 -1.120318,1.211154 -1.17205,1.3499 -2.192103,2.849953 -3.586838,3.993255 -7.391985,5.713662 -17.360286,10.353663 -24.377927,14.365223 -0.396464,0.226634 -1.274766,0.534907 -1.752083,0.665033 -0.2392579,0.06523 -0.4842056,0.10743 -0.7263088,0.161144 -0.4160479,0.06191 -0.8416311,0.17558 -1.264067,0.04412 C 7.4728561,85.132043 6.9757292,84.66773 6.5188052,84.289274 6.0080183,83.846821 5.6056624,83.289107 5.3133791,82.680301 4.8831143,81.901352 4.4693648,81.043973 4.5227324,80.133339 c 0.025919,-0.828365 -0.02992,-1.666994 0.1750686,-2.47783 0.1905614,-0.398835 0.2711201,-0.817496 0.4350411,-1.228696 0.3906511,-0.97996 0.048774,-0.03874 0.4928037,-1.058407 0.093916,-0.215665 0.1702843,-0.438558 0.2554265,-0.657837 0.4956459,-1.247833 0.856059,-2.539251 1.3345897,-3.793582 0.1434255,-0.387133 0.2383722,-0.614813 0.3442767,-1.013833 0.1762806,-0.664184 0.2704153,-1.346365 0.6440966,-1.942818 0.1722123,-0.354157 0.3866214,-0.69496 0.5537214,-1.049202 0.4590534,-0.973163 -0.1927006,0.237207 0.2890006,-0.749423 0.055876,-0.114447 0.1292186,-0.219507 0.193828,-0.32926 0.1400873,-0.135617 0.3084535,-0.245058 0.4267209,-0.400071 0.2807947,-0.368037 0.1984609,-0.937132 0.6075818,-1.23713 0.301446,-0.46961 0.12947,-0.247725 0.518382,-0.663748 0.101743,-0.142353 0.165782,-0.308418 0.257546,-0.457399 0.334115,-0.542445 0.767648,-1.003162 1.121121,-1.532269 0.870125,-1.320761 1.660263,-2.697093 2.60118,-3.968975 0.449274,-0.647107 0.907337,-1.27735 1.444725,-1.856062 0.194237,-0.209171 0.409577,-0.398123 0.602963,-0.608083 0.218988,-0.237755 0.42228,-0.489502 0.63342,-0.734255 0.239996,-0.253426 0.479992,-0.506855 0.719988,-0.760284 1.895063,-1.997669 3.939811,-3.85729 6.004751,-5.676506 1.532197,-1.31598 3.112143,-2.574709 4.641941,-3.893031 1.655127,-1.426326 3.244938,-2.927664 4.891477,-4.363775 0.31375,-0.272408 2.06675,-1.797083 2.478968,-2.145829 0.286317,-0.242235 0.578604,-0.477325 0.867905,-0.715988 0.228839,-0.176953 0.463696,-0.346378 0.686515,-0.530856 0.337272,-0.279237 0.639594,-0.598921 0.978611,-0.876266 0.320057,-0.26914 0.659787,-0.515719 0.965451,-0.801105 0.784835,-0.732767 1.347288,-1.675297 2.053364,-2.478473 0.769347,-0.893517 1.514841,-1.806394 2.348654,-2.642517 0.239448,-0.24011 0.499291,-0.459175 0.740843,-0.69717 0.270471,-0.266492 0.529911,-0.543953 0.794866,-0.81593 1.656672,-1.565589 3.357393,-3.086706 5.090962,-4.566585 1.461886,-1.181927 2.917208,-2.377362 4.296403,-3.654528 1.240671,-1.304224 2.649844,-2.432453 4.010745,-3.606546 0.566869,-0.552123 1.127658,-1.110604 1.702584,-1.654387 0.296379,-0.280327 0.632798,-0.554769 0.866492,-0.896557 0.115463,-0.16887 0.193913,-0.360267 0.290871,-0.5404 0.303978,-0.376778 0.579206,-0.76304 0.893631,-1.129919 0.07934,-0.09257 0.136487,-0.205817 0.229079,-0.285133 0.07277,-0.06234 0.185118,-0.06618 0.256138,-0.130517 0.07157,-0.06483 0.10456,-0.162379 0.156837,-0.243569 0.08456,-0.256721 0.143371,-0.639791 0.384018,-0.809566 0.07063,-0.04983 0.172897,-0.03687 0.245317,-0.08406 0.15486,-0.100912 0.227134,-0.287069 0.308384,-0.4394674 0.06249,-0.28976 0.08271,-0.4363037 0.18733,-0.7138244 0.03923,-0.104067 0.104964,-0.1976515 0.137463,-0.3040135 0.122022,-0.3993716 0.11292,-0.6757975 0.433962,-1.0025874 0.219697,-0.7917929 -0.02606,-0.050985 0.26995,-0.6485337 0.198815,-0.4013526 0.01574,-0.1326167 0.148726,-0.5557302 0.146142,-0.4649936 0.09321,0.1801047 0.09983,-0.477194 -0.0021,-0.4055065 -0.0095,-0.8103496 0.01048,-1.2156813 -0.01288,-0.2316112 -0.181025,-0.2224954 -0.347082,-0.2878687 -0.02495,0.2719166 -0.128611,0.1582385 -0.346445,0.2275634 -0.06333,0.020156 -0.102188,0.090603 -0.165261,0.1115643 -0.156865,0.052132 -0.337057,-0.00432 -0.491324,0.067254 C 63.821965,5.2609885 63.452898,5.4825478 63.182223,5.9053478 70.592783,1.6225647 92.759105,-11.336934 85.413901,-6.9430013 77.937873,-2.4708069 70.327638,1.7731319 62.789693,6.14016 c -0.05528,0.032023 -0.09191,0.1005215 -0.154473,0.1134264 -0.08575,0.017688 -0.177104,-0.052023 -0.261208,-0.027685 -0.126176,0.036513 -0.137416,0.2806418 -0.33044,0.2146856 -0.638757,-0.1526617 -0.0042,-0.050463 -0.519085,-0.01465 -0.09414,0.00655 -0.190925,-0.04582 -0.282232,-0.022 -0.225594,0.05885 -0.380145,0.3918608 -0.538433,0.532306 7.360361,-4.2704733 14.727949,-8.5285154 22.081085,-12.8114199 0.08849,-0.051543 -0.198278,0.060657 -0.284557,0.1158233 -0.09208,0.058875 -0.15722,0.1522866 -0.242221,0.2209886 -0.270977,0.2190175 -0.607994,0.2827853 -0.825916,0.5702949 -0.163112,0.048479 -0.496147,0.1368122 -0.646134,0.2238644 -0.419981,0.2437584 -0.189391,0.1941945 -0.504334,0.570687 -0.07854,0.093891 -0.447921,0.3763571 -0.543294,0.4513513 -0.06873,0.116724 -0.121048,0.2448247 -0.2062,0.3501717 -0.231482,0.2863796 -0.555182,0.3616841 -0.816438,0.5528906 -0.09401,0.068804 -0.162226,0.1672598 -0.244777,0.2494637 -0.08023,0.079896 -0.162356,0.1578689 -0.243536,0.2368034 -0.181946,0.1593321 -0.297022,0.2746038 -0.504699,0.3999435 -0.08998,0.054305 -0.198464,0.077498 -0.281618,0.1417686 -0.269506,0.2083065 -0.431277,0.5536406 -0.709288,0.7562345 -0.091,0.0791102 -0.166944,0.1799635 -0.273004,0.23733055 -0.105795,0.057224 -0.231489,0.0654346 -0.347233,0.0981518 -0.103151,0.0476514 -0.211785,0.0848871 -0.309452,0.14295428 -0.451157,0.26823122 -0.122718,0.11731042 -0.470303,0.5303428 -0.06983,0.08297403 -0.167237,0.13810517 -0.250857,0.20715775 -0.505916,0.36628875 -0.353763,0.48592297 -0.681898,0.89637492 -0.261724,0.3273819 -0.32876,0.2243689 -0.68914,0.4032566 -0.13649,0.067751 -0.260171,0.1587115 -0.390257,0.2380672 -0.08585,0.077591 -0.634911,0.5771573 -0.730196,0.6501639 -0.125658,0.096278 -0.273191,0.162376 -0.395578,0.2627803 -0.130833,0.1073326 -0.224859,0.2562653 -0.360481,0.3574781 -0.241827,0.180473 -0.561451,0.2375272 -0.791122,0.4399862 -0.254673,0.1770091 -0.532746,0.3187783 -0.786659,0.4968766 -0.130348,0.091427 -0.235717,0.2151222 -0.364783,0.3083501 -0.121831,0.088001 -0.266558,0.1419195 -0.385593,0.2336655 -0.119561,0.09215 -0.217164,0.2097283 -0.325748,0.3145925 -0.109901,0.078094 -0.2198,0.1561876 -0.329702,0.2342812 -7.540622,4.3417535 -15.083212,8.6800841 -22.621861,13.0252601 -0.121773,0.07019 -0.481055,0.290909 -0.359264,0.22075 7.335478,-4.225621 14.676115,-8.4423381 22.000464,-12.6872192 0.09691,-0.056167 -0.216046,0.065102 -0.314321,0.1188523 -0.100003,0.054696 -0.176305,0.1461717 -0.274879,0.2034026 C 59.757299,10.265524 52.22191,14.611235 44.692856,18.967872 52.016115,14.746373 59.346713,10.53758 66.662635,6.3033752 c 0.124092,-0.07182 -0.26719,0.1063319 -0.392374,0.1762309 -1.153934,0.6443167 0.339317,-0.05629 -1.038055,0.5552915 -0.524324,0.2925519 -0.970562,0.713849 -1.520916,0.9650566 -3.462564,2.0919838 -6.80169,4.3931438 -10.035225,6.8226078 -4.918827,3.748019 -9.7383,7.70115 -13.594148,12.578024 -1.690021,2.232384 -1.041183,1.296022 -2.458743,3.447316 -0.286351,0.43457 -0.593447,0.856498 -0.854199,1.306891 -0.540932,0.934338 -0.945551,1.957171 -1.460236,2.906535 -0.108888,0.264317 -0.217773,0.528634 -0.326658,0.792953 -0.104713,0.222195 -0.218258,0.440439 -0.314142,0.666584 -0.398393,0.939616 -0.714312,1.926619 -1.297768,2.776527 -0.176609,0.204653 -0.337049,0.424461 -0.52983,0.61396 -0.376657,0.370252 -0.886997,0.712641 -1.30479,1.032134 -0.547626,0.41878 -1.065827,0.88001 -1.661316,1.232715 -0.964082,0.634773 -1.823431,1.407083 -2.767619,2.068846 -0.427614,0.317959 -0.86655,0.662548 -1.243139,1.041307 -0.123063,0.123774 -0.21313,0.277861 -0.337403,0.40042 -0.951002,0.937875 0.20589,-0.379116 -0.657415,0.637389 -0.197596,0.212985 -0.341835,0.420323 -0.620795,0.533918 -0.10799,0.04397 -0.239219,0.01042 -0.344533,0.06047 -0.199459,0.09478 -0.590842,0.513529 -0.687424,0.713842 -0.170896,0.128917 -0.374334,0.212839 -0.537615,0.351271 -0.02973,0.02521 -0.442822,0.539058 -0.469603,0.56127 -0.0805,0.06677 -0.190401,0.08809 -0.278698,0.144147 -0.08548,0.05427 -0.160356,0.123675 -0.240533,0.185512 -0.0876,0.04547 -0.187491,0.07261 -0.2628,0.1364 -0.09173,0.0777 -0.322726,0.448355 -0.420415,0.521167 -0.541261,0.403431 0.01022,-0.210283 -0.505919,0.204583 -0.08138,0.06542 -0.130878,0.162737 -0.196316,0.244105 -7.531282,4.356227 -14.8443342,9.113683 -22.5938439,13.068682 -7.5654415,3.861058 14.6994419,-8.51478 22.0408589,-12.786463 0.09683,-0.05634 -0.212274,0.0778 -0.305697,0.139622 -0.293339,0.194109 -0.505942,0.514018 -0.868679,0.608637 -6.533135,6.294591 -0.571021,0.591486 -22.8748216,13.349004 -0.1045462,0.0598 -0.2409544,0.01887 -0.3584801,0.04521 -0.1175532,0.02635 -0.2350527,0.05981 -0.3435792,0.1121 -0.6274279,0.302324 0.1013038,0.106435 -0.5994876,0.253307 -0.4832143,0.185912 -0.069813,0.0567 -0.6298469,0.1374 -0.1018633,0.01469 -0.1991248,0.06715 -0.3019979,0.0642 -0.1260618,-0.0036 -0.2440884,-0.06625 -0.3690262,-0.08343 -1.2132204,-0.166838 0.607613,0.17831 -0.7792178,-0.101456 -0.9279285,-0.08004 -1.8796351,-0.152806 -2.7284147,-0.570131 -0.930149,-0.547525 -1.799761,-1.211362 -2.305069,-2.19086 -0.130944,-0.327497 -0.240527,-0.54653 -0.298482,-0.893802 -0.06783,-0.406466 0.01575,-0.840619 -0.0091,-1.249358 0.02474,-0.265679 0.02396,-0.609554 0.211109,-0.827648 0.04735,-0.05518 0.141116,-0.06202 0.179708,-0.123646 0.102685,-0.163973 0.04608,-0.400598 0.207877,-0.541908 0.05212,-0.291781 0.06573,-0.440392 0.166756,-0.719996 0.15706,-0.43469 0.54363,-0.737692 0.543412,-1.236445 0.03278,-0.123954 0.0414,-0.256986 0.09834,-0.371866 0.03913,-0.07894 0.127354,-0.122671 0.181292,-0.192334 0.223329,-0.288431 0.09694,-0.18683 0.242999,-0.54984 0.244963,-0.608811 0.04042,0.161681 0.212055,-0.608137 0.332322,-0.345211 0.09179,-0.03702 0.314298,-0.586885 0.21227,-0.524556 0.612143,-0.97592 0.9510427,-1.419248 0.620398,-0.84215 0.9969853,-1.81067 1.5806799,-2.676484 0.124139,-0.09976 0.2708679,-0.176604 0.3724168,-0.299288 0.115145,-0.139106 0.1740703,-0.316511 0.2659729,-0.471956 0.3115883,-0.527025 0.6790511,-1.020035 1.0202001,-1.526906 0.091567,-0.200797 0.2194548,-0.384357 0.3034394,-0.588443 0.1701792,-0.413544 0.051103,-0.706301 0.6283976,-0.545594 0.3373191,-0.269585 0.093876,-0.424445 0.2965789,-0.794009 0.1922807,-0.350561 0.1367439,-0.107234 0.4459039,-0.26184 0.085568,-0.04279 0.1459116,-0.123782 0.2188674,-0.185671 0.092251,-0.216575 0.4967314,-1.043075 0.659259,-1.177498 0.073912,-0.06113 0.1846463,-0.06399 0.2599408,-0.123411 0.081275,-0.06414 0.1325495,-0.159086 0.1988242,-0.238628 0.6991631,-1.09976 -0.3962601,0.652764 0.3370416,-0.633572 0.2418632,-0.42427 0.5463309,-0.802181 0.8712872,-1.165454 0.191,-0.276903 0.3322403,-0.561892 0.5247212,-0.836064 0.060909,-0.08676 0.095976,-0.193421 0.1714856,-0.267823 0.064668,-0.06372 0.1731659,-0.06978 0.2368288,-0.134503 0.071335,-0.07252 0.1029329,-0.175497 0.1543994,-0.263245 0.040662,-0.131309 0.091368,-0.444376 0.26398945,-0.521704 0.0786441,-0.03523 0.17407823,0.02302 0.25846381,0.0055 0.33629768,-0.06961 0.35291504,-0.455332 0.45432859,-0.715969 0.34256296,-0.45991 0.30756578,-0.22909 0.75423829,-0.39997 C 0.98142338,38.723864 1.1362594,38.309275 1.2587089,37.920634 1.5668024,37.530596 1.4592934,37.612544 1.8416236,37.328275 1.9450087,37.251407 2.0645626,37.19545 2.1593,37.108147 2.470181,36.821655 2.6807195,36.422407 2.9007916,36.069694 3.1388918,35.790275 3.2500875,35.668546 3.4721437,35.37154 3.5696989,35.241056 3.6486831,35.096317 3.7554856,34.973289 4.086791,34.59165 4.5263374,34.305219 4.8797088,33.946349 5.173132,33.693619 5.4832614,33.4597 5.7648359,33.193833 6.4005204,32.593605 6.9575257,31.90642 7.7396343,31.476078 8.8512545,30.584543 10.01731,29.762959 11.1227,28.862644 c 0.583141,-0.502825 1.166371,-1.001365 1.802818,-1.437097 0.202346,-0.138535 0.42204,-0.251336 0.619663,-0.396525 0.380043,-0.279211 0.698492,-0.63705 1.100853,-0.888623 0.169018,-0.141699 0.338037,-0.283398 0.507054,-0.425097 0.169087,-0.126563 0.34408,-0.245596 0.507259,-0.379687 0.574413,-0.472019 1.0894,-1.015067 1.691626,-1.452659 0.23809,-0.162213 0.655349,-0.460818 0.919318,-0.583862 0.163036,-0.07599 0.347086,-0.100903 0.508962,-0.179338 0.531036,-0.25731 0.975871,-0.684742 1.424374,-1.055728 2.111668,-1.417467 -1.007505,0.692868 1.028426,-0.738813 0.158129,-0.111198 0.338088,-0.190891 0.489241,-0.311401 0.442358,-0.352683 0.873877,-0.859824 1.260013,-1.271621 0.469068,-0.307821 0.90682,-0.633345 1.39002,-0.917385 0.13836,-0.08133 0.263154,-0.187668 0.409994,-0.252447 0.136173,-0.06007 0.29367,-0.05987 0.430534,-0.118353 0.12559,-0.05366 0.232637,-0.143148 0.348955,-0.214723 1.258204,-1.044143 -0.688264,0.616717 0.517155,-0.573067 0.312194,-0.308145 0.879989,-0.223296 1.061241,-0.706187 0.394218,-0.469093 0.416462,-0.320716 0.904857,-0.573252 0.33397,-0.172685 0.411348,-0.296552 0.665272,-0.57579 0.108258,-0.119049 0.214,-0.240361 0.320999,-0.360542 0.753331,-0.906788 -0.132322,0.104543 0.668682,-0.653865 0.464305,-0.439613 0.785428,-1.028455 1.378102,-1.330296 0.205121,-0.212712 0.376266,-0.462232 0.60933,-0.643897 0.101512,-0.07913 0.249466,-0.08931 0.342539,-0.178211 0.10311,-0.09849 0.13853,-0.250426 0.224955,-0.363837 0.140672,-0.184595 0.342023,-0.31707 0.478841,-0.505455 0.01421,-0.01649 0.322592,-0.385825 0.368437,-0.398428 0.08871,-0.02439 0.1868,0.09468 0.270264,0.05598 0.08016,-0.03717 0.05607,-0.175027 0.119376,-0.236657 0.01392,-0.01354 0.36581,-0.119495 0.383302,-0.124877 0.03409,-0.0839 0.06818,-0.167805 0.102273,-0.251708 0.05542,-0.05014 0.13499,-0.08254 0.166266,-0.150418 0.05058,-0.109765 0.03793,-0.239031 0.06721,-0.356287 0.15603,-0.6248284 0.01783,-0.0414 0.236581,-0.5286205 0.04084,-0.090962 0.05896,-0.1905045 0.08844,-0.2857565 0.458002,0.092078 0.338025,0.059919 0.500037,-0.3002974 0.02776,-0.061729 0.0941,-0.101596 0.118979,-0.1645428 0.350038,-0.8856853 -0.210124,0.2290236 0.16329,-0.483457 0.05816,-0.026025 0.137191,-0.026411 0.174476,-0.078077 0.05233,-0.072502 0.03469,-0.1766339 0.06895,-0.2592193 0.02553,-0.061517 0.08933,-0.104076 0.108264,-0.1679289 0.07847,-0.2646642 0.0076,-0.5632863 0.220609,-0.7873123 0.05993,-0.039467 0.140575,-0.058306 0.179792,-0.1184007 0.05496,-0.084221 0.04997,-0.1953073 0.08616,-0.2891398 0.03218,-0.083456 0.094,-0.1547858 0.118239,-0.2408866 0.104279,-0.3704724 0.07742,-0.7840404 0.246121,-1.141339 0.121437,-0.3294033 0.331641,-0.6570711 0.414753,-0.9978373 0.09831,-0.4030817 0.06273,-0.8349678 0.194177,-1.2327974 -0.01799,-0.6231598 -0.06302,-1.247451 -0.05588,-1.8702104 0.08612,0.091293 0.844079,1.3956557 0.874639,1.3796228 7.651685,-4.0142375 15.08574,-8.430958 22.583652,-12.7255682 0.07295,-0.041784 -0.158677,-0.082703 -0.241953,-0.071178 -0.07223,0.01 -0.117723,0.08607 -0.176586,0.1291054 -0.03052,0.1145645 0.01037,0.2831369 -0.09155,0.3436934 -7.489253,4.4494717 -15.05015,8.77733528 -22.593778,13.1339828 -0.0671,0.038753 -0.294811,0.085097 -0.227841,0.046115 7.394242,-4.30416886 14.836531,-8.5256334 22.220248,-12.847835 0.145742,-0.085313 -0.660226,0.035971 -0.496553,0.1005432 -0.442762,0.6255117 0.09687,-0.046807 -0.444984,0.3831996 -0.360968,0.2864587 -0.485019,0.8290783 -0.981106,0.9546384 -0.314792,0.2940453 -0.631264,0.5782934 -0.980408,0.832 -0.281964,0.204893 -0.592896,0.3681485 -0.872763,0.5759004 -0.165951,0.1231884 -0.315228,0.2673775 -0.47284,0.4010663 -0.976819,0.816062 -1.870649,1.7259753 -2.770357,2.6263693 -0.207373,0.199165 -0.422444,0.4184618 -0.652577,0.593923 -0.09528,0.072644 -0.210523,0.1186801 -0.299036,0.1994295 -0.323052,0.2947209 -0.169986,0.297934 -0.476822,0.6152408 -0.07819,0.080857 -0.180395,0.1344023 -0.27059,0.2016035 -0.355334,0.2312477 -0.498526,0.4416801 -0.693474,0.8224796 -0.06934,0.13543575 -0.0977,0.29348011 -0.187991,0.4159467 -0.01289,0.0174789 -0.612169,0.49300874 -0.616254,0.49626406 C 49.011091,0.23136324 48.84596,0.51064304 48.646901,0.76482638 48.240136,1.284233 47.619328,1.5883883 47.248303,2.1482404 c -0.191812,0.2295561 -0.350328,0.4867363 -0.552655,0.7070807 -0.07925,0.086309 -0.197739,0.1321255 -0.271791,0.222932 -0.07947,0.097441 -0.107851,0.2285544 -0.180247,0.3313574 -0.118278,0.1679607 -0.305296,0.2797885 -0.415557,0.4551063 -0.137681,0.167308 -0.240756,0.3676845 -0.406522,0.5072169 -0.08142,0.068535 -0.199631,0.081539 -0.283187,0.1474539 -0.27797,0.2192783 -0.448874,0.5737017 -0.687264,0.828795 -0.07976,0.1094285 -0.146004,0.2301203 -0.239276,0.3282861 -0.468544,0.4931261 -1.234265,0.5973148 -1.509809,1.2887144 -0.216511,0.2362381 -0.40219,0.5022091 -0.638352,0.7188053 -0.104977,0.096279 -0.2418,0.1524225 -0.350408,0.2445855 -0.3236,0.274602 -0.580278,0.6294966 -0.879777,0.9281681 -0.567446,0.5871581 -1.131889,1.188058 -1.811781,1.648189 -0.102551,0.122177 -0.188579,0.260396 -0.307656,0.366532 -0.501654,0.447131 -1.288146,0.440993 -1.726778,0.981257 -0.250066,0.191238 -0.408458,0.327398 -0.685581,0.479515 -0.542199,0.297621 -1.045215,0.516238 -1.324849,1.123077 -0.636921,0.413206 -0.157749,0.06603 -0.725906,0.582532 -0.111868,0.101698 -0.231379,0.194657 -0.347069,0.291985 -0.118048,0.09093 -0.24378,0.172672 -0.35415,0.272784 -0.118381,0.107383 -0.20461,0.248769 -0.33004,0.34783 -0.126234,0.0997 -0.278189,0.161592 -0.417282,0.242388 -0.857105,0.704208 -1.777237,1.3281 -2.582564,2.093138 -0.159557,0.112697 -0.313594,0.233645 -0.478672,0.338091 -0.160488,0.101543 -0.343883,0.166332 -0.496724,0.279056 -0.587385,0.433206 -0.993854,1.051117 -1.535508,1.528766 -1.021529,0.840275 0.321134,-0.306526 -0.615016,0.634618 -0.0889,0.08937 -0.213291,0.137671 -0.30315,0.226078 -0.09391,0.0924 -0.145623,0.223059 -0.243264,0.311512 -0.08897,0.0806 -0.215933,0.109838 -0.307518,0.187453 -0.09997,0.08472 -0.173848,0.196106 -0.260772,0.294159 -0.166433,0.202159 -0.290184,0.441485 -0.480018,0.621848 -0.348429,0.331046 -0.921629,0.27968 -1.066323,0.847095 -0.504875,0.504423 -1.016439,1.005964 -1.457567,1.568646 -0.314802,0.159957 -0.485768,0.341979 -0.691953,0.630786 -0.06902,0.09668 -0.114833,0.210486 -0.194506,0.298588 -0.499456,0.552298 -0.03018,-0.215765 -0.421264,0.508586 -0.151973,0.169575 -0.247722,0.263423 -0.372848,0.455411 -0.05922,0.09086 -0.09064,0.200334 -0.161429,0.282502 -0.05904,0.06853 -0.166212,0.08649 -0.219468,0.159604 -0.06482,0.08899 -0.08047,0.204952 -0.120702,0.307426 -0.05112,0.06939 -0.102248,0.138771 -0.153372,0.208156 -0.390697,0.634251 0.113203,-0.07844 -0.384934,0.342592 -0.0789,0.06669 -0.102025,0.18475 -0.180507,0.251923 -0.07077,0.06058 -0.180336,0.06053 -0.25285,0.119001 -0.116177,0.09368 -0.274492,0.381145 -0.347446,0.501916 -0.04577,0.110174 -0.0787,0.22661 -0.137304,0.330524 -0.05291,0.09381 -0.457123,0.700319 -0.516498,0.759136 -0.128706,0.127497 -0.348547,0.153804 -0.510505,0.191638 -0.441942,0.33852 -0.05398,-0.01106 -0.413857,0.520415 -5.057816,7.46939 -42.016027,-9.225961 -23.4187149,13.580591 -0.1282388,-0.05278 -0.5659382,-0.223261 -0.6953126,-0.311231 -0.5794985,-0.394043 -1.0582311,-0.935507 -1.4073238,-1.538219 -0.1515026,-0.332496 -0.2517402,-0.48354 -0.3072756,-0.833623 -0.045789,-0.288643 0.046346,-0.600016 -0.025654,-0.889075 -0.1028535,-0.632716 -0.4120088,-1.196543 -0.5245544,-1.828217 5.71e-5,-0.528789 1.624e-4,-1.057579 2.91e-4,-1.586369 7.65e-5,-0.528403 3.969e-4,-1.056809 -0.00204,-1.58521 -0.00346,-0.551076 -0.00962,-1.10217 -0.027781,-1.652995 -0.021762,-0.692947 -0.06557,-1.390704 0.02358,-2.080683 0.045636,-0.201665 0.077346,-0.45543 0.2089611,-0.630134 0.095171,-0.126327 0.2965498,-0.147274 0.3835287,-0.279375 0.063168,-0.09594 0.073579,-0.217633 0.1103686,-0.326449 0.05251,-0.07552 0.1050211,-0.151047 0.1575315,-0.226571 0.3072912,-0.522474 0.22071,-0.209799 0.6196159,-0.343881 0.2732945,-0.09186 0.1946117,-0.227425 0.3125864,-0.464453 0.041982,-0.08434 0.1076024,-0.154687 0.1614037,-0.232034 0.1592439,-0.30704 0.074113,-0.251728 0.347605,-0.412515 0.068374,-0.0402 0.158676,-0.04951 0.2118275,-0.10838 0.1265666,-0.140185 0.1722203,-0.472379 0.2437674,-0.623477 0.045175,-0.0954 0.1187648,-0.174545 0.178147,-0.261816 0.082802,-0.03702 0.1779872,-0.0539 0.2484059,-0.111061 0.1663594,-0.13505 0.3344315,-0.607861 0.4883704,-0.697273 0.1382827,-0.08032 59.5515372,-34.2584826 0.4544276,-0.153802 0.085188,-0.01105 0.1752238,-0.0027 0.2555626,-0.03315 0.307907,-0.116544 0.1821465,-0.193436 0.365141,-0.460961 0.1544874,-0.22585 0.3908181,-0.349096 0.658057,-0.346226 0.069935,-0.04343 0.15726,-0.06692 0.2098034,-0.130301 0.071305,-0.08601 0.051264,-0.244423 0.1476727,-0.300875 C 4.7884449,20.723522 12.090211,15.913579 19.910616,12.083075 27.586203,8.3235045 -9.5805282,29.372258 -2.2907226,24.910451 -1.0543561,24.153719 56.144302,-8.8368066 -1.9042065,24.654752 5.6528498,20.329958 13.219841,16.022477 20.766963,11.680368 c 0.239214,-0.137627 0.09664,-0.221985 0.391811,-0.291536 0.299508,-0.07057 0.585715,0.12286 0.832533,-0.139649 0.317868,-0.171909 0.458538,-0.163032 0.738676,-0.407873 0.07445,-0.06507 0.310884,-0.242384 0.225145,-0.193134 -0.193442,0.111117 -59.560731,34.369013 0.600566,-0.295333 0.946027,-0.3551843 -0.263318,0.125911 0.573111,-0.289091 0.268432,-0.1331843 0.803884,-0.2091889 1.105295,-0.1961821 0.214369,-0.1358042 0.444186,-0.3184716 0.692708,-0.3869199 0.10358,-0.028528 0.2151,-0.017555 0.319367,-0.04346 0.747899,-0.1858145 -0.286035,-0.032408 0.563892,-0.1374044 0.129328,-0.072234 0.328302,-0.1911959 0.469205,-0.2372969 0.095,-0.031082 0.201991,-0.022458 0.29299,-0.063805 0.242372,-0.1101246 0.396986,-0.4085572 0.668814,-0.4779628 0.203015,-0.05421 0.39238,-0.1543882 0.596818,-0.2029623 0.399759,-0.094983 0.301737,0.030283 0.686975,-0.076563 0.09221,-0.025575 0.172503,-0.083074 0.260666,-0.1202835 0.09504,-0.040114 0.19245,-0.07438 0.288675,-0.1115699 0.378266,-0.080254 0.289944,-0.020135 0.591078,-0.2344841 0.08429,-0.059998 0.152341,-0.1438764 0.244034,-0.1917994 0.08766,-0.045816 0.196273,-0.039655 0.284478,-0.084421 0.155254,-0.078798 0.243764,-0.2639998 0.434065,-0.2905281 0.198289,-0.011618 0.405577,0.02194 0.594603,-0.039069 0.368876,-0.1190582 -0.05177,-0.1396229 0.355189,-0.2034754 0.08597,-0.013489 0.181263,0.046215 0.26084,0.010994 0.06939,-0.030712 0.08836,-0.1233985 0.13254,-0.1850979 -7.437072,4.2422037 -14.898611,8.4417947 -22.311214,12.7266077 -0.135945,0.07858 0.345227,0.05224 0.468967,-0.04443 0.07195,-0.05621 0.08045,-0.17547 0.157915,-0.223788 0.06883,-0.04293 0.161349,-0.01712 0.242023,-0.02567 0.06028,-0.04268 0.120561,-0.08536 0.180842,-0.128041 0.414884,-0.16899 -0.01623,0.06072 0.299571,-0.346315 0.248172,-0.319867 0.09071,0.111806 0.36492,-0.123196 0.393139,-0.33693 -0.182078,-0.167876 0.303008,-0.264356 0.3695,-0.751843 -0.151891,0.164474 0.30504,-0.276278 0.06058,-0.05843 0.04009,-0.172099 0.09887,-0.23234 0.197845,-0.202759 0.392672,0.164353 0.373922,-0.352359 0.294883,-0.500368 -0.128164,0.102506 0.28649,-0.147059 0.05621,-0.03383 0.03368,-0.132892 0.07914,-0.180193 0.03588,-0.03734 0.123371,-0.0071 0.145731,-0.0538 0.07594,-0.158618 -0.05055,-0.368089 0.05558,-0.524636 0.0285,-0.05448 0.05699,-0.10895 0.08549,-0.163425 0.04987,-0.01492 0.123505,2.91e-4 0.149603,-0.04474 0.119055,-0.205441 -0.06776,-0.554464 0.280424,-0.706507 0.0021,-0.5557 0.0061,-1.111392 0.01437,-1.667039 0.0075,-0.597088 0.0048,-1.193596 -0.0097,-1.790252 0.0067,-0.558688 0.01919,-1.117255 0.02839,-1.675901 0.0013,-0.272944 -0.04081,-0.5815218 0.04089,-0.8407244 C 14.389138,9.505553 14.236604,9.2371795 14.01193,9.0386374 13.697232,8.7190011 13.9673,8.9830444 13.686819,8.8838344 c -0.248183,-0.087786 -0.270767,-0.1555886 -0.472327,0.029963 -0.59063,0.1388646 0.253337,-0.09592 -0.253253,0.1685293 -0.204069,0.1065279 -0.658808,0.068585 -0.859324,0.2613465 -0.181214,0.096065 -0.379919,0.2295893 -0.596646,0.214909 -0.412785,-0.02796 -0.26862,-0.1614958 -0.634511,0.1681861 -0.112439,0.1240509 -0.263993,0.3683597 -0.451348,0.3890907 -0.09127,0.0101 -0.182571,-0.05878 -0.272514,-0.04029 -0.132931,0.02734 -0.1747188,0.251047 -0.3486989,0.210169 -0.090192,-0.0078 -0.1838454,-0.04936 -0.2705758,-0.02341 -0.1406826,0.04209 -0.202054,0.215992 -0.3221822,0.300445 -0.4291251,0.301688 0.05313,-0.07972 -0.4840875,0.122392 -0.079153,0.02978 -0.1286634,0.109789 -0.192995,0.164683 -0.7016103,0.500454 0.3174725,-0.192816 -0.4781534,0.232508 -0.06855,0.03665 -0.1079111,0.114766 -0.174828,0.154315 -0.069026,0.0408 -0.2953833,0.122618 -0.2259346,0.08255 C 29.492463,-1.2843464 37.681473,-5.2563976 29.78549,-1.4216299 22.227598,2.9115559 14.668482,7.2426039 7.1118178,11.577928 c -0.2653037,0.152207 -0.07796,0.106116 -0.4246505,0.110953 -0.067587,0.03632 -0.1865278,0.234571 -0.119935,0.196462 C 29.490283,-1.232693 36.852592,-3.9018718 28.607479,-0.89766814 21.08645,3.4940831 13.189944,7.2981862 6.04439,12.277586 -0.97945219,17.17217 20.836981,3.655241 28.241148,-0.64238892 c 0.05915,-0.0343307 -0.09669,0.10214467 -0.159633,0.12887924 -0.05906,0.0250828 -0.138429,-0.015953 -0.191423,0.0202221 -0.06245,0.042632 -0.04794,0.16985768 -0.120107,0.19244105 -0.0782,0.0244735 -0.154413,-0.0549135 -0.231619,-0.0823703 -0.422011,0.0600846 0.06301,-0.0629934 -0.264058,0.26371426 -0.04268,0.04263552 -0.136561,-0.0172697 -0.179194,0.0254149 -0.05958,0.05965187 -0.02487,0.17870563 -0.08435,0.23844904 -0.384921,0.38656927 0.01281,-0.52041735 -0.262938,0.26546258 -0.411982,0.0651409 0.05293,-0.0621284 -0.262796,0.27059343 -0.04167,0.0439139 -0.136903,-0.009742 -0.178323,0.0344078 -0.0599,0.0638487 -0.02792,0.18297727 -0.08659,0.24796322 -0.408011,0.4519667 0.04788,-0.57237981 -0.273784,0.3031389 -0.429997,0.1539059 0.06375,-0.074111 -0.298042,0.3297991 -0.04905,0.054757 -0.150502,0.035654 -0.202291,0.087825 -0.07033,0.070851 -0.07293,0.1929806 -0.14501,0.2620463 -0.06058,0.058042 -0.154349,0.065812 -0.231523,0.098718 -0.0618,0.081189 -0.123598,0.1623769 -0.185397,0.2435654 -0.08718,0.024755 -0.181515,0.03172 -0.261532,0.074264 -0.322093,0.171253 -0.07579,0.1824932 -0.421156,0.2852273 -0.212171,0.063113 -0.300451,-0.049283 -0.449444,0.1743854 -0.06592,0.098954 -0.08099,0.2235802 -0.121482,0.3353702 C 18.433624,10.662315 22.804298,9.0904698 0.68705457,16.659534 -7.4085706,19.430055 15.484729,8.0636873 22.883566,3.7657639 c -0.07803,0.00259 -0.15917,-0.01419 -0.234083,0.00779 -0.06557,0.019235 -0.114728,0.074254 -0.172092,0.1113804 -0.462538,0.1158382 0.08363,-0.073678 -0.303623,0.2873843 -0.05025,0.046854 -0.148038,0.00578 -0.19969,0.051082 -0.06487,0.056899 -0.05254,0.1755819 -0.120029,0.2293543 C 21.36873,4.8394627 21.907492,4.0553252 21.53836,4.6669948 21.265625,5.4197674 21.656891,4.559 21.272176,4.9244249 c -0.06,0.056987 -0.02639,0.1760592 -0.08685,0.2325513 -0.04475,0.041813 -0.137354,-0.021826 -0.182719,0.01932 -0.342701,0.3108308 0.166438,0.2003865 -0.275908,0.2481262 -0.296358,0.6992308 0.122752,-0.1133246 -0.284904,0.2575473 -0.063,0.057312 -0.04353,0.1728225 -0.102935,0.233847 -0.0471,0.048376 -0.145687,0.017693 -0.190823,0.067902 -0.61439,0.6834493 0.350781,-0.068043 -0.29834,0.4035846 -0.06578,0.1950136 -0.112045,0.4421293 -0.290728,0.5811162 -0.06958,0.054124 -0.175813,0.039129 -0.249636,0.087309 -0.197882,0.1291474 -0.323495,0.3956925 -0.46142,0.5774916 -0.316393,0.6662446 0.109393,-0.072493 -0.314701,0.2885381 -0.06581,0.056024 -0.05661,0.1741489 -0.124778,0.2272829 -0.0557,0.043414 -0.150223,-0.00567 -0.209251,0.033091 -0.07736,0.050805 -0.200226,0.3522186 -0.23001,0.4173865 -0.447725,0.1092785 0.0458,-0.063783 -0.322805,0.2852684 -0.05485,0.051938 -0.156648,0.02933 -0.211568,0.081193 -0.07141,0.067436 -0.07766,0.1852678 -0.145659,0.2561458 -0.501384,0.5226174 0.05245,-0.3815218 -0.378539,0.4161819 -0.1229,0.2822597 -0.152595,0.4397543 -0.392639,0.6472943 -0.09227,0.07978 -0.219887,0.110287 -0.314057,0.187814 -0.10512,0.08654 -0.170474,0.215687 -0.277817,0.299453 -0.165848,0.129422 -0.398156,0.156762 -0.542989,0.321661 0,0 -24.1009557,10.239901 -24.1009557,10.239901 z"
     inkscape:connector-curvature="0" />
  <path
     style="fill:url(#linearGradient1053);fill-opacity:1;stroke:none;stroke-width:11.33219433;stroke-linecap:round;stroke-linejoin:round;stroke-miterlimit:4;stroke-dasharray:none;stroke-opacity:1;paint-order:normal"
     d="m 44.116571,3.3737571 c -2.886629,0.050547 -8.594402,5.9494414 -13.538673,11.4348119 -0.497393,0.285317 -0.994785,0.570633 -1.492178,0.85595 0.07624,0.195816 0.137558,0.39671 0.18632,0.601621 -0.889802,0.998349 -1.724614,1.937985 -2.515537,2.827817 0.01561,-0.04956 0.03335,-0.09844 0.04869,-0.148091 0.412629,-1.342265 0.666954,-2.721755 0.891769,-4.106713 0.181263,-1.261571 0.282845,-2.449543 0.08129,-3.720389 C 27.631169,9.9023902 27.487122,8.6709993 27.084879,7.5074324 26.75818,6.7073891 26.308418,5.9706382 25.777008,5.2888816 25.612554,5.114856 25.260516,4.7283565 25.077599,4.6011431 24.896933,4.4754953 24.292404,4.3159479 24.088045,4.4333333 18.218703,7.8047124 12.395898,11.255959 6.5497036,14.667319 5.8526714,15.449134 5.081569,16.161016 4.4031864,16.96072 c -0.9360642,1.086319 -1.7774761,2.242642 -2.3243876,3.580346 -0.2797659,0.667045 -0.5511033,1.33789 -0.8414636,2.000438 -0.087823,0.200394 -0.178403,0.399425 -0.26761038,0.599206 -0.078347,0.155639 -0.164461,0.307887 -0.2350143,0.467211 -0.060989,0.137728 -0.1059481,0.281953 -0.1589566,0.422945 L 10.027029,19.541853 c 0.0264,0.262227 0.04568,0.525629 0.05996,0.789551 0.07951,1.105579 -0.08601,2.199242 -0.2269658,3.292614 C 9.7221254,24.946139 9.219842,26.178695 8.8193608,27.432939 8.3709373,28.780302 7.9231476,30.128311 7.3469,31.427376 6.6260601,32.957216 5.9495336,34.505973 5.3001834,36.067298 4.583253,37.519343 4.0263308,39.037414 3.5649412,40.587298 3.29222,41.541772 2.9975269,42.49806 2.7745861,43.466223 2.6678606,43.929702 2.592198,44.399918 2.4928909,44.865041 2.2391012,46.141206 2.1685563,47.44274 2.0518367,48.735935 c -0.080697,0.848274 0.014945,1.695724 0.2998041,2.497026 0.3362246,0.778239 0.9460165,1.272513 1.6668306,1.674074 0.1775854,0.05388 0.3487388,0.138148 0.5328063,0.161774 0.2369834,0.03042 1.0667355,-0.04325 1.2571653,-0.151311 5.910207,-3.353757 9.283743,-4.95556 11.454933,-5.944974 -0.142861,0.265771 -0.28776,0.530406 -0.429384,0.796793 -0.876296,1.748968 -1.754484,3.50322 -2.466443,5.327258 -0.354825,0.909063 -0.630071,1.72906 -0.950117,2.649947 -0.50237,1.584855 -1.02146,3.171307 -1.358173,4.801696 -0.195542,0.946826 -0.212212,1.165671 -0.346485,2.108287 -0.08858,1.117785 -0.219417,2.244881 -0.07968,3.36505 0.06338,0.508067 0.134859,0.705863 0.266805,1.188351 0.364231,0.88693 0.989589,1.745922 1.926795,2.091787 0.215801,0.07964 0.447602,0.107363 0.671239,0.160969 0.276841,-0.01133 0.55735,0.01207 0.830599,-0.0338 0.323576,-0.05432 0.662899,-0.102589 0.948105,-0.264794 6.806737,-3.871185 14.354598,-6.010538 19.12831,-11.996994 0.284164,-0.356355 0.549525,-0.727216 0.82416,-1.090965 2.101475,-2.813388 3.812216,-5.894513 5.565088,-8.930944 0.195189,-0.331056 0.385791,-0.664546 0.57667,-0.998005 -0.669421,1.609577 -1.318014,3.227786 -1.958988,4.84918 -0.903786,2.328683 -1.93618,4.604503 -2.845524,6.930506 -0.126521,0.30499 -0.250283,0.61124 -0.379482,0.915107 -0.304602,0.716389 -0.393009,0.831116 -0.620535,1.558579 -0.209145,0.6687 -0.354623,1.358423 -0.481297,2.046314 -0.163517,1.252761 -0.177544,2.523867 -0.05392,3.780751 0.140933,1.030909 0.517308,1.997926 1.053539,2.883352 0.485731,0.737707 1.127071,1.381889 1.961001,1.714719 0.200358,0.07997 0.412923,0.125204 0.619327,0.187931 0.216497,0.01606 0.432581,0.0567 0.649508,0.04829 0.435035,-0.01684 1.129991,-0.165838 1.501436,-0.379081 10.268583,-5.895098 13.378462,-5.86749 18.052636,-10.776852 -0.01172,0.280214 -0.01593,0.56083 -0.0012,0.841866 0.0152,0.290306 0.06953,0.577384 0.104227,0.866011 0.182084,1.481777 0.731167,2.844994 1.424976,4.152188 0.448462,0.679014 0.968773,1.368212 1.670452,1.808482 0.143062,0.08976 0.300509,0.154173 0.450712,0.231393 0.198645,0.04364 0.39223,0.127763 0.595583,0.13119 0.213346,0.0036 0.444335,-0.0062 0.630596,-0.110265 7.142916,-3.992282 12.40282,-5.730041 17.224049,-9.753895 -0.650881,2.386144 -1.211888,4.795908 -1.635038,7.233529 -0.351997,2.164814 -0.572424,4.348323 -0.438641,6.540157 0.04968,0.76283 0.10207,1.564432 0.372642,2.289779 0.02564,0.06874 0.04971,0.122547 0.07405,0.177467 0.723789,-0.483601 2.122882,-1.351981 4.465673,-2.729625 -1.610937,1.238817 -3.408017,2.348408 -4.389214,2.886569 0.08415,0.157942 0.17472,0.288071 0.306243,0.490151 0.762809,0.946947 1.593305,1.238901 2.789185,0.9139 0.274052,-0.07448 0.53122,-0.201208 0.796795,-0.301818 7.060866,-3.89518 14.543209,-6.811775 19.946834,-12.685134 0.62526,-0.679618 1.2591,-1.460868 1.84792,-2.16865 0.32529,-0.397385 0.64497,-0.799254 0.97587,-1.191974 0.69941,-0.830054 1.42509,-1.637972 2.12922,-2.464027 0.13241,-0.155342 0.26385,-0.311283 0.39598,-0.46681 -0.33053,0.949667 -0.67323,1.895859 -1.00203,2.843511 -0.20077,0.559967 -0.39939,1.120418 -0.60203,1.679709 -0.50003,1.38014 -0.74969,2.013896 -1.22416,3.404486 -0.55253,1.619375 -1.04112,3.25841 -1.53765,4.895461 -0.13961,0.494928 -0.27932,0.990005 -0.41893,1.484935 l 17.10211,-8.16232 c 0.11686,-0.471704 0.23365,-0.943616 0.35051,-1.415317 0.27527,-1.039758 0.52421,-2.019195 0.83905,-3.04915 0.69608,-2.27714 1.58142,-4.489401 2.39883,-6.724064 1.14596,-3.028451 2.2685,-6.067638 3.20288,-9.169579 0.33358,-1.085985 0.80403,-2.231014 0.74609,-3.336076 -0.98511,0.563877 -2.42492,1.390738 -4.26688,2.450747 0.26986,-0.186921 0.54165,-0.371016 0.81652,-0.550915 1.20733,-0.65354 2.41489,-1.326248 3.44996,-1.907077 -0.0298,-0.546209 -0.18708,-1.082875 -0.55816,-1.597211 -0.15274,-0.211693 -0.36864,-0.369654 -0.55293,-0.554537 -0.16835,-0.06046 -0.32685,-0.165809 -0.50504,-0.181493 -0.24636,-0.02168 -0.86462,0.220708 -1.04308,0.322743 -5.92086,3.385221 -13.02259,6.69171 -18.81764,11.044866 -2.04042,1.622992 -4.02121,3.32039 -5.92525,5.101902 -1.64413,1.607103 -3.202385,3.298478 -4.732886,5.014172 0.03644,-0.425965 0.08199,-0.851565 0.139639,-1.275675 0.442737,-3.079642 1.050726,-6.12998 2.026193,-9.091109 1.142504,-3.497129 2.446614,-6.935026 3.798454,-10.356321 1.21905,-3.325682 2.38259,-6.67028 3.44393,-10.050079 0.86726,-3.006408 1.64519,-6.072224 1.68856,-9.220285 -0.002,-1.763151 -0.066,-3.570579 -0.74287,-5.200898 -0.71435,0.386415 -2.05161,1.058575 -4.04796,2.087764 0.40565,-0.494099 0.84648,-0.956663 1.34691,-1.359783 0.17282,-0.139211 0.36218,-0.256447 0.54327,-0.384715 0.91274,-0.273082 1.58146,-0.472927 2.04631,-0.60162 -0.10523,-0.22793 -0.22233,-0.452357 -0.35494,-0.672044 -0.46077,-0.558292 -0.89887,-1.057176 -1.56662,-1.376685 -0.19198,-0.09186 -0.41385,-0.316213 -0.60122,-0.215296 -16.680605,8.983709 -13.919347,4.838646 -17.624863,10.015873 0.590708,-2.112116 1.076867,-4.252253 1.354148,-6.429491 0.02806,-0.955888 0.106866,-1.554343 -0.09256,-2.48938 C 88.422977,10.361017 87.684083,9.3988919 86.663809,8.7315991 86.438446,8.6451763 86.223312,8.5250358 85.98774,8.4724396 85.691296,8.4062505 84.927389,8.4062073 84.652103,8.5629844 77.359869,12.715916 71.814067,14.366007 66.89404,19.04124 c 0.280235,-1.087794 0.496004,-2.183863 0.596389,-3.280139 0.04278,-0.467289 0.02357,-0.938175 0.03541,-1.407269 C 67.388204,13.29132 67.422376,13.005578 67.031669,12.025018 66.548159,10.811564 65.658545,9.8265815 64.679513,8.9899538 64.164669,8.6121842 63.844992,8.3263862 63.249306,8.0849075 59.180129,6.43535 52.756057,14.594655 48.382644,18.939025 c -0.514593,0.300892 -1.028444,0.602974 -1.543289,0.903437 0.274792,-0.10021 0.470346,-0.12134 0.698605,-0.09457 -1.474458,1.363783 -2.646444,2.117974 -3.299858,1.603247 0.36959,-0.997897 0.710679,-2.006932 1.031005,-3.024199 0.676103,-2.331691 1.15302,-4.710624 1.450327,-7.121254 C 46.862628,9.6279505 47.061487,7.8023003 46.705344,6.2422177 46.652014,6.0085852 46.562188,5.7847437 46.490451,5.5560888 46.204978,4.9642415 45.908223,4.3938034 45.422023,3.9347319 45.270429,3.7915955 45.107025,3.6567245 44.924226,3.5564554 44.688588,3.4272029 44.417792,3.3684813 44.116566,3.3737561 Z m 2.722784,16.4687049 c -0.07247,0.02643 -0.149545,0.05783 -0.235417,0.09578 -0.148268,0.06552 -0.289323,0.147713 -0.426164,0.234612 -0.14898,0.09461 -0.582267,0.397507 -0.429785,0.308657 0.364249,-0.212245 0.727261,-0.426554 1.091366,-0.639045 z m 60.727845,-7.10395 c 0.0394,0.08544 0.0756,0.171878 0.11147,0.258354 0.83601,-0.452221 0.8094,-0.513299 -0.11147,-0.258354 z m 21.89255,26.302279 c 1.3e-4,0.0024 2.7e-4,0.0048 4e-4,0.0072 0.14362,-0.08221 0.42025,-0.241417 0.54769,-0.314291 -0.16387,0.09234 -0.36846,0.206243 -0.54809,0.307046 z M 80.417419,74.470799 c -0.02534,-0.04757 -0.05153,-0.100681 -0.07646,-0.156944 -0.958836,0.640648 -0.739119,0.604269 0.07646,0.156944 z M 29.08572,15.664519 c -0.01102,-0.02831 -0.02054,-0.05723 -0.03219,-0.08531 -0.07312,-0.101486 -0.162271,-0.321697 -0.270831,-0.259562 -0.124809,0.07144 -0.08355,0.295362 -0.10302,0.385923 -0.01799,0.08362 -0.05775,0.16091 -0.08652,0.241453 0.164181,-0.09418 0.328382,-0.188322 0.492565,-0.2825 z M 45.586215,6.199562 c -0.669599,0.3840984 -1.339291,0.7680347 -2.008889,1.1521332 0.461389,-0.4204072 0.965758,-0.7848098 1.550932,-1.0153099 0.148268,-0.058402 0.305273,-0.0912 0.457957,-0.1368233 z M 25.333942,7.2547116 c -0.289995,0.1693171 -0.580041,0.3385389 -0.870036,0.5078561 0.274142,-0.1959886 0.560649,-0.371872 0.870036,-0.5078561 z m 36.729427,3.6616344 c -0.349695,0.205016 -0.699077,0.410582 -1.04871,0.615706 0.337444,-0.224845 0.697702,-0.416994 1.04871,-0.615706 z m 23.500218,0.577878 c -0.0025,0.0024 -0.01763,0.01197 -0.04869,0.03018 -0.320163,0.187686 -0.640427,0.375286 -0.96058,0.562988 0.06826,-0.04784 0.13497,-0.09798 0.205234,-0.14286 0.212415,-0.135674 0.821535,-0.467199 0.804038,-0.45031 z M 8.7429016,16.313223 c 0.1255157,0.04742 0.2635489,0.21041 0.3915563,0.400007 -0.2645039,0.154435 -0.5290715,0.308753 -0.7935756,0.463188 0.078335,-0.05765 0.2905904,-0.397541 0.2998043,-0.497394 0.041264,-0.447138 -0.1167916,-0.104585 0.014487,-0.349301 0.029345,-0.0055 0.059791,-0.02705 0.087728,-0.0165 z m 61.7133744,4.018986 c -0.411944,0.239796 -0.822942,0.481194 -1.235032,0.720737 -0.143051,0.08315 0.264102,-0.199534 0.402019,-0.290951 0.28547,-0.189219 0.418694,-0.247697 0.711481,-0.396788 0.04058,-0.0081 0.08116,-0.0212 0.121532,-0.033 z m 19.31141,2.14209 c 0.05305,0.0012 0.107349,0.01265 0.162982,0.02897 -0.244922,0.138576 -0.467296,0.261673 -0.717116,0.403629 -0.09382,0.05331 0.112006,-0.186945 0.187932,-0.263587 0.125853,-0.126996 0.243949,-0.17174 0.366202,-0.169017 z m -61.934705,2.547732 c 1.442601,0 2.776616,0.04563 4.00168,0.137226 1.236515,0.08014 2.387197,0.263478 3.451974,0.549708 1.076224,0.28623 2.083753,0.692674 3.022588,1.219337 0.950285,0.526664 1.85484,1.230723 2.713529,2.112312 0.320578,0.332027 0.623646,0.704146 0.909877,1.116316 0.297678,0.412173 0.555516,0.864651 0.773051,1.356967 0.228984,0.480866 0.411915,1.001593 0.549306,1.562604 0.13739,0.549562 0.206442,1.133483 0.206442,1.751741 0,0.332027 -0.01716,0.681129 -0.05151,1.047503 -0.03435,0.366376 -0.08038,0.681555 -0.137628,0.944886 -0.332027,1.328109 -0.801265,2.507261 -1.408073,3.537689 -0.595358,1.01898 -1.293965,1.928986 -2.095409,2.730432 -0.789996,0.789994 -1.660226,1.477294 -2.610511,2.061203 -0.950283,0.58391 -1.934795,1.093328 -2.953773,1.528397 -1.018981,0.43507 -2.054979,0.812642 -3.108306,1.13322 -1.053327,0.320577 -2.078017,0.606886 -3.074099,0.858768 h 0.0169 c -0.44652,0.137391 -0.927066,0.257527 -1.44228,0.36057 -0.515214,0.103042 -1.036342,0.188854 -1.563005,0.257549 -0.526664,0.0687 -1.053244,0.126037 -1.579908,0.171834 -0.515214,0.03435 -1.002018,0.05151 -1.459986,0.05151 -0.503765,0 -0.927371,-0.02847 -1.270847,-0.08572 -0.343477,-0.0687 -0.623929,-0.154507 -0.841464,-0.25755 -0.206086,-0.114492 -0.354692,-0.240483 -0.446286,-0.377875 -0.09159,-0.137389 -0.137628,-0.286398 -0.137628,-0.446686 0,-0.228985 0.0632,-0.463403 0.189138,-0.703837 0.137391,-0.251881 0.354646,-0.486703 0.652326,-0.704238 0.526663,-0.377823 1.059099,-0.612643 1.597211,-0.704238 0.549562,-0.103043 1.128032,-0.182998 1.73484,-0.240245 l 4.293437,-17.380189 h -0.395178 c -0.206085,-0.01145 -0.440907,-0.02861 -0.704238,-0.05151 -0.251883,-0.03435 -0.503463,-0.08583 -0.755346,-0.15453 -0.251882,-0.0687 -0.44107,-0.165815 -0.567012,-0.291756 -0.05725,-0.08014 -0.13175,-0.183119 -0.223344,-0.30906 -0.08014,-0.13739 -0.160101,-0.280544 -0.240245,-0.429384 -0.08014,-0.160289 -0.148794,-0.320605 -0.20604,-0.480893 -0.05725,-0.160289 -0.08612,-0.320606 -0.08612,-0.480894 0,-0.263332 0.108829,-0.48099 0.326364,-0.652728 0.228984,-0.183188 0.503985,-0.326341 0.824562,-0.429384 0.332027,-0.114492 0.686984,-0.194449 1.064808,-0.240246 0.377824,-0.0458 0.72107,-0.06881 1.0302,-0.06881 z m 3.812541,3.245933 c -0.858689,2.221146 -1.591219,4.476477 -2.198025,6.766318 -0.606808,2.289841 -1.190731,4.614224 -1.751743,6.972761 -0.137389,0.583908 -0.280544,1.184993 -0.429383,1.803251 -0.148839,0.618257 -0.291993,1.224793 -0.429384,1.820152 l 0.395177,-0.08572 c 0.251884,-0.05725 0.589277,-0.143057 1.012897,-0.25755 0.435069,-0.114492 0.933179,-0.257646 1.494191,-0.429385 0.561011,-0.171736 1.150788,-0.377685 1.769046,-0.618119 0.618258,-0.240433 1.270829,-0.526739 1.957781,-0.858767 0.698401,-0.343476 1.385299,-0.726904 2.0608,-1.150524 0.675504,-0.43507 1.322624,-0.904711 1.940882,-1.408477 0.618255,-0.503763 1.161999,-1.041653 1.631417,-1.614112 0.469417,-0.583909 0.841535,-1.190849 1.116316,-1.820556 0.286231,-0.641155 0.429385,-1.305438 0.429385,-1.992389 0,-0.698401 -0.1377,-1.356427 -0.412481,-1.974683 -0.274781,-0.629707 -0.646902,-1.208176 -1.116318,-1.734841 -0.457969,-0.538112 -0.995857,-1.013205 -1.614115,-1.425378 -0.606808,-0.42362 -1.242216,-0.784029 -1.90627,-1.081709 -0.664055,-0.297678 -1.339643,-0.521192 -2.026596,-0.670031 -0.675502,-0.160289 -1.316768,-0.240246 -1.923577,-0.240246 z m 58.494003,0.10302 c 0.938835,0 1.408476,0.223111 1.408476,0.66963 0,0.240432 -0.08581,0.607099 -0.25755,1.099415 -0.171738,0.492316 -0.658543,2.272554 -1.459986,5.340941 2.163899,-0.0687 3.944137,-0.10302 5.340939,-0.10302 0.893039,0 1.339663,0.446623 1.339663,1.339661 0,1.053328 -0.658427,1.579908 -1.975086,1.579908 -1.488397,0 -3.268633,0.03432 -5.340941,0.10302 -0.652605,3.079837 -0.97869,5.117911 -0.97869,6.113993 0,0.320577 -0.206349,0.583867 -0.618521,0.789952 -0.400723,0.206088 -0.807166,0.30906 -1.219338,0.30906 -0.457967,0 -0.830087,-0.114684 -1.116318,-0.343668 -0.286229,-0.228982 -0.429383,-0.515291 -0.429383,-0.858766 0,-1.225066 0.326487,-3.194088 0.979091,-5.907551 -1.614337,0.03435 -3.011147,0.114305 -4.190416,0.240247 -0.686952,0.06869 -1.150739,0.103019 -1.391171,0.103019 -0.652605,0 -0.97869,-0.572214 -0.97869,-1.717134 0,-0.446519 0.314778,-0.801475 0.944483,-1.064808 0.641157,-0.263331 2.77635,-0.423647 6.405749,-0.480893 1.144921,-3.88128 1.871996,-6.0508 2.181124,-6.508769 0.30913,-0.469417 0.761206,-0.704237 1.356565,-0.704237 z m -12.073052,4.001279 c 0.526663,0 0.88162,0.131845 1.064806,0.395178 0.194637,0.263332 0.291756,0.59527 0.291756,0.995993 0,0.538112 -0.09712,1.064693 -0.291756,1.579908 -0.183186,0.503765 -0.480803,1.04791 -0.892973,1.631819 l -8.05447,11.368816 c -0.160289,0.343474 -0.32646,0.629783 -0.498198,0.858766 -0.171737,0.228984 -0.343362,0.412319 -0.5151,0.549708 -0.160289,0.137392 -0.314749,0.240366 -0.46359,0.30906 -0.148839,0.0687 -0.280686,0.114327 -0.395176,0.137227 -0.05725,0.01145 -0.108734,0.0173 -0.15453,0.0173 -0.03435,0.01145 -0.07453,0.01731 -0.120325,0.01731 -0.240432,0 -0.452237,-0.05149 -0.635423,-0.15453 -0.183188,-0.103042 -0.343504,-0.234889 -0.480895,-0.395178 -0.12594,-0.148839 -0.223061,-0.309157 -0.291755,-0.480895 -0.0687,-0.183186 -0.10302,-0.354809 -0.10302,-0.5151 -0.05725,-0.240432 -0.137606,-0.584082 -0.240648,-1.030601 -0.103043,-0.44652 -0.223181,-0.950081 -0.36057,-1.511093 -0.125942,-0.561011 -0.263241,-1.162096 -0.41208,-1.803253 l -0.41208,-1.95778 C 64.963055,41.732313 64.837064,41.096905 64.722571,40.478647 64.608079,39.860389 64.510558,39.293629 64.430415,38.778416 64.373165,38.41204 64.310374,38.06839 64.241678,37.747813 64.172988,37.427235 64.109786,37.123765 64.05254,36.837535 63.99529,36.539856 63.943806,36.253548 63.89801,35.978767 63.86366,35.692538 63.8465,35.406633 63.8465,35.120402 c 0,-0.320577 0.03432,-0.624047 0.10302,-0.910278 0.0687,-0.29768 0.166216,-0.555516 0.292158,-0.773051 0.13739,-0.228985 0.297707,-0.411915 0.480893,-0.549307 0.194638,-0.137389 0.406441,-0.206039 0.635425,-0.206039 0.457967,0 0.818378,0.114282 1.08171,0.343266 0.274781,0.217535 0.486583,0.515149 0.635423,0.892973 0.148841,0.366374 0.251813,0.795835 0.309059,1.288151 0.0687,0.492316 0.120585,1.001735 0.154934,1.528398 0.0458,0.664054 0.119899,1.385276 0.222942,2.163822 0.103042,0.767097 0.217726,1.540206 0.343668,2.318753 0.12594,0.767097 0.251931,1.511335 0.377873,2.232636 0.137389,0.70985 0.257527,1.339405 0.36057,1.888967 0.343476,-0.354926 0.944561,-1.144797 1.803251,-2.36986 0.423622,-0.595361 0.812903,-1.144958 1.167827,-1.648723 0.366376,-0.503766 0.709622,-0.984712 1.0302,-1.442681 0.320577,-0.469419 0.624047,-0.933204 0.910278,-1.391171 0.286231,-0.457969 0.56123,-0.933062 0.824561,-1.425378 0.274781,-0.492316 0.538071,-1.013043 0.789955,-1.562605 0.263332,-0.561009 0.526622,-1.179257 0.789953,-1.85476 0.08015,-0.13739 0.177264,-0.280544 0.291757,-0.429383 0.114492,-0.160291 0.246337,-0.297992 0.395178,-0.412484 0.160289,-0.12594 0.337767,-0.228914 0.532403,-0.30906 0.206085,-0.08014 0.435051,-0.120323 0.686935,-0.120323 z m -22.755336,1.820556 c 0.664054,0 1.242122,0.08036 1.734437,0.240646 0.492316,0.160291 0.898761,0.383401 1.219338,0.66963 0.320578,0.286231 0.561253,0.62988 0.721542,1.030603 0.160288,0.389274 0.240246,0.812879 0.240246,1.270848 0,0.389273 -0.05149,0.761392 -0.15453,1.116318 -0.16029,0.641155 -0.457905,1.20206 -0.892974,1.682926 -0.43507,0.480868 -0.950343,0.904474 -1.545701,1.270848 -0.583911,0.354926 -1.225175,0.65254 -1.923577,0.892974 -0.686951,0.240433 -1.379301,0.440928 -2.077702,0.601219 -0.686953,0.160288 -1.351234,0.28628 -1.992391,0.377873 -0.641155,0.08015 -1.196206,0.142938 -1.665622,0.188736 -0.103043,0.206086 -0.19471,0.469376 -0.274853,0.789953 -0.0687,0.309128 -0.10302,0.612598 -0.10302,0.910278 0,0.664055 0.26329,1.179327 0.789952,1.545701 0.526663,0.366376 1.253741,0.549307 2.181126,0.549307 0.538113,0 1.053385,-0.05694 1.545701,-0.171432 0.492316,-0.125942 0.9557,-0.280805 1.39077,-0.463993 0.446519,-0.194636 0.864673,-0.400585 1.253946,-0.61812 0.389273,-0.228984 0.744231,-0.452095 1.064808,-0.66963 0.41217,-0.274781 0.801452,-0.503744 1.167828,-0.686932 0.377824,-0.194638 0.709762,-0.292159 0.995993,-0.292159 0.28623,0 0.469161,0.0745 0.549306,0.223343 0.08014,0.137392 0.120323,0.2864 0.120323,0.446689 0,0.09159 -0.0055,0.182858 -0.0169,0.274451 0,0.08015 -0.0059,0.148794 -0.01731,0.20604 -0.05725,0.29768 -0.17193,0.595698 -0.343667,0.893376 -0.171738,0.297681 -0.388995,0.555115 -0.652326,0.77265 -1.190717,0.938835 -2.415904,1.60857 -3.675317,2.009291 -1.247963,0.400723 -2.581979,0.601218 -4.001682,0.601218 -0.274781,0 -0.600864,-0.01716 -0.97869,-0.05151 -0.366374,-0.03435 -0.749799,-0.102997 -1.150522,-0.20604 -0.400723,-0.103043 -0.795858,-0.252051 -1.185131,-0.446688 -0.389274,-0.194636 -0.738375,-0.45207 -1.047505,-0.77265 -0.297678,-0.320577 -0.543807,-0.715712 -0.738443,-1.185131 -0.183188,-0.469417 -0.274855,-1.036177 -0.274855,-1.700231 0,-0.538112 0.07451,-1.139199 0.223345,-1.803251 -0.148839,-0.0229 -0.291994,-0.0974 -0.429385,-0.223345 -0.12594,-0.137389 -0.189136,-0.332031 -0.189136,-0.583913 0,-0.492316 0.131844,-0.910068 0.395176,-1.253544 0.263333,-0.343475 0.612435,-0.572441 1.047505,-0.686933 0.125941,-0.251884 0.320581,-0.589678 0.583912,-1.013298 0.263332,-0.43507 0.589821,-0.904309 0.979094,-1.408073 0.389271,-0.503765 0.83004,-1.007731 1.322356,-1.511496 0.503765,-0.515215 1.05296,-0.979001 1.648319,-1.391173 0.606808,-0.42362 1.253928,-0.766866 1.940881,-1.0302 0.698401,-0.263331 1.436784,-0.395176 2.215331,-0.395176 z m -0.5151,2.696224 c -0.503765,0 -1.001875,0.131847 -1.494191,0.395178 -0.480868,0.263331 -0.938798,0.595272 -1.373868,0.995995 -0.423622,0.389273 -0.801596,0.812879 -1.133623,1.270848 -0.332027,0.446517 -0.589462,0.852962 -0.77265,1.219335 0.824343,-0.06869 1.57989,-0.177523 2.266843,-0.326363 0.686951,-0.160288 1.282182,-0.35493 1.785948,-0.583913 0.515213,-0.240434 0.927513,-0.503724 1.236641,-0.789954 0.320577,-0.297681 0.526526,-0.612456 0.618119,-0.944483 0.0229,-0.05725 0.03461,-0.108734 0.03461,-0.15453 v -0.15453 c 0,-0.30913 -0.114684,-0.538096 -0.343668,-0.686935 -0.228985,-0.160289 -0.503583,-0.240648 -0.824161,-0.240648 z m 76.917273,0.875669 c 0.0454,-0.02833 -0.43161,0.240745 -1.67931,0.954142 0.94892,-0.534764 1.63049,-0.923677 1.67931,-0.954142 z M 20.625206,40.917283 c -0.106298,0.186627 -0.213093,0.372967 -0.31912,0.559769 -0.06482,-0.0052 -0.148683,-0.06173 -0.175859,-0.111067 -0.01874,-0.04475 -0.03293,-0.09064 -0.04789,-0.136422 0.180978,-0.104056 0.36188,-0.20824 0.542867,-0.31228 z m 90.927584,8.455686 c -8e-5,5.48e-4 7e-5,0.0015 0,0.002 -0.0916,0.05299 -0.1427,0.08218 -0.23502,0.135617 -0.0785,0.04546 0.1053,-0.06216 0.23502,-0.137628 z m -31.118066,5.983205 c -0.09784,0.105403 -0.211537,0.198035 -0.293366,0.316304 -0.06656,0.09621 -0.09739,0.21274 -0.14608,0.319118 -0.04517,0.06096 -0.189468,0.2922 -0.296584,0.311879 -0.162273,0.0298 -0.359671,-0.07903 -0.543269,-0.216101 0.426414,-0.243788 0.852922,-0.487346 1.279299,-0.7312 z m -48.440302,1.177485 c 0.11531,0.0019 -0.136209,0.246407 -0.867619,0.807258 -0.134165,0.102875 -0.280604,0.188611 -0.420934,0.282903 -0.398188,0.250388 -0.776916,0.493976 -1.070441,0.137628 1.304498,-0.751481 2.196624,-1.230503 2.358994,-1.227789 z m 25.338883,1.740072 c 0.03931,0.0013 -0.7359,0.53917 -1.021748,0.729992 -0.120863,0.08069 -0.247077,0.152879 -0.370631,0.229382 -0.288334,0.159909 -0.503771,0.238965 -0.694579,0.230587 0.672171,-0.385202 1.343255,-0.772089 2.016536,-1.155354 0.04267,-0.02429 0.06481,-0.0348 0.07042,-0.03461 z m 42.370173,4.881374 c -0.04546,0.03734 -0.811661,0.668575 -0.917522,0.749711 -0.0967,0.07412 -0.211131,0.126051 -0.298597,0.21087 -0.132453,0.128437 -0.208836,0.33521 -0.336826,0.472041 -0.134431,-0.108365 -0.237078,-0.24269 -0.318315,-0.392763 0.637203,-0.353656 1.192402,-0.664735 1.87126,-1.039859 z m -34.735429,1.046699 c -0.120997,0.08037 -0.24786,0.161976 -0.394372,0.250306 -0.233794,0.140949 -0.957958,0.523741 -0.72114,0.387936 0.371632,-0.213116 0.743816,-0.425238 1.115512,-0.638242 z"
     id="path1045"
     inkscape:connector-curvature="0" />
</svg>
