<svg xmlns="http://www.w3.org/2000/svg" xmlns:xlink="http://www.w3.org/1999/xlink" width="500" height="500" viewBox="0 0 132.292 132.292"><defs><linearGradient id="a"><stop offset="0" stop-color="#00f"/><stop offset="1" stop-color="purple"/></linearGradient><linearGradient xlink:href="#a" id="b" x1="70.73" y1="201.547" x2="57.305" y2="252.139" gradientUnits="userSpaceOnUse"/><linearGradient xlink:href="#a" id="e" gradientUnits="userSpaceOnUse" x1="70.73" y1="201.547" x2="57.305" y2="252.139" gradientTransform="translate(35.092 71.289) scale(.71253)"/><linearGradient xlink:href="#a" id="f" gradientUnits="userSpaceOnUse" x1="70.73" y1="201.547" x2="57.305" y2="252.139" gradientTransform="translate(2.619)"/><linearGradient xlink:href="#a" id="d" gradientUnits="userSpaceOnUse" x1="70.73" y1="201.547" x2="57.305" y2="252.139" gradientTransform="translate(2.619)"/><linearGradient xlink:href="#a" id="c" gradientUnits="userSpaceOnUse" x1="70.73" y1="201.547" x2="57.305" y2="252.139" gradientTransform="translate(2.619)"/></defs><g aria-label="Dev+" style="line-height:154.20785522px;-inkscape-font-specification:'MV Boli'" transform="translate(0 -164.708)" font-weight="400" font-size="59.251" font-family="MV Boli" letter-spacing="0" word-spacing="0" fill="url(#b)" stroke-width=".309"><path d="M5.145 246.535q1.33-.955 2.69-1.186 1.389-.26 2.922-.405l7.233-29.279h-.665q-.521-.029-1.186-.087-.637-.086-1.273-.26-.637-.174-.955-.492l-.376-.52q-.203-.348-.405-.724-.203-.405-.348-.81-.144-.405-.144-.81 0-.665.55-1.1.578-.462 1.388-.723.84-.289 1.794-.405.955-.115 1.736-.115 3.645 0 6.74.231 3.125.203 5.816.926 2.72.723 5.092 2.054 2.401 1.33 4.571 3.559.81.839 1.533 1.88.753 1.042 1.302 2.286.579 1.215.926 2.632.347 1.39.347 2.951 0 .84-.086 1.765-.087.926-.232 1.591-.839 3.356-2.372 5.96-1.505 2.575-3.53 4.6-1.996 1.997-4.397 3.472-2.402 1.476-4.977 2.575-2.575 1.1-5.236 1.91-2.662.81-5.179 1.446h.029q-1.128.347-2.43.608-1.302.26-2.633.434-1.33.173-2.662.289-1.302.087-2.459.087-1.273 0-2.14-.145-.869-.174-1.418-.434-.521-.29-.753-.636-.231-.348-.231-.753 0-.578.318-1.186.347-.636 1.1-1.186zm12.73-8.303q-.348 1.475-.724 3.037-.376 1.563-.723 3.067l.665-.144q.637-.145 1.707-.434 1.1-.29 2.517-.724 1.418-.434 2.98-1.041 1.562-.608 3.298-1.447 1.765-.868 3.472-1.938 1.707-1.1 3.27-2.373 1.562-1.273 2.748-2.72 1.186-1.475 1.88-3.066.724-1.62.724-3.356 0-1.765-.695-3.327-.694-1.591-1.88-2.922-1.158-1.36-2.72-2.401-1.533-1.07-3.211-1.823-1.678-.752-3.414-1.128-1.707-.405-3.24-.405-2.17 5.612-3.704 11.399-1.533 5.786-2.95 11.746z" fill="url(#c)"/><path d="M47.326 239.707q0-1.244.666-2.112.665-.868 1.765-1.157.318-.637.983-1.707.666-1.1 1.65-2.372.983-1.273 2.227-2.546 1.273-1.302 2.778-2.344 1.533-1.07 3.269-1.736 1.765-.665 3.732-.665 1.678 0 2.922.405 1.244.405 2.054 1.128.81.724 1.215 1.736.405.984.405 2.141 0 .984-.26 1.88-.405 1.62-1.504 2.836-1.1 1.215-2.604 2.14-1.476.898-3.24 1.505-1.737.608-3.501 1.013-1.736.405-3.356.636-1.62.203-2.807.319-.26.52-.463 1.33-.173.782-.173 1.534 0 1.678 1.33 2.604 1.332.925 3.675.925 1.36 0 2.604-.289 1.244-.318 2.343-.781 1.129-.492 2.112-1.042.984-.578 1.794-1.128 1.041-.694 1.967-1.157.955-.492 1.678-.492.724 0 .926.376.203.347.203.752 0 .232-.03.463 0 .203-.028.347-.145.753-.579 1.505-.434.752-1.1 1.302-3.008 2.372-6.19 3.385-3.154 1.012-6.742 1.012-.694 0-1.649-.087-.925-.086-1.938-.347-1.013-.26-1.996-.752-.984-.492-1.765-1.302-.752-.81-1.244-1.996-.463-1.186-.463-2.864 0-1.36.376-3.038-.376-.058-.723-.376-.319-.347-.319-.984zm18.111-8.014q.058-.144.058-.26v-.26q0-.782-.578-1.158-.579-.405-1.389-.405-1.273 0-2.517.666-1.215.665-2.315 1.678-1.07.983-1.909 2.14-.839 1.129-1.302 2.055 2.083-.174 3.82-.55 1.735-.405 3.008-.984 1.302-.607 2.083-1.33.81-.753 1.041-1.592zm-3.356-7.84z" fill="url(#d)"/><path d="M119.783 236.708q-1.175 5.545-1.175 7.338 0 .577-.742.949-.722.37-1.464.37-.824 0-1.34-.412-.515-.412-.515-1.03 0-2.206 1.175-7.092-2.907.062-5.03.289-1.237.123-1.67.123-1.175 0-1.175-2.061 0-.804 1.134-1.278 1.154-.474 7.69-.577 2.06-6.989 2.617-7.813.557-.845 1.629-.845 1.69 0 1.69.804 0 .433-.31 1.319-.308.886-1.751 6.411 3.896-.124 6.41-.124 1.609 0 1.609 1.608 0 1.897-2.371 1.897-2.68 0-6.411.124z" fill="url(#e)"/><path d="M86.297 252.032q-.145.029-.26.029-.087.029-.203.029-.607 0-1.07-.26-.463-.261-.81-.666-.319-.376-.492-.81-.174-.463-.174-.868-.145-.608-.405-1.736-.26-1.128-.607-2.546-.319-1.418-.695-3.038l-.694-3.298q-.347-1.649-.637-3.211-.289-1.563-.491-2.864-.145-.926-.319-1.736-.173-.81-.318-1.534-.145-.752-.26-1.446-.087-.724-.087-1.447 0-.81.173-1.533.174-.752.492-1.302.347-.579.81-.926.492-.347 1.07-.347 1.158 0 1.823.579.695.55 1.07 1.504.377.926.522 2.17.173 1.244.26 2.575.116 1.678.376 3.645.26 1.938.579 3.906.318 1.938.636 3.76.347 1.795.608 3.183.868-.897 3.038-3.992 1.07-1.505 1.967-2.778.926-1.273 1.736-2.43.81-1.186 1.533-2.343.724-1.158 1.389-2.402.694-1.244 1.33-2.632.666-1.418 1.332-3.125.202-.347.491-.723.29-.405.666-.695.405-.318.897-.52.52-.203 1.157-.203 1.33 0 1.794.666.492.665.492 1.678 0 1.36-.492 2.661-.463 1.273-1.505 2.749L89.45 248.907q-.405.868-.839 1.447-.433.579-.867.926-.405.347-.782.52-.376.174-.665.232z" fill="url(#f)"/></g></svg>