<svg xmlns="http://www.w3.org/2000/svg" xmlns:xlink="http://www.w3.org/1999/xlink" width="500" height="300" viewBox="0 0 132.292 79.376"><defs><linearGradient id="a"><stop offset="0" stop-color="#00f"/><stop offset="1" stop-color="purple"/></linearGradient><linearGradient xlink:href="#a" id="b" x1="-7.275" y1="40.587" x2="161.13" y2="40.587" gradientUnits="userSpaceOnUse" gradientTransform="matrix(.77872 0 0 .77872 6.24 8.082)"/></defs><path d="M-8.718 21.334c.016-.021.535-.718.553-.736.086-.092.204-.15.294-.238.315-.31.288-.375.714-.54.484-.408-.085.116.337-.446.045-.06.131-.079.175-.139.056-.077.056-.186.114-.262.383-.5-.058.444.265-.35.372-.104.255-.262.436-.494.041-.052.133-.045.177-.095.317-.36-.087-.164.294-.306.2-.16.409-.34.557-.551.065-.093.092-.21.166-.297.113-.133.264-.16.417-.21l.13-.228c.055-.033.127-.046.166-.098.054-.073.042-.18.095-.254.035-.048.12-.041.154-.09.266-.385-.1-.17.24-.327.289-.825-.115.121.247-.302.055-.064.033-.175.09-.238.038-.042.125-.003.164-.044.308-.33-.12-.182.26-.272.511-.409-.246.24.275-.4.043-.052.135-.04.18-.088.06-.066.056-.175.118-.238.427-.436-.076.45.29-.291C4.53 5.93-38.88 49.82 21.113.253 63.273-34.581-10.283 16.657-.653 12.918c.382.004.367-.277.545-.53.172-.245.213-.158.43-.352.077-.068.135-.154.203-.232.727-.234-.254.124.416-.265.062-.036.151-.001.213-.039.067-.041.082-.143.15-.184.407-.246-.002.281.32-.22.42-.055-.056.059.29-.232.044-.038.13.01.173-.03.06-.053.041-.164.1-.219.382-.358-.04.458.266-.258.392-.083-.06.06.263-.263.04-.04.128.004.168-.037.059-.058.038-.17.096-.228.39-.392-.058.5.264-.265.028-.098.02-.214.084-.294.038-.048.13 0 .18-.037.17-.257.057-.148.32-.301C11.358 4.55 18.868.136 26.416-4.213c7.419-4.275-14.8 8.614-22.2 12.92.056-.054.1-.124.167-.163 7.535-4.37 15.06-8.759 22.636-13.06.087-.05.204.069.299.037.174-.238.06-.157.34-.244L5.321 8.067c7.178-5.284-.065.038 22.831-13.12.06-.035.11-.082.165-.123.083-.013.172-.006.25-.04.798-.344-.517.035.45-.216.1-.007.21.02.3-.023.623-.3-.309-.132.39-.291.424-.097.414.204.69-.191.11-.17.322-.003.449-.087.065-.042.037-.157.09-.214.156-.167.516-.073.7-.051.007.001.546.081.554.078.07-.023.073-.13.129-.177.179-.147.465-.106.674-.1.322.086.763-.018 1.073.08.221.069.416.204.63.294.359.33.834.56 1.17.91.744.777-.01.072.467.51.336.403.684.745.958 1.198.384.647.47 1.365.52 2.099.033.584.038 1.169.041 1.754a42.31 42.31 0 0 0-.016 1.795c.007.55.011 1.1.013 1.65.076.304.088.597.018.9-.015.066-.052.128-.056.196-.047.757.096.028-.03.584-.208.31-.126.258-.173.633-.01.07-.06.13-.069.201-.07.529.088.19-.103.521-.044.028-.11.037-.131.084-.041.09-.02.196-.04.292-.162.74.027-.031-.242.42-.28.47.098.143-.247.399-.303.873.113-.134-.251.354-.186.25.02.254-.245.451-.404.303-.009-.273-.327.289-.193.09-.19.329-.326.46-.053.05-.149.034-.207.08-.096.077-.24.362-.293.457l-22.73 12.903c-.105-.019-.21-.08-.314-.056-.071.017-.084.125-.145.165-.292.19-.133-.05-.46.07-.115.043-.24.27-.294.354l-.241.102c-.097.015-.2.01-.291.044-.082.03-.135.12-.22.147-.087.027-.605.026-.685.045-.1.025-.184.092-.276.137-.317.113-.626.062-.9.281-.078.063-.127.158-.21.216-1.001.709.422-.465-.504.322-.28.209-.635.103-.94.181-.088.022-.154.098-.238.13-.199.076-.382.078-.59.096-.842.556.452-.265-.493.223-.08.041-.13.128-.21.172-.266.147-.6.139-.893.149-.513.552.174-.136-.396.278-.34.248.052.133-.36.337-.753.373.147-.214-.546.267 7.357-4.228 29.132-17.392 22.072-12.684-7.332 4.889-14.246 11.743-22.95 13.122-.115.019-.235 0-.348.031-.094.025-.173.088-.26.132l-.3.071c-.105.01-.22-.015-.316.029-.282.127-.163.438-.53.558-.088.029-.358.09-.277.044 7.406-4.276 14.846-8.493 22.27-12.74-61.43 35.422.69-.389-.41.21-7.646 4.166-15.285 8.374-22.625 13.06-7.195 4.592 14.814-8.485 22.19-12.781.074-.044-.178-.025-.258.005-.078.029-.127.108-.19.162-.139.25-.364.395-.639.47-.084.022-.181-.007-.26.03-.139.067-.273.318-.347.432-60.237 34.717-.508.379-.37.3.069-.04-.158.021-.235.042-.317.085-.483.214-.69.463-.075.034-.148.077-.228.102-.072.022-.155.006-.224.037-.292.128-.286.46-.497.669-.056.056-.135.083-.203.124-.064.064-.121.136-.192.193-.06.049-.149.064-.199.124-.3.366-.04.687-.595.933-.072.189-.301.124-.418.233-.067.063-.085.164-.134.243-.158.254-.282.324-.55.428-.426.127-.538.463-.608.864-.057.504-.047 1.012-.046 1.518a470.044 470.044 0 0 1 .008 3.182c-.134.406.115.907.227 1.297.034.122.321 1.332.227 1.362-.028.01-.03-.051-.044-.077-.186-.434-.037-.87.006-1.313C7.793 31.765.331 35.96-7.119 40.174c-.083.047.175-.071.261-.11.798-.368-.269.111.548-.301.085-.043.188-.051.265-.108.08-.06.129-.154.193-.232.208-.528.45-.434.827-.693.462-.32-.015-.06.448-.293.29-.187.368-.518.55-.778.05-.071.141-.106.193-.175.32-.428-.05-.148.32-.386.087-.169.297-.193.414-.323.075-.084.1-.204.17-.293.054-.07.137-.111.197-.175.112-.117.286-.365.378-.492.558-.55-.056.098.437-.574.059-.08.143-.14.209-.214.241-.276.43-.58.616-.895.526-.485.988-1.034 1.473-1.559.453-.245.547-.802.934-1.116.19-.155.413-.267.605-.42.093-.086.195-.165.281-.26.087-.094.142-.216.233-.307.087-.087.205-.138.295-.222.107-.1.188-.227.296-.326 1-.924-.348.471.69-.633.927-.731 1.658-1.67 2.553-2.43.86-.643 1.662-1.36 2.509-2.022.11-.103.21-.219.329-.31.111-.087.246-.138.36-.22.494-.36.991-.77 1.429-1.193.571-.213.842-.77 1.26-1.168.195-.187.443-.351.663-.506.108-.074.223-.138.326-.22.098-.08.183-.174.275-.26.104-.09.204-.185.311-.27a3.948 3.948 0 0 1 1.144-.627c.624-.443 1.261-.862 1.857-1.343.499-.338.866-.822 1.297-1.23.225-.212.48-.392.709-.6.101-.083.213-.154.303-.247.151-.156.344-.497.474-.659a3.04 3.04 0 0 1 .835-.712c.258-.207.531-.42.738-.682.074-.095.117-.214.196-.305.124-.14.293-.233.432-.358.188-.269.494-.434.713-.664.102-.107.167-.246.265-.357.214-.241.46-.454.678-.691.37-.365.658-.804 1.003-1.188.29-.323.64-.578.936-.897.087-.13.35-.546.473-.66.08-.073.194-.101.279-.17.289-.237.463-.565.626-.89.084-.117.158-.241.253-.349.614-.697-.082.234.514-.509.093-.115.162-.247.256-.36.202-.243.51-.513.738-.724.977-.892 1.966-1.775 2.897-2.715.611-.676 1.296-1.255 2.022-1.802.082-.09.152-.19.246-.268.223-.183.52-.262.725-.48.405-.43-.035-.136.403-.388C40.31-7.5-2.643 22.236 57.676-12.743c.066-.038.22-.203.155-.166C35.44-.003 27.156-1.315 35.859.01c.052-.056.123-.1.157-.168.039-.081-.027-.22.051-.265 3.029-1.727 20.449-21.08 24.104-10.652.169.833.102 1.687.08 2.53 0 .957-.014 1.932-.226 2.87-.198.636-.359 1.28-.39 1.945.022.244-.21.38-.283.576-.085.23-.163.624-.184.865l-.095.212c-.04.047-.09.086-.118.14-.042.087-.047.187-.085.274-.03.069-.096.119-.12.19-.038.118-.078.619-.088.72-.062.034-.134.056-.187.104-.067.061-.104.15-.166.216-.103.109-.272.154-.348.283-.1.36-.024.209-.203.47-.031.17-.067.453-.161.607-.038.061-.132.075-.164.14-.06.122-.037.274-.099.395-.014.027-.445.37-.45.375-.228.284-.63.48-.871.736-.108.115-.165.272-.27.39-.197.221-.446.39-.664.591-.382.527-.967.838-1.416 1.295-.707.718.076.028-.679.665-.11.106-.222.211-.33.32-.31.31-.314.31-.565.662-.176.247-.23.399-.477.58-.076.057-.17.084-.255.126-.083.05-.173.087-.247.148-.338.28-.175.243-.485.552-.396.395-.132.06-.605.347-.12.073-.218.179-.328.268-.284.178-.453.483-.711.688-.138.11-.302.183-.452.276-.498.308-1.01.586-1.505.9-.731.287-1.273.861-1.855 1.362-.336.289-.696.55-1.041.828-.463.312-.898.666-1.318 1.034-.139.122-.26.265-.408.376-.137.103-.773.458-.932.548-1.077.538-1.996 1.317-2.95 2.039-1.176.963-2.399 1.858-3.623 2.758-1.096.867-2.166 1.769-3.284 2.61-.61.555-1.344.956-1.969 1.493-.286.247-.55.517-.83.772-.637.619-1.361 1.13-1.964 1.781-.672.57-.94 1.312-1.605 1.905-.655.21-.544 1.029-.984 1.425-.061.055-.147.073-.221.11-.56.022-.425.427-.657.764-.075.11-.329.151-.43.178-.075.064-.161.115-.223.191-.071.088-.098.207-.17.295-.055.067-.14.103-.203.161-.237.22-.463.436-.667.688-.356.59-.89 1.039-1.261 1.613-.177.184-.19.448-.31.659-.11.192-.257.236-.404.394-.264.348-.126.19-.41.478-.045.103-.096.204-.136.31-.101.27-.047.361-.275.521-.31.219-.29-.115-.439.348-.035.344-.008.55-.346.697-.079.034-.169.047-.238.098-.178.13-.3.325-.453.484-.577.85-1.276 1.618-1.747 2.534-.678.724-1.203 1.546-1.666 2.417-.197.367-.414.727-.645 1.074-.106.16-.273.276-.364.445-.05.092-.063.2-.095.301-.399.339-.437.901-.67 1.336-.048.088-.128.155-.191.232-.054.076-.12.146-.163.23-.096.192-.163.516-.24.71-.1.252-.263.482-.406.71.014.212-.14.368-.187.56-.028.115-.015.237-.042.352-.05.21-.19.359-.325.515-.235.236-.195.584-.398.826-.132.047-.058-.183-.007-.165.076.028.13.095.203.132.238.121.455.138.715.12.738-.065 1.48-.068 2.22-.103.156-.173.42-.123.596-.246.083-.057.107-.176.188-.237.075-.057.182-.056.262-.106.64-.396-.243-.008.494-.301.22-.309.578-.166.852-.406.085-.074.304-.327.206-.27C-7.45 61.354-13.703 64.191-5.681 60.535c.236-.268.591-.363.873-.562.093-.065.156-.169.254-.226 10.582-6.167 49.078-28.385.478-.319.337-.02.446-.333.71-.484.085-.049.187-.053.278-.087.33-.125.244-.093.493-.343.083-.06.17-.116.249-.18.097-.077.178-.175.282-.243.373-.246.218-.01.572-.3.17-.139.308-.314.477-.454.275-.093.572-.371.763-.588.094-.108.146-.25.248-.351.19-.188.486-.317.72-.436.9-.571 1.688-1.305 2.46-2.038.868-.802 1.825-1.495 2.74-2.243 1.237-.883 2.471-1.773 3.714-2.65 1.23-.824 1.792-2.195 2.486-3.443 1.599-3.268 3.902-6.108 6.213-8.89 4.16-4.87 8.926-9.169 13.844-13.255 2.593-2.192 5.315-4.22 8.033-6.252 7.76-5.72 15.87-9.439 24.777-14.565L42.957 15.343c-.1.058.206-.106.301-.172.095-.066.165-.165.265-.223A6358.789 6358.789 0 0 1 66.16 1.914c.112-.064.47-.216.357-.15-7.309 4.22-14.634 8.414-21.95 12.622.839-.378 1.547-.96 2.306-1.469.072-.053.71-.52.775-.558.139-.082.298-.127.436-.21.13-.077.238-.184.363-.269.264-.18.537-.343.801-.522.11-.099.221-.194.328-.295.098-.093.178-.205.285-.287.292-.226.261-.092.592-.235.295-.128.298-.192.497-.436.077-.08.146-.17.233-.24.089-.073.204-.109.29-.186.29-.265.448-.67.738-.937.077-.07.18-.107.27-.161.616-.275.998-.797 1.527-1.188.628-.417.916-.893 1.624-1.216.192-.31.58-.486.824-.7.28-.245.48-.626.72-.91.095-.054.197-.097.285-.162.087-.064.15-.156.234-.224.722-.58-.21.233.532-.326.085-.064.153-.149.23-.224L81.054-9.46c.277-.12.76.106 1.024.04.077-.02.11-.12.179-.16.329-.197.166.097.295-.33.073-.208.293-.041.406-.127.062-.048.024-.163.075-.222.045-.05.244-.107.187-.074-4.619 2.675-55.278 31.923.37-.207.593 0 1.182.097 1.773.146.179.058.38-.018.559.033.129.037.24.12.364.169.563.226.582.256 1.03.696.59.467.954 1.149 1.245 1.829.264.643.31 1.322.328 2.007.061.832.012 1.674-.258 2.47.005.399-.206.698-.347 1.043-.123.3-.206.617-.333.918-.166.45-.081 1.004-.364 1.407-.095.137-.225.246-.33.376-.052.104-.11.205-.155.312-.06.144-.09.301-.163.439-.27.508-.913 1.15-1.287 1.612-.122.13-.254.252-.366.39-1.809 2.253 1.087-1.197-.917 1.238-.543.66-1.164 1.251-1.766 1.855-1.295 1.299-2.685 2.502-4.079 3.693a64.604 64.604 0 0 1-4.35 3.884 119.243 119.243 0 0 0-5.255 4.464c-1.254 1.21-2.484 2.45-3.639 3.755-1.03 1.026-1.787 2.278-2.735 3.37-1.897 1.917-4.156 3.424-6.293 5.055-3.244 2.55-6.298 5.332-9.367 8.087-1.85 1.677-3.629 3.424-5.383 5.2a107.877 107.877 0 0 0-3.14 3.525 33.34 33.34 0 0 0-2.729 3.786c-.306.654-.771 1.218-1.13 1.84-.597 1.033.169-.14-.377.677-.058.1-.108.205-.173.3-.063.168-.245.232-.34.37-.19.272-.32.73-.48 1.042-.525.554-.85 1.233-1.236 1.883-.28.536-.653 1.023-.889 1.583-.092.218-.307.854-.381 1.07-.488 1.307-1.033 2.589-1.493 3.906-.238.907-.645 1.772-.84 2.689a5.295 5.295 0 0 0-.498 1.856c-.06.597-.118.712.165 1.239.147.39.438.464.745.68.592.07.27-.104.43-.404.1-.184.57-.333.704-.388.276-.145.85-.438 1.096-.6.226-.15.888-.619.652-.485-6.942 3.967-13.852 7.992-20.78 11.985-.315.183.635-.362.947-.55.314-.19.621-.39.932-.586 2.627-1.646 4.639-4.024 6.733-6.265 3.309-3.561 6.748-7 10.212-10.408a396.12 396.12 0 0 1 9.556-9.067c1.358-1.288 2.782-2.502 4.186-3.738.75-.86 1.712-1.484 2.6-2.186a116.164 116.164 0 0 0 5.012-3.6c.442-.372.98-.653 1.363-1.096.45-.519 1.037-1.43 1.407-1.941.376-.52.766-1.029 1.149-1.543.638-.784 1.258-1.582 1.915-2.35.894-1.044 1.82-2.062 2.738-3.086a302.52 302.52 0 0 1 11.234-11.834c2.73-2.736 5.668-5.244 8.696-7.64C86.655 9.073 99.184 2.978 103.518.479c.691-.398.106.003.704-.43-56.078 32.37-1.868 1.056.69-.332 7.415-4.027-29.073 17.138-21.943 12.624.18-.115 59.18-34.09 1.161-.64.142-.072.292-.13.426-.216.14-.09.261-.206.392-.309 7.543-4.326 15.083-8.66 22.63-12.98.129-.073.269-.124.396-.2.119-.07.215-.177.34-.235.13-.06.276-.077.413-.115.118-.061.47-.25.354-.184-7.337 4.21-14.679 8.41-22.02 12.614-.089.05.176-.108.266-.16 7.541-4.338 15.062-8.713 22.627-13.01.097-.055.227 0 .334-.03.088-.023.162-.085.242-.127.218-.366.53-.217.777-.349.079-.042.1-.153.17-.208.767-.582-.266.394.407-.269.154-.155.382-.011.547-.094.074-.037.081-.15.147-.2.207-.16.543-.09.776-.07.183.066.396.012.579.077.135.048.252.14.382.2.1.046.213.064.31.117.294.16.463.339.71.561.1.1.194.209.302.302.065.057.15.09.215.146.41.35.714.789.995 1.242.557.897.625 1.95.727 2.975.092 1.35.016 2.707-.365 4.012-.318 1.086-.73 2.007-1.161 3.05a25.327 25.327 0 0 1-4.307 7.036c-.475.551-.982 1.073-1.474 1.61-4.437 4.494-9.512 8.269-14.55 12.05-2.965 2.28-5.96 4.546-8.714 7.083-1.452 1.339-2.393 2.352-3.768 3.773-3.662 3.84-6.911 8.035-9.936 12.387a116.606 116.606 0 0 0-4.682 7.418c-.586 1.074-1.318 2.062-1.934 3.117-.125.213-.626 1.184-.75 1.421-.222.702-.704 1.282-1.012 1.94-.11.232-.177.482-.269.722-.045.248-.341.335-.459.52-.05.08-.059.177-.098.261-.04.086-.174.289-.228.373-.059.065-.19.566-.351.366-.111-.137-.096-.116-.057-.233.025-.04.03-.107.074-.117.126-.028.774.185.89.21.21.048.752.1.944.122.773.076 1.615-.012 2.324-.362.264-.13.502-.31.758-.456.376-.216.759-.42 1.138-.631-36.19 18.888-23.302 14.166-16.31 9.127 1.241-.895 2.402-1.883 3.56-2.882a50.597 50.597 0 0 0 4.39-4.403c.315-.354.626-.712.945-1.063 1.474-1.622 1.139-1.186 2.731-2.995 1.912-2.172 3.74-4.416 5.575-6.653a186.576 186.576 0 0 0 10.338-13.737c1.015-1.431 1.903-2.952 2.97-4.347.303-.231.446-.593.718-.853.09-.085.205-.14.294-.226.147-.144.425-.524.55-.69.79-.682 1.658-1.274 2.356-2.059.241-.34.628-.526.9-.836.223-.256.435-.555.625-.837.073-.043.156-.071.219-.127.068-.061.111-.145.167-.217.074-.082.137-.175.22-.246.083-.07.181-.117.274-.17 22.665-13.158 13.98-11.833 22.936-13.154.077.006.698.058.782.046.104-.015.192-.09.295-.115.332-.077.394 0 .732-.068.114-.022.22-.073.33-.11 1.149-.15-.446.035.904-.034.18-.01.354-.062.533-.072 2.257-.128-1.035.16 1.506-.02.28-.02.558-.063.837-.094 1.65-.182 3.307-.236 4.962-.327a64.69 64.69 0 0 1 2.732-.117c.124.05.264.072.373.149.61.432 1.258 1.441 1.42 2.176.06.275.064.56.096.841-.01.29.02.585-.032.871-.484 2.63-2.191 5.249-3.668 7.423-2.014 2.749-4.334 5.26-6.856 7.546-1.759 1.51-3.634 2.876-5.533 4.204-1.283.863-2.59 1.686-3.89 2.524-1.508.954-2.995 1.934-4.38 3.06-1.35 1.05-2.411 2.385-3.457 3.72a20.34 20.34 0 0 0-2.112 3.685c-.314.726-.488 1.497-.74 2.245-.052.27-.193.541-.24.807-.017.091-.002.186-.015.277.013.07.02.168.083.216.017.013.036-.036.057-.03.064.022.111.078.173.105.13.058.294.077.43.1.622.057 1.249.167 1.874.151.462-.012.802-.092 1.257-.175.227-.072.463-.122.68-.218.211-.093 3.261-1.86 1.595-.907-6.725 3.84-13.43 7.715-20.17 11.53-.658.372 1.315-.756 1.925-1.203.823-.605 1.577-1.3 2.366-1.95 3.8-3.744 7.023-8.073 9.642-12.719.438-.777.824-1.581 1.237-2.372 1.748-3.554 3.231-7.228 4.679-10.912.66-1.782 1.428-3.52 2.142-5.28.416-.763.82-1.523 1.275-2.261 4.023-8.38 2.97-2.207 22.98-13.617.256-.145.579-.126.859-.13 1.406.014 1.569.272 2.38 1.49.121.28.286.547.363.843.261 1.017.176 1.828.02 2.879-.346 2.34-1.13 4.466-1.942 6.673-1.443 3.64-2.941 7.266-4.832 10.698a24.187 24.187 0 0 1-3.321 4.49c-1.124 1.132-2.22 2.306-3.189 3.573-1.196 1.477-2.184 3.103-3.041 4.795-.587 1.077-.93 2.258-1.41 3.38-.34.722-.409 1.547-.465 2.335.004.64.151 1.096.85 1.18.697.067 1.295-.265 1.894-.573.987-.506.528-.244 1.502-.88 7.366-5.142.574-.366-19.879 11.381-.31.178.608-.377.901-.581.89-.62 1.586-1.343 2.313-2.139 1.052-1.268 2.046-2.607 2.86-4.042.096-.16.18-.327.286-.48.099-.146.228-.27.327-.414.491-.712.013-.144.512-.886.15-.223.342-.415.513-.623 5.11-7.634 14.76-15.818 23.926-14.012.595.135 1.268-.015 1.823.282.176.094.33.226.494.339.775.735 1.721 1.495 2.118 2.529.134.347.198.718.297 1.077.534 2.292.332 4.664-.033 6.965-.31 1.625-.866 3.185-1.393 4.748-.125.43-.297 1.043-.447 1.469-.113.318-.28.618-.36.946-.1.417-.146.846-.173 1.274-.095 1.49.027 2.093.17 3.628.667 3.833 2.135 7.463 4.387 10.641.39.551.828 1.066 1.243 1.599 1.076 1.244 2.308 2.34 3.721 3.189.869.522 1.828.912 2.736 1.36.748.35 1.248.898 1.674 1.583l-22.707 12.96c.096-.251-.48-.583-.552-.737-2.031-1.892-4.15-3.713-5.639-6.098-.409-.62-.85-1.222-1.227-1.862-.394-.669-.729-1.37-1.081-2.06-1.505-2.951-2.881-5.981-3.902-9.136-.668-2.053-.625-1.711-1.026-3.663-.084-.41-.412-2.12-.396-2.631.008-.273.335-1.198.424-1.465.401-1.657 1.116-3.195 1.716-4.785.6-1.794 1.034-3.71.464-5.573-.271-.544-.792-1.417-1.517-1.26-.179.102-.268.168-.472.221-.371.097-.764.093-1.071.363-5.452 6.926-.523.604 22.013-12.452.185-.108-.44.012-.634.102-.213.099-.37.296-.601.366-.202.208-.38.44-.598.632-.479.422-.305.086-.713.646-.117.161-.188.352-.307.51-.12.162-.271.299-.407.448-.718.863-.212.213-.898 1.227-.731 1.082-1.531 2.117-2.276 3.19-1.015 1.321-.326.444-1.398 1.754-.246.302-.468.624-.735.907-.257.271-.51.562-.83.753-20.923 12.462-14.694 9.567-23.52 13.612-1.997.635-3.428.889-5.29-.286-.192-.16-.395-.308-.575-.481a5.477 5.477 0 0 1-1.565-2.875c-.133-1.068-.073-2.121.062-3.188.167-.65.38-1.056.649-1.663.34-.77.692-1.528 1.051-2.29.443-.863.444-.85.87-1.74.147-.307.27-.627.435-.925.156-.282.357-.536.524-.812.171-.283.327-.576.49-.864l.487-.793c.168-.24.341-.476.502-.72.164-.249.296-.518.471-.758.16-.218.356-.405.529-.612.488-.586.913-1.222 1.436-1.78 2.2-2.146-1.157 1.105 1.233-1.124 1.058-.987 1.986-2.111 2.913-3.218a41.303 41.303 0 0 0 6.16-10.574c.41-1.388.816-2.563 1.03-3.988.094-.63.313-2.367-.206-2.976.09.776-.343.604-.859.963-.026.019-.382.28-.406.295-.075.046-.312.167-.235.123 7.399-4.26 14.83-8.464 22.202-12.77.089-.052-.205-.028-.307-.02-.099.007-.193.042-.29.063-.036.025-.52.354-.537.372-.1.104-.16.242-.255.351-.346.393-.799.68-.998 1.194-1.382 1.629-2.244 3.643-3.326 5.468-.263.514-.54 1.02-.79 1.542-.877 1.838-1.639 3.73-2.558 5.55-.363.717-.753 1.42-1.133 2.129-.424.792-.852 1.583-1.279 2.374-1.165 2.053-1.832 3.275-3.094 5.296-2.255 3.611-4.798 7.04-7.435 10.38-.505.638-.981 1.302-1.516 1.917-.391.45-.745.966-1.257 1.271-7.493 4.474-15.1 8.754-22.705 13.035-.978.55-2.14.647-3.23.693-1.424-.047-2.858-.195-4.154-.834-.95-.567-1.576-1.203-2.04-2.223-.278-.735-.413-1.498-.288-2.283.158-.974.584-1.859.884-2.794.179-.45.337-.907.533-1.348.33-.738.74-1.426 1.136-2.128.146-.259.28-.525.42-.787.937-1.528 2.045-2.942 3.232-4.283.211-.205 1.085-1.06 1.304-1.245.234-.199.492-.368.731-.56.245-.196.47-.416.721-.605.463-.348.98-.62 1.442-.97.416-.283.818-.586 1.238-.862.914-.598 1.878-1.123 2.772-1.753 2.156-1.268 4.226-2.674 6.24-4.158.85-.64 1.735-1.28 2.533-1.988 1.737-1.54 3.27-3.307 4.792-5.054.924-1.23 1.849-2.448 2.517-3.842.171-.36.295-.739.447-1.107.091-.22.223-.425.281-.655.042-.168.01-.346.016-.519l.007-.227c.01-.22.068.374.06.393-.022.05-.093.057-.139.085-.783-.017-1.566-.047-2.349-.05-1.565.018-3.125.16-4.678.348-1.366.14-2.726.36-4.031.79-.455.065-.639.175-1.053.283-.447.117-.484.047-.813.452-6.22 6.214-.241.206 21.845-12.588.085-.05-.157.124-.248.164-.187.084-.33.03-.505.153-.086.061-.141.156-.212.234-.31.097-.627.267-.872.49-.35.32-.542.8-.982 1.03-.142.116-.294.22-.426.345-.382.364-.417.508-.77.894-.616.678-.075.039-.684.583-.105.094-.19.207-.285.311-.263.131-.44.19-.645.41-.091.1-.138.235-.23.335-.278.303-.718.422-.897.828-1.704 1.475-3.229 3.123-4.715 4.816-2.558 2.914-5.07 5.885-7.414 8.975-.667.878-1.299 1.782-1.958 2.666-.622.836-1.256 1.662-1.885 2.493-1.552 2.067-3.055 4.164-4.562 6.264-.653.91-1.281 1.837-1.958 2.728-.244.321-.51.626-.765.94-.422.551-.809 1.13-1.243 1.672-.97 1.21-2.187 2.208-3.3 3.276-1.318 1.102-2.636 2.211-3.991 3.267-7.907 6.159-16.508 10.607-25.693 15.28-1.31.568-1.636.81-3.002 1.045-.991.17-1.994-.106-2.966-.242-1.104-.238-2.243-.469-3.055-1.314-.632-.792-1.14-1.628-.98-2.676.029-.22.043-.414.116-.623.028-.08.088-.148.111-.23.1-.347.08-.71.343-1 .18-.168.368-.325.498-.54.094-.155.146-.332.232-.492.31-.581.713-1.104 1.098-1.635.276-.497.568-.987.83-1.491.15-.285.267-.586.423-.866.501-.899 1.191-1.67 1.715-2.553 1.955-2.667 3.624-5.54 5.79-8.054 1.665-2.106 3.344-4.204 4.985-6.33 1.141-1.477 2.244-3.02 3.44-4.456.575-.69 1.188-1.345 1.782-2.018 1.083-1.171 2.603-2.844 3.74-3.96 2.832-2.78 6.017-5.156 9.202-7.508 4.65-3.484 9.465-6.829 13.415-11.132.43-.455.872-.897 1.288-1.364.956-1.075 1.12-1.363 1.955-2.49.89-1.201 1.8-2.391 2.381-3.783.311-.73.737-1.65.956-2.43.27-.965.307-2.001.263-2.995-.107-.616-.222-1.27-.543-1.813-.108-.171-.595-.48-.78-.469-.062.064-.095.16-.17.208-.057.037-.14.018-.193.06-.055.046-.057.135-.108.185-.1.1-.276.107-.348.248-.129.143-.28.38-.476.438-.086.026-.187-.019-.268.018-.15.066-.182.297-.36.33l-.261.075c-.067.04-.125.096-.2.118-.09.027-.194-.008-.282.027-.252.102-.401.435-.751.382-.347.124-.2.027-.445.282L111.679.534c.1-.058-.198.118-.298.175-22.718 13.03-14.707 9.413-23 13.144-.51.372-.11.117-.692.386-.125.058-.488.257-.369.188 7.27-4.196 14.559-8.361 21.823-12.568.137-.08-.304.1-.438.182-.14.086-.25.21-.375.316-7.54 4.355-15.084 8.706-22.624 13.065-.124.072-.491.298-.367.226 7.304-4.213 29.373-16.566 21.906-12.65-7.712 4.045-15.094 8.69-22.641 13.036-.215.124 59.907-34.502-.63.399-.226.097-.877.448-.664.324 7.25-4.2 14.496-8.401 21.752-12.59.183-.105-.35.24-.534.343-.52.288-1.094.476-1.582.827-4.017 2.535-7.937 5.242-11.507 8.388-.969.872-1.956 1.722-2.906 2.614-2.935 2.76-5.82 5.679-8.29 8.87-1.373 1.775-1.782 2.573-2.84 4.37-.226.443-.446.89-.678 1.33-.162.31-.355.602-.505.916-.51 1.077-.594 1.966-1.613 2.795-2.652 2.085 1.202-.926-1.706 1.276-1.238.936-.506.469-1.71 1.33-.231.166-.481.305-.708.475-.18.135-.34.294-.51.44-.947.649-1.815 1.408-2.815 1.982-1.637 1.54-3.468 2.836-5.226 4.231-1.63 1.342-3.296 2.65-4.877 4.048-.633.559-1.239 1.147-1.863 1.716-3.092 2.817-.766.621-3.81 3.544-3.236 3.19-6.411 6.447-9.372 9.897l-1.13 1.314c-.373.403-.759.796-1.12 1.21-1.171 1.35-2.191 2.85-3.586 3.994-7.392 5.714-17.36 10.354-24.378 14.365-.397.227-1.275.535-1.752.665-.24.066-.484.108-.727.162-.416.061-.841.175-1.264.044-.58-.181-1.077-.645-1.534-1.024-.511-.442-.913-1-1.206-1.609-.43-.779-.844-1.636-.79-2.547.026-.828-.03-1.667.175-2.477.19-.4.27-.818.435-1.23.39-.98.049-.038.493-1.058.094-.215.17-.438.255-.657.496-1.248.856-2.54 1.335-3.794.143-.387.238-.615.344-1.014.176-.664.27-1.346.644-1.943.172-.354.387-.695.554-1.049.459-.973-.193.237.289-.75.056-.114.129-.219.194-.329.14-.135.308-.245.426-.4.281-.368.199-.937.608-1.237.301-.47.13-.247.518-.663.102-.143.166-.309.258-.458.334-.542.767-1.003 1.12-1.532.871-1.32 1.661-2.697 2.602-3.97.45-.646.907-1.276 1.445-1.855.194-.21.41-.398.603-.608.219-.238.422-.49.633-.735l.72-.76c1.895-1.997 3.94-3.857 6.005-5.676 1.532-1.316 3.112-2.575 4.642-3.893 1.655-1.427 3.245-2.928 4.891-4.364.314-.273 2.067-1.797 2.48-2.146.286-.242.578-.477.867-.716.23-.177.464-.346.687-.53.337-.28.64-.6.978-.877.32-.27.66-.516.966-.801.785-.733 1.347-1.675 2.053-2.479.77-.893 1.515-1.806 2.349-2.642.24-.24.5-.46.74-.697.271-.267.53-.544.796-.816a135.416 135.416 0 0 1 5.09-4.567c1.462-1.182 2.918-2.377 4.297-3.654 1.24-1.305 2.65-2.433 4.01-3.607.568-.552 1.128-1.11 1.703-1.654.297-.28.633-.555.867-.897.115-.169.194-.36.29-.54.305-.377.58-.763.894-1.13.08-.093.137-.206.23-.285.072-.063.184-.067.255-.13.072-.066.105-.163.157-.244.085-.257.144-.64.384-.81.07-.05.173-.037.246-.084.154-.1.227-.287.308-.44.063-.29.083-.436.187-.713.04-.104.105-.198.138-.304.122-.4.113-.676.434-1.003.22-.792-.026-.05.27-.648.199-.402.015-.133.148-.556.147-.465.094.18.1-.477-.002-.406-.01-.81.01-1.216-.012-.232-.18-.223-.346-.288-.025.272-.129.158-.347.228-.063.02-.102.09-.165.111-.157.052-.337-.004-.491.067-.475.125-.844.347-1.115.77 7.41-4.283 29.577-17.243 22.232-12.849C77.938-2.471 70.328 1.773 62.79 6.14c-.056.032-.092.1-.155.114-.086.017-.177-.052-.261-.028-.126.036-.137.28-.33.215-.64-.153-.005-.05-.52-.015-.094.006-.19-.046-.282-.022-.225.059-.38.392-.538.532 7.36-4.27 14.728-8.528 22.08-12.811.09-.052-.197.06-.284.116-.092.059-.157.152-.242.22-.27.22-.608.283-.826.57-.163.05-.496.138-.646.225-.42.244-.19.194-.504.57-.079.094-.448.377-.544.452-.068.117-.12.245-.206.35-.231.286-.555.362-.816.553-.094.069-.162.167-.245.25-.08.08-.162.157-.244.236-.181.16-.297.275-.504.4-.09.054-.199.078-.282.142-.27.208-.431.554-.71.756-.09.08-.166.18-.272.237-.106.058-.232.066-.347.099-.103.047-.212.084-.31.143-.451.268-.123.117-.47.53-.07.083-.167.138-.251.207-.506.366-.354.486-.682.896-.262.328-.329.225-.689.404-.136.067-.26.158-.39.238-.086.077-.635.577-.73.65-.126.096-.274.162-.396.263-.13.107-.225.256-.36.357-.242.18-.562.238-.792.44-.254.177-.532.319-.786.497-.13.091-.236.215-.365.308-.122.088-.267.142-.386.234-.12.092-.217.21-.325.315l-.33.234c-7.54 4.342-15.083 8.68-22.622 13.025-.122.07-.481.291-.36.22 7.336-4.225 14.677-8.441 22.001-12.686.097-.056-.216.065-.314.119-.1.054-.176.146-.275.203-7.523 4.368-15.058 8.713-22.587 13.07 7.323-4.222 14.654-8.43 21.97-12.665.124-.071-.268.107-.393.177-1.154.644.34-.057-1.038.555-.524.292-.97.714-1.52.965-3.463 2.092-6.802 4.393-10.036 6.823-4.919 3.748-9.738 7.7-13.594 12.578-1.69 2.232-1.041 1.296-2.459 3.447-.286.434-.593.856-.854 1.307-.541.934-.946 1.957-1.46 2.906l-.327.793c-.105.222-.218.44-.314.667-.398.94-.714 1.926-1.298 2.776-.176.205-.337.425-.53.614-.376.37-.887.713-1.304 1.032-.548.42-1.066.88-1.662 1.233-.964.635-1.823 1.407-2.767 2.069-.428.318-.867.663-1.244 1.041-.123.124-.213.278-.337.4-.95.939.206-.378-.657.638-.198.213-.342.42-.621.534-.108.044-.24.01-.345.06-.2.095-.59.514-.687.714-.171.13-.374.213-.538.352-.03.025-.443.539-.47.56-.08.068-.19.089-.278.145-.085.054-.16.124-.24.186-.088.045-.188.072-.263.136-.092.078-.323.448-.42.521-.542.404.01-.21-.507.205-.081.065-.13.162-.196.244C12.773 54.337 5.46 59.095-2.29 63.05c-7.565 3.86 14.7-8.515 22.041-12.787.097-.056-.212.078-.306.14-.293.194-.506.514-.868.608-6.533 6.295-.571.592-22.875 13.35-.105.06-.241.018-.359.045a1.59 1.59 0 0 0-.343.112c-.628.302.101.106-.6.253-.483.186-.07.057-.63.137-.101.015-.199.067-.302.065-.126-.004-.244-.067-.369-.084-1.213-.167.608.178-.779-.101-.928-.08-1.88-.153-2.728-.57-.93-.548-1.8-1.212-2.305-2.191-.131-.328-.24-.547-.299-.894-.068-.407.016-.84-.009-1.25.025-.265.024-.609.211-.827.048-.055.141-.062.18-.124.103-.164.046-.4.208-.542.052-.291.066-.44.167-.72.157-.434.543-.737.543-1.236.033-.124.041-.257.098-.372.04-.079.128-.123.182-.192.223-.289.097-.187.243-.55.245-.609.04.162.212-.608.332-.346.091-.037.314-.587.212-.525.612-.976.951-1.42.62-.842.997-1.81 1.58-2.676.125-.1.272-.177.373-.3.115-.138.174-.316.266-.471.312-.527.68-1.02 1.02-1.527.092-.2.22-.384.304-.589.17-.413.05-.706.628-.545.337-.27.094-.425.297-.794.192-.35.136-.107.446-.262.085-.043.146-.124.218-.186.093-.216.497-1.043.66-1.177.074-.061.184-.064.26-.124.08-.064.132-.159.198-.238.7-1.1-.396.653.338-.634.241-.424.546-.802.87-1.165.192-.277.333-.562.526-.836.06-.087.096-.194.171-.268.065-.064.173-.07.237-.135.071-.072.103-.175.154-.263.04-.131.092-.444.264-.522.079-.035.174.023.259.006.336-.07.353-.455.454-.716.343-.46.308-.23.754-.4.416-.16.571-.574.694-.962.308-.39.2-.308.583-.593.103-.077.223-.133.317-.22.311-.286.522-.686.742-1.038.238-.28.35-.401.571-.698.098-.13.177-.276.283-.399.332-.381.771-.668 1.125-1.027.293-.252.603-.486.885-.752.636-.6 1.193-1.288 1.975-1.718 1.111-.891 2.277-1.713 3.383-2.613.583-.503 1.166-1.002 1.803-1.437.202-.139.422-.252.62-.397.38-.28.698-.637 1.1-.889.17-.141.338-.283.507-.425.17-.126.344-.245.507-.38.575-.471 1.09-1.014 1.692-1.452.238-.162.655-.46.92-.584.162-.076.346-.1.508-.18.531-.257.976-.684 1.425-1.055 2.111-1.417-1.008.693 1.028-.739.158-.111.338-.19.49-.311.442-.353.873-.86 1.26-1.272.468-.308.906-.633 1.39-.917.138-.082.262-.188.41-.253.135-.06.293-.06.43-.118.125-.054.232-.143.349-.215 1.258-1.044-.688.617.517-.573.312-.308.88-.223 1.061-.706.394-.47.417-.32.905-.573.334-.173.411-.297.665-.576.109-.12.214-.24.321-.36.754-.907-.132.104.669-.654.464-.44.785-1.029 1.378-1.33.205-.213.376-.463.61-.645.101-.079.249-.089.342-.178.103-.098.139-.25.225-.364.14-.184.342-.317.479-.505.014-.017.322-.386.368-.399.089-.024.187.095.27.056.08-.037.057-.175.12-.236.014-.014.366-.12.383-.125l.102-.252c.056-.05.135-.082.167-.15.05-.11.038-.24.067-.357.156-.624.018-.04.236-.528.041-.091.06-.19.089-.286.458.092.338.06.5-.3.028-.062.094-.102.119-.165.35-.885-.21.23.163-.483.058-.026.137-.027.175-.078.052-.073.034-.177.069-.26.025-.061.089-.104.108-.167.078-.265.008-.564.22-.788.06-.04.141-.058.18-.118.055-.084.05-.195.086-.29.033-.083.094-.154.119-.24.104-.37.077-.784.246-1.141.121-.33.331-.658.415-.998.098-.403.062-.835.194-1.233-.018-.623-.063-1.248-.056-1.87.086.091.844 1.395.875 1.38C45.6-1.269 53.034-5.686 60.532-9.98c.073-.042-.158-.083-.242-.071-.072.01-.117.086-.176.129-.03.114.01.283-.092.343-7.49 4.45-15.05 8.778-22.594 13.134-.067.04-.294.085-.228.046C44.595-.702 52.037-4.923 59.42-9.245c.146-.086-.66.036-.496.1-.443.626.097-.047-.445.383-.36.287-.485.83-.98.955-.316.294-.632.578-.981.832-.282.205-.593.368-.873.576-.166.123-.315.267-.473.401-.977.816-1.87 1.726-2.77 2.626-.208.2-.423.419-.653.594-.095.073-.21.119-.299.2-.323.294-.17.298-.477.615-.078.08-.18.134-.27.202-.356.23-.499.441-.694.822-.07.135-.097.293-.188.416-.013.017-.612.493-.616.496-.194.258-.359.538-.558.792-.407.52-1.028.823-1.399 1.383-.192.23-.35.487-.552.707-.08.087-.198.132-.272.223-.08.098-.108.229-.18.332-.119.168-.306.28-.416.455-.138.167-.24.367-.406.507-.082.068-.2.081-.284.147-.278.22-.449.574-.687.83-.08.109-.146.23-.24.327-.468.494-1.233.598-1.509 1.29-.217.235-.402.501-.638.718-.105.096-.242.152-.35.245-.324.274-.581.63-.88.928-.568.587-1.132 1.188-1.812 1.648-.103.122-.189.26-.308.366-.502.448-1.288.441-1.727.982-.25.191-.408.327-.685.48-.543.297-1.046.515-1.325 1.122-.637.414-.158.066-.726.583-.112.102-.231.195-.347.292-.118.09-.244.173-.354.273-.119.107-.205.248-.33.347-.127.1-.279.162-.418.243-.857.704-1.777 1.328-2.582 2.093-.16.113-.314.234-.479.338-.16.102-.344.166-.497.28-.587.432-.993 1.05-1.535 1.528-1.022.84.321-.307-.615.635-.089.089-.213.137-.303.226-.094.092-.146.223-.244.311-.089.08-.215.11-.307.188-.1.084-.174.196-.26.294-.167.202-.291.441-.48.622-.35.33-.922.28-1.067.847-.505.504-1.017 1.006-1.458 1.568-.315.16-.485.342-.692.631-.069.097-.115.21-.194.299-.5.552-.03-.216-.421.508-.152.17-.248.264-.373.456-.06.09-.09.2-.162.282-.059.069-.166.087-.22.16-.064.089-.08.205-.12.307l-.153.208c-.391.635.113-.078-.385.343-.08.067-.102.185-.18.252-.071.06-.181.06-.254.119-.116.094-.274.381-.347.502-.046.11-.079.226-.137.33-.053.094-.457.7-.517.76-.129.127-.348.153-.51.191-.442.339-.054-.011-.414.52-5.058 7.47-42.016-9.225-23.419 13.581-.128-.053-.566-.223-.695-.311a4.72 4.72 0 0 1-1.408-1.538c-.151-.333-.251-.484-.307-.834-.046-.289.047-.6-.025-.89-.103-.632-.412-1.196-.525-1.827v-1.587c0-.528 0-1.056-.002-1.585a61.966 61.966 0 0 0-.028-1.653c-.021-.693-.065-1.39.024-2.08.046-.202.077-.456.209-.63.095-.127.297-.148.384-.28.063-.096.073-.218.11-.326l.157-.227c.308-.523.221-.21.62-.344.273-.092.195-.227.313-.464.042-.085.107-.155.161-.232.16-.307.074-.252.348-.413.068-.04.158-.05.211-.108.127-.14.173-.473.244-.624.045-.095.119-.174.178-.262.083-.037.178-.054.249-.11.166-.136.334-.609.488-.698.138-.08 59.552-34.258.455-.154.085-.01.175-.002.255-.033.308-.116.182-.193.365-.46a.77.77 0 0 1 .658-.347c.07-.044.158-.067.21-.13.071-.086.051-.245.148-.301 7.514-4.4 14.816-9.21 22.637-13.04C27.586 8.323-9.581 29.371-2.291 24.91c1.237-.756 58.435-33.747.387-.255C5.653 20.33 13.22 16.022 20.767 11.68c.24-.137.097-.222.392-.291.3-.07.585.123.832-.14.318-.172.459-.163.739-.408.074-.065.31-.242.225-.193-.193.111-59.56 34.37.6-.295.947-.355-.263.126.574-.29.268-.132.804-.208 1.105-.195.214-.136.444-.319.693-.387.103-.029.215-.018.32-.044.747-.186-.287-.032.563-.137.13-.072.328-.191.47-.238.094-.03.201-.022.292-.063.243-.11.397-.409.67-.478.202-.054.391-.155.596-.203.4-.095.302.03.687-.077.092-.025.172-.083.26-.12.096-.04.193-.074.29-.112.377-.08.29-.02.59-.234.085-.06.153-.144.244-.192.088-.046.197-.04.285-.084.155-.08.244-.264.434-.29.198-.013.405.021.594-.04.37-.119-.051-.14.356-.203.086-.014.18.046.26.01.07-.03.089-.123.133-.185-7.437 4.243-14.899 8.442-22.311 12.727-.136.079.345.052.469-.044.072-.057.08-.176.158-.224.069-.043.161-.017.242-.026l.18-.128c.415-.169-.016.06.3-.346.248-.32.09.112.365-.123.393-.337-.182-.168.303-.265.37-.752-.152.165.305-.276.06-.058.04-.172.099-.232.198-.203.393.164.374-.353.295-.5-.128.103.286-.147.057-.034.034-.133.08-.18.035-.037.123-.007.145-.054.076-.158-.05-.368.056-.524l.085-.164c.05-.015.124 0 .15-.045.119-.205-.068-.554.28-.706.002-.556.006-1.111.015-1.667.007-.597.005-1.194-.01-1.79.007-.559.02-1.118.028-1.676.002-.273-.04-.582.041-.841-.222-.201-.374-.47-.6-.668-.314-.32-.044-.056-.324-.155-.248-.088-.27-.156-.473.03-.59.139.254-.096-.253.168-.204.107-.659.069-.86.262-.18.096-.379.23-.596.215-.413-.028-.268-.162-.634.168-.113.124-.264.368-.452.389-.09.01-.182-.059-.272-.04-.133.027-.175.25-.349.21-.09-.008-.184-.05-.27-.024-.141.042-.202.216-.323.3-.429.302.054-.079-.484.123-.079.03-.128.11-.193.165-.701.5.318-.193-.478.232-.068.037-.108.115-.175.155-.069.04-.295.122-.226.082C29.492-1.284 37.681-5.256 29.785-1.42 22.228 2.911 14.668 7.242 7.112 11.577c-.265.152-.078.106-.425.11-.067.037-.186.235-.12.197C29.49-1.233 36.853-3.902 28.607-.898 21.087 3.494 13.19 7.298 6.044 12.278-.979 17.172 20.837 3.655 28.241-.642c.06-.035-.097.102-.16.128-.059.026-.138-.015-.19.02-.063.043-.049.17-.121.193-.078.025-.154-.055-.232-.082-.422.06.063-.063-.264.263-.042.043-.136-.017-.179.026-.06.06-.025.179-.084.238-.385.387.013-.52-.263.266-.412.065.053-.062-.263.27-.042.044-.137-.01-.178.035-.06.064-.028.183-.087.248-.408.452.048-.573-.274.303-.43.154.064-.074-.298.33-.049.054-.15.035-.202.088-.07.07-.073.193-.145.262-.06.058-.154.065-.232.098l-.185.244c-.087.025-.181.032-.261.074-.323.171-.076.183-.422.285-.212.063-.3-.049-.45.175-.065.099-.08.223-.12.335C18.433 10.662 22.803 9.09.686 16.66c-8.096 2.77 14.798-8.596 22.197-12.894-.078.002-.16-.014-.235.008-.065.019-.114.074-.172.11-.462.117.084-.073-.303.288-.05.047-.148.006-.2.051-.065.057-.052.176-.12.23-.485.386.053-.398-.316.214-.272.753.119-.108-.266.257-.06.057-.026.176-.087.233-.044.042-.137-.022-.182.02-.343.31.166.2-.276.247-.297.7.122-.113-.285.258-.063.057-.044.173-.103.234-.047.048-.146.018-.191.068-.614.683.35-.068-.298.403-.066.195-.112.442-.291.581-.07.055-.176.04-.25.088-.198.129-.323.395-.461.577-.316.666.11-.072-.315.289-.066.056-.056.174-.125.227-.055.043-.15-.006-.209.033-.077.05-.2.352-.23.418-.448.109.046-.064-.323.285-.054.052-.156.03-.211.081-.072.067-.078.185-.146.256-.501.523.053-.381-.378.416-.123.283-.153.44-.393.648-.092.08-.22.11-.314.187-.105.087-.17.216-.278.3-.166.13-.398.157-.543.322l-24.1 10.24z" fill="url(#linearGradient985)"/><path d="M44.117 3.374c-2.887.05-8.595 5.95-13.54 11.435l-1.491.856c.076.195.137.396.186.601-.89.998-1.725 1.938-2.515 2.828.015-.05.033-.098.048-.148.413-1.342.667-2.722.892-4.107.181-1.261.283-2.45.081-3.72-.147-1.217-.29-2.448-.693-3.612a9.396 9.396 0 0 0-1.308-2.218c-.164-.174-.516-.56-.7-.688-.18-.126-.785-.285-.989-.168-5.87 3.372-11.692 6.823-17.538 10.234-.697.782-1.468 1.494-2.147 2.294-.936 1.086-1.777 2.242-2.324 3.58-.28.667-.551 1.338-.842 2-.087.2-.178.4-.267.6-.079.155-.165.308-.235.467-.061.138-.106.282-.16.423l9.452-4.49c.026.263.046.526.06.79.08 1.106-.086 2.2-.227 3.293-.138 1.322-.64 2.555-1.04 3.809-.45 1.347-.897 2.695-1.473 3.994-.72 1.53-1.397 3.079-2.047 4.64-.717 1.452-1.274 2.97-1.735 4.52-.273.955-.567 1.911-.79 2.88-.107.463-.183.933-.282 1.398-.254 1.276-.324 2.578-.441 3.87a5.79 5.79 0 0 0 .3 2.498c.336.778.946 1.272 1.666 1.674.178.054.35.138.533.162.237.03 1.067-.043 1.257-.152 5.91-3.353 9.284-4.955 11.455-5.944-.142.265-.287.53-.429.796-.876 1.75-1.754 3.504-2.466 5.328-.355.909-.63 1.729-.95 2.65-.503 1.584-1.022 3.17-1.359 4.801-.195.947-.212 1.166-.346 2.109-.089 1.117-.22 2.244-.08 3.365.063.508.135.705.267 1.188.364.887.99 1.746 1.927 2.092.215.08.447.107.67.16.278-.01.558.013.832-.033.323-.054.662-.103.948-.265 6.806-3.871 14.354-6.01 19.128-11.997.284-.356.55-.727.824-1.09 2.102-2.814 3.812-5.895 5.565-8.932.195-.33.386-.664.577-.998-.67 1.61-1.318 3.228-1.96 4.85-.903 2.328-1.935 4.604-2.845 6.93-.126.305-.25.611-.38.915-.304.716-.392.831-.62 1.559-.209.668-.354 1.358-.481 2.046a16.65 16.65 0 0 0-.054 3.78c.141 1.032.517 1.999 1.054 2.884.485.738 1.127 1.382 1.96 1.715.201.08.414.125.62.188.216.016.433.056.65.048.435-.017 1.13-.166 1.5-.38 10.27-5.894 13.38-5.867 18.054-10.776-.012.28-.016.56-.002.842.016.29.07.577.105.866.182 1.482.73 2.845 1.425 4.152.448.679.968 1.368 1.67 1.809.143.09.3.154.45.23.2.045.393.129.596.132.214.004.445-.006.63-.11 7.144-3.992 12.404-5.73 17.225-9.754a78.563 78.563 0 0 0-1.635 7.233c-.352 2.165-.573 4.349-.439 6.54.05.763.102 1.565.373 2.29.026.07.05.123.074.178.724-.484 2.123-1.352 4.466-2.73a37.825 37.825 0 0 1-4.39 2.887c.085.158.175.288.307.49.762.947 1.593 1.239 2.789.914.274-.075.531-.201.797-.302 7.06-3.895 14.543-6.812 19.946-12.685.626-.68 1.26-1.461 1.848-2.169.326-.397.645-.799.976-1.192.7-.83 1.425-1.638 2.13-2.464l.395-.467c-.33.95-.673 1.896-1.002 2.844-.2.56-.399 1.12-.602 1.68-.5 1.38-.75 2.014-1.224 3.404-.552 1.62-1.04 3.259-1.537 4.896l-.42 1.485 17.103-8.163.35-1.415c.276-1.04.525-2.02.84-3.05.695-2.276 1.58-4.489 2.398-6.723 1.146-3.029 2.269-6.068 3.203-9.17.334-1.086.804-2.23.746-3.336-.985.564-2.425 1.39-4.267 2.45.27-.186.542-.37.817-.55a262.584 262.584 0 0 0 3.45-1.907 2.927 2.927 0 0 0-.558-1.597c-.153-.212-.369-.37-.553-.555-.169-.06-.327-.166-.505-.181-.247-.022-.865.22-1.043.322-5.921 3.386-13.023 6.692-18.818 11.045a97.495 97.495 0 0 0-5.925 5.102c-1.644 1.607-3.203 3.299-4.733 5.014.036-.426.082-.851.14-1.275.442-3.08 1.05-6.13 2.026-9.092 1.142-3.497 2.446-6.935 3.798-10.356a225.666 225.666 0 0 0 3.444-10.05c.867-3.006 1.645-6.072 1.689-9.22-.002-1.763-.066-3.57-.743-5.201-.715.386-2.052 1.058-4.048 2.088a9.32 9.32 0 0 1 1.347-1.36c.172-.14.362-.257.543-.385.913-.273 1.581-.473 2.046-.601a6.867 6.867 0 0 0-.355-.673c-.46-.558-.899-1.057-1.566-1.376-.192-.092-.414-.316-.602-.216-16.68 8.984-13.919 4.84-17.624 10.016.59-2.112 1.076-4.252 1.354-6.43.028-.955.107-1.553-.093-2.489-.258-1.21-.997-2.172-2.017-2.84-.226-.086-.44-.206-.676-.259-.297-.066-1.06-.066-1.336.091-7.292 4.153-12.838 5.803-17.758 10.478.28-1.088.496-2.184.596-3.28.043-.467.024-.938.036-1.407-.138-1.063-.104-1.348-.494-2.329-.484-1.213-1.373-2.198-2.352-3.035-.515-.378-.835-.664-1.43-.905-4.07-1.65-10.494 6.51-14.867 10.854-.515.3-1.029.603-1.544.903.275-.1.47-.12.699-.094-1.474 1.364-2.646 2.118-3.3 1.603.37-.998.71-2.007 1.031-3.024a45.572 45.572 0 0 0 1.45-7.121c.144-1.578.342-3.404-.014-4.964-.053-.233-.143-.457-.215-.686-.285-.592-.582-1.162-1.068-1.621a2.468 2.468 0 0 0-.498-.379 1.595 1.595 0 0 0-.807-.182zm2.722 16.468a3.259 3.259 0 0 0-.662.33c-.148.095-.581.398-.429.31l1.091-.64zm60.728-7.103c.04.085.076.171.112.258.836-.452.81-.513-.112-.258zM129.46 39.04v.007l.548-.314-.548.307zM80.417 74.47a2.431 2.431 0 0 1-.076-.157c-.959.64-.74.604.076.157zM29.086 15.665c-.011-.029-.02-.058-.032-.086-.074-.101-.163-.321-.271-.26-.125.072-.084.296-.103.387-.018.083-.058.16-.087.241l.493-.282zm16.5-9.465l-2.009 1.152c.462-.42.966-.785 1.551-1.016.149-.058.306-.09.458-.136zM25.334 7.255l-.87.508c.274-.196.56-.372.87-.508zm36.73 3.661l-1.05.616c.338-.225.698-.417 1.05-.616zm23.5.578a.557.557 0 0 1-.05.03l-.96.563c.069-.047.135-.098.206-.142.212-.136.821-.468.804-.45zm-76.821 4.82c.125.047.263.21.391.4l-.793.462c.078-.057.29-.397.3-.497.041-.447-.117-.105.014-.35.03-.005.06-.026.088-.016zm61.713 4.018c-.412.24-.823.481-1.235.72-.143.084.264-.199.402-.29.286-.19.419-.248.712-.397.04-.008.08-.021.121-.033zm19.312 2.142a.635.635 0 0 1 .163.03c-.245.138-.468.26-.717.403-.094.053.112-.187.187-.264.126-.127.244-.171.367-.169zm-61.935 2.548c1.443 0 2.777.046 4.002.137 1.236.08 2.387.264 3.452.55 1.076.286 2.083.693 3.022 1.22.95.526 1.855 1.23 2.714 2.112.32.332.623.704.91 1.116.297.412.555.865.773 1.357.229.48.412 1.001.549 1.563.137.55.206 1.133.206 1.751 0 .332-.017.681-.051 1.048a8.06 8.06 0 0 1-.138.945c-.332 1.328-.801 2.507-1.408 3.537a13.397 13.397 0 0 1-2.095 2.73c-.79.79-1.66 1.478-2.61 2.062a22.545 22.545 0 0 1-2.954 1.528 30.598 30.598 0 0 1-3.109 1.134 66.89 66.89 0 0 1-3.074.858h.017c-.447.138-.927.258-1.442.36-.515.104-1.037.19-1.563.258a36.98 36.98 0 0 1-1.58.172c-.515.035-1.002.052-1.46.052a7.91 7.91 0 0 1-1.271-.086 3.684 3.684 0 0 1-.841-.257c-.207-.115-.355-.241-.447-.378a.79.79 0 0 1-.137-.447c0-.229.063-.463.189-.704.137-.252.354-.487.652-.704.527-.378 1.06-.613 1.597-.704.55-.103 1.128-.183 1.735-.24l4.294-17.38h-.396a22.86 22.86 0 0 1-.704-.052 5.894 5.894 0 0 1-.755-.155c-.252-.069-.441-.166-.567-.292l-.224-.309c-.08-.137-.16-.28-.24-.429-.08-.16-.149-.32-.206-.48a1.422 1.422 0 0 1-.086-.482c0-.263.109-.48.326-.653.23-.183.504-.326.825-.429a5.164 5.164 0 0 1 1.065-.24 8.626 8.626 0 0 1 1.03-.069zm3.813 3.246a64.744 64.744 0 0 0-2.199 6.766 281.74 281.74 0 0 0-1.751 6.973c-.138.584-.28 1.185-.43 1.803-.148.619-.292 1.225-.429 1.82l.395-.085c.252-.058.59-.143 1.013-.258.435-.114.933-.257 1.494-.43.561-.17 1.151-.377 1.77-.617.618-.24 1.27-.527 1.957-.86a22.9 22.9 0 0 0 2.06-1.15 21.502 21.502 0 0 0 1.942-1.408 11.461 11.461 0 0 0 1.631-1.614c.47-.584.842-1.191 1.116-1.82.287-.642.43-1.306.43-1.993 0-.699-.138-1.357-.413-1.975a6.506 6.506 0 0 0-1.116-1.735 7.746 7.746 0 0 0-1.614-1.425 11.647 11.647 0 0 0-1.906-1.082 10.254 10.254 0 0 0-2.027-.67 8.34 8.34 0 0 0-1.923-.24zm58.494.103c.938 0 1.408.223 1.408.67 0 .24-.086.607-.258 1.099-.171.492-.658 2.273-1.46 5.341 2.164-.069 3.945-.103 5.341-.103.893 0 1.34.447 1.34 1.34 0 1.053-.658 1.58-1.975 1.58-1.488 0-3.269.034-5.341.103-.653 3.08-.979 5.117-.979 6.114 0 .32-.206.583-.618.79-.4.206-.807.309-1.22.309-.457 0-.83-.115-1.116-.344-.286-.23-.43-.515-.43-.859 0-1.225.327-3.194.98-5.907-1.614.034-3.011.114-4.19.24-.687.068-1.151.103-1.392.103-.652 0-.978-.572-.978-1.717 0-.447.314-.802.944-1.065.641-.263 2.776-.424 6.406-.481 1.145-3.881 1.872-6.05 2.181-6.509.31-.47.761-.704 1.357-.704zm-12.074 4.001c.527 0 .882.132 1.065.395.195.264.292.596.292.996 0 .539-.097 1.065-.292 1.58-.183.504-.48 1.048-.893 1.632l-8.054 11.369c-.16.343-.327.63-.498.859a3.019 3.019 0 0 1-.515.55c-.16.137-.315.24-.464.309-.149.068-.28.114-.395.137a.797.797 0 0 1-.155.017.381.381 0 0 1-.12.017c-.24 0-.452-.051-.636-.154a1.775 1.775 0 0 1-.772-.876 1.47 1.47 0 0 1-.103-.515c-.057-.24-.138-.584-.24-1.031-.104-.446-.224-.95-.361-1.511-.126-.561-.264-1.162-.412-1.803l-.413-1.958a79.75 79.75 0 0 1-.377-1.906 60.354 60.354 0 0 1-.293-1.7c-.057-.367-.12-.71-.188-1.031-.069-.32-.132-.624-.19-.91a35.147 35.147 0 0 1-.154-.86 7.195 7.195 0 0 1-.052-.858c0-.32.035-.624.104-.91.068-.298.166-.555.292-.773a1.89 1.89 0 0 1 .48-.55 1.08 1.08 0 0 1 .636-.205c.458 0 .818.114 1.082.343.274.218.486.515.635.893.149.366.252.796.31 1.288.068.492.12 1.002.154 1.529.046.664.12 1.385.223 2.163.103.767.218 1.54.344 2.32.126.766.252 1.51.378 2.232.137.71.257 1.34.36 1.889.344-.355.945-1.145 1.803-2.37.424-.596.813-1.145 1.168-1.649.367-.504.71-.985 1.03-1.443a41 41 0 0 0 .91-1.39c.287-.459.562-.934.825-1.426.275-.492.538-1.013.79-1.563.264-.56.527-1.179.79-1.854.08-.138.177-.281.292-.43.114-.16.246-.298.395-.412.16-.126.338-.23.533-.31.206-.08.435-.12.686-.12zm-22.755 1.82c.664 0 1.242.081 1.735.241.492.16.898.384 1.219.67.32.286.561.63.721 1.03.16.39.24.814.24 1.272 0 .389-.05.76-.154 1.116a3.866 3.866 0 0 1-.893 1.683 7.05 7.05 0 0 1-1.546 1.27 9.884 9.884 0 0 1-1.923.894c-.687.24-1.38.44-2.078.6a23.25 23.25 0 0 1-1.992.379c-.641.08-1.196.143-1.666.188a3.915 3.915 0 0 0-.378 1.7c0 .665.264 1.18.79 1.546.527.367 1.254.55 2.181.55.539 0 1.054-.057 1.546-.172.492-.126.956-.28 1.39-.464.447-.194.866-.4 1.255-.618.39-.229.744-.452 1.065-.67.412-.274.801-.503 1.167-.686.378-.195.71-.293.996-.293.287 0 .47.075.55.224.08.137.12.286.12.446 0 .092-.005.183-.017.275 0 .08-.006.149-.017.206a2.875 2.875 0 0 1-.344.893 2.824 2.824 0 0 1-.652.773c-1.19.939-2.416 1.609-3.675 2.01-1.248.4-2.582.6-4.002.6-.275 0-.601-.017-.979-.051a7.402 7.402 0 0 1-1.15-.206 5.974 5.974 0 0 1-1.185-.447 3.82 3.82 0 0 1-1.048-.772 3.937 3.937 0 0 1-.738-1.186c-.184-.469-.275-1.036-.275-1.7 0-.538.074-1.139.223-1.803a.823.823 0 0 1-.43-.223c-.125-.138-.188-.332-.188-.584 0-.493.131-.91.395-1.254a1.884 1.884 0 0 1 1.047-.687c.126-.252.32-.59.584-1.013.263-.435.59-.904.98-1.408.389-.504.83-1.008 1.322-1.512a11.278 11.278 0 0 1 1.648-1.39 9.017 9.017 0 0 1 1.94-1.031 6.226 6.226 0 0 1 2.216-.395zm-.515 2.697c-.504 0-1.002.132-1.494.395-.481.264-.939.595-1.374.996-.424.39-.802.813-1.134 1.271-.332.447-.59.853-.772 1.22.824-.07 1.58-.178 2.267-.327a9.616 9.616 0 0 0 1.785-.584c.516-.24.928-.504 1.237-.79.32-.298.527-.612.618-.944a.423.423 0 0 0 .035-.155v-.154c0-.31-.115-.538-.344-.687a1.4 1.4 0 0 0-.824-.241zm76.917.876c.046-.029-.431.24-1.679.954.949-.535 1.63-.924 1.68-.954zM20.625 40.917l-.319.56a.262.262 0 0 1-.176-.111c-.019-.045-.033-.09-.048-.136l.543-.313zm90.928 8.456v.002l-.235.136c-.079.045.105-.063.235-.138zm-31.118 5.983c-.098.106-.212.198-.294.316-.066.097-.097.213-.146.32-.045.06-.19.292-.296.311-.163.03-.36-.079-.544-.216l1.28-.73zm-48.44 1.178c.115.002-.137.246-.868.807-.134.103-.28.189-.421.283-.398.25-.777.494-1.07.137 1.304-.751 2.196-1.23 2.358-1.227zm25.338 1.74c.04.001-.736.539-1.021.73-.121.08-.248.153-.371.23-.288.159-.504.238-.695.23.673-.386 1.344-.772 2.017-1.156a.302.302 0 0 1 .07-.034zm42.37 4.881c-.045.037-.811.669-.917.75-.097.074-.211.126-.299.21-.132.13-.208.336-.336.473a1.273 1.273 0 0 1-.319-.393c.637-.354 1.193-.665 1.871-1.04zm-34.735 1.047c-.12.08-.248.162-.394.25-.234.141-.958.524-.721.388l1.115-.638z" fill="url(#b)"/></svg>