<svg xmlns="http://www.w3.org/2000/svg" xmlns:xlink="http://www.w3.org/1999/xlink" width="400" height="400" viewBox="0 0 105.833 105.833" id="svg8"><defs id="defs2"><linearGradient id="linearGradient906"><stop offset="0" id="stop902" stop-color="#00f"/><stop offset="1" id="stop904" stop-color="purple"/></linearGradient><linearGradient id="linearGradient898"><stop offset="0" id="stop894" stop-color="purple"/><stop offset="1" id="stop896" stop-color="#00f"/></linearGradient><linearGradient xlink:href="#linearGradient898" id="linearGradient900" x1="25.148" y1="269.232" x2="76.494" y2="221.161" gradientUnits="userSpaceOnUse" gradientTransform="matrix(3.77953 0 0 3.77953 0 -722.52)"/><linearGradient xlink:href="#linearGradient906" id="linearGradient908" x1="13.229" y1="244.083" x2="92.604" y2="244.083" gradientUnits="userSpaceOnUse" gradientTransform="matrix(3.77953 0 0 3.77953 0 -722.52)"/></defs><g id="layer1" transform="translate(0 -191.167)"><path d="M127.498 52.498l-.271 75.227-74.729-.227v145.004l74.232-.225.768 75.225h145.004l-.72-75.225 75.72.225V127.498l-75.227.227.227-75.227H127.498zm-34.447 102.67c5.13 0 9.873.162 14.23.488 4.398.285 8.49.937 12.278 1.955 3.827 1.018 7.41 2.463 10.75 4.336 3.38 1.873 6.596 4.379 9.65 7.514a31.858 31.858 0 0 1 3.238 3.969 26.515 26.515 0 0 1 2.748 4.826 28.861 28.861 0 0 1 1.955 5.558c.489 1.955.733 4.032.733 6.23 0 1.182-.062 2.423-.184 3.726s-.284 2.422-.488 3.359c-1.18 4.723-2.85 8.917-5.008 12.582-2.117 3.624-4.603 6.862-7.453 9.713a50.39 50.39 0 0 1-9.283 7.328 80.2 80.2 0 0 1-10.506 5.437 108.825 108.825 0 0 1-11.055 4.032 237.846 237.846 0 0 1-10.933 3.052h.06a52.434 52.434 0 0 1-5.13 1.284 83.227 83.227 0 0 1-5.56.916c-1.872.244-3.745.448-5.618.611a78.243 78.243 0 0 1-5.192.184c-1.791 0-3.298-.103-4.52-.307-1.22-.244-2.218-.55-2.992-.916-.732-.407-1.262-.855-1.587-1.344a2.808 2.808 0 0 1-.49-1.588c0-.814.223-1.649.671-2.504.489-.895 1.264-1.73 2.322-2.504 1.874-1.343 3.766-2.18 5.68-2.505a68.344 68.344 0 0 1 6.17-.854l15.27-61.812h-1.405c-.733-.041-1.569-.103-2.506-.184a20.975 20.975 0 0 1-2.687-.549c-.896-.244-1.568-.591-2.016-1.039-.203-.285-.467-.652-.793-1.1-.285-.488-.57-.997-.855-1.527a15.406 15.406 0 0 1-.733-1.709 5.062 5.062 0 0 1-.306-1.71c0-.937.388-1.71 1.162-2.321.814-.652 1.791-1.16 2.932-1.527a18.369 18.369 0 0 1 3.787-.856 30.674 30.674 0 0 1 3.664-.244zm13.558 11.543a230.289 230.289 0 0 0-7.816 24.066 1001.84 1001.84 0 0 0-6.23 24.797c-.49 2.077-.998 4.215-1.528 6.414a704.65 704.65 0 0 0-1.527 6.475l1.404-.305a96.723 96.723 0 0 0 3.604-.916c1.547-.407 3.319-.916 5.314-1.527a90.52 90.52 0 0 0 6.291-2.2 96.196 96.196 0 0 0 6.963-3.054 81.45 81.45 0 0 0 7.33-4.092 76.453 76.453 0 0 0 6.902-5.008c2.2-1.791 4.134-3.706 5.803-5.742 1.67-2.077 2.992-4.235 3.969-6.474 1.018-2.28 1.527-4.641 1.527-7.084 0-2.484-.487-4.827-1.465-7.026a23.129 23.129 0 0 0-3.97-6.168c-1.63-1.914-3.544-3.604-5.743-5.07a41.423 41.423 0 0 0-6.779-3.848 36.461 36.461 0 0 0-7.207-2.383c-2.402-.57-4.683-.855-6.842-.855zm208.036.367c3.339 0 5.01.795 5.01 2.383 0 .855-.306 2.157-.917 3.908-.61 1.751-2.34 8.083-5.191 18.996 7.696-.244 14.026-.367 18.994-.367 3.176 0 4.766 1.59 4.766 4.766 0 3.746-2.343 5.619-7.026 5.619-5.293 0-11.626.12-18.996.365-2.32 10.954-3.48 18.202-3.48 21.744 0 1.14-.734 2.078-2.2 2.81-1.425.734-2.87 1.1-4.335 1.1-1.63 0-2.953-.408-3.971-1.222-1.018-.815-1.528-1.831-1.528-3.053 0-4.357 1.162-11.361 3.483-21.012-5.742.122-10.71.408-14.904.856-2.444.244-4.093.365-4.948.365-2.32 0-3.48-2.036-3.48-6.107 0-1.589 1.12-2.851 3.36-3.788 2.28-.936 9.872-1.505 22.78-1.709 4.072-13.803 6.659-21.521 7.758-23.15 1.1-1.67 2.707-2.504 4.825-2.504zm-42.938 14.233c1.873 0 3.136.467 3.787 1.404.692.936 1.037 2.118 1.037 3.543 0 1.914-.345 3.787-1.037 5.619-.651 1.792-1.71 3.726-3.176 5.803l-28.646 40.433c-.57 1.222-1.16 2.24-1.772 3.055-.61.814-1.22 1.464-1.832 1.953-.57.489-1.12.855-1.65 1.1-.53.244-.997.407-1.404.488-.204.04-.386.062-.55.062-.121.041-.264.061-.427.061-.855 0-1.608-.182-2.26-.549a6.32 6.32 0 0 1-1.71-1.406 6.205 6.205 0 0 1-1.04-1.709c-.244-.652-.365-1.264-.365-1.834-.203-.855-.489-2.076-.855-3.664-.367-1.588-.795-3.38-1.284-5.375a905.196 905.196 0 0 0-1.464-6.412l-1.467-6.965c-.489-2.321-.937-4.58-1.344-6.78a214.156 214.156 0 0 1-1.037-6.046 66.575 66.575 0 0 0-.672-3.664c-.244-1.14-.468-2.22-.672-3.239a125.131 125.131 0 0 1-.55-3.052 25.622 25.622 0 0 1-.184-3.055c0-1.14.123-2.218.367-3.236.244-1.059.591-1.975 1.04-2.748.488-.815 1.057-1.467 1.708-1.955a3.837 3.837 0 0 1 2.26-.733c1.629 0 2.91.406 3.847 1.22.978.775 1.733 1.833 2.262 3.177.53 1.303.894 2.83 1.098 4.582.244 1.75.428 3.562.55 5.435.164 2.362.427 4.927.794 7.696a310.61 310.61 0 0 0 1.222 8.246c.448 2.728.896 5.374 1.344 7.94.489 2.524.917 4.763 1.283 6.718 1.222-1.262 3.358-4.07 6.412-8.428 1.507-2.117 2.892-4.072 4.155-5.863a349.372 349.372 0 0 0 3.664-5.131c1.14-1.67 2.218-3.319 3.236-4.947a86.891 86.891 0 0 0 2.934-5.07 78.6 78.6 0 0 0 2.808-5.56 107.206 107.206 0 0 0 2.81-6.595c.286-.489.63-.998 1.038-1.527.407-.57.877-1.06 1.406-1.467.57-.448 1.2-.813 1.893-1.098.733-.285 1.547-.427 2.443-.427zm-80.93 6.472c2.362 0 4.417.286 6.168.856 1.751.57 3.198 1.364 4.338 2.382a9.649 9.649 0 0 1 2.565 3.665c.57 1.384.855 2.89.855 4.52 0 1.384-.182 2.707-.549 3.97-.57 2.28-1.63 4.276-3.177 5.986-1.548 1.71-3.38 3.217-5.497 4.52-2.076 1.262-4.357 2.32-6.841 3.175a69.256 69.256 0 0 1-7.391 2.14 82.647 82.647 0 0 1-7.084 1.343c-2.28.285-4.256.509-5.926.672-.366.733-.691 1.668-.976 2.808-.245 1.1-.367 2.18-.367 3.239 0 2.361.937 4.193 2.81 5.496 1.873 1.303 4.458 1.955 7.756 1.955 1.914 0 3.747-.204 5.498-.612 1.75-.447 3.4-.996 4.947-1.648a50.524 50.524 0 0 0 4.46-2.2 69.687 69.687 0 0 0 3.786-2.382c1.466-.977 2.85-1.79 4.153-2.441 1.343-.693 2.525-1.04 3.543-1.04 1.018 0 1.67.264 1.955.793.285.49.427 1.02.427 1.59 0 .326-.02.651-.06.977 0 .285-.022.529-.063.732-.203 1.059-.61 2.117-1.22 3.176a10.06 10.06 0 0 1-2.323 2.75c-4.234 3.34-8.59 5.72-13.07 7.145-4.438 1.425-9.181 2.138-14.23 2.138-.978 0-2.139-.061-3.483-.183a26.323 26.323 0 0 1-4.092-.733 21.242 21.242 0 0 1-4.214-1.588 13.591 13.591 0 0 1-3.727-2.748c-1.059-1.14-1.933-2.545-2.625-4.215-.651-1.669-.978-3.685-.978-6.046 0-1.914.265-4.053.794-6.414-.529-.082-1.038-.346-1.527-.793-.448-.489-.672-1.183-.672-2.079 0-1.75.468-3.237 1.405-4.459.936-1.221 2.179-2.034 3.726-2.44.448-.897 1.14-2.1 2.076-3.606.937-1.548 2.098-3.217 3.483-5.008a61.664 61.664 0 0 1 4.703-5.375 40.115 40.115 0 0 1 5.863-4.947 32.067 32.067 0 0 1 6.902-3.665c2.484-.936 5.11-1.406 7.88-1.406zm-1.832 9.59c-1.791 0-3.563.47-5.314 1.406-1.71.937-3.34 2.116-4.887 3.541a30.222 30.222 0 0 0-4.031 4.522c-1.181 1.588-2.097 3.033-2.748 4.336 2.932-.245 5.62-.631 8.062-1.16 2.444-.57 4.56-1.264 6.352-2.079 1.832-.855 3.299-1.79 4.398-2.808 1.14-1.059 1.874-2.179 2.2-3.36.081-.203.12-.387.12-.55v-.55c0-1.099-.406-1.913-1.22-2.442-.814-.57-1.792-.856-2.932-.856z" transform="matrix(.26458 0 0 .26458 0 191.167)" id="path884" fill="url(#linearGradient900)" stroke="url(#linearGradient908)" stroke-width="5" stroke-linejoin="round"/></g></svg>