<?xml version="1.0" encoding="UTF-8" standalone="no"?>
<svg
   xmlns:dc="http://purl.org/dc/elements/1.1/"
   xmlns:cc="http://creativecommons.org/ns#"
   xmlns:rdf="http://www.w3.org/1999/02/22-rdf-syntax-ns#"
   xmlns:svg="http://www.w3.org/2000/svg"
   xmlns="http://www.w3.org/2000/svg"
   xmlns:xlink="http://www.w3.org/1999/xlink"
   xmlns:sodipodi="http://sodipodi.sourceforge.net/DTD/sodipodi-0.dtd"
   xmlns:inkscape="http://www.inkscape.org/namespaces/inkscape"
   width="500"
   height="300"
   viewBox="0 0 132.292 79.376"
   version="1.1"
   id="svg845"
   sodipodi:docname="devplus-logo.svg"
   inkscape:version="0.92.3 (2405546, 2018-03-11)">
  <metadata
     id="metadata849">
    <rdf:RDF>
      <cc:Work
         rdf:about="">
        <dc:format>image/svg+xml</dc:format>
        <dc:type
           rdf:resource="http://purl.org/dc/dcmitype/StillImage" />
      </cc:Work>
    </rdf:RDF>
  </metadata>
  <sodipodi:namedview
     pagecolor="#ffffff"
     bordercolor="#666666"
     borderopacity="1"
     objecttolerance="10"
     gridtolerance="10"
     guidetolerance="10"
     inkscape:pageopacity="0"
     inkscape:pageshadow="2"
     inkscape:window-width="1920"
     inkscape:window-height="1001"
     id="namedview847"
     showgrid="false"
     inkscape:zoom="2.6933333"
     inkscape:cx="250"
     inkscape:cy="150"
     inkscape:window-x="-9"
     inkscape:window-y="-9"
     inkscape:window-maximized="1"
     inkscape:current-layer="svg845" />
  <defs
     id="defs839">
    <linearGradient
       id="a">
      <stop
         offset="0"
         stop-color="#00f"
         id="stop833" />
      <stop
         offset="1"
         stop-color="purple"
         id="stop835" />
    </linearGradient>
    <linearGradient
       xlink:href="#a"
       id="b"
       x1="-7.275"
       y1="40.587"
       x2="161.13"
       y2="40.587"
       gradientUnits="userSpaceOnUse"
       gradientTransform="matrix(0.77872,0,0,0.77872,6.792,6.127)" />
  </defs>
  <path
     d="M-8.718 21.334c.016-.021.535-.718.553-.736.086-.092.204-.15.294-.238.315-.31.288-.375.714-.54.484-.408-.085.116.337-.446.045-.06.131-.079.175-.139.056-.077.056-.186.114-.262.383-.5-.058.444.265-.35.372-.104.255-.262.436-.494.041-.052.133-.045.177-.095.317-.36-.087-.164.294-.306.2-.16.409-.34.557-.551.065-.093.092-.21.166-.297.113-.133.264-.16.417-.21l.13-.228c.055-.033.127-.046.166-.098.054-.073.042-.18.095-.254.035-.048.12-.041.154-.09.266-.385-.1-.17.24-.327.289-.825-.115.121.247-.302.055-.064.033-.175.09-.238.038-.042.125-.003.164-.044.308-.33-.12-.182.26-.272.511-.409-.246.24.275-.4.043-.052.135-.04.18-.088.06-.066.056-.175.118-.238.427-.436-.076.45.29-.291C4.53 5.93-38.88 49.82 21.113.253 63.273-34.581-10.283 16.657-.653 12.918c.382.004.367-.277.545-.53.172-.245.213-.158.43-.352.077-.068.135-.154.203-.232.727-.234-.254.124.416-.265.062-.036.151-.001.213-.039.067-.041.082-.143.15-.184.407-.246-.002.281.32-.22.42-.055-.056.059.29-.232.044-.038.13.01.173-.03.06-.053.041-.164.1-.219.382-.358-.04.458.266-.258.392-.083-.06.06.263-.263.04-.04.128.004.168-.037.059-.058.038-.17.096-.228.39-.392-.058.5.264-.265.028-.098.02-.214.084-.294.038-.048.13 0 .18-.037.17-.257.057-.148.32-.301C11.358 4.55 18.868.136 26.416-4.213c7.419-4.275-14.8 8.614-22.2 12.92.056-.054.1-.124.167-.163 7.535-4.37 15.06-8.759 22.636-13.06.087-.05.204.069.299.037.174-.238.06-.157.34-.244L5.321 8.067c7.178-5.284-.065.038 22.831-13.12.06-.035.11-.082.165-.123.083-.013.172-.006.25-.04.798-.344-.517.035.45-.216.1-.007.21.02.3-.023.623-.3-.309-.132.39-.291.424-.097.414.204.69-.191.11-.17.322-.003.449-.087.065-.042.037-.157.09-.214.156-.167.516-.073.7-.051.007.001.546.081.554.078.07-.023.073-.13.129-.177.179-.147.465-.106.674-.1.322.086.763-.018 1.073.08.221.069.416.204.63.294.359.33.834.56 1.17.91.744.777-.01.072.467.51.336.403.684.745.958 1.198.384.647.47 1.365.52 2.099.033.584.038 1.169.041 1.754a42.31 42.31 0 0 0-.016 1.795c.007.55.011 1.1.013 1.65.076.304.088.597.018.9-.015.066-.052.128-.056.196-.047.757.096.028-.03.584-.208.31-.126.258-.173.633-.01.07-.06.13-.069.201-.07.529.088.19-.103.521-.044.028-.11.037-.131.084-.041.09-.02.196-.04.292-.162.74.027-.031-.242.42-.28.47.098.143-.247.399-.303.873.113-.134-.251.354-.186.25.02.254-.245.451-.404.303-.009-.273-.327.289-.193.09-.19.329-.326.46-.053.05-.149.034-.207.08-.096.077-.24.362-.293.457l-22.73 12.903c-.105-.019-.21-.08-.314-.056-.071.017-.084.125-.145.165-.292.19-.133-.05-.46.07-.115.043-.24.27-.294.354l-.241.102c-.097.015-.2.01-.291.044-.082.03-.135.12-.22.147-.087.027-.605.026-.685.045-.1.025-.184.092-.276.137-.317.113-.626.062-.9.281-.078.063-.127.158-.21.216-1.001.709.422-.465-.504.322-.28.209-.635.103-.94.181-.088.022-.154.098-.238.13-.199.076-.382.078-.59.096-.842.556.452-.265-.493.223-.08.041-.13.128-.21.172-.266.147-.6.139-.893.149-.513.552.174-.136-.396.278-.34.248.052.133-.36.337-.753.373.147-.214-.546.267 7.357-4.228 29.132-17.392 22.072-12.684-7.332 4.889-14.246 11.743-22.95 13.122-.115.019-.235 0-.348.031-.094.025-.173.088-.26.132l-.3.071c-.105.01-.22-.015-.316.029-.282.127-.163.438-.53.558-.088.029-.358.09-.277.044 7.406-4.276 14.846-8.493 22.27-12.74-61.43 35.422.69-.389-.41.21-7.646 4.166-15.285 8.374-22.625 13.06-7.195 4.592 14.814-8.485 22.19-12.781.074-.044-.178-.025-.258.005-.078.029-.127.108-.19.162-.139.25-.364.395-.639.47-.084.022-.181-.007-.26.03-.139.067-.273.318-.347.432-60.237 34.717-.508.379-.37.3.069-.04-.158.021-.235.042-.317.085-.483.214-.69.463-.075.034-.148.077-.228.102-.072.022-.155.006-.224.037-.292.128-.286.46-.497.669-.056.056-.135.083-.203.124-.064.064-.121.136-.192.193-.06.049-.149.064-.199.124-.3.366-.04.687-.595.933-.072.189-.301.124-.418.233-.067.063-.085.164-.134.243-.158.254-.282.324-.55.428-.426.127-.538.463-.608.864-.057.504-.047 1.012-.046 1.518a470.044 470.044 0 0 1 .008 3.182c-.134.406.115.907.227 1.297.034.122.321 1.332.227 1.362-.028.01-.03-.051-.044-.077-.186-.434-.037-.87.006-1.313C7.793 31.765.331 35.96-7.119 40.174c-.083.047.175-.071.261-.11.798-.368-.269.111.548-.301.085-.043.188-.051.265-.108.08-.06.129-.154.193-.232.208-.528.45-.434.827-.693.462-.32-.015-.06.448-.293.29-.187.368-.518.55-.778.05-.071.141-.106.193-.175.32-.428-.05-.148.32-.386.087-.169.297-.193.414-.323.075-.084.1-.204.17-.293.054-.07.137-.111.197-.175.112-.117.286-.365.378-.492.558-.55-.056.098.437-.574.059-.08.143-.14.209-.214.241-.276.43-.58.616-.895.526-.485.988-1.034 1.473-1.559.453-.245.547-.802.934-1.116.19-.155.413-.267.605-.42.093-.086.195-.165.281-.26.087-.094.142-.216.233-.307.087-.087.205-.138.295-.222.107-.1.188-.227.296-.326 1-.924-.348.471.69-.633.927-.731 1.658-1.67 2.553-2.43.86-.643 1.662-1.36 2.509-2.022.11-.103.21-.219.329-.31.111-.087.246-.138.36-.22.494-.36.991-.77 1.429-1.193.571-.213.842-.77 1.26-1.168.195-.187.443-.351.663-.506.108-.074.223-.138.326-.22.098-.08.183-.174.275-.26.104-.09.204-.185.311-.27a3.948 3.948 0 0 1 1.144-.627c.624-.443 1.261-.862 1.857-1.343.499-.338.866-.822 1.297-1.23.225-.212.48-.392.709-.6.101-.083.213-.154.303-.247.151-.156.344-.497.474-.659a3.04 3.04 0 0 1 .835-.712c.258-.207.531-.42.738-.682.074-.095.117-.214.196-.305.124-.14.293-.233.432-.358.188-.269.494-.434.713-.664.102-.107.167-.246.265-.357.214-.241.46-.454.678-.691.37-.365.658-.804 1.003-1.188.29-.323.64-.578.936-.897.087-.13.35-.546.473-.66.08-.073.194-.101.279-.17.289-.237.463-.565.626-.89.084-.117.158-.241.253-.349.614-.697-.082.234.514-.509.093-.115.162-.247.256-.36.202-.243.51-.513.738-.724.977-.892 1.966-1.775 2.897-2.715.611-.676 1.296-1.255 2.022-1.802.082-.09.152-.19.246-.268.223-.183.52-.262.725-.48.405-.43-.035-.136.403-.388C40.31-7.5-2.643 22.236 57.676-12.743c.066-.038.22-.203.155-.166C35.44-.003 27.156-1.315 35.859.01c.052-.056.123-.1.157-.168.039-.081-.027-.22.051-.265 3.029-1.727 20.449-21.08 24.104-10.652.169.833.102 1.687.08 2.53 0 .957-.014 1.932-.226 2.87-.198.636-.359 1.28-.39 1.945.022.244-.21.38-.283.576-.085.23-.163.624-.184.865l-.095.212c-.04.047-.09.086-.118.14-.042.087-.047.187-.085.274-.03.069-.096.119-.12.19-.038.118-.078.619-.088.72-.062.034-.134.056-.187.104-.067.061-.104.15-.166.216-.103.109-.272.154-.348.283-.1.36-.024.209-.203.47-.031.17-.067.453-.161.607-.038.061-.132.075-.164.14-.06.122-.037.274-.099.395-.014.027-.445.37-.45.375-.228.284-.63.48-.871.736-.108.115-.165.272-.27.39-.197.221-.446.39-.664.591-.382.527-.967.838-1.416 1.295-.707.718.076.028-.679.665-.11.106-.222.211-.33.32-.31.31-.314.31-.565.662-.176.247-.23.399-.477.58-.076.057-.17.084-.255.126-.083.05-.173.087-.247.148-.338.28-.175.243-.485.552-.396.395-.132.06-.605.347-.12.073-.218.179-.328.268-.284.178-.453.483-.711.688-.138.11-.302.183-.452.276-.498.308-1.01.586-1.505.9-.731.287-1.273.861-1.855 1.362-.336.289-.696.55-1.041.828-.463.312-.898.666-1.318 1.034-.139.122-.26.265-.408.376-.137.103-.773.458-.932.548-1.077.538-1.996 1.317-2.95 2.039-1.176.963-2.399 1.858-3.623 2.758-1.096.867-2.166 1.769-3.284 2.61-.61.555-1.344.956-1.969 1.493-.286.247-.55.517-.83.772-.637.619-1.361 1.13-1.964 1.781-.672.57-.94 1.312-1.605 1.905-.655.21-.544 1.029-.984 1.425-.061.055-.147.073-.221.11-.56.022-.425.427-.657.764-.075.11-.329.151-.43.178-.075.064-.161.115-.223.191-.071.088-.098.207-.17.295-.055.067-.14.103-.203.161-.237.22-.463.436-.667.688-.356.59-.89 1.039-1.261 1.613-.177.184-.19.448-.31.659-.11.192-.257.236-.404.394-.264.348-.126.19-.41.478-.045.103-.096.204-.136.31-.101.27-.047.361-.275.521-.31.219-.29-.115-.439.348-.035.344-.008.55-.346.697-.079.034-.169.047-.238.098-.178.13-.3.325-.453.484-.577.85-1.276 1.618-1.747 2.534-.678.724-1.203 1.546-1.666 2.417-.197.367-.414.727-.645 1.074-.106.16-.273.276-.364.445-.05.092-.063.2-.095.301-.399.339-.437.901-.67 1.336-.048.088-.128.155-.191.232-.054.076-.12.146-.163.23-.096.192-.163.516-.24.71-.1.252-.263.482-.406.71.014.212-.14.368-.187.56-.028.115-.015.237-.042.352-.05.21-.19.359-.325.515-.235.236-.195.584-.398.826-.132.047-.058-.183-.007-.165.076.028.13.095.203.132.238.121.455.138.715.12.738-.065 1.48-.068 2.22-.103.156-.173.42-.123.596-.246.083-.057.107-.176.188-.237.075-.057.182-.056.262-.106.64-.396-.243-.008.494-.301.22-.309.578-.166.852-.406.085-.074.304-.327.206-.27C-7.45 61.354-13.703 64.191-5.681 60.535c.236-.268.591-.363.873-.562.093-.065.156-.169.254-.226 10.582-6.167 49.078-28.385.478-.319.337-.02.446-.333.71-.484.085-.049.187-.053.278-.087.33-.125.244-.093.493-.343.083-.06.17-.116.249-.18.097-.077.178-.175.282-.243.373-.246.218-.01.572-.3.17-.139.308-.314.477-.454.275-.093.572-.371.763-.588.094-.108.146-.25.248-.351.19-.188.486-.317.72-.436.9-.571 1.688-1.305 2.46-2.038.868-.802 1.825-1.495 2.74-2.243 1.237-.883 2.471-1.773 3.714-2.65 1.23-.824 1.792-2.195 2.486-3.443 1.599-3.268 3.902-6.108 6.213-8.89 4.16-4.87 8.926-9.169 13.844-13.255 2.593-2.192 5.315-4.22 8.033-6.252 7.76-5.72 15.87-9.439 24.777-14.565L42.957 15.343c-.1.058.206-.106.301-.172.095-.066.165-.165.265-.223A6358.789 6358.789 0 0 1 66.16 1.914c.112-.064.47-.216.357-.15-7.309 4.22-14.634 8.414-21.95 12.622.839-.378 1.547-.96 2.306-1.469.072-.053.71-.52.775-.558.139-.082.298-.127.436-.21.13-.077.238-.184.363-.269.264-.18.537-.343.801-.522.11-.099.221-.194.328-.295.098-.093.178-.205.285-.287.292-.226.261-.092.592-.235.295-.128.298-.192.497-.436.077-.08.146-.17.233-.24.089-.073.204-.109.29-.186.29-.265.448-.67.738-.937.077-.07.18-.107.27-.161.616-.275.998-.797 1.527-1.188.628-.417.916-.893 1.624-1.216.192-.31.58-.486.824-.7.28-.245.48-.626.72-.91.095-.054.197-.097.285-.162.087-.064.15-.156.234-.224.722-.58-.21.233.532-.326.085-.064.153-.149.23-.224L81.054-9.46c.277-.12.76.106 1.024.04.077-.02.11-.12.179-.16.329-.197.166.097.295-.33.073-.208.293-.041.406-.127.062-.048.024-.163.075-.222.045-.05.244-.107.187-.074-4.619 2.675-55.278 31.923.37-.207.593 0 1.182.097 1.773.146.179.058.38-.018.559.033.129.037.24.12.364.169.563.226.582.256 1.03.696.59.467.954 1.149 1.245 1.829.264.643.31 1.322.328 2.007.061.832.012 1.674-.258 2.47.005.399-.206.698-.347 1.043-.123.3-.206.617-.333.918-.166.45-.081 1.004-.364 1.407-.095.137-.225.246-.33.376-.052.104-.11.205-.155.312-.06.144-.09.301-.163.439-.27.508-.913 1.15-1.287 1.612-.122.13-.254.252-.366.39-1.809 2.253 1.087-1.197-.917 1.238-.543.66-1.164 1.251-1.766 1.855-1.295 1.299-2.685 2.502-4.079 3.693a64.604 64.604 0 0 1-4.35 3.884 119.243 119.243 0 0 0-5.255 4.464c-1.254 1.21-2.484 2.45-3.639 3.755-1.03 1.026-1.787 2.278-2.735 3.37-1.897 1.917-4.156 3.424-6.293 5.055-3.244 2.55-6.298 5.332-9.367 8.087-1.85 1.677-3.629 3.424-5.383 5.2a107.877 107.877 0 0 0-3.14 3.525 33.34 33.34 0 0 0-2.729 3.786c-.306.654-.771 1.218-1.13 1.84-.597 1.033.169-.14-.377.677-.058.1-.108.205-.173.3-.063.168-.245.232-.34.37-.19.272-.32.73-.48 1.042-.525.554-.85 1.233-1.236 1.883-.28.536-.653 1.023-.889 1.583-.092.218-.307.854-.381 1.07-.488 1.307-1.033 2.589-1.493 3.906-.238.907-.645 1.772-.84 2.689a5.295 5.295 0 0 0-.498 1.856c-.06.597-.118.712.165 1.239.147.39.438.464.745.68.592.07.27-.104.43-.404.1-.184.57-.333.704-.388.276-.145.85-.438 1.096-.6.226-.15.888-.619.652-.485-6.942 3.967-13.852 7.992-20.78 11.985-.315.183.635-.362.947-.55.314-.19.621-.39.932-.586 2.627-1.646 4.639-4.024 6.733-6.265 3.309-3.561 6.748-7 10.212-10.408a396.12 396.12 0 0 1 9.556-9.067c1.358-1.288 2.782-2.502 4.186-3.738.75-.86 1.712-1.484 2.6-2.186a116.164 116.164 0 0 0 5.012-3.6c.442-.372.98-.653 1.363-1.096.45-.519 1.037-1.43 1.407-1.941.376-.52.766-1.029 1.149-1.543.638-.784 1.258-1.582 1.915-2.35.894-1.044 1.82-2.062 2.738-3.086a302.52 302.52 0 0 1 11.234-11.834c2.73-2.736 5.668-5.244 8.696-7.64C86.655 9.073 99.184 2.978 103.518.479c.691-.398.106.003.704-.43-56.078 32.37-1.868 1.056.69-.332 7.415-4.027-29.073 17.138-21.943 12.624.18-.115 59.18-34.09 1.161-.64.142-.072.292-.13.426-.216.14-.09.261-.206.392-.309 7.543-4.326 15.083-8.66 22.63-12.98.129-.073.269-.124.396-.2.119-.07.215-.177.34-.235.13-.06.276-.077.413-.115.118-.061.47-.25.354-.184-7.337 4.21-14.679 8.41-22.02 12.614-.089.05.176-.108.266-.16 7.541-4.338 15.062-8.713 22.627-13.01.097-.055.227 0 .334-.03.088-.023.162-.085.242-.127.218-.366.53-.217.777-.349.079-.042.1-.153.17-.208.767-.582-.266.394.407-.269.154-.155.382-.011.547-.094.074-.037.081-.15.147-.2.207-.16.543-.09.776-.07.183.066.396.012.579.077.135.048.252.14.382.2.1.046.213.064.31.117.294.16.463.339.71.561.1.1.194.209.302.302.065.057.15.09.215.146.41.35.714.789.995 1.242.557.897.625 1.95.727 2.975.092 1.35.016 2.707-.365 4.012-.318 1.086-.73 2.007-1.161 3.05a25.327 25.327 0 0 1-4.307 7.036c-.475.551-.982 1.073-1.474 1.61-4.437 4.494-9.512 8.269-14.55 12.05-2.965 2.28-5.96 4.546-8.714 7.083-1.452 1.339-2.393 2.352-3.768 3.773-3.662 3.84-6.911 8.035-9.936 12.387a116.606 116.606 0 0 0-4.682 7.418c-.586 1.074-1.318 2.062-1.934 3.117-.125.213-.626 1.184-.75 1.421-.222.702-.704 1.282-1.012 1.94-.11.232-.177.482-.269.722-.045.248-.341.335-.459.52-.05.08-.059.177-.098.261-.04.086-.174.289-.228.373-.059.065-.19.566-.351.366-.111-.137-.096-.116-.057-.233.025-.04.03-.107.074-.117.126-.028.774.185.89.21.21.048.752.1.944.122.773.076 1.615-.012 2.324-.362.264-.13.502-.31.758-.456.376-.216.759-.42 1.138-.631-36.19 18.888-23.302 14.166-16.31 9.127 1.241-.895 2.402-1.883 3.56-2.882a50.597 50.597 0 0 0 4.39-4.403c.315-.354.626-.712.945-1.063 1.474-1.622 1.139-1.186 2.731-2.995 1.912-2.172 3.74-4.416 5.575-6.653a186.576 186.576 0 0 0 10.338-13.737c1.015-1.431 1.903-2.952 2.97-4.347.303-.231.446-.593.718-.853.09-.085.205-.14.294-.226.147-.144.425-.524.55-.69.79-.682 1.658-1.274 2.356-2.059.241-.34.628-.526.9-.836.223-.256.435-.555.625-.837.073-.043.156-.071.219-.127.068-.061.111-.145.167-.217.074-.082.137-.175.22-.246.083-.07.181-.117.274-.17 22.665-13.158 13.98-11.833 22.936-13.154.077.006.698.058.782.046.104-.015.192-.09.295-.115.332-.077.394 0 .732-.068.114-.022.22-.073.33-.11 1.149-.15-.446.035.904-.034.18-.01.354-.062.533-.072 2.257-.128-1.035.16 1.506-.02.28-.02.558-.063.837-.094 1.65-.182 3.307-.236 4.962-.327a64.69 64.69 0 0 1 2.732-.117c.124.05.264.072.373.149.61.432 1.258 1.441 1.42 2.176.06.275.064.56.096.841-.01.29.02.585-.032.871-.484 2.63-2.191 5.249-3.668 7.423-2.014 2.749-4.334 5.26-6.856 7.546-1.759 1.51-3.634 2.876-5.533 4.204-1.283.863-2.59 1.686-3.89 2.524-1.508.954-2.995 1.934-4.38 3.06-1.35 1.05-2.411 2.385-3.457 3.72a20.34 20.34 0 0 0-2.112 3.685c-.314.726-.488 1.497-.74 2.245-.052.27-.193.541-.24.807-.017.091-.002.186-.015.277.013.07.02.168.083.216.017.013.036-.036.057-.03.064.022.111.078.173.105.13.058.294.077.43.1.622.057 1.249.167 1.874.151.462-.012.802-.092 1.257-.175.227-.072.463-.122.68-.218.211-.093 3.261-1.86 1.595-.907-6.725 3.84-13.43 7.715-20.17 11.53-.658.372 1.315-.756 1.925-1.203.823-.605 1.577-1.3 2.366-1.95 3.8-3.744 7.023-8.073 9.642-12.719.438-.777.824-1.581 1.237-2.372 1.748-3.554 3.231-7.228 4.679-10.912.66-1.782 1.428-3.52 2.142-5.28.416-.763.82-1.523 1.275-2.261 4.023-8.38 2.97-2.207 22.98-13.617.256-.145.579-.126.859-.13 1.406.014 1.569.272 2.38 1.49.121.28.286.547.363.843.261 1.017.176 1.828.02 2.879-.346 2.34-1.13 4.466-1.942 6.673-1.443 3.64-2.941 7.266-4.832 10.698a24.187 24.187 0 0 1-3.321 4.49c-1.124 1.132-2.22 2.306-3.189 3.573-1.196 1.477-2.184 3.103-3.041 4.795-.587 1.077-.93 2.258-1.41 3.38-.34.722-.409 1.547-.465 2.335.004.64.151 1.096.85 1.18.697.067 1.295-.265 1.894-.573.987-.506.528-.244 1.502-.88 7.366-5.142.574-.366-19.879 11.381-.31.178.608-.377.901-.581.89-.62 1.586-1.343 2.313-2.139 1.052-1.268 2.046-2.607 2.86-4.042.096-.16.18-.327.286-.48.099-.146.228-.27.327-.414.491-.712.013-.144.512-.886.15-.223.342-.415.513-.623 5.11-7.634 14.76-15.818 23.926-14.012.595.135 1.268-.015 1.823.282.176.094.33.226.494.339.775.735 1.721 1.495 2.118 2.529.134.347.198.718.297 1.077.534 2.292.332 4.664-.033 6.965-.31 1.625-.866 3.185-1.393 4.748-.125.43-.297 1.043-.447 1.469-.113.318-.28.618-.36.946-.1.417-.146.846-.173 1.274-.095 1.49.027 2.093.17 3.628.667 3.833 2.135 7.463 4.387 10.641.39.551.828 1.066 1.243 1.599 1.076 1.244 2.308 2.34 3.721 3.189.869.522 1.828.912 2.736 1.36.748.35 1.248.898 1.674 1.583l-22.707 12.96c.096-.251-.48-.583-.552-.737-2.031-1.892-4.15-3.713-5.639-6.098-.409-.62-.85-1.222-1.227-1.862-.394-.669-.729-1.37-1.081-2.06-1.505-2.951-2.881-5.981-3.902-9.136-.668-2.053-.625-1.711-1.026-3.663-.084-.41-.412-2.12-.396-2.631.008-.273.335-1.198.424-1.465.401-1.657 1.116-3.195 1.716-4.785.6-1.794 1.034-3.71.464-5.573-.271-.544-.792-1.417-1.517-1.26-.179.102-.268.168-.472.221-.371.097-.764.093-1.071.363-5.452 6.926-.523.604 22.013-12.452.185-.108-.44.012-.634.102-.213.099-.37.296-.601.366-.202.208-.38.44-.598.632-.479.422-.305.086-.713.646-.117.161-.188.352-.307.51-.12.162-.271.299-.407.448-.718.863-.212.213-.898 1.227-.731 1.082-1.531 2.117-2.276 3.19-1.015 1.321-.326.444-1.398 1.754-.246.302-.468.624-.735.907-.257.271-.51.562-.83.753-20.923 12.462-14.694 9.567-23.52 13.612-1.997.635-3.428.889-5.29-.286-.192-.16-.395-.308-.575-.481a5.477 5.477 0 0 1-1.565-2.875c-.133-1.068-.073-2.121.062-3.188.167-.65.38-1.056.649-1.663.34-.77.692-1.528 1.051-2.29.443-.863.444-.85.87-1.74.147-.307.27-.627.435-.925.156-.282.357-.536.524-.812.171-.283.327-.576.49-.864l.487-.793c.168-.24.341-.476.502-.72.164-.249.296-.518.471-.758.16-.218.356-.405.529-.612.488-.586.913-1.222 1.436-1.78 2.2-2.146-1.157 1.105 1.233-1.124 1.058-.987 1.986-2.111 2.913-3.218a41.303 41.303 0 0 0 6.16-10.574c.41-1.388.816-2.563 1.03-3.988.094-.63.313-2.367-.206-2.976.09.776-.343.604-.859.963-.026.019-.382.28-.406.295-.075.046-.312.167-.235.123 7.399-4.26 14.83-8.464 22.202-12.77.089-.052-.205-.028-.307-.02-.099.007-.193.042-.29.063-.036.025-.52.354-.537.372-.1.104-.16.242-.255.351-.346.393-.799.68-.998 1.194-1.382 1.629-2.244 3.643-3.326 5.468-.263.514-.54 1.02-.79 1.542-.877 1.838-1.639 3.73-2.558 5.55-.363.717-.753 1.42-1.133 2.129-.424.792-.852 1.583-1.279 2.374-1.165 2.053-1.832 3.275-3.094 5.296-2.255 3.611-4.798 7.04-7.435 10.38-.505.638-.981 1.302-1.516 1.917-.391.45-.745.966-1.257 1.271-7.493 4.474-15.1 8.754-22.705 13.035-.978.55-2.14.647-3.23.693-1.424-.047-2.858-.195-4.154-.834-.95-.567-1.576-1.203-2.04-2.223-.278-.735-.413-1.498-.288-2.283.158-.974.584-1.859.884-2.794.179-.45.337-.907.533-1.348.33-.738.74-1.426 1.136-2.128.146-.259.28-.525.42-.787.937-1.528 2.045-2.942 3.232-4.283.211-.205 1.085-1.06 1.304-1.245.234-.199.492-.368.731-.56.245-.196.47-.416.721-.605.463-.348.98-.62 1.442-.97.416-.283.818-.586 1.238-.862.914-.598 1.878-1.123 2.772-1.753 2.156-1.268 4.226-2.674 6.24-4.158.85-.64 1.735-1.28 2.533-1.988 1.737-1.54 3.27-3.307 4.792-5.054.924-1.23 1.849-2.448 2.517-3.842.171-.36.295-.739.447-1.107.091-.22.223-.425.281-.655.042-.168.01-.346.016-.519l.007-.227c.01-.22.068.374.06.393-.022.05-.093.057-.139.085-.783-.017-1.566-.047-2.349-.05-1.565.018-3.125.16-4.678.348-1.366.14-2.726.36-4.031.79-.455.065-.639.175-1.053.283-.447.117-.484.047-.813.452-6.22 6.214-.241.206 21.845-12.588.085-.05-.157.124-.248.164-.187.084-.33.03-.505.153-.086.061-.141.156-.212.234-.31.097-.627.267-.872.49-.35.32-.542.8-.982 1.03-.142.116-.294.22-.426.345-.382.364-.417.508-.77.894-.616.678-.075.039-.684.583-.105.094-.19.207-.285.311-.263.131-.44.19-.645.41-.091.1-.138.235-.23.335-.278.303-.718.422-.897.828-1.704 1.475-3.229 3.123-4.715 4.816-2.558 2.914-5.07 5.885-7.414 8.975-.667.878-1.299 1.782-1.958 2.666-.622.836-1.256 1.662-1.885 2.493-1.552 2.067-3.055 4.164-4.562 6.264-.653.91-1.281 1.837-1.958 2.728-.244.321-.51.626-.765.94-.422.551-.809 1.13-1.243 1.672-.97 1.21-2.187 2.208-3.3 3.276-1.318 1.102-2.636 2.211-3.991 3.267-7.907 6.159-16.508 10.607-25.693 15.28-1.31.568-1.636.81-3.002 1.045-.991.17-1.994-.106-2.966-.242-1.104-.238-2.243-.469-3.055-1.314-.632-.792-1.14-1.628-.98-2.676.029-.22.043-.414.116-.623.028-.08.088-.148.111-.23.1-.347.08-.71.343-1 .18-.168.368-.325.498-.54.094-.155.146-.332.232-.492.31-.581.713-1.104 1.098-1.635.276-.497.568-.987.83-1.491.15-.285.267-.586.423-.866.501-.899 1.191-1.67 1.715-2.553 1.955-2.667 3.624-5.54 5.79-8.054 1.665-2.106 3.344-4.204 4.985-6.33 1.141-1.477 2.244-3.02 3.44-4.456.575-.69 1.188-1.345 1.782-2.018 1.083-1.171 2.603-2.844 3.74-3.96 2.832-2.78 6.017-5.156 9.202-7.508 4.65-3.484 9.465-6.829 13.415-11.132.43-.455.872-.897 1.288-1.364.956-1.075 1.12-1.363 1.955-2.49.89-1.201 1.8-2.391 2.381-3.783.311-.73.737-1.65.956-2.43.27-.965.307-2.001.263-2.995-.107-.616-.222-1.27-.543-1.813-.108-.171-.595-.48-.78-.469-.062.064-.095.16-.17.208-.057.037-.14.018-.193.06-.055.046-.057.135-.108.185-.1.1-.276.107-.348.248-.129.143-.28.38-.476.438-.086.026-.187-.019-.268.018-.15.066-.182.297-.36.33l-.261.075c-.067.04-.125.096-.2.118-.09.027-.194-.008-.282.027-.252.102-.401.435-.751.382-.347.124-.2.027-.445.282L111.679.534c.1-.058-.198.118-.298.175-22.718 13.03-14.707 9.413-23 13.144-.51.372-.11.117-.692.386-.125.058-.488.257-.369.188 7.27-4.196 14.559-8.361 21.823-12.568.137-.08-.304.1-.438.182-.14.086-.25.21-.375.316-7.54 4.355-15.084 8.706-22.624 13.065-.124.072-.491.298-.367.226 7.304-4.213 29.373-16.566 21.906-12.65-7.712 4.045-15.094 8.69-22.641 13.036-.215.124 59.907-34.502-.63.399-.226.097-.877.448-.664.324 7.25-4.2 14.496-8.401 21.752-12.59.183-.105-.35.24-.534.343-.52.288-1.094.476-1.582.827-4.017 2.535-7.937 5.242-11.507 8.388-.969.872-1.956 1.722-2.906 2.614-2.935 2.76-5.82 5.679-8.29 8.87-1.373 1.775-1.782 2.573-2.84 4.37-.226.443-.446.89-.678 1.33-.162.31-.355.602-.505.916-.51 1.077-.594 1.966-1.613 2.795-2.652 2.085 1.202-.926-1.706 1.276-1.238.936-.506.469-1.71 1.33-.231.166-.481.305-.708.475-.18.135-.34.294-.51.44-.947.649-1.815 1.408-2.815 1.982-1.637 1.54-3.468 2.836-5.226 4.231-1.63 1.342-3.296 2.65-4.877 4.048-.633.559-1.239 1.147-1.863 1.716-3.092 2.817-.766.621-3.81 3.544-3.236 3.19-6.411 6.447-9.372 9.897l-1.13 1.314c-.373.403-.759.796-1.12 1.21-1.171 1.35-2.191 2.85-3.586 3.994-7.392 5.714-17.36 10.354-24.378 14.365-.397.227-1.275.535-1.752.665-.24.066-.484.108-.727.162-.416.061-.841.175-1.264.044-.58-.181-1.077-.645-1.534-1.024-.511-.442-.913-1-1.206-1.609-.43-.779-.844-1.636-.79-2.547.026-.828-.03-1.667.175-2.477.19-.4.27-.818.435-1.23.39-.98.049-.038.493-1.058.094-.215.17-.438.255-.657.496-1.248.856-2.54 1.335-3.794.143-.387.238-.615.344-1.014.176-.664.27-1.346.644-1.943.172-.354.387-.695.554-1.049.459-.973-.193.237.289-.75.056-.114.129-.219.194-.329.14-.135.308-.245.426-.4.281-.368.199-.937.608-1.237.301-.47.13-.247.518-.663.102-.143.166-.309.258-.458.334-.542.767-1.003 1.12-1.532.871-1.32 1.661-2.697 2.602-3.97.45-.646.907-1.276 1.445-1.855.194-.21.41-.398.603-.608.219-.238.422-.49.633-.735l.72-.76c1.895-1.997 3.94-3.857 6.005-5.676 1.532-1.316 3.112-2.575 4.642-3.893 1.655-1.427 3.245-2.928 4.891-4.364.314-.273 2.067-1.797 2.48-2.146.286-.242.578-.477.867-.716.23-.177.464-.346.687-.53.337-.28.64-.6.978-.877.32-.27.66-.516.966-.801.785-.733 1.347-1.675 2.053-2.479.77-.893 1.515-1.806 2.349-2.642.24-.24.5-.46.74-.697.271-.267.53-.544.796-.816a135.416 135.416 0 0 1 5.09-4.567c1.462-1.182 2.918-2.377 4.297-3.654 1.24-1.305 2.65-2.433 4.01-3.607.568-.552 1.128-1.11 1.703-1.654.297-.28.633-.555.867-.897.115-.169.194-.36.29-.54.305-.377.58-.763.894-1.13.08-.093.137-.206.23-.285.072-.063.184-.067.255-.13.072-.066.105-.163.157-.244.085-.257.144-.64.384-.81.07-.05.173-.037.246-.084.154-.1.227-.287.308-.44.063-.29.083-.436.187-.713.04-.104.105-.198.138-.304.122-.4.113-.676.434-1.003.22-.792-.026-.05.27-.648.199-.402.015-.133.148-.556.147-.465.094.18.1-.477-.002-.406-.01-.81.01-1.216-.012-.232-.18-.223-.346-.288-.025.272-.129.158-.347.228-.063.02-.102.09-.165.111-.157.052-.337-.004-.491.067-.475.125-.844.347-1.115.77 7.41-4.283 29.577-17.243 22.232-12.849C77.938-2.471 70.328 1.773 62.79 6.14c-.056.032-.092.1-.155.114-.086.017-.177-.052-.261-.028-.126.036-.137.28-.33.215-.64-.153-.005-.05-.52-.015-.094.006-.19-.046-.282-.022-.225.059-.38.392-.538.532 7.36-4.27 14.728-8.528 22.08-12.811.09-.052-.197.06-.284.116-.092.059-.157.152-.242.22-.27.22-.608.283-.826.57-.163.05-.496.138-.646.225-.42.244-.19.194-.504.57-.079.094-.448.377-.544.452-.068.117-.12.245-.206.35-.231.286-.555.362-.816.553-.094.069-.162.167-.245.25-.08.08-.162.157-.244.236-.181.16-.297.275-.504.4-.09.054-.199.078-.282.142-.27.208-.431.554-.71.756-.09.08-.166.18-.272.237-.106.058-.232.066-.347.099-.103.047-.212.084-.31.143-.451.268-.123.117-.47.53-.07.083-.167.138-.251.207-.506.366-.354.486-.682.896-.262.328-.329.225-.689.404-.136.067-.26.158-.39.238-.086.077-.635.577-.73.65-.126.096-.274.162-.396.263-.13.107-.225.256-.36.357-.242.18-.562.238-.792.44-.254.177-.532.319-.786.497-.13.091-.236.215-.365.308-.122.088-.267.142-.386.234-.12.092-.217.21-.325.315l-.33.234c-7.54 4.342-15.083 8.68-22.622 13.025-.122.07-.481.291-.36.22 7.336-4.225 14.677-8.441 22.001-12.686.097-.056-.216.065-.314.119-.1.054-.176.146-.275.203-7.523 4.368-15.058 8.713-22.587 13.07 7.323-4.222 14.654-8.43 21.97-12.665.124-.071-.268.107-.393.177-1.154.644.34-.057-1.038.555-.524.292-.97.714-1.52.965-3.463 2.092-6.802 4.393-10.036 6.823-4.919 3.748-9.738 7.7-13.594 12.578-1.69 2.232-1.041 1.296-2.459 3.447-.286.434-.593.856-.854 1.307-.541.934-.946 1.957-1.46 2.906l-.327.793c-.105.222-.218.44-.314.667-.398.94-.714 1.926-1.298 2.776-.176.205-.337.425-.53.614-.376.37-.887.713-1.304 1.032-.548.42-1.066.88-1.662 1.233-.964.635-1.823 1.407-2.767 2.069-.428.318-.867.663-1.244 1.041-.123.124-.213.278-.337.4-.95.939.206-.378-.657.638-.198.213-.342.42-.621.534-.108.044-.24.01-.345.06-.2.095-.59.514-.687.714-.171.13-.374.213-.538.352-.03.025-.443.539-.47.56-.08.068-.19.089-.278.145-.085.054-.16.124-.24.186-.088.045-.188.072-.263.136-.092.078-.323.448-.42.521-.542.404.01-.21-.507.205-.081.065-.13.162-.196.244C12.773 54.337 5.46 59.095-2.29 63.05c-7.565 3.86 14.7-8.515 22.041-12.787.097-.056-.212.078-.306.14-.293.194-.506.514-.868.608-6.533 6.295-.571.592-22.875 13.35-.105.06-.241.018-.359.045a1.59 1.59 0 0 0-.343.112c-.628.302.101.106-.6.253-.483.186-.07.057-.63.137-.101.015-.199.067-.302.065-.126-.004-.244-.067-.369-.084-1.213-.167.608.178-.779-.101-.928-.08-1.88-.153-2.728-.57-.93-.548-1.8-1.212-2.305-2.191-.131-.328-.24-.547-.299-.894-.068-.407.016-.84-.009-1.25.025-.265.024-.609.211-.827.048-.055.141-.062.18-.124.103-.164.046-.4.208-.542.052-.291.066-.44.167-.72.157-.434.543-.737.543-1.236.033-.124.041-.257.098-.372.04-.079.128-.123.182-.192.223-.289.097-.187.243-.55.245-.609.04.162.212-.608.332-.346.091-.037.314-.587.212-.525.612-.976.951-1.42.62-.842.997-1.81 1.58-2.676.125-.1.272-.177.373-.3.115-.138.174-.316.266-.471.312-.527.68-1.02 1.02-1.527.092-.2.22-.384.304-.589.17-.413.05-.706.628-.545.337-.27.094-.425.297-.794.192-.35.136-.107.446-.262.085-.043.146-.124.218-.186.093-.216.497-1.043.66-1.177.074-.061.184-.064.26-.124.08-.064.132-.159.198-.238.7-1.1-.396.653.338-.634.241-.424.546-.802.87-1.165.192-.277.333-.562.526-.836.06-.087.096-.194.171-.268.065-.064.173-.07.237-.135.071-.072.103-.175.154-.263.04-.131.092-.444.264-.522.079-.035.174.023.259.006.336-.07.353-.455.454-.716.343-.46.308-.23.754-.4.416-.16.571-.574.694-.962.308-.39.2-.308.583-.593.103-.077.223-.133.317-.22.311-.286.522-.686.742-1.038.238-.28.35-.401.571-.698.098-.13.177-.276.283-.399.332-.381.771-.668 1.125-1.027.293-.252.603-.486.885-.752.636-.6 1.193-1.288 1.975-1.718 1.111-.891 2.277-1.713 3.383-2.613.583-.503 1.166-1.002 1.803-1.437.202-.139.422-.252.62-.397.38-.28.698-.637 1.1-.889.17-.141.338-.283.507-.425.17-.126.344-.245.507-.38.575-.471 1.09-1.014 1.692-1.452.238-.162.655-.46.92-.584.162-.076.346-.1.508-.18.531-.257.976-.684 1.425-1.055 2.111-1.417-1.008.693 1.028-.739.158-.111.338-.19.49-.311.442-.353.873-.86 1.26-1.272.468-.308.906-.633 1.39-.917.138-.082.262-.188.41-.253.135-.06.293-.06.43-.118.125-.054.232-.143.349-.215 1.258-1.044-.688.617.517-.573.312-.308.88-.223 1.061-.706.394-.47.417-.32.905-.573.334-.173.411-.297.665-.576.109-.12.214-.24.321-.36.754-.907-.132.104.669-.654.464-.44.785-1.029 1.378-1.33.205-.213.376-.463.61-.645.101-.079.249-.089.342-.178.103-.098.139-.25.225-.364.14-.184.342-.317.479-.505.014-.017.322-.386.368-.399.089-.024.187.095.27.056.08-.037.057-.175.12-.236.014-.014.366-.12.383-.125l.102-.252c.056-.05.135-.082.167-.15.05-.11.038-.24.067-.357.156-.624.018-.04.236-.528.041-.091.06-.19.089-.286.458.092.338.06.5-.3.028-.062.094-.102.119-.165.35-.885-.21.23.163-.483.058-.026.137-.027.175-.078.052-.073.034-.177.069-.26.025-.061.089-.104.108-.167.078-.265.008-.564.22-.788.06-.04.141-.058.18-.118.055-.084.05-.195.086-.29.033-.083.094-.154.119-.24.104-.37.077-.784.246-1.141.121-.33.331-.658.415-.998.098-.403.062-.835.194-1.233-.018-.623-.063-1.248-.056-1.87.086.091.844 1.395.875 1.38C45.6-1.269 53.034-5.686 60.532-9.98c.073-.042-.158-.083-.242-.071-.072.01-.117.086-.176.129-.03.114.01.283-.092.343-7.49 4.45-15.05 8.778-22.594 13.134-.067.04-.294.085-.228.046C44.595-.702 52.037-4.923 59.42-9.245c.146-.086-.66.036-.496.1-.443.626.097-.047-.445.383-.36.287-.485.83-.98.955-.316.294-.632.578-.981.832-.282.205-.593.368-.873.576-.166.123-.315.267-.473.401-.977.816-1.87 1.726-2.77 2.626-.208.2-.423.419-.653.594-.095.073-.21.119-.299.2-.323.294-.17.298-.477.615-.078.08-.18.134-.27.202-.356.23-.499.441-.694.822-.07.135-.097.293-.188.416-.013.017-.612.493-.616.496-.194.258-.359.538-.558.792-.407.52-1.028.823-1.399 1.383-.192.23-.35.487-.552.707-.08.087-.198.132-.272.223-.08.098-.108.229-.18.332-.119.168-.306.28-.416.455-.138.167-.24.367-.406.507-.082.068-.2.081-.284.147-.278.22-.449.574-.687.83-.08.109-.146.23-.24.327-.468.494-1.233.598-1.509 1.29-.217.235-.402.501-.638.718-.105.096-.242.152-.35.245-.324.274-.581.63-.88.928-.568.587-1.132 1.188-1.812 1.648-.103.122-.189.26-.308.366-.502.448-1.288.441-1.727.982-.25.191-.408.327-.685.48-.543.297-1.046.515-1.325 1.122-.637.414-.158.066-.726.583-.112.102-.231.195-.347.292-.118.09-.244.173-.354.273-.119.107-.205.248-.33.347-.127.1-.279.162-.418.243-.857.704-1.777 1.328-2.582 2.093-.16.113-.314.234-.479.338-.16.102-.344.166-.497.28-.587.432-.993 1.05-1.535 1.528-1.022.84.321-.307-.615.635-.089.089-.213.137-.303.226-.094.092-.146.223-.244.311-.089.08-.215.11-.307.188-.1.084-.174.196-.26.294-.167.202-.291.441-.48.622-.35.33-.922.28-1.067.847-.505.504-1.017 1.006-1.458 1.568-.315.16-.485.342-.692.631-.069.097-.115.21-.194.299-.5.552-.03-.216-.421.508-.152.17-.248.264-.373.456-.06.09-.09.2-.162.282-.059.069-.166.087-.22.16-.064.089-.08.205-.12.307l-.153.208c-.391.635.113-.078-.385.343-.08.067-.102.185-.18.252-.071.06-.181.06-.254.119-.116.094-.274.381-.347.502-.046.11-.079.226-.137.33-.053.094-.457.7-.517.76-.129.127-.348.153-.51.191-.442.339-.054-.011-.414.52-5.058 7.47-42.016-9.225-23.419 13.581-.128-.053-.566-.223-.695-.311a4.72 4.72 0 0 1-1.408-1.538c-.151-.333-.251-.484-.307-.834-.046-.289.047-.6-.025-.89-.103-.632-.412-1.196-.525-1.827v-1.587c0-.528 0-1.056-.002-1.585a61.966 61.966 0 0 0-.028-1.653c-.021-.693-.065-1.39.024-2.08.046-.202.077-.456.209-.63.095-.127.297-.148.384-.28.063-.096.073-.218.11-.326l.157-.227c.308-.523.221-.21.62-.344.273-.092.195-.227.313-.464.042-.085.107-.155.161-.232.16-.307.074-.252.348-.413.068-.04.158-.05.211-.108.127-.14.173-.473.244-.624.045-.095.119-.174.178-.262.083-.037.178-.054.249-.11.166-.136.334-.609.488-.698.138-.08 59.552-34.258.455-.154.085-.01.175-.002.255-.033.308-.116.182-.193.365-.46a.77.77 0 0 1 .658-.347c.07-.044.158-.067.21-.13.071-.086.051-.245.148-.301 7.514-4.4 14.816-9.21 22.637-13.04C27.586 8.323-9.581 29.371-2.291 24.91c1.237-.756 58.435-33.747.387-.255C5.653 20.33 13.22 16.022 20.767 11.68c.24-.137.097-.222.392-.291.3-.07.585.123.832-.14.318-.172.459-.163.739-.408.074-.065.31-.242.225-.193-.193.111-59.56 34.37.6-.295.947-.355-.263.126.574-.29.268-.132.804-.208 1.105-.195.214-.136.444-.319.693-.387.103-.029.215-.018.32-.044.747-.186-.287-.032.563-.137.13-.072.328-.191.47-.238.094-.03.201-.022.292-.063.243-.11.397-.409.67-.478.202-.054.391-.155.596-.203.4-.095.302.03.687-.077.092-.025.172-.083.26-.12.096-.04.193-.074.29-.112.377-.08.29-.02.59-.234.085-.06.153-.144.244-.192.088-.046.197-.04.285-.084.155-.08.244-.264.434-.29.198-.013.405.021.594-.04.37-.119-.051-.14.356-.203.086-.014.18.046.26.01.07-.03.089-.123.133-.185-7.437 4.243-14.899 8.442-22.311 12.727-.136.079.345.052.469-.044.072-.057.08-.176.158-.224.069-.043.161-.017.242-.026l.18-.128c.415-.169-.016.06.3-.346.248-.32.09.112.365-.123.393-.337-.182-.168.303-.265.37-.752-.152.165.305-.276.06-.058.04-.172.099-.232.198-.203.393.164.374-.353.295-.5-.128.103.286-.147.057-.034.034-.133.08-.18.035-.037.123-.007.145-.054.076-.158-.05-.368.056-.524l.085-.164c.05-.015.124 0 .15-.045.119-.205-.068-.554.28-.706.002-.556.006-1.111.015-1.667.007-.597.005-1.194-.01-1.79.007-.559.02-1.118.028-1.676.002-.273-.04-.582.041-.841-.222-.201-.374-.47-.6-.668-.314-.32-.044-.056-.324-.155-.248-.088-.27-.156-.473.03-.59.139.254-.096-.253.168-.204.107-.659.069-.86.262-.18.096-.379.23-.596.215-.413-.028-.268-.162-.634.168-.113.124-.264.368-.452.389-.09.01-.182-.059-.272-.04-.133.027-.175.25-.349.21-.09-.008-.184-.05-.27-.024-.141.042-.202.216-.323.3-.429.302.054-.079-.484.123-.079.03-.128.11-.193.165-.701.5.318-.193-.478.232-.068.037-.108.115-.175.155-.069.04-.295.122-.226.082C29.492-1.284 37.681-5.256 29.785-1.42 22.228 2.911 14.668 7.242 7.112 11.577c-.265.152-.078.106-.425.11-.067.037-.186.235-.12.197C29.49-1.233 36.853-3.902 28.607-.898 21.087 3.494 13.19 7.298 6.044 12.278-.979 17.172 20.837 3.655 28.241-.642c.06-.035-.097.102-.16.128-.059.026-.138-.015-.19.02-.063.043-.049.17-.121.193-.078.025-.154-.055-.232-.082-.422.06.063-.063-.264.263-.042.043-.136-.017-.179.026-.06.06-.025.179-.084.238-.385.387.013-.52-.263.266-.412.065.053-.062-.263.27-.042.044-.137-.01-.178.035-.06.064-.028.183-.087.248-.408.452.048-.573-.274.303-.43.154.064-.074-.298.33-.049.054-.15.035-.202.088-.07.07-.073.193-.145.262-.06.058-.154.065-.232.098l-.185.244c-.087.025-.181.032-.261.074-.323.171-.076.183-.422.285-.212.063-.3-.049-.45.175-.065.099-.08.223-.12.335C18.433 10.662 22.803 9.09.686 16.66c-8.096 2.77 14.798-8.596 22.197-12.894-.078.002-.16-.014-.235.008-.065.019-.114.074-.172.11-.462.117.084-.073-.303.288-.05.047-.148.006-.2.051-.065.057-.052.176-.12.23-.485.386.053-.398-.316.214-.272.753.119-.108-.266.257-.06.057-.026.176-.087.233-.044.042-.137-.022-.182.02-.343.31.166.2-.276.247-.297.7.122-.113-.285.258-.063.057-.044.173-.103.234-.047.048-.146.018-.191.068-.614.683.35-.068-.298.403-.066.195-.112.442-.291.581-.07.055-.176.04-.25.088-.198.129-.323.395-.461.577-.316.666.11-.072-.315.289-.066.056-.056.174-.125.227-.055.043-.15-.006-.209.033-.077.05-.2.352-.23.418-.448.109.046-.064-.323.285-.054.052-.156.03-.211.081-.072.067-.078.185-.146.256-.501.523.053-.381-.378.416-.123.283-.153.44-.393.648-.092.08-.22.11-.314.187-.105.087-.17.216-.278.3-.166.13-.398.157-.543.322l-24.1 10.24z"
     fill="url(#linearGradient985)"
     id="path841" />
  <path
     d="m 44.669,1.419 c -2.887,0.05 -8.595,5.95 -13.54,11.435 l -1.491,0.856 c 0.076,0.195 0.137,0.396 0.186,0.601 -0.89,0.998 -1.725,1.938 -2.515,2.828 0.015,-0.05 0.033,-0.098 0.048,-0.148 0.413,-1.342 0.667,-2.722 0.892,-4.107 0.181,-1.261 0.283,-2.45 0.081,-3.72 C 28.183,7.947 28.04,6.716 27.637,5.552 A 9.396,9.396 0 0 0 26.329,3.334 C 26.165,3.16 25.813,2.774 25.629,2.646 25.449,2.52 24.844,2.361 24.64,2.478 18.77,5.85 12.948,9.301 7.102,12.712 c -0.697,0.782 -1.468,1.494 -2.147,2.294 -0.936,1.086 -1.777,2.242 -2.324,3.58 -0.28,0.667 -0.551,1.338 -0.842,2 -0.087,0.2 -0.178,0.4 -0.267,0.6 -0.079,0.155 -0.165,0.308 -0.235,0.467 -0.061,0.138 -0.106,0.282 -0.16,0.423 l 9.452,-4.49 c 0.026,0.263 0.046,0.526 0.06,0.79 0.08,1.106 -0.086,2.2 -0.227,3.293 -0.138,1.322 -0.64,2.555 -1.04,3.809 -0.45,1.347 -0.897,2.695 -1.473,3.994 -0.72,1.53 -1.397,3.079 -2.047,4.64 -0.717,1.452 -1.274,2.97 -1.735,4.52 -0.273,0.955 -0.567,1.911 -0.79,2.88 -0.107,0.463 -0.183,0.933 -0.282,1.398 -0.254,1.276 -0.324,2.578 -0.441,3.87 a 5.79,5.79 0 0 0 0.3,2.498 c 0.336,0.778 0.946,1.272 1.666,1.674 0.178,0.054 0.35,0.138 0.533,0.162 0.237,0.03 1.067,-0.043 1.257,-0.152 5.91,-3.353 9.284,-4.955 11.455,-5.944 -0.142,0.265 -0.287,0.53 -0.429,0.796 -0.876,1.75 -1.754,3.504 -2.466,5.328 -0.355,0.909 -0.63,1.729 -0.95,2.65 -0.503,1.584 -1.022,3.17 -1.359,4.801 -0.195,0.947 -0.212,1.166 -0.346,2.109 -0.089,1.117 -0.22,2.244 -0.08,3.365 0.063,0.508 0.135,0.705 0.267,1.188 0.364,0.887 0.99,1.746 1.927,2.092 0.215,0.08 0.447,0.107 0.67,0.16 0.278,-0.01 0.558,0.013 0.832,-0.033 0.323,-0.054 0.662,-0.103 0.948,-0.265 6.806,-3.871 14.354,-6.01 19.128,-11.997 0.284,-0.356 0.55,-0.727 0.824,-1.09 2.102,-2.814 3.812,-5.895 5.565,-8.932 0.195,-0.33 0.386,-0.664 0.577,-0.998 -0.67,1.61 -1.318,3.228 -1.96,4.85 -0.903,2.328 -1.935,4.604 -2.845,6.93 -0.126,0.305 -0.25,0.611 -0.38,0.915 -0.304,0.716 -0.392,0.831 -0.62,1.559 -0.209,0.668 -0.354,1.358 -0.481,2.046 a 16.65,16.65 0 0 0 -0.054,3.78 c 0.141,1.032 0.517,1.999 1.054,2.884 0.485,0.738 1.127,1.382 1.96,1.715 0.201,0.08 0.414,0.125 0.62,0.188 0.216,0.016 0.433,0.056 0.65,0.048 0.435,-0.017 1.13,-0.166 1.5,-0.38 10.27,-5.894 13.38,-5.867 18.054,-10.776 -0.012,0.28 -0.016,0.56 -0.002,0.842 0.016,0.29 0.07,0.577 0.105,0.866 0.182,1.482 0.73,2.845 1.425,4.152 0.448,0.679 0.968,1.368 1.67,1.809 0.143,0.09 0.3,0.154 0.45,0.23 0.2,0.045 0.393,0.129 0.596,0.132 0.214,0.004 0.445,-0.006 0.63,-0.11 7.144,-3.992 12.404,-5.73 17.225,-9.754 a 78.563,78.563 0 0 0 -1.635,7.233 c -0.352,2.165 -0.573,4.349 -0.439,6.54 0.05,0.763 0.102,1.565 0.373,2.29 0.026,0.07 0.05,0.123 0.074,0.178 0.724,-0.484 2.123,-1.352 4.466,-2.73 a 37.825,37.825 0 0 1 -4.39,2.887 c 0.085,0.158 0.175,0.288 0.307,0.49 0.762,0.947 1.593,1.239 2.789,0.914 0.274,-0.075 0.531,-0.201 0.797,-0.302 7.06,-3.895 14.543,-6.812 19.946,-12.685 0.626,-0.68 1.26,-1.461 1.848,-2.169 0.326,-0.397 0.645,-0.799 0.976,-1.192 0.7,-0.83 1.425,-1.638 2.13,-2.464 l 0.395,-0.467 c -0.33,0.95 -0.673,1.896 -1.002,2.844 -0.2,0.56 -0.399,1.12 -0.602,1.68 -0.5,1.38 -0.75,2.014 -1.224,3.404 -0.552,1.62 -1.04,3.259 -1.537,4.896 l -0.42,1.485 17.103,-8.163 0.35,-1.415 c 0.276,-1.04 0.525,-2.02 0.84,-3.05 0.695,-2.276 1.58,-4.489 2.398,-6.723 1.146,-3.029 2.269,-6.068 3.203,-9.17 0.334,-1.086 0.804,-2.23 0.746,-3.336 -0.985,0.564 -2.425,1.39 -4.267,2.45 0.27,-0.186 0.542,-0.37 0.817,-0.55 a 262.584,262.584 0 0 0 3.45,-1.907 2.927,2.927 0 0 0 -0.558,-1.597 c -0.153,-0.212 -0.369,-0.37 -0.553,-0.555 -0.169,-0.06 -0.327,-0.166 -0.505,-0.181 -0.247,-0.022 -0.865,0.22 -1.043,0.322 -5.921,3.386 -13.023,6.692 -18.818,11.045 a 97.495,97.495 0 0 0 -5.925,5.102 c -1.644,1.607 -3.203,3.299 -4.733,5.014 0.036,-0.426 0.082,-0.851 0.14,-1.275 0.442,-3.08 1.05,-6.13 2.026,-9.092 1.142,-3.497 2.446,-6.935 3.798,-10.356 a 225.666,225.666 0 0 0 3.444,-10.05 c 0.867,-3.006 1.645,-6.072 1.689,-9.22 -0.002,-1.763 -0.066,-3.57 -0.743,-5.201 -0.715,0.386 -2.052,1.058 -4.048,2.088 a 9.32,9.32 0 0 1 1.347,-1.36 c 0.172,-0.14 0.362,-0.257 0.543,-0.385 0.913,-0.273 1.581,-0.473 2.046,-0.601 a 6.867,6.867 0 0 0 -0.355,-0.673 c -0.46,-0.558 -0.899,-1.057 -1.566,-1.376 -0.192,-0.092 -0.414,-0.316 -0.602,-0.216 -16.68,8.984 -13.919,4.84 -17.624,10.016 0.59,-2.112 1.076,-4.252 1.354,-6.43 C 89.354,11.15 89.433,10.552 89.233,9.616 88.975,8.406 88.236,7.444 87.216,6.776 86.99,6.69 86.776,6.57 86.54,6.517 86.243,6.451 85.48,6.451 85.204,6.608 c -7.292,4.153 -12.838,5.803 -17.758,10.478 0.28,-1.088 0.496,-2.184 0.596,-3.28 0.043,-0.467 0.024,-0.938 0.036,-1.407 C 67.94,11.336 67.974,11.051 67.584,10.07 67.1,8.857 66.211,7.872 65.232,7.035 64.717,6.657 64.397,6.371 63.802,6.13 59.732,4.48 53.308,12.64 48.935,16.984 c -0.515,0.3 -1.029,0.603 -1.544,0.903 0.275,-0.1 0.47,-0.12 0.699,-0.094 -1.474,1.364 -2.646,2.118 -3.3,1.603 0.37,-0.998 0.71,-2.007 1.031,-3.024 a 45.572,45.572 0 0 0 1.45,-7.121 C 47.415,7.673 47.613,5.847 47.257,4.287 47.204,4.054 47.114,3.83 47.042,3.601 46.757,3.009 46.46,2.439 45.974,1.98 A 2.468,2.468 0 0 0 45.476,1.601 1.595,1.595 0 0 0 44.669,1.419 Z m 2.722,16.468 a 3.259,3.259 0 0 0 -0.662,0.33 c -0.148,0.095 -0.581,0.398 -0.429,0.31 z m 60.728,-7.103 c 0.04,0.085 0.076,0.171 0.112,0.258 0.836,-0.452 0.81,-0.513 -0.112,-0.258 z m 21.893,26.301 v 0.007 l 0.548,-0.314 z m -49.043,35.43 a 2.431,2.431 0 0 1 -0.076,-0.157 c -0.959,0.64 -0.74,0.604 0.076,0.157 z M 29.638,13.71 c -0.011,-0.029 -0.02,-0.058 -0.032,-0.086 -0.074,-0.101 -0.163,-0.321 -0.271,-0.26 -0.125,0.072 -0.084,0.296 -0.103,0.387 -0.018,0.083 -0.058,0.16 -0.087,0.241 z m 16.5,-9.465 -2.009,1.152 c 0.462,-0.42 0.966,-0.785 1.551,-1.016 0.149,-0.058 0.306,-0.09 0.458,-0.136 z M 25.886,5.3 25.016,5.808 C 25.29,5.612 25.576,5.436 25.886,5.3 Z m 36.73,3.661 -1.05,0.616 c 0.338,-0.225 0.698,-0.417 1.05,-0.616 z m 23.5,0.578 a 0.557,0.557 0 0 1 -0.05,0.03 l -0.96,0.563 c 0.069,-0.047 0.135,-0.098 0.206,-0.142 0.212,-0.136 0.821,-0.468 0.804,-0.45 z m -76.821,4.82 c 0.125,0.047 0.263,0.21 0.391,0.4 l -0.793,0.462 c 0.078,-0.057 0.29,-0.397 0.3,-0.497 0.041,-0.447 -0.117,-0.105 0.014,-0.35 0.03,-0.005 0.06,-0.026 0.088,-0.016 z m 61.713,4.018 c -0.412,0.24 -0.823,0.481 -1.235,0.72 -0.143,0.084 0.264,-0.199 0.402,-0.29 0.286,-0.19 0.419,-0.248 0.712,-0.397 0.04,-0.008 0.08,-0.021 0.121,-0.033 z m 19.312,2.142 a 0.635,0.635 0 0 1 0.163,0.03 c -0.245,0.138 -0.468,0.26 -0.717,0.403 -0.094,0.053 0.112,-0.187 0.187,-0.264 0.126,-0.127 0.244,-0.171 0.367,-0.169 z m -61.935,2.548 c 1.443,0 2.777,0.046 4.002,0.137 1.236,0.08 2.387,0.264 3.452,0.55 1.076,0.286 2.083,0.693 3.022,1.22 0.95,0.526 1.855,1.23 2.714,2.112 0.32,0.332 0.623,0.704 0.91,1.116 0.297,0.412 0.555,0.865 0.773,1.357 0.229,0.48 0.412,1.001 0.549,1.563 0.137,0.55 0.206,1.133 0.206,1.751 0,0.332 -0.017,0.681 -0.051,1.048 a 8.06,8.06 0 0 1 -0.138,0.945 c -0.332,1.328 -0.801,2.507 -1.408,3.537 a 13.397,13.397 0 0 1 -2.095,2.73 c -0.79,0.79 -1.66,1.478 -2.61,2.062 a 22.545,22.545 0 0 1 -2.954,1.528 30.598,30.598 0 0 1 -3.109,1.134 66.89,66.89 0 0 1 -3.074,0.858 h 0.017 c -0.447,0.138 -0.927,0.258 -1.442,0.36 -0.515,0.104 -1.037,0.19 -1.563,0.258 a 36.98,36.98 0 0 1 -1.58,0.172 c -0.515,0.035 -1.002,0.052 -1.46,0.052 A 7.91,7.91 0 0 1 21.275,47.471 3.684,3.684 0 0 1 20.434,47.214 C 20.227,47.099 20.079,46.973 19.987,46.836 A 0.79,0.79 0 0 1 19.85,46.389 c 0,-0.229 0.063,-0.463 0.189,-0.704 0.137,-0.252 0.354,-0.487 0.652,-0.704 0.527,-0.378 1.06,-0.613 1.597,-0.704 0.55,-0.103 1.128,-0.183 1.735,-0.24 l 4.294,-17.38 H 27.921 A 22.86,22.86 0 0 1 27.217,26.605 5.894,5.894 0 0 1 26.462,26.45 C 26.21,26.381 26.021,26.284 25.895,26.158 l -0.224,-0.309 c -0.08,-0.137 -0.16,-0.28 -0.24,-0.429 -0.08,-0.16 -0.149,-0.32 -0.206,-0.48 a 1.422,1.422 0 0 1 -0.086,-0.482 c 0,-0.263 0.109,-0.48 0.326,-0.653 0.23,-0.183 0.504,-0.326 0.825,-0.429 a 5.164,5.164 0 0 1 1.065,-0.24 8.626,8.626 0 0 1 1.03,-0.069 z m 3.813,3.246 a 64.744,64.744 0 0 0 -2.199,6.766 281.74,281.74 0 0 0 -1.751,6.973 c -0.138,0.584 -0.28,1.185 -0.43,1.803 -0.148,0.619 -0.292,1.225 -0.429,1.82 l 0.395,-0.085 c 0.252,-0.058 0.59,-0.143 1.013,-0.258 0.435,-0.114 0.933,-0.257 1.494,-0.43 0.561,-0.17 1.151,-0.377 1.77,-0.617 0.618,-0.24 1.27,-0.527 1.957,-0.86 a 22.9,22.9 0 0 0 2.06,-1.15 21.502,21.502 0 0 0 1.942,-1.408 11.461,11.461 0 0 0 1.631,-1.614 c 0.47,-0.584 0.842,-1.191 1.116,-1.82 0.287,-0.642 0.43,-1.306 0.43,-1.993 0,-0.699 -0.138,-1.357 -0.413,-1.975 a 6.506,6.506 0 0 0 -1.116,-1.735 7.746,7.746 0 0 0 -1.614,-1.425 11.647,11.647 0 0 0 -1.906,-1.082 10.254,10.254 0 0 0 -2.027,-0.67 8.34,8.34 0 0 0 -1.923,-0.24 z m 58.494,0.103 c 0.938,0 1.408,0.223 1.408,0.67 0,0.24 -0.086,0.607 -0.258,1.099 -0.171,0.492 -0.658,2.273 -1.46,5.341 2.164,-0.069 3.945,-0.103 5.341,-0.103 0.893,0 1.34,0.447 1.34,1.34 0,1.053 -0.658,1.58 -1.975,1.58 -1.488,0 -3.269,0.034 -5.341,0.103 -0.653,3.08 -0.979,5.117 -0.979,6.114 0,0.32 -0.206,0.583 -0.618,0.79 -0.4,0.206 -0.807,0.309 -1.22,0.309 -0.457,0 -0.83,-0.115 -1.116,-0.344 -0.286,-0.23 -0.43,-0.515 -0.43,-0.859 0,-1.225 0.327,-3.194 0.98,-5.907 -1.614,0.034 -3.011,0.114 -4.19,0.24 -0.687,0.068 -1.151,0.103 -1.392,0.103 -0.652,0 -0.978,-0.572 -0.978,-1.717 0,-0.447 0.314,-0.802 0.944,-1.065 0.641,-0.263 2.776,-0.424 6.406,-0.481 1.145,-3.881 1.872,-6.05 2.181,-6.509 0.31,-0.47 0.761,-0.704 1.357,-0.704 z m -12.074,4.001 c 0.527,0 0.882,0.132 1.065,0.395 0.195,0.264 0.292,0.596 0.292,0.996 0,0.539 -0.097,1.065 -0.292,1.58 -0.183,0.504 -0.48,1.048 -0.893,1.632 l -8.054,11.369 c -0.16,0.343 -0.327,0.63 -0.498,0.859 a 3.019,3.019 0 0 1 -0.515,0.55 c -0.16,0.137 -0.315,0.24 -0.464,0.309 -0.149,0.068 -0.28,0.114 -0.395,0.137 a 0.797,0.797 0 0 1 -0.155,0.017 0.381,0.381 0 0 1 -0.12,0.017 c -0.24,0 -0.452,-0.051 -0.636,-0.154 a 1.775,1.775 0 0 1 -0.772,-0.876 1.47,1.47 0 0 1 -0.103,-0.515 c -0.057,-0.24 -0.138,-0.584 -0.24,-1.031 -0.104,-0.446 -0.224,-0.95 -0.361,-1.511 -0.126,-0.561 -0.264,-1.162 -0.412,-1.803 L 65.652,40.43 a 79.75,79.75 0 0 1 -0.377,-1.906 60.354,60.354 0 0 1 -0.293,-1.7 c -0.057,-0.367 -0.12,-0.71 -0.188,-1.031 -0.069,-0.32 -0.132,-0.624 -0.19,-0.91 a 35.147,35.147 0 0 1 -0.154,-0.86 7.195,7.195 0 0 1 -0.052,-0.858 c 0,-0.32 0.035,-0.624 0.104,-0.91 0.068,-0.298 0.166,-0.555 0.292,-0.773 a 1.89,1.89 0 0 1 0.48,-0.55 1.08,1.08 0 0 1 0.636,-0.205 c 0.458,0 0.818,0.114 1.082,0.343 0.274,0.218 0.486,0.515 0.635,0.893 0.149,0.366 0.252,0.796 0.31,1.288 0.068,0.492 0.12,1.002 0.154,1.529 0.046,0.664 0.12,1.385 0.223,2.163 0.103,0.767 0.218,1.54 0.344,2.32 0.126,0.766 0.252,1.51 0.378,2.232 0.137,0.71 0.257,1.34 0.36,1.889 0.344,-0.355 0.945,-1.145 1.803,-2.37 0.424,-0.596 0.813,-1.145 1.168,-1.649 0.367,-0.504 0.71,-0.985 1.03,-1.443 a 41,41 0 0 0 0.91,-1.39 c 0.287,-0.459 0.562,-0.934 0.825,-1.426 0.275,-0.492 0.538,-1.013 0.79,-1.563 0.264,-0.56 0.527,-1.179 0.79,-1.854 0.08,-0.138 0.177,-0.281 0.292,-0.43 0.114,-0.16 0.246,-0.298 0.395,-0.412 0.16,-0.126 0.338,-0.23 0.533,-0.31 0.206,-0.08 0.435,-0.12 0.686,-0.12 z m -22.755,1.82 c 0.664,0 1.242,0.081 1.735,0.241 0.492,0.16 0.898,0.384 1.219,0.67 0.32,0.286 0.561,0.63 0.721,1.03 0.16,0.39 0.24,0.814 0.24,1.272 0,0.389 -0.05,0.76 -0.154,1.116 a 3.866,3.866 0 0 1 -0.893,1.683 7.05,7.05 0 0 1 -1.546,1.27 9.884,9.884 0 0 1 -1.923,0.894 c -0.687,0.24 -1.38,0.44 -2.078,0.6 a 23.25,23.25 0 0 1 -1.992,0.379 c -0.641,0.08 -1.196,0.143 -1.666,0.188 a 3.915,3.915 0 0 0 -0.378,1.7 c 0,0.665 0.264,1.18 0.79,1.546 0.527,0.367 1.254,0.55 2.181,0.55 0.539,0 1.054,-0.057 1.546,-0.172 0.492,-0.126 0.956,-0.28 1.39,-0.464 0.447,-0.194 0.866,-0.4 1.255,-0.618 0.39,-0.229 0.744,-0.452 1.065,-0.67 0.412,-0.274 0.801,-0.503 1.167,-0.686 0.378,-0.195 0.71,-0.293 0.996,-0.293 0.287,0 0.47,0.075 0.55,0.224 0.08,0.137 0.12,0.286 0.12,0.446 0,0.092 -0.005,0.183 -0.017,0.275 0,0.08 -0.006,0.149 -0.017,0.206 a 2.875,2.875 0 0 1 -0.344,0.893 2.824,2.824 0 0 1 -0.652,0.773 c -1.19,0.939 -2.416,1.609 -3.675,2.01 -1.248,0.4 -2.582,0.6 -4.002,0.6 -0.275,0 -0.601,-0.017 -0.979,-0.051 a 7.402,7.402 0 0 1 -1.15,-0.206 5.974,5.974 0 0 1 -1.185,-0.447 3.82,3.82 0 0 1 -1.048,-0.772 3.937,3.937 0 0 1 -0.738,-1.186 c -0.184,-0.469 -0.275,-1.036 -0.275,-1.7 0,-0.538 0.074,-1.139 0.223,-1.803 a 0.823,0.823 0 0 1 -0.43,-0.223 c -0.125,-0.138 -0.188,-0.332 -0.188,-0.584 0,-0.493 0.131,-0.91 0.395,-1.254 a 1.884,1.884 0 0 1 1.047,-0.687 c 0.126,-0.252 0.32,-0.59 0.584,-1.013 0.263,-0.435 0.59,-0.904 0.98,-1.408 0.389,-0.504 0.83,-1.008 1.322,-1.512 a 11.278,11.278 0 0 1 1.648,-1.39 9.017,9.017 0 0 1 1.94,-1.031 6.226,6.226 0 0 1 2.216,-0.395 z m -0.515,2.697 c -0.504,0 -1.002,0.132 -1.494,0.395 -0.481,0.264 -0.939,0.595 -1.374,0.996 -0.424,0.39 -0.802,0.813 -1.134,1.271 -0.332,0.447 -0.59,0.853 -0.772,1.22 0.824,-0.07 1.58,-0.178 2.267,-0.327 a 9.616,9.616 0 0 0 1.785,-0.584 c 0.516,-0.24 0.928,-0.504 1.237,-0.79 0.32,-0.298 0.527,-0.612 0.618,-0.944 a 0.423,0.423 0 0 0 0.035,-0.155 v -0.154 c 0,-0.31 -0.115,-0.538 -0.344,-0.687 a 1.4,1.4 0 0 0 -0.824,-0.241 z m 76.917,0.876 c 0.046,-0.029 -0.431,0.24 -1.679,0.954 0.949,-0.535 1.63,-0.924 1.68,-0.954 z m -111.088,3.152 -0.319,0.56 a 0.262,0.262 0 0 1 -0.176,-0.111 c -0.019,-0.045 -0.033,-0.09 -0.048,-0.136 z m 90.928,8.456 v 0.002 l -0.235,0.136 c -0.079,0.045 0.105,-0.063 0.235,-0.138 z m -31.118,5.983 c -0.098,0.106 -0.212,0.198 -0.294,0.316 -0.066,0.097 -0.097,0.213 -0.146,0.32 -0.045,0.06 -0.19,0.292 -0.296,0.311 -0.163,0.03 -0.36,-0.079 -0.544,-0.216 l 1.28,-0.73 z m -48.44,1.178 c 0.115,0.002 -0.137,0.246 -0.868,0.807 -0.134,0.103 -0.28,0.189 -0.421,0.283 -0.398,0.25 -0.777,0.494 -1.07,0.137 1.304,-0.751 2.196,-1.23 2.358,-1.227 z m 25.338,1.74 c 0.04,10e-4 -0.736,0.539 -1.021,0.73 -0.121,0.08 -0.248,0.153 -0.371,0.23 -0.288,0.159 -0.504,0.238 -0.695,0.23 0.673,-0.386 1.344,-0.772 2.017,-1.156 a 0.302,0.302 0 0 1 0.07,-0.034 z m 42.37,4.881 c -0.045,0.037 -0.811,0.669 -0.917,0.75 -0.097,0.074 -0.211,0.126 -0.299,0.21 -0.132,0.13 -0.208,0.336 -0.336,0.473 A 1.273,1.273 0 0 1 98.384,62.24 c 0.637,-0.354 1.193,-0.665 1.871,-1.04 z M 65.52,62.247 c -0.12,0.08 -0.248,0.162 -0.394,0.25 -0.234,0.141 -0.958,0.524 -0.721,0.388 z"
     id="path843"
     style="fill:url(#b);stroke:none"
     inkscape:connector-curvature="0" />
</svg>
