<svg xmlns="http://www.w3.org/2000/svg" xmlns:xlink="http://www.w3.org/1999/xlink" width="1200" height="800" viewBox="0 0 317.5 211.667" id="svg8"><defs id="defs2"><linearGradient id="linearGradient918"><stop offset="0" id="stop914" stop-color="#0db5ff"/><stop offset="1" id="stop916" stop-color="#0db5ff" stop-opacity="0"/></linearGradient><linearGradient xlink:href="#linearGradient918" id="linearGradient920" x1="453.77" y1="235.778" x2="289.241" y2="138.852" gradientUnits="userSpaceOnUse" gradientTransform="matrix(0 .73628 -3.12371 0 886.803 -55.111)"/></defs><g id="layer1" transform="translate(-146.209 -75.22)"><path id="rect85" fill="#0db5ff" fill-opacity=".08" stroke-width="146.844" stroke-linecap="round" stroke-linejoin="round" d="M146.209 75.221h317.5v211.667h-317.5z"/><path d="M344.92 220.48l6.565 7.563-1.198.872 5.747 10.356c15.554-6.07 33.985-10.324 38.875-23.136l-8.339-10.923-1.449 1.073-2.276-6.21.854-2.696 1.436 3.917c1.93-.159 3.725-.566 4.757-2.395l-6.144-12.918c.733 14.826-13.918 40.155-41.943 33.688l-9.14-5.427 9.487 14.945c2.539-.037 3.853-1.338 4.537-3.29l-4.587-6.012z" id="chair" fill="#220ceb" stroke="#670dff" stroke-width=".206"/><path d="M463.709 176.175v110.712h-317.5V176.175c69.828 21.602 228.033-51.306 317.5 0z" id="rect903" fill="url(#linearGradient920)" stroke-width="1230.051" stroke-linecap="round" stroke-linejoin="round"/><path d="M362.236 168.035l-34.823 13.198-9.048-22.908.223-1.165-9.03-9.26 46.339-17.854-2.555 13.724 1.254 1.057z" id="laptop" fill="none" stroke="#670dff" stroke-width=".206"/><path d="M322.588 157.428l-.63-1.72-3.249 1.19-8.297-8.445 44.86-17.744-2.121 13.131-3.821 1.4.751 1.46z" id="screen" fill="#0db5ff" fill-opacity=".08" stroke="#670dff" stroke-width=".206"/><g id="keyboard" transform="rotate(-20.132 303.312 -447.11) scale(.77679)" fill="none" fill-opacity=".08" stroke="#002bff"><path id="path871" d="M146.65 166.12h2.178" stroke-width="1.323"/><path id="path873" d="M149.433 166.08h2.017" stroke-width="1.323"/><path id="path875" d="M152.135 166.08l1.856-.04" stroke-width="1.323"/><path id="path877" d="M154.636 166.04h2.178" stroke-width="1.323"/><path id="path879" d="M157.46 165.959l2.056-.04" stroke-width="1.323"/><path id="path881" d="M160.081 165.918l2.057-.08" stroke-width="1.323"/><path id="path883" d="M162.703 165.878h2.178" stroke-width="1.323"/><path id="path885" d="M165.566 165.838l2.098-.04" stroke-width="1.323"/><path id="path887" d="M168.067 165.797l2.017.04" stroke-width="1.323"/><path id="path889" d="M170.97 165.676l1.735.04" stroke-width="1.323"/><path id="path891" d="M173.471 165.676h1.856" stroke-width="1.323"/><path id="path893" d="M176.093 165.636h2.138" stroke-width="1.323"/><path id="path895" d="M178.715 165.676h2.016" stroke-width="1.323"/><path id="path897" d="M181.296 165.676l2.259.04" stroke-width="1.323"/><path d="M146.489 168.625h2.178" id="path843" stroke-width="1.323"/><path d="M149.272 168.585h2.016" id="path845" stroke-width="1.323"/><path d="M151.974 168.585l1.855-.04" id="path847" stroke-width="1.323"/><path d="M154.475 168.545h2.178" id="path849" stroke-width="1.323"/><path d="M157.137 168.464l2.057-.04" id="path851" stroke-width="1.323"/><path d="M159.637 168.424l2.057-.08" id="path853" stroke-width="1.323"/><path d="M162.178 168.383h2.178" id="path855" stroke-width="1.323"/><path d="M164.8 168.343l2.097-.04" id="path857" stroke-width="1.323"/><path d="M167.26 168.303l2.017.04" id="path859" stroke-width="1.323"/><path d="M170.285 168.222l1.734.04" id="path861" stroke-width="1.323"/><path d="M172.463 168.343h1.855" id="path863" stroke-width="1.323"/><path d="M175.085 168.262h2.137" id="path865" stroke-width="1.323"/><path d="M177.747 168.222h2.016" id="path867" stroke-width="1.323"/><path id="path869" d="M146.73 170.597h3.187" stroke-width="1.6"/><path id="path872" d="M150.522 170.557h2.017" stroke-width="1.323"/><path id="path874" d="M153.224 170.557l1.856-.04" stroke-width="1.323"/><path id="path876" d="M155.725 170.516h2.178" stroke-width="1.323"/><path id="path878" d="M158.266 170.516l2.057-.04" stroke-width="1.323"/><path id="path880" d="M160.928 170.436l2.057-.081" stroke-width="1.323"/><path id="path882" d="M163.59 170.395h2.178" stroke-width="1.323"/><path id="path884" d="M166.05 170.315l2.098-.04" stroke-width="1.323"/><path id="path886" d="M168.833 170.315l2.017.04" stroke-width="1.323"/><path id="path888" d="M171.455 170.153l1.734.04" stroke-width="1.323"/><path id="path890" d="M173.834 170.153h1.856" stroke-width="1.323"/><path id="path892" d="M176.335 170.113h2.138" stroke-width="1.323"/><path id="path894" d="M178.997 170.194h2.017" stroke-width="1.323"/><path d="M146.932 173.138h2.178" id="path896" stroke-width="1.323"/><path d="M149.957 173.098h2.017" id="path898" stroke-width="1.323"/><path d="M152.498 173.057l1.856-.04" id="path900" stroke-width="1.323"/><path d="M155.16 172.977h2.178" id="path902" stroke-width="1.323"/><path d="M158.629 172.896l2.057-.04" id="path904" stroke-width="1.323"/><path d="M161.331 172.896l2.057-.08" id="path906" stroke-width="1.323"/><path d="M163.872 172.856h2.178" id="path908" stroke-width="1.323"/><path d="M166.534 172.815l2.098-.04" id="path910" stroke-width="1.323"/><path d="M169.519 172.775l2.016.04" id="path912" stroke-width="1.323"/><path d="M177.061 172.493l1.734.04" id="path914" stroke-width="1.323"/><path d="M179.723 172.493h1.855" id="path916" stroke-width="1.323"/><path d="M159.92 175.437h2.137" id="path918" stroke-width="1.323"/><path d="M162.945 175.397h2.016" id="path920" stroke-width="1.323"/><path id="path922" d="M165.607 175.276h2.016" stroke-width="1.323"/><path id="path926" d="M156.002 178.346l18.978-.243" stroke-width="2.117"/><path id="path928" d="M180.17 167.762h3.407" stroke-width="2.117"/><path id="path936" d="M181.306 170.195l1.582.04v3.123" stroke-width="1.852"/></g><path d="M322.683 193.568c-3.466 5.442 5.882-19.068 5.617-19.67-.36-.82-.849-2.782-1.34-5.563-.333-1.878-1.746-1.702-2.296-2.768-.37-.715-.44-1.55-.622-2.333-.11-.467-.284-1.41-.284-1.41-.11-.541.794-.373.896-.095l.978 2.668c.3.818 2.044 1.856 1.862.948 0 0-.68-1.867-.568-2.819.042-.358.85-1.16 1.208-1.116.776.093.853 3.636.995 3.33.23-.495-.574-4.23-.164-4.592.445-.392 1.193-.483 1.755-.294.263.089.715 4.728.756 4.454.013-.09-.531-5.397 1.615-4.973.448.088 1.04.446 1.03.903-.008.345-.866.305-.81.646.15.926.347 1.955.259 2.932-.149 1.657 1.231 3.042 1.231 3.042.246.187-.143-2.641-.143-2.641s-.225-.981-.222-1.533c.002-.439.215-.998.622-1.16.217-.086.501.056.664.223.51.521.546 1.368.65 2.09.217 1.507-.005 3.047-.072 4.568-.055 1.238.13 2.536-.27 3.708-.22.642-1.127 1.694-1.127 1.694-3.93 5.912.082 21.261-2.826 19.317-1.999-1.336-8.238-1.098-8.738-.43z" id="left_arm" fill="#fea" stroke="#670dff" stroke-width=".206"/><path d="M372.233 181.15c-5.944-2.951-10.714-8.436-16.069-12.658-2.3-1.198-3.602-1.749-4.073-1.76 0 0-4.096-.452-5.815-1.473-1.103-.654-1.587-2.056-2.617-2.82-.734-.546-2.055-.389-2.464-1.207-.143-.287-.053-.726.181-.946.536-.502 1.483-.485 2.186-.273 1.297.39 1.391 1.417 3.081 2.65.745.544-.984-1.595-1.684-2.196-.888-.76-2.068-1.096-3.079-1.684-.423-.246-1.044-.328-1.25-.773-.145-.312-.111-.8.152-1.022.52-.439 1.373-.094 2.038.044 1.202.248 3.168 2.59 3.41 1.387.149-.738-2.232-1.413-2.544-2.144-.137-.32-.718.154-1.044.03-.287-.109-.594-.334-.671-.632a.946.946 0 0 1 .286-.897c.496-.416 1.293-.405 1.925-.265 1.38.305 2.162 2.14 3.567 2.296.246.028.38.038.134.058-1.344.107-1.944-1.148-2.621-2.047-.516-.685-1.723-.423-2.38-.974-.301-.253-.808-.649-.63-1 .312-.613 1.376-.221 2.06-.14.759.092 1.425.624 2.187.693 1.444.132 2.529 3.178 3.021 2.445 0 0-2.758-1.899-3.778-3.31-.16-.223-.485-.587-.284-.775 1.01-.943 2.696.839 3.784 1.69.706.552 1.112 1.406 1.656 2.118 1.168 1.529 3.453 4.624 3.453 4.624l1.429 1.499 1.32.483.976 1.224c7.147 3.346 15.13 5.762 20.564 11.012-5.37 1.059-7.096 4.334-6.407 6.744z" id="right_arm" fill="#fea" stroke="#670dff" stroke-width=".206"/><path d="M323.836 206.438l-1.598-6.133-.287-3.146-.904-.102c.297-1.66.785-3.283 2.245-4.72 2.928-.989 6.307-.22 9.74.76l-.63 4.782 2.579 2.306 2.885-.407 2.044-2.7 3.802-2.044c2.348 1.49 3.877 6.713 6.871 8.1 0 0 2.628 1.415 4.253 1.552 2.375.2 4.583-.724 6.45-2.205 1.844-1.464 3.597-3.555 3.39-5.9-.25-2.842-.878-8.254-.789-8.287l6.382-2.995 1.694-4.213.259-2.986c1.598-2.02 3.399-3.697 6.148-3.758-.852-1.07 2.16 1.788 3.716 3.166l1.176 3.601.207 4.1.16 3.974-.36 8.053-1.587 2.742-1.135 3.584-2.132 1.646-1.042 3.838-8.18 8.327-12.522 4.734-5.569-.263-10.6-2.595-2.581-1.934c-3.337-.119-5.15-3.025-7.545-4.867l-4.028-3.131c-.754-.913-.295-1.146-2.512-2.88z" id="shirt" fill="#220ceb" stroke="#670dff" stroke-width=".206"/><path id="ear" d="M346.817 201.024c-.276-.031-2.408-2.561-2.052-2.691.041-.016 1.078-1.218 1.812.018.977 1.817.713 2.726.24 2.673z" fill="#fea" stroke="#000" stroke-width=".206"/><path d="M345.933 198.17c-.98-.925-5.755-7.518-5.019-9.106.214-.46.74-.95.957-1.417.081-.175-.962-.865-.976-.872-.534-.247-.526-2.095-.506-2.274.144-1.27 1.29-1.875 1.697-2.753 1.052-2.27-.83-2.893 2.58-4.144 2.534-.928 4.8-3.294 7.44-2.07 2.316 1.073 14.116 11.738 12.207 15.857-.307.663.689 2.008.349 2.741-.277.598.672 1.915.368 2.57-.742 1.602-1.055 3.054-1.855 4.78-1.322 2.906-7.73 4.697-10.284 3.032-2.768-.815-3.593-2.279-5.535-3.916" id="head" stroke="#000" stroke-width=".206"/><text style="line-height:1.25;-inkscape-font-specification:'MV Boli'" x="212.619" y="137.651" id="text910" font-weight="400" font-size="19.73" font-family="MV Boli" letter-spacing="0" word-spacing="0" stroke-width=".206"><tspan id="tspan908" x="212.619" y="137.651">Crafting Websites</tspan></text><text style="line-height:1.25;-inkscape-font-specification:'MV Boli'" x="213.615" y="166.14" id="text948" font-weight="400" font-size="13.154" font-family="MV Boli" letter-spacing="0" word-spacing="0" stroke-width=".206"><tspan id="tspan946" x="213.615" y="166.14">for the small</tspan><tspan x="213.615" y="182.582" id="tspan950">business</tspan></text></g>

<style>
    text {
      opacity: 0;
      animation: opacity 3s linear forwards;
      animation-delay: 3s;
      font-family="MV Boli" !important;
    }
    #keyboard {
      opacity: 0;
      animation: opacity 3s linear forwards;
      animation-delay: 3s;
    }

    #left_arm {
      fill-opacity: 0;
      stroke-dasharray: 160;
      stroke-dashoffset: 160;
      animation: dash 5s linear forwards, fill-in 3s linear 3s forwards;
    }
    #right_arm {
      fill-opacity: 0;
      stroke-dasharray: 190;
      stroke-dashoffset: 190;
      animation: dash 5s linear forwards, fill-in 3s linear 3s forwards;
    }
    #shirt {
      fill-opacity: 0;
      stroke-dasharray: 265;
      stroke-dashoffset: 265;
      animation: dash 5s linear forwards, fill-in 3s linear 3s forwards;
    }
    #head {
      fill-opacity: 0;
      stroke-dasharray: 115;
      stroke-dashoffset: 115;
      animation: dash 5s linear forwards, fill-in 3s linear 3s forwards;
    }
    #ear {
      fill-opacity: 0;
      stroke-dasharray: 15;
      stroke-dashoffset: 15;
      animation: dash 5s linear forwards, fill-in 3s linear 3s forwards;
    }
    #chair {
      fill-opacity: 0;
      stroke-dasharray: 295;
      stroke-dashoffset: 295;
      animation: dash 5s linear forwards, fill-in 3s linear 3s forwards;
    }
    #laptop {
      stroke-dasharray: 215;
      stroke-dashoffset: 215;
      animation: dash 5s linear forwards;
    }
    #screen {
      fill-opacity: 0;
      stroke-dasharray: 150;
      stroke-dashoffset: 150;
      animation: dash 5s linear forwards, fill-in 3s linear 3s forwards;
    }

    @keyframes dash {
      to {
        stroke-dashoffset: 0;
      }
    }
    @keyframes opacity {
      to {
        opacity: 1;
      }
    }
    @keyframes fill-in {
      to {
        fill-opacity: 1;
      }
    }
  </style>

</svg>