<svg xmlns="http://www.w3.org/2000/svg" xmlns:xlink="http://www.w3.org/1999/xlink" width="360" height="640" viewBox="0 0 95.25 169.333" id="svg8"><defs id="defs2"><linearGradient id="linearGradient948"><stop id="stop944" offset="0" stop-color="#00f"/><stop id="stop946" offset="1" stop-color="purple" stop-opacity="0"/></linearGradient><linearGradient id="linearGradient929"><stop id="stop925" offset="0" stop-color="#00f"/><stop id="stop927" offset="1" stop-color="purple" stop-opacity="0"/></linearGradient><linearGradient id="linearGradient915"><stop offset="0" id="stop911" stop-color="purple"/><stop offset="1" id="stop913" stop-color="purple" stop-opacity="0"/></linearGradient><radialGradient xlink:href="#linearGradient915" id="radialGradient917" cx="173.034" cy="236.171" fx="173.034" fy="236.171" r="45.686" gradientUnits="userSpaceOnUse" gradientTransform="matrix(1.32954 -.68245 .54349 1.05881 -184.487 101.265)"/><radialGradient xlink:href="#linearGradient929" id="radialGradient931" gradientUnits="userSpaceOnUse" gradientTransform="matrix(-2.15552 1.69053 -.87175 -1.11153 789.944 45.774)" cx="196.385" cy="213.365" fx="196.385" fy="213.365" r="45.686"/><radialGradient xlink:href="#linearGradient948" id="radialGradient952" cx="192.367" cy="271.589" fx="192.367" fy="271.589" r="45.686" gradientUnits="userSpaceOnUse" gradientTransform="matrix(1.00336 -.90933 1.06927 1.17984 -291.048 126.084)"/></defs><g id="layer1" transform="translate(-146.209 -117.554)"><circle r="45.686" cy="241.201" cx="193.834" id="circle940" fill="url(#radialGradient952)" stroke-width=".236" stroke-linecap="round" stroke-linejoin="round"/><path d="M193.834 117.554a45.686 45.686 0 0 0-45.687 45.687 45.686 45.686 0 0 0 45.687 45.686 45.686 45.686 0 0 0 45.687-45.686 45.686 45.686 0 0 0-45.687-45.687zm-1.565 13.594c.497 0 .901.084 1.213.252.313.167.566.418.762.752a.803.803 0 0 1 .092.243 1.34 1.34 0 0 1-.041.67c-.04.128-.096.242-.168.343a.835.835 0 0 1-.26.226.585.585 0 0 1-.3.083.585.585 0 0 1-.352-.092.811.811 0 0 1-.21-.226 1.54 1.54 0 0 1-.125-.293 1.907 1.907 0 0 0-.1-.3.623.623 0 0 0-.142-.227.35.35 0 0 0-.26-.092c-.111 0-.24.014-.385.042-.14.027-.273.075-.401.142-.34.179-.656.38-.946.603-.29.217-.56.496-.812.836-.245.34-.474.756-.686 1.247-.206.49-.398 1.096-.577 1.816a.26.26 0 0 0-.025.075c0 .011.022.017.067.017.167 0 .326-.01.477-.026l.46-.066c.15-.028.301-.05.452-.067a3.498 3.498 0 0 1 .854-.017.816.816 0 0 1 .284.075.404.404 0 0 1 .193.15c.05.068.074.157.074.269 0 .066-.01.15-.033.25a1.126 1.126 0 0 1-.25.528.385.385 0 0 1-.235.134c-.167.033-.34.061-.519.083-.178.017-.374.04-.586.068a8.093 8.093 0 0 0-.703.108 8.812 8.812 0 0 0-.862.201c-.1.38-.178.755-.234 1.13-.05.367-.094.736-.133 1.104-.04.368-.084.739-.134 1.113-.045.368-.112.739-.201 1.113a.728.728 0 0 1-.092.217.718.718 0 0 1-.15.193.573.573 0 0 1-.202.142.485.485 0 0 1-.234.059.83.83 0 0 1-.652-.302 1.117 1.117 0 0 1-.176-.31 1.186 1.186 0 0 1-.059-.376c0-.095.011-.198.034-.31.022-.117.056-.256.1-.418l.075-.326c.034-.145.067-.31.101-.494.033-.184.067-.38.1-.586.04-.206.073-.407.1-.602.034-.195.06-.377.076-.544.017-.167.025-.307.025-.418a.69.69 0 0 0-.009-.143c-.011-.083-.072-.14-.184-.167a7.2 7.2 0 0 0-.351-.1 1.175 1.175 0 0 1-.343-.176c-.1-.084-.15-.217-.15-.401 0-.151.033-.293.1-.427a.648.648 0 0 1 .275-.285c.129-.061.271-.095.427-.1.162-.006.321-.023.477-.05.09-.012.15-.065.184-.16.04-.094.07-.186.092-.276l.218-.828c.078-.301.168-.605.268-.912.106-.312.22-.616.343-.912.128-.296.27-.569.427-.82.25-.34.519-.658.803-.954.29-.295.597-.552.92-.77.33-.223.675-.396 1.038-.518a3.535 3.535 0 0 1 1.171-.193zm-25.344.302c.234 0 .457.047.67.142.211.095.395.226.552.393.161.162.287.351.376.569.095.218.142.45.142.695 0 .172-.01.309-.033.41a.436.436 0 0 1-.092.217.245.245 0 0 1-.16.092 1.236 1.236 0 0 1-.217.017.505.505 0 0 1-.292-.076.785.785 0 0 1-.168-.192 1.225 1.225 0 0 1-.092-.25 1.33 1.33 0 0 0-.084-.252.51.51 0 0 0-.117-.192.232.232 0 0 0-.192-.084c-.223 0-.466.05-.728.15a5.07 5.07 0 0 0-.795.402 8.78 8.78 0 0 0-.812.578 15.751 15.751 0 0 0-1.456 1.314c-.206.217-.384.412-.535.585a9.827 9.827 0 0 0-.61.87c-.185.29-.344.589-.478.896a4.984 4.984 0 0 0-.31.936c-.072.318-.108.65-.108.996 0 .268.036.502.109.703.078.2.161.374.25.519a.875.875 0 0 0 .394.351c.156.062.343.092.56.092.474 0 .912-.044 1.314-.134.402-.089.787-.209 1.155-.36.368-.15.727-.329 1.079-.535.351-.206.714-.427 1.088-.661h.217c.073 0 .145.02.218.059.078.039.145.089.2.15a.663.663 0 0 1 .143.21c.04.078.058.158.058.242 0 .184-.072.368-.217.552a2.996 2.996 0 0 1-.56.52 5.733 5.733 0 0 1-.762.46c-.285.144-.566.272-.845.384-.273.112-.53.207-.77.285-.24.078-.432.13-.577.158l-.36.084c-.111.022-.245.048-.401.076a8.826 8.826 0 0 1-.561.058c-.218.011-.491.017-.82.017-.201 0-.385-.03-.553-.092a2.838 2.838 0 0 1-.451-.226 2.46 2.46 0 0 1-.553-.519 4.182 4.182 0 0 1-.719-1.138 3.264 3.264 0 0 1-.226-1.23c0-.324.039-.689.117-1.096.078-.413.215-.812.41-1.196.268-.536.566-1.052.895-1.548.33-.502.667-.963 1.013-1.38.345-.425.691-.799 1.037-1.122.346-.33.675-.586.988-.77l-.008.008.619-.385a7.8 7.8 0 0 1 .67-.368c.228-.111.46-.204.694-.276a2.34 2.34 0 0 1 .694-.109zm37.477.535a.29.29 0 0 1 .167.058.93.93 0 0 1 .159.126c.056.056.109.117.159.184.14.011.229.062.268.15.044.09.067.196.067.319 0 .089-.01.17-.025.243l-.042.175a.79.79 0 0 1-.192.326 1.638 1.638 0 0 1-.327.252c-.123.066-.251.12-.385.159-.134.039-.251.058-.351.058a.572.572 0 0 1-.301-.067 1.23 1.23 0 0 1-.26-.284.645.645 0 0 1-.109-.193 1.443 1.443 0 0 1 0-.285l.034-.141c.028-.118.078-.26.15-.427.073-.168.201-.318.385-.452.09-.05.199-.095.327-.134a.986.986 0 0 1 .276-.067zm-8.811.251c.15 0 .279.03.385.092a.772.772 0 0 1 .26.243c.066.1.116.214.15.343.033.128.05.256.05.385 0 .14-.014.265-.042.376l-.61 2.343c.3-.05.568-.098.803-.142l.702-.134c.257-.05.477-.098.661-.142.19-.045.352-.081.486-.11.133-.033.245-.057.334-.074a1.065 1.065 0 0 1 .503-.009.731.731 0 0 1 .242.067c.073.034.131.081.176.142a.404.404 0 0 1 .067.243.76.76 0 0 1-.084.36c-.05.1-.117.19-.2.268a1.245 1.245 0 0 1-.285.184 1.75 1.75 0 0 1-.318.1c-.09.017-.207.042-.352.075a67.679 67.679 0 0 0-1.531.368c-.256.068-.477.124-.66.168a6.64 6.64 0 0 1-.779.15 1.414 1.414 0 0 1-.192.017c-.106.318-.198.63-.276.937-.078.307-.145.595-.201.862-.05.263-.09.5-.118.711a4.811 4.811 0 0 0-.033.486c0 .15.014.295.042.435a.992.992 0 0 0 .142.351.75.75 0 0 0 .268.243c.117.056.262.083.435.083.296 0 .586-.08.87-.242.285-.162.555-.365.812-.61a7.41 7.41 0 0 0 .736-.821c.234-.296.45-.577.645-.845.066-.1.153-.15.259-.15.033 0 .073.005.117.016.05.012.098.03.142.059.045.028.081.064.109.109.033.044.05.097.05.158a.493.493 0 0 1-.008.101c-.09.346-.228.694-.418 1.046-.184.345-.374.694-.569 1.046a1.719 1.719 0 0 1-.268.36 4.113 4.113 0 0 1-.352.342c-.128.106-.262.21-.401.31-.14.095-.27.182-.393.26a2.037 2.037 0 0 1-.695.276c-.25.05-.493.075-.728.075a2.34 2.34 0 0 1-.97-.193 2.194 2.194 0 0 1-.712-.535 2.44 2.44 0 0 1-.435-.795c-.1-.3-.15-.625-.15-.97 0-.47.053-.954.159-1.456.106-.508.217-.993.334-1.456a2.107 2.107 0 0 1-.443-.067 1.792 1.792 0 0 1-.41-.159 1.012 1.012 0 0 1-.301-.243.544.544 0 0 1-.117-.343c0-.05.011-.114.033-.192.023-.078.053-.154.092-.226a.624.624 0 0 1 .168-.193.343.343 0 0 1 .226-.084h1.12c.107 0 .179-.044.218-.133.039-.095.07-.187.092-.276.073-.324.14-.603.201-.837l.167-.602c.045-.168.078-.302.1-.402.029-.106.043-.19.043-.251 0-.073-.003-.143-.008-.21a3.347 3.347 0 0 1-.008-.275v-.084c0-.045.003-.103.008-.176.01-.072.039-.175.083-.31a.786.786 0 0 1 .184-.3c.09-.095.22-.143.393-.143zm12.735 2.652c.212 0 .385.048.519.143.14.095.209.231.209.41a.885.885 0 0 1-.067.235l-.368.869c.234-.184.477-.368.728-.552a7.38 7.38 0 0 1 .786-.494c.268-.15.536-.27.804-.36.273-.094.54-.142.803-.142.535 0 .954.145 1.255.435.301.285.452.728.452 1.33 0 .346-.061.74-.184 1.18-.117.441-.268.915-.452 1.423a78.891 78.891 0 0 1-.586 1.59 31.647 31.647 0 0 0-.577 1.69c-.05.156-.104.287-.16.393a.734.734 0 0 1-.183.251.621.621 0 0 1-.26.142 1.262 1.262 0 0 1-.351.042c-.218 0-.368-.042-.452-.125-.083-.078-.125-.207-.125-.385 0-.156.022-.346.066-.57.05-.228.118-.476.201-.744.09-.273.19-.563.302-.87.117-.307.242-.62.376-.937.106-.257.21-.513.31-.77.106-.257.198-.505.276-.745.084-.24.15-.468.2-.685.05-.218.076-.419.076-.603a.853.853 0 0 0-.117-.452c-.073-.134-.212-.2-.418-.2a1.61 1.61 0 0 0-.628.141c-.223.09-.454.212-.694.368-.24.157-.486.335-.737.536-.245.196-.488.4-.728.611-.123.106-.24.203-.351.293a1.474 1.474 0 0 1-.335.192 3.975 3.975 0 0 0-.25.51c-.084.207-.168.436-.252.687-.084.245-.165.5-.243.761-.072.257-.134.497-.184.72-.028.117-.05.231-.066.343a8.733 8.733 0 0 1-.143.761 9.13 9.13 0 0 1-.109.486.602.602 0 0 1-.133.259.748.748 0 0 1-.193.142.54.54 0 0 1-.192.059.842.842 0 0 1-.66-.134c-.135-.1-.202-.296-.202-.586 0-.078.003-.159.008-.243a1.58 1.58 0 0 1 .05-.293c.123-.53.24-1.006.352-1.43a28.804 28.804 0 0 1 .702-2.2l.368-.971.394-1.013c.14-.351.287-.739.443-1.163.034-.095.12-.173.26-.234.144-.067.298-.1.46-.1zm-36.724.285a.656.656 0 0 1 .62.351c.055.106.092.229.108.368.017.134.025.274.025.419 0 .078-.003.164-.008.26-.006.094-.008.17-.008.225.156-.162.32-.326.494-.493.178-.173.365-.327.56-.46.201-.14.41-.255.628-.344.223-.09.454-.134.694-.134.095 0 .187.01.277.026.094.016.189.039.284.067.111.028.226.066.343.116.123.045.24.11.351.193.184.14.338.315.46.527.13.207.193.418.193.636a.883.883 0 0 1-.05.276 1.03 1.03 0 0 1-.142.268.858.858 0 0 1-.201.2.47.47 0 0 1-.26.076c-.094 0-.212-.022-.351-.067a1.077 1.077 0 0 1-.335-.192.828.828 0 0 1-.125-.143l-.117-.183a2.212 2.212 0 0 0-.101-.168.475.475 0 0 0-.067-.109.44.44 0 0 0-.092-.008.517.517 0 0 0-.092-.008c-.284 0-.555.073-.812.218a3.65 3.65 0 0 0-.719.535 5.87 5.87 0 0 0-.62.67c-.184.233-.345.446-.485.635-.111.452-.236.935-.376 1.448-.134.507-.268 1.04-.401 1.598v.21c0 .167-.006.337-.018.51a1.435 1.435 0 0 1-.1.46.691.691 0 0 1-.267.21.803.803 0 0 1-.394.091c-.234 0-.41-.075-.527-.226a.881.881 0 0 1-.176-.544c0-.095.014-.192.042-.293.073-.39.156-.82.25-1.288l.294-1.423c.1-.48.198-.95.293-1.414.095-.463.175-.886.242-1.271a1.328 1.328 0 0 1-.008-.142v-.143a4.053 4.053 0 0 1 .126-.996c.061-.212.128-.354.2-.426.079-.078.202-.118.369-.118zm48.17.251c.173 0 .338.008.494.025.162.017.312.053.452.109.145.05.279.128.402.234.122.1.234.234.334.402.022.039.039.086.05.142.017.05.025.095.025.134 0 .045-.014.156-.042.334-.022.173-.055.39-.1.653-.039.257-.09.547-.15.87a93.085 93.085 0 0 1-.36 1.933c-.062.312-.12.594-.176.845-.095.441-.215.896-.36 1.364-.14.469-.312.926-.519 1.372-.2.446-.437.868-.71 1.264a4.98 4.98 0 0 1-.955 1.037 4.273 4.273 0 0 1-2.77.98.41.41 0 0 1-.15-.034.421.421 0 0 1-.159-.092.512.512 0 0 1-.167-.385c0-.061.008-.126.025-.193.044-.184.092-.334.142-.451a.776.776 0 0 1 .218-.285 1.24 1.24 0 0 1 .385-.2c.161-.05.374-.104.636-.16.167-.033.323-.072.468-.117.15-.039.274-.09.368-.15.285-.252.524-.511.72-.779.2-.267.368-.546.502-.836a5.62 5.62 0 0 0 .343-.879c.095-.301.184-.608.268-.92a3.09 3.09 0 0 0 .083-.326c.028-.117.062-.249.1-.394-.211.184-.432.368-.66.552a6.42 6.42 0 0 1-.703.494c-.24.145-.485.265-.736.36-.246.09-.491.134-.737.134-.145 0-.31-.045-.493-.134a2.32 2.32 0 0 1-.51-.351 2.1 2.1 0 0 1-.41-.503 1.214 1.214 0 0 1-.168-.61c0-.134.017-.28.05-.436l.092-.418c.09-.368.22-.725.393-1.07.173-.347.374-.676.603-.988.229-.312.48-.608.753-.887.273-.285.558-.547.853-.787a3.825 3.825 0 0 1 1.105-.652c.368-.134.758-.2 1.171-.2zm-38.079.042c.128 0 .27.008.427.025.162.017.307.033.435.05.128-.028.231-.047.31-.058.083-.012.17-.017.259-.017.167 0 .306.022.418.067a.676.676 0 0 1 .41.443c.034.095.05.195.05.301 0 .145-.022.285-.067.419l-.134.393-1.104 4.41a68.4 68.4 0 0 0-.058.66c-.017.202-.05.388-.101.561l-.067.193a.695.695 0 0 1-.326.393.627.627 0 0 1-.326.075c-.173 0-.313-.011-.42-.033a.659.659 0 0 1-.233-.092.307.307 0 0 1-.11-.15.8.8 0 0 1-.024-.21c0-.162.02-.354.058-.577.04-.229.06-.51.06-.846-.185.134-.388.293-.612.477-.223.184-.454.36-.694.527-.24.168-.48.31-.72.427a1.543 1.543 0 0 1-.66.168c-.168 0-.327-.025-.478-.076a1.256 1.256 0 0 1-.385-.2c-.295-.234-.51-.47-.644-.704a1.679 1.679 0 0 1-.192-.82c0-.139.01-.284.033-.434.028-.15.067-.324.117-.519a7.295 7.295 0 0 1 1.088-2.443 7.514 7.514 0 0 1 1.925-1.925c.295-.206.59-.337.886-.393a4.31 4.31 0 0 1 .879-.092zm21.604.36c.095 0 .187.011.276.033.09.017.168.045.234.084.073.04.129.092.168.159a.36.36 0 0 1 .067.217v.06a.175.175 0 0 1-.008.05l-.235.886c-.262.993-.53 1.988-.803 2.987-.267.998-.53 2-.786 3.004a1.458 1.458 0 0 1-.05.125.73.73 0 0 1-.093.151.51.51 0 0 1-.142.125.382.382 0 0 1-.2.05.786.786 0 0 1-.385-.092.921.921 0 0 1-.46-.51.87.87 0 0 1-.06-.3v-.076c0-.023.006-.048.017-.076l.243-.978c.084-.324.184-.7.302-1.13.117-.43.24-.884.367-1.364.134-.48.268-.97.402-1.473.134-.502.26-.99.377-1.464a.44.44 0 0 1 .058-.109.624.624 0 0 1 .143-.158.794.794 0 0 1 .234-.143.875.875 0 0 1 .335-.058zm16.425.71a1.03 1.03 0 0 0-.46.135 3.844 3.844 0 0 0-.552.334c-.19.14-.383.299-.578.477a8.374 8.374 0 0 0-.552.536 9.94 9.94 0 0 0-.477.527c-.14.167-.248.315-.326.443a8.12 8.12 0 0 0-.326.561 2.993 2.993 0 0 0-.235.644c-.017.067-.033.137-.05.21a1.21 1.21 0 0 0-.017.2c0 .123.022.23.067.319.045.089.126.133.243.133.184 0 .399-.064.644-.192.251-.134.5-.301.745-.502.251-.201.485-.419.703-.653a3.98 3.98 0 0 0 .527-.67c.056-.088.128-.211.217-.368a7 7 0 0 0 .276-.501 6.69 6.69 0 0 0 .252-.544 2.01 2.01 0 0 0 .133-.486.573.573 0 0 0-.058-.26 1.51 1.51 0 0 1-.1-.342zm-37.678.126c-.273 0-.549.054-.828.16a3.79 3.79 0 0 0-.795.426c-.256.179-.502.39-.736.636-.229.24-.438.5-.627.778-.19.274-.355.558-.494.853a5.109 5.109 0 0 0-.385 1.189 2.86 2.86 0 0 0-.034.435c0 .15.022.287.067.41.045.117.143.176.293.176.234 0 .452-.05.653-.15.206-.107.399-.233.577-.378.24-.195.483-.412.728-.652.251-.246.485-.502.703-.77.223-.268.418-.54.585-.82.173-.284.3-.566.377-.845.045-.162.08-.349.109-.56.033-.213.05-.403.05-.57a.462.462 0 0 0-.05-.209c-.034-.072-.098-.109-.193-.109zm-7.806 15.036c.25 0 .421.07.51.21.09.133.134.36.134.677 0 .235-.022.508-.067.82-.039.312-.092.642-.159.988-.061.34-.131.686-.21 1.037-.077.352-.155.684-.233.996a17.783 17.783 0 0 1-.62 1.983c-.256.68-.543 1.347-.861 2a19.683 19.683 0 0 1-1.004 1.832 11.194 11.194 0 0 1-1.063 1.481 4.601 4.601 0 0 1-.435.444c-.167.15-.349.287-.544.41-.19.122-.385.223-.586.3a1.44 1.44 0 0 1-.568.126c-.385 0-.71-.112-.971-.335a2.623 2.623 0 0 1-.636-.903 6.154 6.154 0 0 1-.377-1.289 15.91 15.91 0 0 1-.184-1.497c-.312.463-.6.875-.862 1.238-.256.362-.519.697-.786 1.004-.201.229-.427.477-.678.745-.25.262-.519.505-.803.728a4.455 4.455 0 0 1-.862.56c-.295.151-.586.226-.87.226-.33 0-.605-.058-.828-.176a1.379 1.379 0 0 1-.527-.468 2.097 2.097 0 0 1-.293-.711 4.433 4.433 0 0 1-.084-.887c0-.368.03-.748.092-1.138.061-.391.14-.781.234-1.171.123-.508.282-1.038.477-1.59.201-.553.41-1.116.628-1.69.217-.575.432-1.158.644-1.75a20.293 20.293 0 0 0 .728-2.576.812.812 0 0 1 .267-.335.667.667 0 0 1 .377-.117c.123 0 .237.02.343.059.112.039.206.102.285.192a.818.818 0 0 1 .192.326c.05.134.076.293.076.477 0 .2-.031.43-.093.686a77.205 77.205 0 0 1-.66 1.64c-.224.536-.441 1.06-.653 1.573-.207.513-.4 1.02-.578 1.523a18.145 18.145 0 0 0-.635 2.217c-.034.184-.064.382-.092.594a4.498 4.498 0 0 0-.042.603c0 .134.008.262.025.384.016.118.044.22.083.31a.51.51 0 0 0 .16.21c.066.05.15.075.25.075.212 0 .472-.109.778-.326a7.33 7.33 0 0 0 .996-.904c.357-.38.723-.823 1.096-1.33.38-.508.748-1.052 1.105-1.632.357-.58.689-1.177.995-1.79.307-.614.567-1.22.779-1.817.05-.106.111-.172.184-.2a.685.685 0 0 1 .284-.05.77.77 0 0 1 .544.2c.15.128.226.296.226.502 0 .05-.005.098-.017.143a1.659 1.659 0 0 1-.05.159l-.117.343c-.09.262-.176.504-.26.727a6.991 6.991 0 0 0-.192.62 12.034 12.034 0 0 0-.284 1.422c-.023.201-.04.4-.05.594a19.35 19.35 0 0 0-.009.594c0 .078.005.193.017.343.017.151.04.319.067.503a7.4 7.4 0 0 0 .109.552c.05.184.106.354.167.51.067.156.142.285.226.385.09.095.19.142.301.142.173 0 .355-.07.544-.21.196-.144.39-.34.586-.585.195-.25.39-.543.586-.878.2-.335.393-.695.577-1.08.19-.384.368-.784.535-1.196.173-.413.33-.82.47-1.222.144-.407.27-.797.375-1.171.112-.38.201-.725.268-1.038.061-.295.115-.583.16-.862l.133-.836c.045-.28.092-.558.142-.837.056-.284.123-.575.201-.87.028-.106.07-.215.126-.326a1.42 1.42 0 0 1 .2-.302c.084-.094.174-.17.268-.226a.53.53 0 0 1 .293-.092zm12.894.452a.93.93 0 0 1 .435.092.707.707 0 0 1 .276.251c.073.1.123.218.15.352.028.134.042.273.042.418 0 .145-.011.293-.033.443a4.973 4.973 0 0 1-.075.394 39.012 39.012 0 0 1-.636 2.317 42.73 42.73 0 0 0-.636 2.343c.218-.206.452-.401.703-.585.25-.19.513-.355.786-.494.28-.145.563-.26.854-.343.29-.084.58-.125.87-.125.307 0 .571.044.795.133a1.5 1.5 0 0 1 .552.368c.145.15.25.332.318.544.072.212.109.44.109.686 0 .117-.01.24-.025.369-.012.122-.031.242-.059.36-.145.58-.351 1.098-.619 1.556a6.542 6.542 0 0 1-.904 1.23c-.334.357-.7.675-1.096.954-.39.273-.786.518-1.188.736-.262.139-.516.248-.762.326-.24.073-.476.109-.71.109-.23 0-.405-.022-.528-.067a1.01 1.01 0 0 1-.318-.218 1.261 1.261 0 0 1-.109.176.87.87 0 0 1-.15.176.696.696 0 0 1-.21.125.673.673 0 0 1-.267.05c-.318 0-.544-.077-.678-.234-.134-.161-.2-.376-.2-.644 0-.095.005-.19.016-.285.017-.1.04-.197.067-.292l.36-1.44c.111-.451.24-.942.385-1.472.145-.536.295-1.08.452-1.632.156-.557.31-1.11.46-1.656.156-.547.298-1.063.426-1.549.129-.485.238-.923.327-1.313.095-.39.159-.706.192-.946l.092-.677c.017-.05.034-.106.05-.168a.613.613 0 0 1 .093-.167.524.524 0 0 1 .15-.142.474.474 0 0 1 .243-.059zm16.232 1.255c.056 0 .112.02.167.059.062.039.115.08.16.125.055.056.108.117.158.184.14.012.229.062.268.15.045.09.067.196.067.32 0 .088-.009.169-.025.241-.017.073-.03.132-.042.176a.791.791 0 0 1-.192.327 1.632 1.632 0 0 1-.326.25c-.123.067-.251.12-.385.16-.134.039-.251.058-.352.058a.574.574 0 0 1-.301-.067 1.235 1.235 0 0 1-.26-.284.645.645 0 0 1-.108-.193 1.443 1.443 0 0 1 0-.285c.01-.05.022-.097.033-.142.028-.117.079-.259.151-.426.073-.168.2-.318.385-.452.089-.05.198-.095.326-.134a.986.986 0 0 1 .276-.067zm4.577.251c.15 0 .279.03.385.092a.774.774 0 0 1 .26.243c.066.1.116.215.15.343.033.128.05.256.05.385 0 .14-.014.265-.042.376l-.61 2.343c.3-.05.568-.098.803-.142l.703-.134c.256-.05.476-.098.66-.142.19-.045.352-.08.486-.109.134-.033.245-.058.335-.075a1.065 1.065 0 0 1 .501-.008.735.735 0 0 1 .243.066.443.443 0 0 1 .176.143.403.403 0 0 1 .067.242.76.76 0 0 1-.084.36c-.05.1-.117.19-.2.268a1.25 1.25 0 0 1-.285.184 1.748 1.748 0 0 1-.318.1c-.09.017-.206.042-.351.076-.14.033-.296.07-.47.108a67.734 67.734 0 0 0-1.062.26c-.256.067-.476.122-.66.167a6.645 6.645 0 0 1-.779.15 1.427 1.427 0 0 1-.192.017c-.106.318-.198.63-.277.937-.078.307-.144.595-.2.862-.05.262-.09.5-.117.711a4.811 4.811 0 0 0-.034.486c0 .15.014.295.042.435a.991.991 0 0 0 .142.351c.067.1.157.182.268.243.117.056.262.084.435.084.296 0 .586-.081.87-.243.284-.162.555-.366.812-.611.262-.251.508-.524.736-.82.235-.295.45-.577.645-.845.067-.1.153-.15.26-.15a.47.47 0 0 1 .116.016c.05.011.098.03.142.059.045.027.081.064.109.109.033.044.05.097.05.159a.487.487 0 0 1-.008.1c-.09.346-.229.694-.418 1.046-.185.346-.374.694-.57 1.046a1.716 1.716 0 0 1-.267.36 4.11 4.11 0 0 1-.753.652 15.6 15.6 0 0 1-.393.26 2.037 2.037 0 0 1-.695.276c-.25.05-.494.075-.728.075-.363 0-.686-.064-.97-.192a2.195 2.195 0 0 1-.712-.536 2.44 2.44 0 0 1-.435-.795 3.05 3.05 0 0 1-.15-.97c0-.469.053-.954.159-1.456.106-.508.217-.993.334-1.456a2.106 2.106 0 0 1-.443-.067 1.796 1.796 0 0 1-.41-.16 1.012 1.012 0 0 1-.301-.242.542.542 0 0 1-.117-.343c0-.05.01-.114.033-.193.022-.078.053-.153.092-.225a.621.621 0 0 1 .167-.193.345.345 0 0 1 .227-.083h1.12c.106 0 .179-.045.218-.134.04-.095.07-.187.092-.277.073-.323.14-.602.201-.836l.167-.603c.045-.167.078-.3.1-.401.029-.106.043-.19.043-.251 0-.073-.003-.142-.008-.21a3.36 3.36 0 0 1-.008-.276v-.083c0-.045.003-.104.008-.176a2.05 2.05 0 0 1 .083-.31.786.786 0 0 1 .184-.3c.09-.096.22-.143.393-.143zm-10.643 2.862c.167 0 .349.008.544.025.195.016.374.056.535.117a.979.979 0 0 1 .402.276c.111.117.167.276.167.477a1.61 1.61 0 0 1-.108.544c-.04.1-.087.187-.143.26-.056.072-.122.108-.2.108a.611.611 0 0 1-.319-.075 1.79 1.79 0 0 1-.226-.159 1.956 1.956 0 0 0-.209-.167.459.459 0 0 0-.268-.076c-.128 0-.278.025-.451.076-.168.044-.34.108-.519.192a4.333 4.333 0 0 0-.987.602 2.03 2.03 0 0 0-.327.335c-.083.106-.125.203-.125.293 0 .095.03.173.092.234.061.062.14.114.234.159.123.067.262.134.418.201l.486.201a19.568 19.568 0 0 1 .87.385c.15.078.284.156.401.234.123.073.227.153.31.242.084.09.148.19.193.302.044.111.066.242.066.393 0 .073-.005.145-.016.218a3.34 3.34 0 0 1-.05.25 1.711 1.711 0 0 1-.092.294c-.04.111-.084.223-.134.334a2.862 2.862 0 0 1-.142.293.703.703 0 0 1-.126.168c-.217.2-.474.39-.77.568a6.891 6.891 0 0 1-1.89.77c-.318.079-.611.117-.879.117a1.51 1.51 0 0 1-.444-.075 2.387 2.387 0 0 1-.452-.209 1.64 1.64 0 0 1-.343-.301.536.536 0 0 1-.133-.335c0-.056.016-.117.05-.184a.765.765 0 0 1 .125-.192.802.802 0 0 1 .16-.151.294.294 0 0 1 .284-.05c.039.01.08.025.125.042a3.4 3.4 0 0 0 .151.033c.056.011.128.017.218.017.262 0 .552-.028.87-.084.323-.056.627-.128.911-.218.285-.089.528-.19.729-.3.206-.118.323-.238.35-.36a.74.74 0 0 0 .026-.176c0-.095-.048-.184-.142-.268a1.554 1.554 0 0 0-.343-.251c-.14-.078-.29-.15-.452-.218a42.14 42.14 0 0 0-.452-.184l-.285-.117a3.286 3.286 0 0 1-.426-.2 2.825 2.825 0 0 1-.393-.285 2.042 2.042 0 0 1-.318-.368 1.702 1.702 0 0 1-.201-.494 3.579 3.579 0 0 1-.059-.234 1.1 1.1 0 0 1 .126-.745c.1-.19.231-.376.393-.56.167-.185.354-.36.56-.528.213-.167.433-.307.662-.418.167-.117.329-.223.485-.318a3.29 3.29 0 0 1 .954-.402c.167-.039.343-.058.527-.058zm28.95 0c.168 0 .35.008.545.025.195.016.373.056.535.117a.979.979 0 0 1 .402.276c.111.117.167.276.167.477a1.61 1.61 0 0 1-.11.544c-.038.1-.085.187-.141.26-.056.072-.123.108-.2.108a.611.611 0 0 1-.319-.075 1.79 1.79 0 0 1-.226-.159 1.956 1.956 0 0 0-.21-.167.459.459 0 0 0-.267-.076c-.128 0-.279.025-.451.076-.168.044-.34.108-.52.192a4.334 4.334 0 0 0-.987.602 2.024 2.024 0 0 0-.326.335c-.084.106-.125.203-.125.293 0 .095.03.173.092.234.06.062.139.114.234.159.122.067.262.134.418.201l.485.201a19.585 19.585 0 0 1 .87.385c.151.078.285.156.402.234.123.073.226.153.31.242.083.09.148.19.193.302.044.111.066.242.066.393 0 .073-.005.145-.016.218a3.29 3.29 0 0 1-.05.25 1.711 1.711 0 0 1-.092.294 4.143 4.143 0 0 1-.134.334 2.858 2.858 0 0 1-.143.293.703.703 0 0 1-.125.168c-.218.2-.474.39-.77.568a6.89 6.89 0 0 1-1.89.77 3.705 3.705 0 0 1-.88.117c-.134 0-.281-.025-.443-.075a2.387 2.387 0 0 1-.452-.209 1.64 1.64 0 0 1-.343-.301.537.537 0 0 1-.134-.335c0-.056.017-.117.05-.184a.765.765 0 0 1 .126-.192.802.802 0 0 1 .16-.151.293.293 0 0 1 .283-.05c.04.01.081.025.126.042.044.01.094.022.15.033.056.011.129.017.218.017.262 0 .552-.028.87-.084a7.05 7.05 0 0 0 .912-.218c.285-.089.527-.19.728-.3.207-.118.324-.238.352-.36a.74.74 0 0 0 .025-.176c0-.095-.048-.184-.143-.268a1.56 1.56 0 0 0-.343-.251c-.14-.078-.29-.15-.451-.218a42.14 42.14 0 0 0-.452-.184l-.285-.117a3.292 3.292 0 0 1-.427-.2 2.825 2.825 0 0 1-.393-.285 2.04 2.04 0 0 1-.318-.368 1.702 1.702 0 0 1-.2-.494 3.579 3.579 0 0 1-.06-.234 1.1 1.1 0 0 1 .126-.745c.1-.19.232-.376.394-.56.167-.185.354-.36.56-.528.212-.167.433-.307.661-.418.168-.117.33-.223.486-.318a3.29 3.29 0 0 1 .954-.402c.167-.039.343-.058.527-.058zm-46.103.694c.324 0 .605.04.845.117.24.078.438.187.595.327.156.14.273.306.35.502.079.19.118.396.118.619 0 .19-.025.371-.075.544a1.884 1.884 0 0 1-.435.82c-.212.234-.464.44-.754.62a4.813 4.813 0 0 1-.937.434 9.482 9.482 0 0 1-1.012.293c-.335.078-.658.14-.97.184-.313.04-.584.07-.812.092a1.909 1.909 0 0 0-.184.829c0 .323.128.574.385.752.256.179.61.268 1.062.268.262 0 .513-.028.753-.084.24-.06.466-.136.678-.225.218-.095.421-.196.61-.302.19-.111.363-.22.52-.326.2-.134.39-.245.568-.335.184-.094.347-.142.486-.142.14 0 .229.036.268.109.039.067.058.14.058.217 0 .045-.003.09-.008.134a.578.578 0 0 1-.008.101c-.028.145-.084.29-.167.435-.084.145-.19.27-.318.376-.58.458-1.177.784-1.79.98a6.341 6.341 0 0 1-1.95.292c-.134 0-.293-.008-.478-.025a3.61 3.61 0 0 1-.56-.1 2.908 2.908 0 0 1-.577-.218 1.86 1.86 0 0 1-.511-.376 1.917 1.917 0 0 1-.36-.577 2.283 2.283 0 0 1-.133-.829c0-.262.036-.555.108-.878a.4.4 0 0 1-.209-.11.405.405 0 0 1-.092-.284c0-.24.064-.443.192-.61a.919.919 0 0 1 .511-.335 6.54 6.54 0 0 1 .284-.494c.129-.212.288-.44.477-.686a8.45 8.45 0 0 1 .645-.736c.245-.251.513-.478.803-.678.295-.207.61-.374.945-.502.34-.129.7-.192 1.08-.192zm38.121 0c.324 0 .606.04.845.117.24.078.438.187.594.327.156.14.273.306.352.502.078.19.117.396.117.619 0 .19-.025.371-.076.544a1.884 1.884 0 0 1-.435.82c-.212.234-.462.44-.753.62a4.813 4.813 0 0 1-.936.434 9.49 9.49 0 0 1-1.013.293c-.335.078-.658.14-.97.184-.313.04-.583.07-.812.092a1.909 1.909 0 0 0-.185.829c0 .323.129.574.385.752.257.179.612.268 1.063.268.263 0 .513-.028.753-.084.24-.06.466-.136.678-.225.217-.095.421-.196.61-.302.19-.111.363-.22.52-.326.2-.134.39-.245.568-.335a1.09 1.09 0 0 1 .486-.142c.14 0 .228.036.267.109.04.067.06.14.06.217 0 .045-.004.09-.009.134a.488.488 0 0 1-.009.101c-.028.145-.083.29-.167.435-.083.145-.19.27-.318.376-.58.458-1.177.784-1.79.98a6.338 6.338 0 0 1-1.95.292c-.134 0-.293-.008-.477-.025a3.61 3.61 0 0 1-.56-.1 2.908 2.908 0 0 1-.578-.218 1.86 1.86 0 0 1-.51-.376 1.917 1.917 0 0 1-.36-.577 2.28 2.28 0 0 1-.134-.829c0-.262.036-.555.109-.878a.402.402 0 0 1-.21-.11.405.405 0 0 1-.092-.284c0-.24.065-.443.193-.61a.918.918 0 0 1 .51-.335 6.58 6.58 0 0 1 .285-.494c.128-.212.287-.44.477-.686a8.45 8.45 0 0 1 .644-.736c.246-.251.513-.478.803-.678.296-.207.611-.374.946-.502.34-.129.7-.192 1.08-.192zm-16.006.034c.095 0 .186.01.276.033a.73.73 0 0 1 .234.084c.073.039.128.092.167.16a.36.36 0 0 1 .067.217v.058a.175.175 0 0 1-.008.05l-.234.887c-.262.993-.53 1.989-.803 2.987-.268.999-.53 2-.787 3.004a1.456 1.456 0 0 1-.05.125.728.728 0 0 1-.092.151.513.513 0 0 1-.142.126.382.382 0 0 1-.201.05.786.786 0 0 1-.385-.092.92.92 0 0 1-.46-.51.872.872 0 0 1-.059-.302v-.075a.21.21 0 0 1 .017-.075l.243-.98c.083-.323.184-.7.3-1.129.118-.43.24-.884.369-1.364.134-.48.268-.97.402-1.472s.259-.99.376-1.465a.45.45 0 0 1 .059-.108.623.623 0 0 1 .142-.16.793.793 0 0 1 .234-.141.875.875 0 0 1 .335-.06zm-22.366 1.28c-.245 0-.488.064-.728.192-.234.129-.457.29-.67.486a4.14 4.14 0 0 0-.552.619 4.066 4.066 0 0 0-.376.594 8.6 8.6 0 0 0 1.105-.16c.334-.077.624-.172.87-.283.25-.118.452-.246.602-.385a1 1 0 0 0 .302-.46.202.202 0 0 0 .016-.076v-.075c0-.15-.056-.262-.167-.335a.682.682 0 0 0-.402-.117zm9.69 0c-.263 0-.55.067-.862.2a6.615 6.615 0 0 0-.93.503 10.13 10.13 0 0 0-.903.636c-.29.223-.547.424-.77.602-.067.229-.133.45-.2.661l-.201.644c-.062.218-.12.441-.176.67a11.4 11.4 0 0 0-.134.728l-.05.326.05.15a1.993 1.993 0 0 1 .603-.233c.094-.028.192-.056.293-.084.1-.028.211-.067.334-.117.876-.352 1.61-.823 2.2-1.414.598-.591 1.005-1.32 1.222-2.184.028-.123.05-.232.067-.327.017-.094.025-.181.025-.26 0-.166-.044-.292-.133-.375-.09-.084-.235-.126-.435-.126zm28.431 0c-.245 0-.488.064-.728.192-.234.129-.457.29-.669.486-.206.19-.39.396-.552.619a4.074 4.074 0 0 0-.377.594 8.61 8.61 0 0 0 1.105-.16c.334-.077.625-.172.87-.283.251-.118.451-.246.602-.385a1 1 0 0 0 .301-.46.204.204 0 0 0 .017-.076v-.075c0-.15-.056-.262-.167-.335a.682.682 0 0 0-.402-.117z" id="circle919" fill="url(#radialGradient931)" stroke-width=".236" stroke-linecap="round" stroke-linejoin="round"/><circle id="path909" cx="193.834" cy="202.221" r="45.686" fill="url(#radialGradient917)" stroke-width=".236" stroke-linecap="round" stroke-linejoin="round"/><path d="M168.62 235.924l-1.85 8.864-1.283-.384-4.306 9.803c12.881 7.87 26.028 18.804 37.925 15.31l3.296-11.977-1.565-.456 3.222-5.036 2.408-.862-2.033 3.177c1.17 1.302 2.446 2.37 4.327 2.113l5.933-11.492c-10.267 8.643-36.512 11.962-47.196-11.743l-1.098-9.548-5.562 15.006c1.417 1.807 3.072 2.041 4.85 1.465l1.816-6.592z" id="chair" stroke="#670dff" stroke-width=".186"/><path d="M215.836 219.682l-28.556-17.835 11.532-19.048.961-.477 1.722-11.566 38.207 23.573-11.273 5.673-.075 1.481z" id="laptop" fill="none" stroke="#670dff" stroke-width=".186"/><path d="M201.77 185.346l.891-1.395-2.634-1.685 1.536-10.593 37.321 22.57-10.61 5.66-3.1-1.983-.638 1.338z" id="screen" fill="#0db5ff" fill-opacity=".08" stroke="#670dff" stroke-width=".186"/><g id="keyboard" transform="rotate(32.613 31.775 319.854) scale(.70227)" fill="none" fill-opacity=".08" stroke="#002bff"><path id="path871" d="M146.65 166.12h2.178" stroke-width="1.323"/><path id="path873" d="M149.433 166.08h2.017" stroke-width="1.323"/><path id="path875" d="M152.135 166.08l1.856-.04" stroke-width="1.323"/><path id="path877" d="M154.636 166.04h2.178" stroke-width="1.323"/><path id="path879" d="M157.46 165.959l2.056-.04" stroke-width="1.323"/><path id="path881" d="M160.081 165.918l2.057-.08" stroke-width="1.323"/><path id="path883" d="M162.703 165.878h2.178" stroke-width="1.323"/><path id="path885" d="M165.566 165.838l2.098-.04" stroke-width="1.323"/><path id="path887" d="M168.067 165.797l2.017.04" stroke-width="1.323"/><path id="path889" d="M170.97 165.676l1.735.04" stroke-width="1.323"/><path id="path891" d="M173.471 165.676h1.856" stroke-width="1.323"/><path id="path893" d="M176.093 165.636h2.138" stroke-width="1.323"/><path id="path895" d="M178.715 165.676h2.016" stroke-width="1.323"/><path id="path897" d="M181.296 165.676l2.259.04" stroke-width="1.323"/><path d="M146.489 168.625h2.178" id="path843" stroke-width="1.323"/><path d="M149.272 168.585h2.016" id="path845" stroke-width="1.323"/><path d="M151.974 168.585l1.855-.04" id="path847" stroke-width="1.323"/><path d="M154.475 168.545h2.178" id="path849" stroke-width="1.323"/><path d="M157.137 168.464l2.057-.04" id="path851" stroke-width="1.323"/><path d="M159.637 168.424l2.057-.08" id="path853" stroke-width="1.323"/><path d="M162.178 168.383h2.178" id="path855" stroke-width="1.323"/><path d="M164.8 168.343l2.097-.04" id="path857" stroke-width="1.323"/><path d="M167.26 168.303l2.017.04" id="path859" stroke-width="1.323"/><path d="M170.285 168.222l1.734.04" id="path861" stroke-width="1.323"/><path d="M172.463 168.343h1.855" id="path863" stroke-width="1.323"/><path d="M175.085 168.262h2.137" id="path865" stroke-width="1.323"/><path d="M177.747 168.222h2.016" id="path867" stroke-width="1.323"/><path id="path869" d="M146.73 170.597h3.187" stroke-width="1.6"/><path id="path872" d="M150.522 170.557h2.017" stroke-width="1.323"/><path id="path874" d="M153.224 170.557l1.856-.04" stroke-width="1.323"/><path id="path876" d="M155.725 170.516h2.178" stroke-width="1.323"/><path id="path878" d="M158.266 170.516l2.057-.04" stroke-width="1.323"/><path id="path880" d="M160.928 170.436l2.057-.081" stroke-width="1.323"/><path id="path882" d="M163.59 170.395h2.178" stroke-width="1.323"/><path id="path884" d="M166.05 170.315l2.098-.04" stroke-width="1.323"/><path id="path886" d="M168.833 170.315l2.017.04" stroke-width="1.323"/><path id="path888" d="M171.455 170.153l1.734.04" stroke-width="1.323"/><path id="path890" d="M173.834 170.153h1.856" stroke-width="1.323"/><path id="path892" d="M176.335 170.113h2.138" stroke-width="1.323"/><path id="path894" d="M178.997 170.194h2.017" stroke-width="1.323"/><path d="M146.932 173.138h2.178" id="path896" stroke-width="1.323"/><path d="M149.957 173.098h2.017" id="path898" stroke-width="1.323"/><path d="M152.498 173.057l1.856-.04" id="path900" stroke-width="1.323"/><path d="M155.16 172.977h2.178" id="path902" stroke-width="1.323"/><path d="M158.629 172.896l2.057-.04" id="path904" stroke-width="1.323"/><path d="M161.331 172.896l2.057-.08" id="path906" stroke-width="1.323"/><path d="M163.872 172.856h2.178" id="path908" stroke-width="1.323"/><path d="M166.534 172.815l2.098-.04" id="path910" stroke-width="1.323"/><path d="M169.519 172.775l2.016.04" id="path912" stroke-width="1.323"/><path d="M177.061 172.493l1.734.04" id="path914" stroke-width="1.323"/><path d="M179.723 172.493h1.855" id="path916" stroke-width="1.323"/><path d="M159.92 175.437h2.137" id="path918" stroke-width="1.323"/><path d="M162.945 175.397h2.016" id="path920" stroke-width="1.323"/><path id="path922" d="M165.607 175.276h2.016" stroke-width="1.323"/><path id="path926" d="M156.002 178.346l18.978-.243" stroke-width="2.117"/><path id="path928" d="M180.17 167.762h3.407" stroke-width="2.117"/><path id="path936" d="M181.306 170.195l1.582.04v3.123" stroke-width="1.852"/></g><path d="M175.815 205.194c-5.812.485 16.94-6.203 17.228-6.723.394-.709 1.538-2.133 3.27-4.009 1.17-1.267.27-2.188.735-3.167.313-.657.875-1.164 1.339-1.725.276-.334.859-.975.859-.975.33-.375.704.367.56.592l-1.386 2.165c-.424.663-.216 2.486.337 1.858 0 0 .971-1.512 1.718-1.952.28-.166 1.299-.023 1.464.258.358.61-2.15 2.604-1.852 2.54.483-.106 2.73-2.729 3.215-2.632.526.106 1 .594 1.172 1.102.08.238-3.01 3.102-2.791 2.981.072-.04 3.593-3.335 4.463-1.559.181.37.248.993-.087 1.236-.253.183-.694-.457-.909-.23-.583.615-1.216 1.32-1.967 1.791-1.273.8-1.515 2.551-1.515 2.551 0 .28 1.822-1.548 1.822-1.548s.583-.7.981-1c.317-.238.836-.391 1.176-.186.18.109.234.39.203.6-.096.652-.686 1.141-1.149 1.611-.966.981-2.195 1.664-3.326 2.448-.921.638-1.753 1.482-2.817 1.835-.581.193-1.834.117-1.834.117-6.405.407-15.255 11.695-15.448 8.538-.133-2.17-3.719-6.529-4.472-6.523z" id="left_arm" fill="#fea" stroke="#670dff" stroke-width=".186"/><path d="M211.87 234.054c-1.13-5.893.206-12.327.314-18.491-.397-2.311-.713-3.55-.963-3.895 0 0-1.916-3.194-2.123-4.99-.132-1.152.611-2.267.598-3.426-.009-.827-.845-1.692-.48-2.434.128-.26.494-.435.779-.387.654.11 1.16.8 1.393 1.422.428 1.148-.258 1.778-.22 3.669.016.833.609-1.582.657-2.414.062-1.056-.343-2.088-.472-3.138-.055-.44-.336-.93-.129-1.322.146-.275.516-.518.82-.45.6.134.818.937 1.084 1.49.478 1.001-.131 3.697.867 3.214.613-.297-.205-2.38.15-3.005.156-.273-.504-.432-.593-.734-.078-.267-.084-.611.088-.83a.855.855 0 0 1 .802-.284c.571.129 1 .708 1.245 1.24.536 1.16-.358 2.727.3 3.824.115.192.18.294.031.127-.812-.908-.238-2.027.039-3.006.21-.746-.639-1.471-.602-2.245.018-.356.025-.937.375-1 .612-.112.912.868 1.227 1.404.35.597.332 1.368.7 1.954.695 1.11-.904 3.559-.106 3.512 0 0-.144-3.024.314-4.53.073-.238.157-.67.402-.629 1.231.21.872 2.4.855 3.648-.01.81-.403 1.57-.618 2.35-.461 1.678-1.438 5.016-1.438 5.016l-.296 1.848.375 1.215-.347 1.372c1.504 6.974 4.134 14.04 3.33 20.824-3.7-3.284-7.002-2.734-8.359-.92z" id="right_arm" fill="#fea" stroke="#670dff" stroke-width=".186"/><path d="M167.185 213.067l3.539-4.506 2.107-1.928-.422-.707c1.357-.695 2.792-1.231 4.625-.967 2.314 1.565 3.61 4.418 4.784 7.424l-3.786 2.164-.248 3.118 1.872 1.853 3.062-.007 3.552 1.617c.212 2.505-2.71 6.464-2.07 9.378 0 0 .42 2.665 1.212 3.91 1.155 1.818 3.03 2.9 5.117 3.433 2.062.526 4.526.643 6.1-.79 1.908-1.735 5.46-5.148 5.532-5.102l5.648 2.953 3.959-1.087 2.29-1.448c2.329.044 4.52.423 6.07 2.367.303-1.199-.106 2.534-.246 4.407l-1.947 2.818-2.838 2.393-2.771 2.29-5.992 4.148-2.842.358-3.2 1.146-2.351-.634-3.332 1.35-10.47-1.328-10.26-6.42-2.858-4.15-3.934-9.049-.02-2.916c-1.741-2.466-.642-5.361-.628-8.092l.05-4.613c.243-1.042.662-.84.696-3.384z" id="shirt" fill="#220ceb" stroke="#670dff" stroke-width=".186"/><path id="ear" d="M183.658 226.641c-.128-.215.526-3.134.814-2.95.033.023 1.466.11.979 1.315-.773 1.697-1.572 2.005-1.792 1.636z" fill="#fea" stroke="#000" stroke-width=".186"/><path d="M185.229 224.443c.128-1.211 2.26-8.255 3.805-8.595.448-.098 1.09.013 1.543-.087.17-.037.097-1.166.094-1.179-.114-.52 1.22-1.525 1.36-1.609.992-.592 2.054-.098 2.91-.286 2.208-.485 1.627-2.18 4.393-.41 2.055 1.314 4.997 1.65 5.562 4.219.495 2.255-.721 16.583-4.73 17.463-.645.142-1.068 1.595-1.782 1.752-.582.127-1.01 1.531-1.648 1.671-1.558.343-2.774.912-4.454 1.281-2.815.64-7.61-2.991-7.81-5.741-.929-2.437-.327-3.832-.212-6.125" id="head" stroke="#000" stroke-width=".186"/></g></svg>