<svg xmlns="http://www.w3.org/2000/svg" xmlns:xlink="http://www.w3.org/1999/xlink" width="1200" height="800" viewBox="0 0 317.5 211.667" id="svg8"><defs id="defs2"><linearGradient id="linearGradient948"><stop id="stop944" offset="0" stop-color="#00f"/><stop id="stop946" offset="1" stop-color="purple" stop-opacity="0"/></linearGradient><linearGradient id="linearGradient929"><stop id="stop925" offset="0" stop-color="#00f"/><stop id="stop927" offset="1" stop-color="purple" stop-opacity="0"/></linearGradient><linearGradient id="linearGradient915"><stop offset="0" id="stop911" stop-color="purple"/><stop offset="1" id="stop913" stop-color="purple" stop-opacity="0"/></linearGradient><radialGradient xlink:href="#linearGradient929" id="radialGradient931" gradientUnits="userSpaceOnUse" gradientTransform="matrix(-5.7468 -.92975 .421 -2.60217 1246.256 838.213)" cx="181.432" cy="218.115" fx="181.432" fy="218.115" r="45.686"/><linearGradient xlink:href="#linearGradient915" id="linearGradient902" x1="170.572" y1="249.424" x2="266.98" y2="223.751" gradientUnits="userSpaceOnUse"/><linearGradient xlink:href="#linearGradient948" id="linearGradient904" x1="439.864" y1="222.441" x2="354.47" y2="215.63" gradientUnits="userSpaceOnUse"/></defs><g id="layer1" transform="translate(-146.209 -75.22)"><circle r="88.285" cy="198.603" cx="375.424" class="circles" id="circle940" fill="url(#linearGradient904)" stroke-width=".456" stroke-linecap="round" stroke-linejoin="round"/><circle class="circles" id="path909" cx="234.494" cy="198.603" r="88.285" fill="url(#linearGradient902)" stroke-width=".456" stroke-linecap="round" stroke-linejoin="round"/><path d="M304.959 75.22a88.285 88.285 0 0 0-88.285 88.286 88.285 88.285 0 0 0 88.285 88.284 88.285 88.285 0 0 0 88.285-88.284 88.285 88.285 0 0 0-88.285-88.285zm-3.024 26.27c.96 0 1.741.163 2.345.486.604.323 1.094.808 1.47 1.455.087.15.146.307.179.468a2.589 2.589 0 0 1-.08 1.294c-.076.248-.184.47-.324.663-.14.184-.307.33-.501.437a1.13 1.13 0 0 1-.582.162c-.292 0-.518-.06-.68-.178a1.567 1.567 0 0 1-.404-.438 2.97 2.97 0 0 1-.243-.565 3.674 3.674 0 0 0-.193-.582 1.204 1.204 0 0 0-.275-.436c-.119-.119-.286-.178-.501-.178a4.01 4.01 0 0 0-.744.08 2.9 2.9 0 0 0-.776.275c-.658.345-1.267.733-1.828 1.165-.56.42-1.083.959-1.568 1.616-.475.658-.916 1.46-1.326 2.409-.398.949-.77 2.118-1.115 3.509a.646.646 0 0 0-.048.146c0 .022.042.032.129.032.323 0 .63-.017.921-.049l.89-.129c.291-.054.582-.097.873-.13a7.134 7.134 0 0 1 1.65-.032c.215.022.398.07.549.146a.78.78 0 0 1 .372.29c.097.13.145.302.145.518 0 .13-.02.291-.064.485a2.173 2.173 0 0 1-.178.55c-.075.172-.178.329-.307.469a.744.744 0 0 1-.452.258c-.324.065-.658.12-1.003.162-.345.033-.723.076-1.132.13-.41.043-.863.113-1.359.21-.495.086-1.05.216-1.665.388-.194.733-.345 1.46-.453 2.182a72.366 72.366 0 0 0-.258 2.135 76.82 76.82 0 0 1-.259 2.15 19.182 19.182 0 0 1-.388 2.151c-.032.14-.092.28-.178.42-.076.14-.172.264-.29.372-.109.119-.238.21-.39.275a.938.938 0 0 1-.451.114 1.605 1.605 0 0 1-1.262-.583 2.158 2.158 0 0 1-.34-.598 2.293 2.293 0 0 1-.112-.728c0-.183.02-.382.064-.598.043-.226.108-.496.194-.809l.145-.63c.065-.28.13-.598.195-.954.065-.355.129-.733.194-1.132a26.4 26.4 0 0 0 .193-1.164c.065-.378.114-.728.146-1.05.032-.324.049-.594.049-.81 0-.14-.007-.231-.017-.274-.022-.162-.14-.27-.356-.324a14.037 14.037 0 0 0-.679-.194 2.272 2.272 0 0 1-.663-.34c-.194-.16-.29-.42-.29-.775 0-.291.064-.566.193-.825.14-.259.318-.441.533-.55.248-.118.523-.183.825-.194.313-.012.62-.043.922-.097.172-.021.29-.124.355-.307.076-.184.135-.361.178-.534l.42-1.6c.152-.582.325-1.17.519-1.763.205-.603.425-1.191.662-1.762.248-.572.523-1.1.825-1.584a18.459 18.459 0 0 1 1.553-1.844 11.424 11.424 0 0 1 1.778-1.487 8.305 8.305 0 0 1 2.004-1.003 6.83 6.83 0 0 1 2.264-.372zm-48.975.583c.453 0 .884.091 1.293.274.41.184.766.437 1.068.76.312.313.555.68.728 1.1.183.42.274.868.274 1.342 0 .334-.022.598-.065.792a.844.844 0 0 1-.177.42.474.474 0 0 1-.308.178 2.394 2.394 0 0 1-.42.033c-.238 0-.426-.049-.566-.146a1.516 1.516 0 0 1-.323-.371 2.366 2.366 0 0 1-.178-.486 2.57 2.57 0 0 0-.162-.485.983.983 0 0 0-.226-.372.448.448 0 0 0-.372-.161c-.431 0-.9.096-1.407.29a9.798 9.798 0 0 0-1.536.777c-.517.324-1.04.695-1.569 1.116a30.446 30.446 0 0 0-2.813 2.538c-.398.42-.743.797-1.034 1.131-.431.55-.825 1.11-1.18 1.682-.356.56-.663 1.138-.922 1.73a9.63 9.63 0 0 0-.598 1.811 8.63 8.63 0 0 0-.211 1.924c0 .518.07.97.21 1.358.152.389.313.723.485 1.003.205.323.458.55.76.68.302.118.663.177 1.083.177.917 0 1.763-.086 2.539-.259.776-.172 1.52-.404 2.232-.695a16.307 16.307 0 0 0 2.085-1.035c.679-.4 1.38-.825 2.102-1.277h.42c.14 0 .28.038.42.113.152.076.281.172.39.291.118.119.209.254.274.404.075.151.113.307.113.469 0 .355-.14.712-.42 1.067-.28.345-.641.68-1.083 1.003-.432.312-.923.608-1.472.889-.55.28-1.094.528-1.633.744-.528.215-1.024.399-1.488.55-.463.15-.835.252-1.115.306-.237.054-.469.108-.695.162-.216.043-.474.092-.776.146-.302.043-.663.08-1.084.113-.42.021-.949.032-1.585.032a3.08 3.08 0 0 1-1.067-.177 5.488 5.488 0 0 1-.873-.437 4.754 4.754 0 0 1-.647-.534 10.804 10.804 0 0 1-.42-.468c-.636-.744-1.1-1.477-1.39-2.2-.291-.722-.437-1.515-.437-2.377 0-.625.075-1.331.226-2.118a8.64 8.64 0 0 1 .793-2.312 28.358 28.358 0 0 1 1.73-2.99c.635-.97 1.287-1.86 1.956-2.669a22.043 22.043 0 0 1 2.005-2.167c.668-.636 1.305-1.131 1.908-1.487l-.015.016a147.6 147.6 0 0 1 1.196-.744c.42-.259.851-.496 1.293-.711.442-.216.89-.394 1.342-.534.453-.14.9-.21 1.343-.21zm72.42 1.034c.108 0 .216.038.324.113a1.8 1.8 0 0 1 .306.243c.108.108.21.226.308.355.27.022.442.12.517.292.086.172.13.377.13.614 0 .173-.017.33-.049.47-.032.14-.059.253-.08.339a1.525 1.525 0 0 1-.372.63 3.165 3.165 0 0 1-.631.485c-.237.13-.485.232-.744.308a2.464 2.464 0 0 1-.68.113c-.247 0-.44-.044-.58-.13-.13-.086-.297-.27-.502-.55-.118-.161-.189-.285-.21-.37a2.34 2.34 0 0 1 0-.551 5.154 5.154 0 0 1 .356-1.1c.14-.323.387-.614.743-.872a3.19 3.19 0 0 1 .631-.259c.248-.086.426-.13.534-.13zm-17.026.486c.291 0 .54.059.744.177.205.12.372.275.501.469.13.194.226.415.291.663.065.248.098.496.098.744 0 .27-.028.512-.081.728l-1.18 4.526a69.72 69.72 0 0 0 1.551-.274l1.358-.259c.496-.097.922-.188 1.277-.274.367-.087.68-.157.938-.211.259-.065.475-.113.647-.145.183-.043.334-.065.452-.065.173 0 .346.016.519.048.183.022.339.065.468.13.14.065.253.156.34.275.086.119.13.275.13.47 0 .258-.054.49-.162.694a1.81 1.81 0 0 1-.389.517c-.161.14-.344.259-.549.356-.205.086-.41.152-.615.195-.172.032-.399.08-.68.144-.269.065-.57.136-.904.211-.323.076-.664.157-1.02.243-.355.086-.7.172-1.034.258-.496.13-.921.238-1.277.324a12.88 12.88 0 0 1-1.504.29c-.15.022-.274.032-.371.032a26.073 26.073 0 0 0-.534 1.812c-.15.593-.28 1.148-.388 1.666-.097.506-.173.964-.227 1.374a9.264 9.264 0 0 0-.065.937c0 .291.027.572.081.841.054.259.147.485.276.68.13.193.302.35.517.469.227.107.507.16.841.16.571 0 1.132-.155 1.682-.468a7.97 7.97 0 0 0 1.567-1.18c.507-.485.982-1.014 1.423-1.585a51.46 51.46 0 0 0 1.246-1.633c.129-.194.296-.291.501-.291.065 0 .14.011.227.033a.869.869 0 0 1 .274.112.652.652 0 0 1 .21.211.495.495 0 0 1 .097.307c0 .086-.007.151-.016.194a8.98 8.98 0 0 1-.807 2.02c-.356.669-.723 1.343-1.1 2.022-.13.237-.302.47-.517.696a7.948 7.948 0 0 1-.68.662c-.248.205-.507.405-.776.599-.27.183-.523.35-.76.501-.41.26-.857.437-1.342.534a7.173 7.173 0 0 1-1.406.146c-.7 0-1.327-.125-1.877-.373a4.24 4.24 0 0 1-1.374-1.035 4.714 4.714 0 0 1-.84-1.535 5.9 5.9 0 0 1-.291-1.877c0-.905.102-1.843.307-2.813.204-.98.42-1.918.647-2.813a4.09 4.09 0 0 1-.857-.13 3.465 3.465 0 0 1-.792-.306 1.955 1.955 0 0 1-.582-.47 1.051 1.051 0 0 1-.227-.663c0-.097.022-.22.065-.371.043-.151.102-.296.178-.437.086-.15.194-.275.323-.372a.663.663 0 0 1 .437-.162h2.167c.204 0 .344-.086.42-.258.074-.184.135-.361.178-.534.14-.625.269-1.164.387-1.616.13-.464.238-.852.324-1.165.086-.323.15-.582.194-.776.053-.205.08-.366.08-.485a6.2 6.2 0 0 0-.015-.404 7.058 7.058 0 0 1-.015-.534v-.161c0-.087.007-.2.015-.34.022-.14.076-.34.162-.598a1.52 1.52 0 0 1 .355-.582c.173-.183.426-.275.76-.275zm24.61 5.124c.41 0 .743.093 1.002.276.27.183.404.447.404.792 0 .032-.01.092-.032.178a1.707 1.707 0 0 1-.097.275l-.712 1.681c.453-.356.922-.71 1.407-1.067a14.259 14.259 0 0 1 1.52-.954 8.93 8.93 0 0 1 1.553-.695 4.717 4.717 0 0 1 1.551-.275c1.035 0 1.844.28 2.426.841.582.55.873 1.406.873 2.57 0 .669-.118 1.429-.356 2.28a32.944 32.944 0 0 1-.873 2.75c-.345.97-.722 1.993-1.132 3.071a61.151 61.151 0 0 0-1.115 3.266c-.097.302-.2.556-.308.76a1.42 1.42 0 0 1-.355.486 1.2 1.2 0 0 1-.502.274c-.183.054-.41.081-.679.081-.42 0-.71-.08-.872-.242-.162-.151-.243-.4-.243-.744 0-.302.042-.668.129-1.1.097-.442.226-.921.388-1.439.173-.528.367-1.088.582-1.681.227-.593.469-1.196.727-1.81.205-.497.405-.993.6-1.489.204-.496.382-.975.533-1.439.161-.463.29-.904.387-1.325.097-.42.146-.808.146-1.164 0-.334-.076-.626-.227-.874-.14-.259-.409-.387-.807-.387-.378 0-.782.091-1.213.274-.43.173-.878.41-1.342.711-.463.302-.938.648-1.423 1.036-.474.377-.943.77-1.407 1.18a23.51 23.51 0 0 1-.679.565 2.848 2.848 0 0 1-.647.373 7.68 7.68 0 0 0-.484.986c-.162.4-.324.84-.486 1.326-.161.474-.318.965-.469 1.472-.14.495-.258.958-.355 1.39a7.967 7.967 0 0 0-.13.663 16.884 16.884 0 0 1-.276 1.47c-.053.28-.122.594-.209.94-.054.204-.14.37-.258.5-.119.118-.243.21-.373.275-.13.065-.253.102-.371.113-.119.022-.21.032-.275.032-.41 0-.744-.097-1.002-.29-.26-.195-.389-.572-.389-1.132 0-.151.007-.308.015-.47a2.95 2.95 0 0 1 .098-.566c.237-1.024.464-1.945.68-2.764a51.732 51.732 0 0 1 1.358-4.253l.71-1.875c.248-.636.502-1.288.76-1.956.27-.68.555-1.429.857-2.248.065-.183.232-.334.501-.453a2.1 2.1 0 0 1 .89-.194zm-70.966.55c.313 0 .561.065.744.194.194.12.345.28.453.486.108.205.178.441.21.71.033.26.048.53.048.81 0 .15-.007.318-.015.5-.01.184-.015.33-.015.437.301-.312.619-.63.953-.953a8.322 8.322 0 0 1 1.084-.89c.388-.27.792-.49 1.212-.663a3.58 3.58 0 0 1 1.342-.259c.183 0 .362.018.534.049.183.032.366.076.55.13.215.054.436.129.663.226.237.086.463.21.679.372.355.27.652.609.89 1.019.247.398.37.808.37 1.228 0 .162-.031.34-.096.534a1.99 1.99 0 0 1-.275.517c-.107.151-.237.28-.388.388a.909.909 0 0 1-.501.146c-.183 0-.41-.044-.68-.13a2.08 2.08 0 0 1-.646-.372 1.598 1.598 0 0 1-.243-.274l-.226-.356a4.265 4.265 0 0 0-.194-.323.919.919 0 0 0-.13-.211.94.94 0 0 0-.177-.016.972.972 0 0 0-.178-.015c-.55 0-1.073.14-1.569.42-.496.28-.959.625-1.39 1.035-.43.399-.83.83-1.197 1.293-.356.453-.668.863-.938 1.23a124.59 124.59 0 0 1-.727 2.796c-.258.981-.517 2.011-.776 3.09v.404c0 .323-.01.651-.033.985a2.772 2.772 0 0 1-.193.89c-.12.162-.291.297-.518.404a1.552 1.552 0 0 1-.76.178c-.452 0-.792-.146-1.018-.437a1.702 1.702 0 0 1-.34-1.05c0-.184.027-.373.081-.567.14-.754.301-1.584.484-2.49.184-.905.373-1.822.567-2.749.194-.927.383-1.837.566-2.732.183-.894.339-1.714.468-2.457-.01-.108-.015-.2-.015-.275v-.276a7.83 7.83 0 0 1 .242-1.924c.119-.41.249-.684.389-.824.15-.15.388-.226.71-.226zm93.084.486c.335 0 .652.015.954.048.313.032.603.103.873.21.28.098.54.248.777.453.237.194.452.453.646.776a.915.915 0 0 1 .097.276.835.835 0 0 1 .049.258c0 .086-.028.301-.082.646-.043.335-.107.755-.193 1.262a47.674 47.674 0 0 1-.292 1.681 181.826 181.826 0 0 1-.695 3.735 69.131 69.131 0 0 1-.34 1.634c-.183.851-.414 1.73-.694 2.635-.27.905-.604 1.789-1.003 2.651a15.45 15.45 0 0 1-1.374 2.442 9.623 9.623 0 0 1-1.844 2.005 8.258 8.258 0 0 1-2.376 1.374c-.884.345-1.877.518-2.976.518a.793.793 0 0 1-.29-.065.815.815 0 0 1-.308-.177.989.989 0 0 1-.226-.308.901.901 0 0 1-.097-.436c0-.12.016-.243.048-.373.086-.355.178-.646.275-.873.097-.215.237-.398.42-.549.183-.15.432-.28.744-.388.313-.097.723-.2 1.23-.308.323-.065.624-.14.904-.225.291-.076.529-.173.712-.292a9.426 9.426 0 0 0 1.39-1.504 8.928 8.928 0 0 0 .97-1.617c.27-.55.491-1.115.664-1.697.183-.582.355-1.175.517-1.779.065-.205.119-.414.162-.63.054-.226.118-.48.194-.76-.41.356-.836.71-1.278 1.067a12.41 12.41 0 0 1-1.358.954c-.463.28-.938.512-1.423.695a4.142 4.142 0 0 1-1.423.259c-.28 0-.598-.086-.953-.259a4.484 4.484 0 0 1-.987-.679 4.058 4.058 0 0 1-.792-.97 2.347 2.347 0 0 1-.323-1.18c0-.26.032-.54.096-.842.065-.301.124-.57.178-.807a9.752 9.752 0 0 1 .76-2.07c.334-.669.723-1.304 1.164-1.908.442-.603.927-1.175 1.455-1.714a18.124 18.124 0 0 1 1.65-1.52c.712-.582 1.423-1.003 2.134-1.261a6.573 6.573 0 0 1 2.264-.388zm-73.584.081c.248 0 .523.016.825.048.312.032.593.065.84.097.248-.054.448-.091.599-.113.161-.021.329-.032.501-.032.323 0 .592.043.808.13a1.305 1.305 0 0 1 .793.856c.064.183.097.377.097.582 0 .28-.044.55-.13.809-.086.248-.173.501-.259.76l-2.134 8.52c-.043.464-.08.89-.113 1.278-.032.388-.098.75-.195 1.084-.032.096-.075.22-.128.371-.044.14-.12.28-.227.42-.108.13-.243.243-.405.34-.161.097-.37.146-.63.146-.334 0-.604-.022-.809-.065a1.272 1.272 0 0 1-.452-.178.594.594 0 0 1-.21-.29 1.552 1.552 0 0 1-.048-.405c0-.313.037-.684.112-1.115.076-.442.114-.987.114-1.634-.355.259-.749.566-1.18.922-.431.355-.879.695-1.342 1.018-.464.324-.928.599-1.391.825-.453.216-.879.324-1.277.324-.324 0-.631-.05-.922-.146a2.429 2.429 0 0 1-.744-.388c-.571-.452-.986-.906-1.244-1.359-.248-.452-.373-.98-.373-1.583 0-.27.022-.55.065-.841.054-.291.13-.626.227-1.003a14.097 14.097 0 0 1 2.102-4.721 14.52 14.52 0 0 1 3.719-3.719c.57-.399 1.142-.652 1.713-.76a8.332 8.332 0 0 1 1.698-.178zm41.748.695c.183 0 .361.022.533.065.173.032.323.086.453.162.14.075.248.177.323.306.087.119.13.26.13.42v.115a.389.389 0 0 1-.015.097l-.453 1.713a660.386 660.386 0 0 1-1.552 5.772 508.103 508.103 0 0 0-1.52 5.805 2.827 2.827 0 0 1-.097.243 1.419 1.419 0 0 1-.179.291.989.989 0 0 1-.274.242.738.738 0 0 1-.388.098c-.28 0-.528-.06-.744-.18a1.798 1.798 0 0 1-1.003-1.568v-.145c0-.043.011-.092.033-.145l.469-1.892c.162-.625.356-1.353.582-2.183.226-.83.463-1.708.711-2.635.259-.927.517-1.876.776-2.846.259-.97.502-1.913.728-2.829a.812.812 0 0 1 .113-.21c.065-.109.157-.21.275-.307.12-.108.27-.2.453-.276.183-.075.399-.113.647-.113zm31.74 1.374c-.26 0-.556.086-.89.259-.334.162-.69.377-1.067.647-.366.27-.739.577-1.116.922-.377.334-.732.679-1.067 1.034-.334.345-.641.685-.921 1.019a7.39 7.39 0 0 0-.631.857c-.227.355-.436.717-.63 1.083a5.783 5.783 0 0 0-.454 1.245 22.9 22.9 0 0 0-.097.405c-.021.129-.032.258-.032.387 0 .237.043.443.13.615.086.173.242.259.469.259.355 0 .77-.125 1.245-.373a8.874 8.874 0 0 0 1.439-.97c.485-.387.938-.808 1.358-1.26a7.69 7.69 0 0 0 1.019-1.294c.107-.172.247-.41.42-.712.183-.301.36-.624.533-.97.183-.355.345-.706.485-1.05a3.88 3.88 0 0 0 .26-.938c0-.184-.038-.35-.114-.502a2.919 2.919 0 0 1-.194-.663zm-72.81.243c-.527 0-1.06.103-1.6.307-.528.205-1.04.48-1.536.825s-.97.754-1.423 1.229c-.442.463-.845.964-1.212 1.503a11.483 11.483 0 0 0-.955 1.65 9.873 9.873 0 0 0-.598 1.649c-.043.15-.09.367-.145.647-.043.28-.064.56-.064.84 0 .292.042.555.128.793.087.226.276.34.567.34a2.78 2.78 0 0 0 1.26-.291c.4-.205.771-.448 1.116-.728.464-.378.933-.798 1.407-1.262.485-.474.938-.97 1.358-1.488.432-.517.808-1.044 1.132-1.583.334-.55.577-1.095.728-1.634.086-.313.156-.674.21-1.084.064-.41.097-.776.097-1.099a.894.894 0 0 0-.098-.403c-.064-.14-.188-.211-.371-.211zM267.092 141.2c.485 0 .814.135.987.405.172.258.258.695.258 1.31 0 .452-.042.98-.128 1.583-.076.604-.179 1.24-.308 1.909a50.956 50.956 0 0 1-.404 2.005c-.151.679-.302 1.32-.453 1.924a34.366 34.366 0 0 1-1.196 3.832 45.354 45.354 0 0 1-1.666 3.864 38.03 38.03 0 0 1-1.94 3.541c-.68 1.11-1.363 2.065-2.053 2.862-.237.28-.518.566-.841.857a7.667 7.667 0 0 1-1.052.792 6.251 6.251 0 0 1-1.131.582 2.782 2.782 0 0 1-1.1.243c-.743 0-1.37-.216-1.876-.647-.496-.442-.905-1.024-1.228-1.746a11.89 11.89 0 0 1-.728-2.49 30.746 30.746 0 0 1-.356-2.894 90.533 90.533 0 0 1-1.665 2.393c-.496.7-1.003 1.347-1.52 1.94-.388.442-.824.921-1.31 1.439-.484.506-1.002.976-1.552 1.407a8.609 8.609 0 0 1-1.665 1.083c-.571.291-1.132.437-1.681.437-.636 0-1.17-.113-1.601-.34a2.665 2.665 0 0 1-1.019-.906 4.052 4.052 0 0 1-.566-1.374 8.57 8.57 0 0 1-.162-1.713c0-.712.06-1.446.178-2.2.119-.755.27-1.508.454-2.263.237-.98.544-2.006.921-3.073.388-1.067.792-2.155 1.213-3.265.42-1.11.835-2.237 1.245-3.38.41-1.153.76-2.3 1.05-3.443.076-.28.14-.54.194-.776.054-.238.108-.49.162-.76.13-.28.301-.497.517-.647.226-.151.47-.227.728-.227.237 0 .458.038.663.114.216.075.398.199.55.371.161.162.286.372.372.63.097.259.146.566.146.922 0 .388-.06.83-.179 1.326a149.15 149.15 0 0 1-1.277 3.17 1065.32 1065.32 0 0 0-1.261 3.04 77.18 77.18 0 0 0-1.116 2.941c-.345.97-.64 1.93-.889 2.88-.021.075-.065.24-.13.5-.064.247-.134.55-.21.905-.064.356-.123.74-.177 1.149a8.695 8.695 0 0 0-.081 1.164c0 .259.015.506.048.743.032.226.086.426.161.598a.986.986 0 0 0 .308.405c.13.097.29.146.484.146.41 0 .911-.21 1.504-.63.593-.432 1.235-1.014 1.924-1.747.69-.733 1.396-1.59 2.118-2.572a42.293 42.293 0 0 0 2.135-3.152 44.996 44.996 0 0 0 1.924-3.46 31.221 31.221 0 0 0 1.504-3.51c.097-.204.215-.333.355-.387.14-.064.324-.097.55-.097.42 0 .77.13 1.05.388.292.248.437.572.437.97 0 .097-.01.189-.032.275a3.198 3.198 0 0 1-.096.308l-.227.663c-.172.506-.34.975-.501 1.406-.151.42-.275.819-.372 1.196a23.216 23.216 0 0 0-.55 2.75 21.37 21.37 0 0 0-.097 1.148c-.01.377-.015.759-.015 1.147 0 .15.01.372.032.663.032.291.076.615.13.97.053.346.123.7.21 1.067.096.356.204.685.323.987.13.302.274.55.436.744.173.183.367.274.582.274.334 0 .685-.134 1.052-.404.377-.28.754-.657 1.131-1.131.378-.486.755-1.051 1.133-1.698.388-.647.76-1.342 1.115-2.086.367-.744.711-1.515 1.035-2.313.334-.798.636-1.583.905-2.36.28-.786.523-1.541.727-2.263.216-.733.388-1.402.518-2.006.118-.57.221-1.126.307-1.665l.259-1.617c.086-.539.177-1.078.274-1.617.108-.55.238-1.11.389-1.681.054-.205.135-.415.243-.63a2.74 2.74 0 0 1 .388-.583 2.15 2.15 0 0 1 .517-.437c.184-.119.371-.178.566-.178zm24.917.874c.334 0 .615.059.84.178.227.118.405.28.534.485.14.194.237.42.29.679.055.259.082.528.082.808s-.022.566-.065.857c-.043.28-.09.533-.145.76a75.37 75.37 0 0 1-1.23 4.478 82.565 82.565 0 0 0-1.227 4.528c.42-.399.873-.776 1.358-1.131a10.24 10.24 0 0 1 1.52-.955 8.939 8.939 0 0 1 1.648-.663 6.04 6.04 0 0 1 1.682-.242c.593 0 1.105.086 1.536.259.431.172.787.409 1.067.71.28.292.485.643.614 1.052.14.41.211.851.211 1.325 0 .227-.017.465-.049.712a4.89 4.89 0 0 1-.113.695c-.28 1.122-.678 2.124-1.196 3.008a12.642 12.642 0 0 1-1.746 2.377 13.747 13.747 0 0 1-2.118 1.843 23.62 23.62 0 0 1-2.296 1.422c-.507.27-.998.48-1.472.631-.464.14-.921.21-1.374.21-.442 0-.782-.042-1.019-.129a1.952 1.952 0 0 1-.614-.42 2.426 2.426 0 0 1-.21.34 1.679 1.679 0 0 1-.291.339 1.348 1.348 0 0 1-.405.243c-.15.064-.323.096-.517.096-.614 0-1.051-.15-1.31-.452-.259-.313-.387-.728-.387-1.245 0-.183.01-.367.031-.55a4.8 4.8 0 0 1 .13-.566l.695-2.78c.216-.874.464-1.823.744-2.847.28-1.035.571-2.085.873-3.152.302-1.078.599-2.145.89-3.202.302-1.056.576-2.054.824-2.992.248-.937.458-1.784.63-2.538.184-.755.308-1.364.372-1.827l.178-1.31c.032-.097.065-.205.097-.323a1.19 1.19 0 0 1 .179-.324c.075-.108.172-.199.29-.274a.916.916 0 0 1 .47-.113zm31.367 2.424c.108 0 .216.039.324.114.118.076.22.157.307.243.108.108.21.226.307.355.27.022.442.118.517.291.086.173.13.378.13.615 0 .173-.018.328-.049.469-.032.14-.06.253-.081.34a1.528 1.528 0 0 1-.371.63 3.152 3.152 0 0 1-.63.484c-.238.13-.486.233-.745.308a2.464 2.464 0 0 1-.679.113c-.248 0-.442-.043-.582-.129-.13-.086-.296-.27-.501-.55-.119-.162-.19-.285-.21-.372a2.34 2.34 0 0 1 0-.55c.02-.097.043-.188.064-.275.054-.226.152-.501.292-.824.14-.324.387-.614.743-.873.172-.097.383-.183.63-.259.249-.086.426-.13.534-.13zm8.845.486c.29 0 .539.059.744.178.204.118.371.275.5.469.13.194.227.415.291.663.065.248.097.495.097.743 0 .27-.027.512-.08.728l-1.181 4.528c.582-.098 1.1-.19 1.553-.276l1.358-.259c.496-.097.921-.188 1.277-.274.366-.086.679-.156.938-.21.258-.065.474-.113.647-.146.183-.043.333-.065.452-.065.172 0 .345.018.517.05.183.02.34.063.47.128.14.065.253.157.34.276a.777.777 0 0 1 .128.468c0 .259-.054.49-.162.695a1.81 1.81 0 0 1-.387.517c-.162.14-.346.26-.55.357-.205.086-.41.15-.615.193-.172.033-.398.082-.679.146a133.232 133.232 0 0 0-1.924.452c-.356.087-.7.173-1.034.26a78.4 78.4 0 0 1-1.278.323 12.834 12.834 0 0 1-1.504.29c-.15.022-.274.033-.371.033a26.078 26.078 0 0 0-.534 1.81 39 39 0 0 0-.388 1.666c-.097.507-.172.965-.226 1.374a9.264 9.264 0 0 0-.065.938c0 .291.027.571.08.84.054.26.146.486.275.68.13.194.303.35.518.47.227.107.507.16.841.16.572 0 1.131-.156 1.68-.468a7.977 7.977 0 0 0 1.57-1.18c.506-.486.98-1.013 1.423-1.585a51.4 51.4 0 0 0 1.245-1.633c.13-.194.296-.29.501-.29.065 0 .14.01.226.031a.87.87 0 0 1 .276.113.654.654 0 0 1 .21.21.498.498 0 0 1 .096.308c0 .086-.007.15-.015.194a9.001 9.001 0 0 1-.81 2.021c-.355.668-.721 1.342-1.099 2.021-.129.237-.301.469-.517.695a7.941 7.941 0 0 1-.679.663 14.73 14.73 0 0 1-.776.598c-.27.184-.523.35-.76.502-.41.258-.857.436-1.342.533a7.181 7.181 0 0 1-1.407.146c-.7 0-1.326-.124-1.875-.372a4.242 4.242 0 0 1-1.374-1.035 4.714 4.714 0 0 1-.841-1.536 5.893 5.893 0 0 1-.29-1.876c0-.905.1-1.843.306-2.813.205-.98.42-1.92.647-2.814a3.993 3.993 0 0 1-.857-.129 3.472 3.472 0 0 1-.793-.307 1.955 1.955 0 0 1-.582-.47 1.048 1.048 0 0 1-.226-.662c0-.096.021-.221.064-.372.043-.15.103-.296.179-.436a1.2 1.2 0 0 1 .322-.372.666.666 0 0 1 .438-.162h2.166c.205 0 .345-.086.42-.258.076-.183.135-.362.178-.535.14-.625.27-1.163.388-1.616.13-.464.238-.852.324-1.165.086-.323.15-.581.194-.776.054-.204.08-.366.08-.485 0-.14-.007-.274-.015-.403a7.088 7.088 0 0 1-.015-.535v-.161c0-.087.007-.2.015-.34.021-.14.076-.34.162-.598a1.52 1.52 0 0 1 .355-.582c.173-.183.426-.275.76-.275zm-20.568 5.53c.324 0 .675.015 1.052.048a3.82 3.82 0 0 1 1.035.227c.312.118.57.296.775.533.216.226.324.534.324.922 0 .118-.017.275-.049.469a2.93 2.93 0 0 1-.16.582 2.017 2.017 0 0 1-.276.501c-.108.14-.237.21-.388.21-.248 0-.453-.049-.615-.146a3.446 3.446 0 0 1-.436-.306 3.768 3.768 0 0 0-.405-.324.886.886 0 0 0-.517-.146c-.248 0-.538.049-.873.146-.323.086-.657.21-1.002.372-.345.15-.685.33-1.019.534a9.9 9.9 0 0 0-.889.63 3.92 3.92 0 0 0-.63.647c-.162.205-.243.393-.243.565 0 .184.059.335.177.454.12.118.27.22.454.306.237.13.506.26.808.389l.937.388c.313.13.615.258.906.388.302.129.56.247.776.355.291.151.55.303.776.454.237.14.437.295.6.468.16.172.284.366.37.582.087.216.13.469.13.76 0 .14-.011.28-.032.42-.022.14-.054.302-.097.486-.032.161-.092.35-.178.566-.076.216-.162.43-.259.646a5.513 5.513 0 0 1-.274.566 1.36 1.36 0 0 1-.243.324c-.42.388-.917.754-1.488 1.1-.571.333-1.17.63-1.794.888-.615.248-1.235.448-1.86.6-.614.15-1.18.225-1.697.225-.26 0-.546-.049-.858-.146a4.608 4.608 0 0 1-.873-.403 3.168 3.168 0 0 1-.663-.582c-.173-.216-.259-.432-.259-.648 0-.107.033-.226.097-.355.065-.14.146-.264.243-.371.097-.12.2-.217.307-.292a.568.568 0 0 1 .324-.129c.086 0 .16.01.226.032.075.022.156.048.242.081.086.021.184.043.292.065.108.022.248.032.42.032.507 0 1.068-.054 1.682-.162a13.622 13.622 0 0 0 1.761-.42 7.594 7.594 0 0 0 1.407-.582c.4-.227.626-.458.68-.695.032-.13.048-.243.048-.34 0-.183-.092-.355-.275-.517a3.003 3.003 0 0 0-.662-.486 8.216 8.216 0 0 0-.874-.42 81.16 81.16 0 0 0-.873-.355l-.55-.227a6.36 6.36 0 0 1-.824-.388 5.46 5.46 0 0 1-.76-.55 3.947 3.947 0 0 1-.615-.71 3.289 3.289 0 0 1-.387-.955 6.912 6.912 0 0 1-.114-.453 3.464 3.464 0 0 1-.032-.485c0-.28.091-.598.274-.954.194-.366.448-.728.76-1.083a9.807 9.807 0 0 1 1.084-1.019c.41-.323.835-.593 1.277-.809.323-.226.636-.43.938-.614.301-.183.604-.339.905-.468.313-.13.625-.232.938-.308a4.478 4.478 0 0 1 1.019-.113zm55.945 0c.323 0 .674.015 1.051.048a3.82 3.82 0 0 1 1.035.227c.313.118.571.296.776.533.215.226.323.534.323.922 0 .118-.017.275-.048.469a2.949 2.949 0 0 1-.162.582 2.017 2.017 0 0 1-.275.501c-.108.14-.236.21-.387.21-.248 0-.454-.049-.615-.146a3.446 3.446 0 0 1-.437-.306 3.767 3.767 0 0 0-.404-.324.886.886 0 0 0-.517-.146c-.248 0-.54.049-.873.146-.324.086-.658.21-1.003.372a8.37 8.37 0 0 0-1.908 1.164 3.911 3.911 0 0 0-.63.647c-.162.205-.243.393-.243.565 0 .184.06.335.178.454.119.118.269.22.452.306.237.13.507.26.81.389l.937.388c.312.13.614.258.906.388.301.129.56.247.775.355.291.151.55.303.776.454.237.14.437.295.599.468.161.172.286.366.372.582.086.216.129.469.129.76 0 .14-.01.28-.032.42-.021.14-.054.302-.097.486-.032.161-.091.35-.178.566-.075.216-.161.43-.258.646a5.547 5.547 0 0 1-.276.566 1.36 1.36 0 0 1-.243.324c-.42.388-.915.754-1.486 1.1-.572.333-1.17.63-1.795.888-.614.248-1.234.448-1.86.6a7.16 7.16 0 0 1-1.698.225c-.259 0-.544-.049-.857-.146a4.61 4.61 0 0 1-.872-.403 3.17 3.17 0 0 1-.664-.582c-.172-.216-.258-.432-.258-.648 0-.107.032-.226.097-.355.064-.14.145-.264.242-.371.097-.12.2-.217.308-.292a.566.566 0 0 1 .322-.129c.087 0 .162.01.227.032.075.022.156.048.243.081.086.021.183.043.29.065.108.022.248.032.42.032.507 0 1.068-.054 1.682-.162a13.636 13.636 0 0 0 1.763-.42 7.594 7.594 0 0 0 1.407-.582c.399-.227.625-.458.679-.695.032-.13.049-.243.049-.34 0-.183-.093-.355-.276-.517a3.015 3.015 0 0 0-.663-.486c-.27-.15-.56-.29-.873-.42-.312-.13-.603-.248-.872-.355l-.55-.227a6.374 6.374 0 0 1-.826-.388 5.457 5.457 0 0 1-.76-.55 3.942 3.942 0 0 1-.614-.71 3.287 3.287 0 0 1-.387-.955 6.912 6.912 0 0 1-.114-.453 3.42 3.42 0 0 1-.032-.485c0-.28.092-.598.275-.954.194-.366.447-.728.76-1.083a9.808 9.808 0 0 1 1.083-1.019c.41-.323.835-.593 1.277-.809.324-.226.636-.43.938-.614a7.25 7.25 0 0 1 .906-.468c.312-.13.625-.232.938-.308a4.478 4.478 0 0 1 1.018-.113zm-89.09 1.342c.625 0 1.17.075 1.633.226.463.15.846.361 1.148.63.302.27.528.593.68.97.15.367.225.766.225 1.197 0 .366-.048.717-.145 1.051a3.641 3.641 0 0 1-.84 1.585 6.64 6.64 0 0 1-1.457 1.196 9.3 9.3 0 0 1-1.81.841c-.647.227-1.299.415-1.956.565-.647.151-1.272.27-1.876.357-.603.075-1.127.135-1.568.178a3.684 3.684 0 0 0-.356 1.6c0 .626.248 1.11.744 1.455s1.18.518 2.053.518a6.4 6.4 0 0 0 1.455-.162c.464-.119.9-.264 1.31-.436.42-.184.814-.378 1.18-.583.367-.215.7-.425 1.002-.63.388-.258.755-.474 1.1-.647.355-.183.669-.274.938-.274.27 0 .442.07.518.21.075.129.112.269.112.42 0 .086-.007.172-.015.258 0 .076-.007.141-.015.195-.054.28-.162.56-.324.84-.162.281-.366.523-.614.728-1.121.884-2.274 1.515-3.46 1.892-1.175.378-2.431.565-3.768.565-.259 0-.566-.015-.922-.048a6.96 6.96 0 0 1-1.083-.194 5.614 5.614 0 0 1-1.116-.42 3.595 3.595 0 0 1-.986-.728 3.704 3.704 0 0 1-.695-1.115c-.172-.442-.259-.976-.259-1.6 0-.508.07-1.073.21-1.698a.775.775 0 0 1-.403-.211c-.12-.13-.178-.312-.178-.55 0-.463.123-.856.371-1.18.248-.323.577-.54.987-.647.119-.237.301-.555.549-.954.248-.41.555-.851.922-1.326.366-.474.781-.948 1.245-1.423.474-.485.991-.922 1.552-1.31a8.49 8.49 0 0 1 1.827-.97 5.863 5.863 0 0 1 2.086-.37zm73.665 0c.625 0 1.17.075 1.633.226.464.15.846.361 1.148.63.301.27.528.593.679.97.15.367.226.766.226 1.197 0 .366-.048.717-.145 1.051a3.64 3.64 0 0 1-.841 1.585c-.41.453-.895.852-1.455 1.196a9.3 9.3 0 0 1-1.81.841c-.647.227-1.3.415-1.958.565-.647.151-1.272.27-1.875.357-.604.075-1.126.135-1.568.178a3.682 3.682 0 0 0-.259.744 3.942 3.942 0 0 0-.097.857c0 .625.248 1.11.743 1.454.496.345 1.181.518 2.055.518a6.4 6.4 0 0 0 1.455-.162c.463-.119.9-.264 1.309-.436.42-.184.814-.378 1.18-.583.367-.215.7-.425 1.003-.63.388-.258.754-.474 1.1-.647.355-.183.667-.274.937-.274s.442.07.517.21c.075.129.114.269.114.42 0 .086-.007.172-.015.258 0 .076-.007.141-.018.195a2.7 2.7 0 0 1-.322.84c-.162.281-.368.523-.616.728-1.12.884-2.274 1.515-3.46 1.892-1.175.378-2.43.565-3.766.565-.26 0-.566-.015-.922-.048a6.96 6.96 0 0 1-1.084-.194 5.613 5.613 0 0 1-1.115-.42 3.595 3.595 0 0 1-.987-.728 3.703 3.703 0 0 1-.695-1.115c-.172-.442-.258-.976-.258-1.6 0-.508.07-1.073.21-1.698a.778.778 0 0 1-.405-.211c-.119-.13-.178-.312-.178-.55 0-.463.125-.856.373-1.18.248-.323.576-.54.985-.647.119-.237.303-.555.55-.954.248-.41.556-.851.922-1.326.367-.474.782-.948 1.245-1.423a10.62 10.62 0 0 1 1.552-1.31 8.49 8.49 0 0 1 1.828-.97 5.858 5.858 0 0 1 2.085-.37zm-30.931.064c.183 0 .36.022.533.065.173.032.324.086.454.162.14.075.247.178.322.307.086.119.13.259.13.42v.113a.388.388 0 0 1-.015.097l-.454 1.714a660.572 660.572 0 0 1-1.551 5.773 509.309 509.309 0 0 0-1.52 5.804 2.831 2.831 0 0 1-.097.242 1.406 1.406 0 0 1-.178.292.992.992 0 0 1-.276.242.738.738 0 0 1-.387.097c-.28 0-.528-.059-.744-.178a1.803 1.803 0 0 1-.889-.987 1.684 1.684 0 0 1-.114-.581v-.145c0-.043.01-.092.033-.146l.469-1.892c.161-.625.355-1.352.582-2.182.226-.83.463-1.71.71-2.636.26-.927.519-1.875.778-2.845.258-.97.5-1.914.727-2.83a.825.825 0 0 1 .113-.21c.065-.108.157-.21.275-.308.119-.108.27-.199.452-.274.184-.076.4-.114.648-.114zm-43.22 2.474c-.474 0-.943.124-1.406.372-.453.248-.884.56-1.293.938a8 8 0 0 0-1.068 1.196c-.313.42-.554.803-.727 1.148a16.618 16.618 0 0 0 2.134-.307 9.059 9.059 0 0 0 1.682-.55c.485-.226.873-.474 1.164-.743.302-.28.496-.578.582-.89a.39.39 0 0 0 .032-.145v-.146c0-.29-.108-.507-.323-.647a1.318 1.318 0 0 0-.776-.225zm18.724 0c-.506 0-1.062.13-1.665.388-.593.259-1.191.582-1.795.97a19.57 19.57 0 0 0-1.746 1.229c-.56.43-1.057.82-1.488 1.164-.13.442-.258.868-.388 1.277-.129.41-.259.825-.388 1.246-.119.42-.232.85-.34 1.293-.097.442-.183.911-.258 1.407l-.097.63.097.292c.226-.13.43-.227.614-.292.194-.065.378-.118.55-.16.183-.055.372-.109.566-.163a5.92 5.92 0 0 0 .646-.226c1.693-.68 3.11-1.59 4.253-2.732 1.154-1.143 1.94-2.55 2.361-4.22.054-.238.097-.448.129-.632.032-.183.049-.35.049-.5 0-.324-.086-.566-.259-.728-.172-.162-.453-.243-.84-.243zm54.942 0c-.474 0-.943.124-1.407.372-.452.248-.883.56-1.293.938a7.999 7.999 0 0 0-1.067 1.196c-.313.42-.556.803-.728 1.148a16.634 16.634 0 0 0 2.135-.307 9.059 9.059 0 0 0 1.681-.55c.485-.226.873-.474 1.164-.743.301-.28.496-.578.582-.89a.393.393 0 0 0 .033-.145v-.146c0-.29-.108-.507-.324-.647a1.318 1.318 0 0 0-.776-.225z" class="circles" id="circle919" fill="url(#radialGradient931)" stroke-width=".456" stroke-linecap="round" stroke-linejoin="round"/><path d="M315.935 269.06l10.76 4.809-.844 1.525 11.273 8.195c13.58-14.2 31.132-27.89 29.987-43.988l-14.32-7.513-1.014 1.864-5.512-5.494-.428-3.301 3.477 3.465c1.98-1.127 3.693-2.453 3.886-4.916l-12.97-10.732c8.145 15.454 5.091 49.752-28.02 56.77l-12.447-1.251 17.543 11.233c2.69-1.3 3.448-3.34 3.208-5.763l-7.88-4.136z" id="chair" stroke="#670dff" stroke-width=".242"/><path d="M308.367 204.507l-30.6 31.374-21.027-19.948-.341-1.354-14.232-5.396 40.572-42.057 4.09 15.91 1.863.505z" id="laptop" fill="none" stroke="#670dff" stroke-width=".242"/><path d="M260.799 212.88l-1.527-1.522-2.874 2.883-13.046-4.89 39.05-41.209 4.257 15.064-3.381 3.392 1.526 1.182z" id="screen" fill="#0db5ff" fill-opacity=".08" stroke="#670dff" stroke-width=".242"/><g id="keyboard" transform="matrix(.64536 -.6474 .6474 .64536 60.677 201.724)" fill="none" fill-opacity=".08" stroke="#002bff"><path id="path871" d="M146.65 166.12h2.178" stroke-width="1.323"/><path id="path873" d="M149.433 166.08h2.017" stroke-width="1.323"/><path id="path875" d="M152.135 166.08l1.856-.04" stroke-width="1.323"/><path id="path877" d="M154.636 166.04h2.178" stroke-width="1.323"/><path id="path879" d="M157.46 165.959l2.056-.04" stroke-width="1.323"/><path id="path881" d="M160.081 165.918l2.057-.08" stroke-width="1.323"/><path id="path883" d="M162.703 165.878h2.178" stroke-width="1.323"/><path id="path885" d="M165.566 165.838l2.098-.04" stroke-width="1.323"/><path id="path887" d="M168.067 165.797l2.017.04" stroke-width="1.323"/><path id="path889" d="M170.97 165.676l1.735.04" stroke-width="1.323"/><path id="path891" d="M173.471 165.676h1.856" stroke-width="1.323"/><path id="path893" d="M176.093 165.636h2.138" stroke-width="1.323"/><path id="path895" d="M178.715 165.676h2.016" stroke-width="1.323"/><path id="path897" d="M181.296 165.676l2.259.04" stroke-width="1.323"/><path d="M146.489 168.625h2.178" id="path843" stroke-width="1.323"/><path d="M149.272 168.585h2.016" id="path845" stroke-width="1.323"/><path d="M151.974 168.585l1.855-.04" id="path847" stroke-width="1.323"/><path d="M154.475 168.545h2.178" id="path849" stroke-width="1.323"/><path d="M157.137 168.464l2.057-.04" id="path851" stroke-width="1.323"/><path d="M159.637 168.424l2.057-.08" id="path853" stroke-width="1.323"/><path d="M162.178 168.383h2.178" id="path855" stroke-width="1.323"/><path d="M164.8 168.343l2.097-.04" id="path857" stroke-width="1.323"/><path d="M167.26 168.303l2.017.04" id="path859" stroke-width="1.323"/><path d="M170.285 168.222l1.734.04" id="path861" stroke-width="1.323"/><path d="M172.463 168.343h1.855" id="path863" stroke-width="1.323"/><path d="M175.085 168.262h2.137" id="path865" stroke-width="1.323"/><path d="M177.747 168.222h2.016" id="path867" stroke-width="1.323"/><path id="path869" d="M146.73 170.597h3.187" stroke-width="1.6"/><path id="path872" d="M150.522 170.557h2.017" stroke-width="1.323"/><path id="path874" d="M153.224 170.557l1.856-.04" stroke-width="1.323"/><path id="path876" d="M155.725 170.516h2.178" stroke-width="1.323"/><path id="path878" d="M158.266 170.516l2.057-.04" stroke-width="1.323"/><path id="path880" d="M160.928 170.436l2.057-.081" stroke-width="1.323"/><path id="path882" d="M163.59 170.395h2.178" stroke-width="1.323"/><path id="path884" d="M166.05 170.315l2.098-.04" stroke-width="1.323"/><path id="path886" d="M168.833 170.315l2.017.04" stroke-width="1.323"/><path id="path888" d="M171.455 170.153l1.734.04" stroke-width="1.323"/><path id="path890" d="M173.834 170.153h1.856" stroke-width="1.323"/><path id="path892" d="M176.335 170.113h2.138" stroke-width="1.323"/><path id="path894" d="M178.997 170.194h2.017" stroke-width="1.323"/><path d="M146.932 173.138h2.178" id="path896" stroke-width="1.323"/><path d="M149.957 173.098h2.017" id="path898" stroke-width="1.323"/><path d="M152.498 173.057l1.856-.04" id="path900" stroke-width="1.323"/><path d="M155.16 172.977h2.178" id="path902" stroke-width="1.323"/><path d="M158.629 172.896l2.057-.04" id="path904" stroke-width="1.323"/><path d="M161.331 172.896l2.057-.08" id="path906" stroke-width="1.323"/><path d="M163.872 172.856h2.178" id="path908" stroke-width="1.323"/><path d="M166.534 172.815l2.098-.04" id="path910" stroke-width="1.323"/><path d="M169.519 172.775l2.016.04" id="path912" stroke-width="1.323"/><path d="M177.061 172.493l1.734.04" id="path914" stroke-width="1.323"/><path d="M179.723 172.493h1.855" id="path916" stroke-width="1.323"/><path d="M159.92 175.437h2.137" id="path918" stroke-width="1.323"/><path d="M162.945 175.397h2.016" id="path920" stroke-width="1.323"/><path id="path922" d="M165.607 175.276h2.016" stroke-width="1.323"/><path id="path926" d="M156.002 178.346l18.978-.243" stroke-width="2.117"/><path id="path928" d="M180.17 167.762h3.407" stroke-width="2.117"/><path id="path936" d="M181.306 170.195l1.582.04v3.123" stroke-width="1.852"/></g><path d="M278.847 251.39c-.995 7.526-3.194-23.264-3.774-23.775-.793-.696-2.288-2.547-4.193-5.27-1.288-1.838-2.708-.95-3.824-1.813-.75-.58-1.238-1.435-1.823-2.18a51.552 51.552 0 0 1-1.003-1.363c-.385-.524.662-.794.91-.547l2.368 2.361c.726.724 3.102.964 2.456.087 0 0-1.653-1.654-2.005-2.726-.133-.403.33-1.659.734-1.79.874-.287 2.716 3.456 2.716 3.059 0-.644-2.713-4.23-2.455-4.818.28-.64 1.033-1.108 1.727-1.186.324-.036 3.11 4.69 3.017 4.376-.031-.103-3.246-5.494-.746-6.108.522-.128 1.332-.04 1.547.453.163.373-.773.756-.544 1.092.62.913 1.341 1.913 1.733 3 .664 1.84 2.824 2.633 2.824 2.633.355.077-1.464-2.746-1.464-2.746s-.727-.936-.998-1.526c-.217-.468-.267-1.171.088-1.546.189-.2.562-.19.819-.092.803.303 1.262 1.188 1.731 1.907.98 1.5 1.508 3.253 2.191 4.909.557 1.348 1.4 2.64 1.553 4.091.085.793-.36 2.366-.36 2.366-1.257 8.259 10.646 22.643 6.577 22.013-2.796-.432-9.334 2.92-9.537 3.88z" id="left_arm" fill="#fea" stroke="#670dff" stroke-width=".242"/><path d="M325.545 213.537c-7.807-.198-15.62-3.68-23.43-5.527-3.048-.136-4.711-.077-5.22.146 0 0-4.593 1.55-6.934 1.316-1.502-.151-2.715-1.406-4.193-1.71-1.054-.219-2.386.606-3.228-.065-.295-.235-.416-.748-.276-1.098.322-.802 1.34-1.255 2.195-1.377 1.579-.227 2.19.82 4.604 1.297 1.065.21-1.842-1.214-2.887-1.506-1.326-.371-2.75-.143-4.121-.268-.574-.053-1.277.168-1.718-.204-.31-.261-.516-.799-.345-1.167.337-.725 1.418-.781 2.196-.965 1.406-.331 4.666 1.19 4.327-.213-.208-.86-3.083-.399-3.78-1.024-.304-.274-.689.521-1.097.551-.361.026-.801-.063-1.031-.342a1.113 1.113 0 0 1-.14-1.099c.323-.69 1.178-1.074 1.922-1.239 1.625-.36 3.37 1.211 4.946.68.277-.094.425-.15.172-.006-1.38.781-2.645-.259-3.813-.882-.89-.475-2.048.405-3.022.142-.448-.12-1.185-.29-1.169-.754.028-.809 1.358-.92 2.128-1.17.855-.28 1.83-.044 2.678-.348 1.606-.577 4.275 2.135 4.437 1.108 0 0-3.886-.656-5.675-1.656-.282-.159-.809-.385-.687-.686.609-1.507 3.292-.443 4.876-.076 1.027.239 1.884.948 2.818 1.438a581.277 581.277 0 0 1 5.98 3.219l2.269.889 1.648-.14 1.65.821c9.286.02 19.002-1.365 27.407 1.537-5.203 3.796-5.419 8.148-3.487 10.377z" id="right_arm" fill="#fea" stroke="#670dff" stroke-width=".242"/><path d="M286.467 264.548l-4.75-5.75-1.868-3.214-1.016.34c-.507-1.917-.792-3.891.052-6.15 2.632-2.508 6.62-3.366 10.77-4.026l1.701 5.416 3.896 1.179 2.876-1.867.84-3.896 3.042-4.069c3.244.424 7.47 5.238 11.353 5.231 0 0 3.506.204 5.308-.456 2.633-.966 4.53-3.049 5.785-5.556 1.241-2.477 2.073-5.578.688-7.978-1.679-2.908-5.035-8.37-4.956-8.45l5.321-6.365-.285-5.335-1.207-3.315c.702-2.95 1.791-5.631 4.694-7.062-1.441-.719 3.193.835 5.536 1.533l3.044 3.258 2.256 4.272 2.145 4.16 3.614 8.77-.332 3.714.57 4.387-1.458 2.815.795 4.612-4.593 12.946-11.009 11.27-6.072 2.484-12.597 2.495-3.715-.782c-3.62 1.53-6.996-.67-10.466-1.446l-5.853-1.34c-1.257-.6-.883-1.077-4.11-1.825z" id="shirt" fill="#220ceb" stroke="#670dff" stroke-width=".242"/><path id="ear" d="M308.298 247.36c-.31.104-3.84-1.537-3.526-1.852.038-.036.545-1.835 1.942-.88 1.945 1.453 2.115 2.554 1.584 2.732z" fill="#fea" stroke="#000" stroke-width=".242"/><path d="M305.937 244.754c-1.505-.5-9.873-5.162-9.876-7.223 0-.597.318-1.382.317-1.986 0-.227-1.456-.446-1.474-.446-.693 0-1.601-1.974-1.669-2.175-.478-1.427.445-2.64.443-3.78-.005-2.944-2.322-2.675.695-5.702 2.243-2.25 3.485-5.898 6.909-5.904 3.005-.005 20.89 5.514 20.898 10.856.001.86 1.733 1.8 1.734 2.752.001.776 1.668 1.709 1.67 2.56.003 2.076.39 3.78.393 6.02.033 3.757-5.913 8.85-9.466 8.342-3.357.504-4.965-.647-7.85-1.43" id="head" stroke="#000" stroke-width=".242"/></g>

<style>
    #keyboard {
      opacity: 0;
      animation: opacity 3s linear forwards;
      animation-delay: 3s;
    }

    #left_arm {
      fill-opacity: 0;
      stroke-dasharray: 160;
      stroke-dashoffset: 160;
      animation: dash 5s linear forwards, fill-in 3s linear 2s forwards;
    }
    #right_arm {
      fill-opacity: 0;
      stroke-dasharray: 190;
      stroke-dashoffset: 190;
      animation: dash 5s linear forwards, fill-in 3s linear 2s forwards;
    }
    #shirt {
      fill-opacity: 0;
      stroke-dasharray: 265;
      stroke-dashoffset: 265;
      animation: dash 5s linear forwards, fill-in 3s linear 3s forwards;
    }
    #head {
      fill-opacity: 0;
      stroke-dasharray: 115;
      stroke-dashoffset: 115;
      animation: dash 5s linear forwards, fill-in 3s linear 3s forwards;
    }
    #ear {
      fill-opacity: 0;
      stroke-dasharray: 15;
      stroke-dashoffset: 15;
      animation: dash 5s linear forwards, fill-in 3s linear 3s forwards;
    }
    #chair {
      fill-opacity: 0;
      stroke-dasharray: 295;
      stroke-dashoffset: 295;
      animation: dash 5s linear forwards, fill-in 3s linear 3s forwards;
    }
    #laptop {
      stroke-dasharray: 215;
      stroke-dashoffset: 215;
      animation: dash 5s linear forwards;
    }
    #screen {
      fill-opacity: 0;
      stroke-dasharray: 150;
      stroke-dashoffset: 150;
      animation: dash 5s linear forwards, fill-in 3s linear 3s forwards;
    }
    .circles{
      fill-opacity: 0;
      animation: fill-in 3s linear 3s forwards;
    }
    @keyframes dash {
      to {
        stroke-dashoffset: 0;
      }
    }
    @keyframes opacity {
      to {
        opacity: 1;
      }
    }
    @keyframes fill-in {
      to {
        fill-opacity: 1;
      }
    }
  </style>

</svg>

